<svg xmlns="http://www.w3.org/2000/svg" width="210mm" height="279mm" viewBox="0 0 210 279">
<rect x="0" y="0" width="210" height="279" fill="white"/>
<text x="105.000" y="12.000" font-family="Helvetica, Arial, sans-serif" font-size="5" font-weight="bold" text-anchor="middle" fill="black">Plug Puller — Heavy-duty extension cord (NEMA 5-15) · Small</text>
<text x="105.000" y="17.500" font-family="Helvetica, Arial, sans-serif" font-size="2.8" font-weight="normal" text-anchor="middle" fill="black">1:1 outline sheet — print at 100% scale / “Actual size”, never “fit to page”. Check the calibration square before trusting anything.</text>
<rect x="14" y="22" width="50" height="50" fill="none" stroke="black" stroke-width="0.4"/>
<text x="39.000" y="45.500" font-family="Helvetica, Arial, sans-serif" font-size="3.4" font-weight="bold" text-anchor="middle" fill="black">CALIBRATION</text>
<text x="39.000" y="50.500" font-family="Helvetica, Arial, sans-serif" font-size="3.4" font-weight="normal" text-anchor="middle" fill="black">50 × 50 mm</text>
<text x="39.000" y="56.500" font-family="Helvetica, Arial, sans-serif" font-size="2.6" font-weight="normal" text-anchor="middle" fill="#444444">Measure me with a ruler.</text>
<text x="39.000" y="60.500" font-family="Helvetica, Arial, sans-serif" font-size="2.6" font-weight="normal" text-anchor="middle" fill="#444444">Not 50 mm? Re-print at 100%.</text>
<rect x="70" y="22" width="126" height="50" fill="none" stroke="black" stroke-width="0.3"/>
<text x="73.000" y="27.000" font-family="Helvetica, Arial, sans-serif" font-size="3.4" font-weight="bold" text-anchor="start" fill="black">Heavy-duty extension cord</text>
<text x="73.000" y="31.600" font-family="Helvetica, Arial, sans-serif" font-size="2.8" font-weight="normal" text-anchor="start" fill="black">Flat tool · Small hand size</text>
<text x="73.000" y="35.400" font-family="Helvetica, Arial, sans-serif" font-size="2.8" font-weight="normal" text-anchor="start" fill="black">Printed footprint ≈ 64.35 × 92.95 mm</text>
<text x="73.000" y="40.000" font-family="Helvetica, Arial, sans-serif" font-size="2.6" font-weight="normal" text-anchor="start" fill="#333333">Customizer settings for this exact tool:</text>
<text x="73.000" y="43.400" font-family="Helvetica, Arial, sans-serif" font-size="2.6" font-weight="normal" text-anchor="start" fill="#333333">  tool_style = Flat tool</text>
<text x="73.000" y="46.800" font-family="Helvetica, Arial, sans-serif" font-size="2.6" font-weight="normal" text-anchor="start" fill="#333333">  plug_preset =</text>
<text x="73.000" y="50.200" font-family="Helvetica, Arial, sans-serif" font-size="2.6" font-weight="normal" text-anchor="start" fill="#333333">      Heavy-duty extension cord - NEMA 5-15</text>
<text x="73.000" y="53.600" font-family="Helvetica, Arial, sans-serif" font-size="2.6" font-weight="normal" text-anchor="start" fill="#333333">  size = Small</text>
<text x="73.000" y="57.000" font-family="Helvetica, Arial, sans-serif" font-size="2.6" font-weight="normal" text-anchor="start" fill="#333333">  (everything else at its default)</text>
<text x="133.000" y="27.000" font-family="Helvetica, Arial, sans-serif" font-size="2.8" font-weight="bold" text-anchor="start" fill="black">Key dimensions</text>
<text x="133.000" y="31.000" font-family="Helvetica, Arial, sans-serif" font-size="2.6" font-weight="normal" text-anchor="start" fill="black">Body thickness: 5.4 mm (this sheet is 2D)</text>
<text x="133.000" y="34.500" font-family="Helvetica, Arial, sans-serif" font-size="2.6" font-weight="normal" text-anchor="start" fill="black">Finger holes: Ø21.9, 29.5 apart</text>
<text x="133.000" y="38.000" font-family="Helvetica, Arial, sans-serif" font-size="2.6" font-weight="normal" text-anchor="start" fill="black">Pocket: 32.5 wide × 43.8 deep</text>
<text x="133.000" y="41.500" font-family="Helvetica, Arial, sans-serif" font-size="2.6" font-weight="normal" text-anchor="start" fill="black">Wall notch: 27.47 wide × 3.81 deep</text>
<text x="133.000" y="45.000" font-family="Helvetica, Arial, sans-serif" font-size="2.6" font-weight="normal" text-anchor="start" fill="black">Zip holes: 4 × Ø5.08, rows 17.78 apart</text>
<text x="133.000" y="48.500" font-family="Helvetica, Arial, sans-serif" font-size="2.6" font-weight="normal" text-anchor="start" fill="black">J-hook cord gap: 8.96 mm</text>
<line x1="14.000" y1="248.000" x2="196.000" y2="248.000" stroke="#888888" stroke-width="0.2"/>
<text x="14.000" y="252.500" font-family="Helvetica, Arial, sans-serif" font-size="3.2" font-weight="bold" text-anchor="start" fill="black">How to use this sheet</text>
<text x="14.000" y="256.500" font-family="Helvetica, Arial, sans-serif" font-size="2.7" font-weight="normal" text-anchor="start" fill="black">1. Print at 100% and measure the calibration square — it must be exactly 50 × 50 mm.</text>
<text x="14.000" y="260.100" font-family="Helvetica, Arial, sans-serif" font-size="2.7" font-weight="normal" text-anchor="start" fill="black">2. Cut along the SOLID outline. Dashed lines are holes and the plug pocket — poke through the two big finger circles.</text>
<text x="14.000" y="263.700" font-family="Helvetica, Arial, sans-serif" font-size="2.7" font-weight="normal" text-anchor="start" fill="black">3. Hold the cutout on your plug at the wall: the plug fits the dashed pocket, the top notch straddles the wall plate.</text>
<text x="14.000" y="267.300" font-family="Helvetica, Arial, sans-serif" font-size="2.7" font-weight="normal" text-anchor="start" fill="black">4. Try the finger holes (small size). Wrong size? Try a neighbouring sheet, or print stl/Finger_Sizing_Stencil.stl.</text>
<text x="14.000" y="270.900" font-family="Helvetica, Arial, sans-serif" font-size="2.7" font-weight="normal" text-anchor="start" fill="black">5. Happy? Open the Customizer with the title-block settings and export your STL (docs/guides/quick-start-beginner.md).</text>
<text x="105.000" y="275.500" font-family="Helvetica, Arial, sans-serif" font-size="2.4" font-weight="normal" text-anchor="middle" fill="#444444">openscad-plug-puller v0.8 · outline_heavy-duty-round_small.svg · scale 1:1 · guide: docs/guides/print-preview-outlines.md</text>
<path d="M 72.821 191.441 L 72.884 190.025 L 73.085 188.621 L 78.626 160.006 L 78.711 159.625 L 78.700 159.625 L 89.350 117.025 L 89.995 117.025 L 90.243 117.049 L 90.364 117.080 L 90.594 117.175 L 90.801 117.313 L 90.977 117.489 L 91.115 117.696 L 91.168 117.809 L 91.241 118.047 L 91.277 118.544 L 91.314 118.791 L 91.374 119.032 L 91.458 119.267 L 91.565 119.492 L 91.693 119.706 L 91.842 119.906 L 92.009 120.091 L 92.194 120.258 L 92.394 120.407 L 92.608 120.535 L 92.833 120.642 L 93.068 120.726 L 93.309 120.786 L 93.556 120.823 L 93.805 120.835 L 116.195 120.835 L 116.444 120.823 L 116.691 120.786 L 116.932 120.726 L 117.167 120.642 L 117.392 120.535 L 117.606 120.407 L 117.806 120.258 L 117.991 120.091 L 118.158 119.906 L 118.307 119.706 L 118.435 119.492 L 118.542 119.267 L 118.626 119.032 L 118.686 118.791 L 118.723 118.544 L 118.759 118.047 L 118.832 117.809 L 118.885 117.696 L 119.023 117.489 L 119.199 117.313 L 119.406 117.175 L 119.636 117.080 L 119.757 117.049 L 120.005 117.025 L 120.650 117.025 L 131.300 159.625 L 131.289 159.625 L 131.374 160.006 L 136.915 188.621 L 137.047 189.423 L 137.169 190.836 L 137.152 192.254 L 136.996 193.663 L 136.702 195.051 L 136.274 196.403 L 135.715 197.706 L 135.031 198.948 L 134.229 200.118 L 133.316 201.203 L 132.301 202.193 L 131.194 203.079 L 130.006 203.852 L 128.747 204.506 L 127.430 205.032 L 126.068 205.427 L 117.931 207.360 L 117.931 200.984 L 117.362 200.415 L 117.356 192.001 L 117.308 191.756 L 117.213 191.526 L 117.074 191.319 L 116.898 191.143 L 116.691 191.005 L 116.579 190.952 L 116.340 190.879 L 116.093 190.855 L 97.720 190.855 L 97.596 190.861 L 97.351 190.910 L 97.121 191.005 L 97.014 191.069 L 96.822 191.227 L 96.738 191.319 L 96.600 191.526 L 96.547 191.639 L 96.505 191.756 L 96.456 192.001 L 96.450 199.145 L 96.474 199.393 L 96.547 199.631 L 96.664 199.851 L 96.822 200.043 L 97.014 200.201 L 97.234 200.318 L 97.472 200.391 L 97.720 200.415 L 106.459 200.415 L 108.969 202.925 L 108.969 209.489 L 108.339 209.638 L 107.295 209.846 L 106.130 209.975 L 103.952 209.975 L 103.055 209.898 L 101.661 209.638 L 83.932 205.427 L 83.146 205.217 L 81.809 204.746 L 80.524 204.146 L 79.304 203.423 L 78.161 202.585 L 77.105 201.638 L 76.147 200.592 L 75.297 199.457 L 74.562 198.244 L 73.949 196.965 L 73.465 195.633 L 73.113 194.259 L 72.898 192.857 L 72.821 191.441 Z" fill="none" stroke="black" stroke-width="0.5" stroke-linejoin="round"/>
<path d="M 112.073 142.800 L 112.012 143.042 L 111.975 143.288 L 111.963 143.537 L 111.975 143.786 L 112.012 144.033 L 112.073 144.274 L 112.157 144.509 L 112.263 144.734 L 112.391 144.948 L 112.540 145.148 L 112.707 145.333 L 112.892 145.501 L 113.092 145.649 L 113.306 145.777 L 113.531 145.884 L 113.766 145.968 L 114.008 146.028 L 114.254 146.065 L 114.503 146.077 L 114.752 146.065 L 114.999 146.028 L 115.241 145.968 L 115.475 145.884 L 115.701 145.777 L 115.914 145.649 L 116.115 145.501 L 116.299 145.333 L 116.467 145.148 L 116.615 144.948 L 116.743 144.734 L 116.850 144.509 L 116.934 144.274 L 116.994 144.033 L 117.031 143.786 L 117.043 143.537 L 117.031 143.288 L 116.994 143.042 L 116.934 142.800 L 116.850 142.565 L 116.743 142.340 L 116.615 142.126 L 116.467 141.926 L 116.299 141.741 L 116.115 141.574 L 115.914 141.425 L 115.701 141.297 L 115.475 141.190 L 115.241 141.106 L 114.999 141.046 L 114.752 141.009 L 114.503 140.997 L 114.254 141.009 L 114.008 141.046 L 113.766 141.106 L 113.531 141.190 L 113.306 141.297 L 113.092 141.425 L 112.892 141.574 L 112.707 141.741 L 112.540 141.926 L 112.391 142.126 L 112.263 142.340 L 112.157 142.565 L 112.073 142.800 Z" fill="none" stroke="black" stroke-width="0.35" stroke-linejoin="round" stroke-dasharray="1.6,1.1"/>
<path d="M 97.737 142.340 L 97.609 142.126 L 97.460 141.926 L 97.293 141.741 L 97.108 141.574 L 96.908 141.425 L 96.694 141.297 L 96.469 141.190 L 96.234 141.106 L 95.992 141.046 L 95.746 141.009 L 95.497 140.997 L 95.248 141.009 L 95.001 141.046 L 94.759 141.106 L 94.525 141.190 L 94.299 141.297 L 94.086 141.425 L 93.885 141.574 L 93.701 141.741 L 93.533 141.926 L 93.385 142.126 L 93.257 142.340 L 93.150 142.565 L 93.066 142.800 L 93.006 143.042 L 92.969 143.288 L 92.957 143.537 L 92.969 143.786 L 93.006 144.033 L 93.066 144.274 L 93.150 144.509 L 93.257 144.734 L 93.385 144.948 L 93.533 145.148 L 93.701 145.333 L 93.885 145.501 L 94.086 145.649 L 94.299 145.777 L 94.525 145.884 L 94.759 145.968 L 95.001 146.028 L 95.248 146.065 L 95.497 146.077 L 95.746 146.065 L 95.992 146.028 L 96.234 145.968 L 96.469 145.884 L 96.694 145.777 L 96.908 145.649 L 97.108 145.501 L 97.293 145.333 L 97.460 145.148 L 97.609 144.948 L 97.737 144.734 L 97.843 144.509 L 97.927 144.274 L 97.988 144.033 L 98.025 143.786 L 98.037 143.537 L 98.025 143.288 L 97.988 143.042 L 97.927 142.800 L 97.843 142.565 L 97.737 142.340 Z" fill="none" stroke="black" stroke-width="0.35" stroke-linejoin="round" stroke-dasharray="1.6,1.1"/>
<path d="M 107.131 209.616 L 107.131 209.616 L 107.131 209.616 L 107.131 209.616 Z" fill="none" stroke="black" stroke-width="0.35" stroke-linejoin="round" stroke-dasharray="1.6,1.1"/>
<path d="M 86.980 145.279 L 86.876 145.383 L 86.700 145.620 L 86.631 145.749 L 86.532 146.026 L 82.985 160.216 L 82.912 160.539 L 82.877 160.831 L 82.900 161.124 L 82.979 161.407 L 83.039 161.542 L 83.197 161.790 L 83.400 162.002 L 83.517 162.092 L 83.773 162.236 L 83.910 162.289 L 84.052 162.328 L 84.344 162.363 L 84.491 162.359 L 84.781 162.308 L 85.620 162.012 L 87.138 161.631 L 88.687 161.402 L 90.250 161.325 L 91.813 161.402 L 93.132 161.590 L 93.279 161.590 L 93.570 161.547 L 93.847 161.448 L 94.099 161.297 L 94.317 161.099 L 94.492 160.863 L 94.618 160.597 L 94.689 160.312 L 94.705 160.092 L 94.698 159.819 L 94.641 159.530 L 94.528 159.259 L 94.365 159.014 L 93.219 157.756 L 92.328 156.555 L 91.559 155.272 L 90.920 153.920 L 90.416 152.512 L 90.052 151.061 L 89.833 149.585 L 89.672 146.647 L 89.600 146.362 L 89.343 145.749 L 89.274 145.620 L 89.098 145.383 L 88.881 145.186 L 88.758 145.104 L 88.492 144.978 L 88.207 144.907 L 87.913 144.893 L 87.623 144.936 L 87.482 144.978 L 87.216 145.104 L 86.980 145.279 Z" fill="none" stroke="black" stroke-width="0.35" stroke-linejoin="round" stroke-dasharray="1.6,1.1"/>
<path d="M 87.071 166.797 L 86.060 167.159 L 85.088 167.618 L 84.167 168.170 L 83.303 168.811 L 82.507 169.532 L 81.786 170.328 L 81.145 171.192 L 80.593 172.113 L 80.134 173.085 L 79.772 174.096 L 79.510 175.139 L 79.353 176.202 L 79.300 177.275 L 79.353 178.348 L 79.510 179.411 L 79.772 180.454 L 80.134 181.465 L 80.593 182.437 L 81.145 183.358 L 81.786 184.222 L 82.507 185.018 L 83.303 185.739 L 84.167 186.380 L 85.088 186.932 L 86.060 187.391 L 87.071 187.753 L 88.114 188.015 L 89.177 188.172 L 90.250 188.225 L 91.323 188.172 L 92.386 188.015 L 93.429 187.753 L 94.440 187.391 L 95.412 186.932 L 96.333 186.380 L 97.197 185.739 L 97.993 185.018 L 98.714 184.222 L 99.355 183.358 L 99.907 182.437 L 100.366 181.465 L 100.728 180.454 L 100.990 179.411 L 101.147 178.348 L 101.200 177.275 L 101.147 176.202 L 100.990 175.139 L 100.728 174.096 L 100.366 173.085 L 99.907 172.113 L 99.355 171.192 L 98.714 170.328 L 97.993 169.532 L 97.197 168.811 L 96.333 168.170 L 95.412 167.618 L 94.440 167.159 L 93.429 166.797 L 92.386 166.535 L 91.323 166.378 L 90.250 166.325 L 89.177 166.378 L 88.114 166.535 L 87.071 166.797 Z" fill="none" stroke="black" stroke-width="0.35" stroke-linejoin="round" stroke-dasharray="1.6,1.1"/>
<path d="M 77.537 179.804 L 77.537 179.804 L 77.350 178.546 L 77.537 179.804 Z" fill="none" stroke="black" stroke-width="0.35" stroke-linejoin="round" stroke-dasharray="1.6,1.1"/>
<path d="M 75.989 191.393 L 75.989 191.393 L 75.989 191.393 L 75.989 191.393 Z" fill="none" stroke="black" stroke-width="0.35" stroke-linejoin="round" stroke-dasharray="1.6,1.1"/>
<path d="M 83.762 203.234 L 83.762 203.234 L 83.762 203.234 L 83.762 203.234 Z" fill="none" stroke="black" stroke-width="0.35" stroke-linejoin="round" stroke-dasharray="1.6,1.1"/>
<path d="M 94.705 123.217 L 94.456 123.229 L 94.210 123.266 L 93.968 123.326 L 93.733 123.410 L 93.508 123.517 L 93.294 123.645 L 93.094 123.794 L 92.909 123.961 L 92.742 124.146 L 92.593 124.346 L 92.465 124.560 L 92.359 124.785 L 92.275 125.020 L 92.214 125.262 L 92.177 125.508 L 92.165 125.757 L 92.177 126.006 L 92.214 126.253 L 92.275 126.494 L 92.359 126.729 L 92.465 126.954 L 92.593 127.168 L 92.742 127.368 L 92.909 127.553 L 93.094 127.721 L 93.294 127.869 L 93.508 127.997 L 93.733 128.104 L 93.968 128.188 L 94.210 128.248 L 94.456 128.285 L 94.705 128.297 L 94.954 128.285 L 95.201 128.248 L 95.443 128.188 L 95.677 128.104 L 95.903 127.997 L 96.116 127.869 L 96.317 127.721 L 96.501 127.553 L 96.669 127.368 L 96.817 127.168 L 96.945 126.954 L 97.052 126.729 L 97.136 126.494 L 97.196 126.253 L 97.233 126.006 L 97.245 125.757 L 97.233 125.508 L 97.196 125.262 L 97.136 125.020 L 97.052 124.785 L 96.945 124.560 L 96.817 124.346 L 96.669 124.146 L 96.501 123.961 L 96.317 123.794 L 96.116 123.645 L 95.903 123.517 L 95.677 123.410 L 95.443 123.326 L 95.201 123.266 L 94.954 123.229 L 94.705 123.217 Z" fill="none" stroke="black" stroke-width="0.35" stroke-linejoin="round" stroke-dasharray="1.6,1.1"/>
<path d="M 97.265 168.727 L 97.265 168.727 L 98.127 169.398 L 97.265 168.727 Z" fill="none" stroke="black" stroke-width="0.35" stroke-linejoin="round" stroke-dasharray="1.6,1.1"/>
<path d="M 92.428 124.197 L 92.428 124.197 L 92.428 124.197 L 92.428 124.197 Z" fill="none" stroke="black" stroke-width="0.35" stroke-linejoin="round" stroke-dasharray="1.6,1.1"/>
<path d="M 92.964 146.687 L 92.964 146.687 L 92.964 146.687 L 92.964 146.687 Z" fill="none" stroke="black" stroke-width="0.35" stroke-linejoin="round" stroke-dasharray="1.6,1.1"/>
<path d="M 90.800 134.032 L 90.800 134.032 L 90.800 134.032 L 90.800 134.032 Z" fill="none" stroke="black" stroke-width="0.35" stroke-linejoin="round" stroke-dasharray="1.6,1.1"/>
<path d="M 90.511 135.024 L 90.511 135.024 L 90.511 135.024 L 90.511 135.024 Z" fill="none" stroke="black" stroke-width="0.35" stroke-linejoin="round" stroke-dasharray="1.6,1.1"/>
<path d="M 89.744 137.657 L 89.744 137.657 L 89.744 137.657 L 89.744 137.657 Z" fill="none" stroke="black" stroke-width="0.35" stroke-linejoin="round" stroke-dasharray="1.6,1.1"/>
<path d="M 88.622 141.505 L 88.622 141.505 L 88.622 141.505 L 88.622 141.505 Z" fill="none" stroke="black" stroke-width="0.35" stroke-linejoin="round" stroke-dasharray="1.6,1.1"/>
<path d="M 90.517 127.307 L 90.517 127.307 L 90.517 127.307 L 90.517 127.307 Z" fill="none" stroke="black" stroke-width="0.35" stroke-linejoin="round" stroke-dasharray="1.6,1.1"/>
<path d="M 88.707 140.428 L 88.707 140.428 L 88.707 140.428 L 88.707 140.428 Z" fill="none" stroke="black" stroke-width="0.35" stroke-linejoin="round" stroke-dasharray="1.6,1.1"/>
<path d="M 89.320 132.660 L 89.320 132.660 L 89.320 132.660 L 89.320 132.660 Z" fill="none" stroke="black" stroke-width="0.35" stroke-linejoin="round" stroke-dasharray="1.6,1.1"/>
<path d="M 90.493 126.727 L 90.493 126.727 L 90.493 126.727 L 90.493 126.727 Z" fill="none" stroke="black" stroke-width="0.35" stroke-linejoin="round" stroke-dasharray="1.6,1.1"/>
<path d="M 90.163 128.396 L 90.163 128.396 L 90.163 128.396 L 90.163 128.396 Z" fill="none" stroke="black" stroke-width="0.35" stroke-linejoin="round" stroke-dasharray="1.6,1.1"/>
<path d="M 91.002 124.154 L 91.002 124.154 L 91.002 124.154 L 91.002 124.154 Z" fill="none" stroke="black" stroke-width="0.35" stroke-linejoin="round" stroke-dasharray="1.6,1.1"/>
<path d="M 90.998 124.088 L 90.998 124.088 L 90.998 124.088 L 90.998 124.088 Z" fill="none" stroke="black" stroke-width="0.35" stroke-linejoin="round" stroke-dasharray="1.6,1.1"/>
<path d="M 89.754 137.021 L 89.754 137.021 L 89.754 137.021 L 89.754 137.021 Z" fill="none" stroke="black" stroke-width="0.35" stroke-linejoin="round" stroke-dasharray="1.6,1.1"/>
<path d="M 93.419 121.360 L 93.419 121.360 L 93.419 121.360 L 93.419 121.360 Z" fill="none" stroke="black" stroke-width="0.35" stroke-linejoin="round" stroke-dasharray="1.6,1.1"/>
<path d="M 93.146 121.733 L 93.146 121.733 L 93.146 121.733 L 93.146 121.733 Z" fill="none" stroke="black" stroke-width="0.35" stroke-linejoin="round" stroke-dasharray="1.6,1.1"/>
<path d="M 92.027 123.256 L 92.027 123.256 L 92.027 123.256 L 92.027 123.256 Z" fill="none" stroke="black" stroke-width="0.35" stroke-linejoin="round" stroke-dasharray="1.6,1.1"/>
<path d="M 99.278 170.815 L 99.513 171.086 L 98.989 170.481 L 99.278 170.815 Z" fill="none" stroke="black" stroke-width="0.35" stroke-linejoin="round" stroke-dasharray="1.6,1.1"/>
<path d="M 123.218 145.498 L 123.021 145.280 L 122.785 145.105 L 122.519 144.979 L 122.234 144.907 L 122.087 144.893 L 121.794 144.907 L 121.508 144.978 L 121.372 145.034 L 121.120 145.186 L 121.006 145.279 L 120.809 145.497 L 120.657 145.749 L 120.399 146.367 L 120.327 146.652 L 120.167 149.585 L 119.948 151.061 L 119.584 152.512 L 119.080 153.920 L 118.441 155.272 L 117.672 156.555 L 116.781 157.756 L 115.590 159.072 L 115.439 159.325 L 115.340 159.601 L 115.297 159.892 L 115.302 160.239 L 115.324 160.384 L 115.409 160.666 L 115.548 160.925 L 115.734 161.153 L 115.961 161.339 L 116.221 161.478 L 116.502 161.563 L 116.795 161.592 L 117.015 161.576 L 118.187 161.402 L 119.750 161.325 L 121.313 161.402 L 122.862 161.631 L 124.380 162.012 L 125.259 162.318 L 125.549 162.362 L 125.697 162.362 L 125.988 162.318 L 126.128 162.276 L 126.394 162.150 L 126.517 162.068 L 126.734 161.871 L 126.910 161.635 L 126.979 161.505 L 127.078 161.228 L 127.121 160.937 L 127.107 160.643 L 127.015 160.216 L 123.468 146.027 L 123.369 145.750 L 123.218 145.498 Z" fill="none" stroke="black" stroke-width="0.35" stroke-linejoin="round" stroke-dasharray="1.6,1.1"/>
<path d="M 119.750 166.325 L 118.677 166.378 L 117.614 166.535 L 116.571 166.797 L 115.560 167.159 L 114.588 167.618 L 113.667 168.170 L 112.803 168.811 L 112.007 169.532 L 111.286 170.328 L 110.645 171.192 L 110.093 172.113 L 109.634 173.085 L 109.272 174.096 L 109.010 175.139 L 108.853 176.202 L 108.800 177.275 L 108.853 178.348 L 109.010 179.411 L 109.272 180.454 L 109.634 181.465 L 110.093 182.437 L 110.645 183.358 L 111.286 184.222 L 112.007 185.018 L 112.803 185.739 L 113.667 186.380 L 114.588 186.932 L 115.560 187.391 L 116.571 187.753 L 117.614 188.015 L 118.677 188.172 L 119.750 188.225 L 120.823 188.172 L 121.886 188.015 L 122.929 187.753 L 123.940 187.391 L 124.912 186.932 L 125.833 186.380 L 126.697 185.739 L 127.493 185.018 L 128.214 184.222 L 128.855 183.358 L 129.407 182.437 L 129.866 181.465 L 130.228 180.454 L 130.490 179.411 L 130.647 178.348 L 130.700 177.275 L 130.647 176.202 L 130.490 175.139 L 130.228 174.096 L 129.866 173.085 L 129.407 172.113 L 128.855 171.192 L 128.214 170.328 L 127.493 169.532 L 126.697 168.811 L 125.833 168.170 L 124.912 167.618 L 123.940 167.159 L 122.929 166.797 L 121.886 166.535 L 120.823 166.378 L 119.750 166.325 Z" fill="none" stroke="black" stroke-width="0.35" stroke-linejoin="round" stroke-dasharray="1.6,1.1"/>
<path d="M 120.079 127.620 L 120.079 127.620 L 120.079 127.620 L 120.079 127.620 Z" fill="none" stroke="black" stroke-width="0.35" stroke-linejoin="round" stroke-dasharray="1.6,1.1"/>
<path d="M 113.183 124.346 L 113.055 124.560 L 112.948 124.785 L 112.864 125.020 L 112.804 125.262 L 112.767 125.508 L 112.755 125.757 L 112.767 126.006 L 112.804 126.253 L 112.864 126.494 L 112.948 126.729 L 113.055 126.954 L 113.183 127.168 L 113.331 127.368 L 113.499 127.553 L 113.683 127.721 L 113.884 127.869 L 114.097 127.997 L 114.323 128.104 L 114.557 128.188 L 114.799 128.248 L 115.046 128.285 L 115.295 128.297 L 115.544 128.285 L 115.790 128.248 L 116.032 128.188 L 116.267 128.104 L 116.492 127.997 L 116.706 127.869 L 116.906 127.721 L 117.091 127.553 L 117.258 127.368 L 117.407 127.168 L 117.535 126.954 L 117.641 126.729 L 117.725 126.494 L 117.786 126.253 L 117.823 126.006 L 117.835 125.757 L 117.823 125.508 L 117.786 125.262 L 117.725 125.020 L 117.641 124.785 L 117.535 124.560 L 117.407 124.346 L 117.258 124.146 L 117.091 123.961 L 116.906 123.794 L 116.706 123.645 L 116.492 123.517 L 116.267 123.410 L 116.032 123.326 L 115.790 123.266 L 115.544 123.229 L 115.295 123.217 L 115.046 123.229 L 114.799 123.266 L 114.557 123.326 L 114.323 123.410 L 114.097 123.517 L 113.884 123.645 L 113.683 123.794 L 113.499 123.961 L 113.331 124.146 L 113.183 124.346 Z" fill="none" stroke="black" stroke-width="0.35" stroke-linejoin="round" stroke-dasharray="1.6,1.1"/>
<path d="M 108.789 172.735 L 108.789 172.735 L 108.957 172.804 L 108.789 172.735 Z" fill="none" stroke="black" stroke-width="0.35" stroke-linejoin="round" stroke-dasharray="1.6,1.1"/>
<path d="M 118.425 190.868 L 118.425 190.868 L 118.425 190.868 L 118.425 190.868 Z" fill="none" stroke="black" stroke-width="0.35" stroke-linejoin="round" stroke-dasharray="1.6,1.1"/>
<path d="M 118.237 190.883 L 118.237 190.883 L 118.237 190.883 L 118.237 190.883 Z" fill="none" stroke="black" stroke-width="0.35" stroke-linejoin="round" stroke-dasharray="1.6,1.1"/>
<path d="M 118.391 190.664 L 118.391 190.664 L 118.391 190.664 L 118.391 190.664 Z" fill="none" stroke="black" stroke-width="0.35" stroke-linejoin="round" stroke-dasharray="1.6,1.1"/>
<path d="M 114.374 130.508 L 114.374 130.508 L 114.374 130.508 L 114.374 130.508 Z" fill="none" stroke="black" stroke-width="0.35" stroke-linejoin="round" stroke-dasharray="1.6,1.1"/>
<path d="M 114.633 130.316 L 114.633 130.316 L 114.633 130.316 L 114.633 130.316 Z" fill="none" stroke="black" stroke-width="0.35" stroke-linejoin="round" stroke-dasharray="1.6,1.1"/>
<path d="M 120.159 133.704 L 120.159 133.704 L 120.159 133.704 L 120.159 133.704 Z" fill="none" stroke="black" stroke-width="0.35" stroke-linejoin="round" stroke-dasharray="1.6,1.1"/>
<path d="M 120.269 138.479 L 120.269 138.479 L 120.269 138.479 L 120.269 138.479 Z" fill="none" stroke="black" stroke-width="0.35" stroke-linejoin="round" stroke-dasharray="1.6,1.1"/>
<path d="M 127.175 166.063 L 127.175 166.063 L 127.175 166.063 L 127.175 166.063 Z" fill="none" stroke="black" stroke-width="0.35" stroke-linejoin="round" stroke-dasharray="1.6,1.1"/>
<path d="M 128.470 170.460 L 128.778 170.815 L 129.013 171.086 L 128.470 170.460 Z" fill="none" stroke="black" stroke-width="0.35" stroke-linejoin="round" stroke-dasharray="1.6,1.1"/>
<path d="M 131.143 160.095 L 131.143 160.095 L 131.143 160.095 L 131.143 160.095 Z" fill="none" stroke="black" stroke-width="0.35" stroke-linejoin="round" stroke-dasharray="1.6,1.1"/>
<path d="M 131.591 183.649 L 131.591 183.649 L 131.591 183.649 L 131.591 183.649 Z" fill="none" stroke="black" stroke-width="0.35" stroke-linejoin="round" stroke-dasharray="1.6,1.1"/>
<path d="M 130.501 179.414 L 130.501 179.414 L 130.240 180.457 L 130.501 179.414 Z" fill="none" stroke="black" stroke-width="0.35" stroke-linejoin="round" stroke-dasharray="1.6,1.1"/>
<path d="M 89.259 117.398 L 89.342 117.058 L 89.384 117.025 L 89.993 117.025 L 90.246 117.050 L 90.364 117.080 L 90.594 117.175 L 90.801 117.313 L 90.977 117.489 L 91.115 117.696 L 91.168 117.809 L 91.240 118.047 L 91.277 118.545 L 91.314 118.792 L 91.375 119.033 L 91.459 119.268 L 91.564 119.491 L 91.692 119.705 L 91.841 119.905 L 92.008 120.090 L 92.193 120.258 L 92.393 120.406 L 92.607 120.534 L 92.832 120.641 L 93.067 120.725 L 93.308 120.786 L 93.555 120.823 L 93.806 120.835 L 116.194 120.835 L 116.445 120.823 L 116.692 120.786 L 116.933 120.725 L 117.168 120.641 L 117.393 120.534 L 117.607 120.406 L 117.805 120.259 L 117.990 120.092 L 118.158 119.907 L 118.306 119.707 L 118.434 119.493 L 118.541 119.268 L 118.625 119.033 L 118.686 118.792 L 118.723 118.545 L 118.760 118.047 L 118.832 117.809 L 118.885 117.696 L 119.023 117.489 L 119.199 117.313 L 119.406 117.175 L 119.636 117.080 L 119.754 117.050 L 120.007 117.025 L 120.611 117.025 L 120.656 117.054 L 120.741 117.394 L 120.684 118.557 L 120.457 120.092 L 120.081 121.592 L 119.561 123.044 L 119.365 123.460 L 118.005 149.367 L 117.816 150.639 L 117.504 151.883 L 117.072 153.091 L 116.526 154.245 L 116.026 155.080 L 115.864 155.350 L 115.103 156.376 L 114.242 157.326 L 113.288 158.191 L 112.258 158.954 L 111.158 159.613 L 109.999 160.161 L 108.791 160.593 L 107.547 160.905 L 106.278 161.093 L 104.998 161.155 L 103.717 161.092 L 102.448 160.904 L 101.204 160.592 L 99.997 160.160 L 98.838 159.611 L 97.738 158.952 L 96.708 158.187 L 95.758 157.326 L 94.897 156.376 L 94.133 155.346 L 93.474 154.245 L 92.928 153.091 L 92.496 151.883 L 92.184 150.639 L 91.995 149.371 L 90.635 123.460 L 90.439 123.044 L 89.919 121.592 L 89.543 120.092 L 89.316 118.562 L 89.259 117.398 Z" fill="none" stroke="#333333" stroke-width="0.35" stroke-linejoin="round" stroke-dasharray="2.4,1.4"/>
<path d="M 113.055 124.559 L 112.949 124.784 L 112.865 125.019 L 112.804 125.260 L 112.767 125.507 L 112.755 125.756 L 112.767 126.005 L 112.803 126.251 L 112.864 126.493 L 112.948 126.728 L 113.054 126.953 L 113.182 127.167 L 113.331 127.367 L 113.498 127.552 L 113.683 127.720 L 113.883 127.868 L 114.096 127.997 L 114.322 128.103 L 114.556 128.187 L 114.798 128.248 L 115.045 128.285 L 115.294 128.297 L 115.543 128.285 L 115.789 128.248 L 116.031 128.188 L 116.266 128.104 L 116.491 127.998 L 116.705 127.870 L 116.905 127.721 L 117.090 127.554 L 117.257 127.369 L 117.406 127.169 L 117.534 126.955 L 117.641 126.730 L 117.725 126.496 L 117.786 126.254 L 117.822 126.007 L 117.835 125.758 L 117.823 125.509 L 117.786 125.263 L 117.726 125.021 L 117.642 124.786 L 117.535 124.561 L 117.407 124.347 L 117.259 124.147 L 117.092 123.962 L 116.907 123.794 L 116.707 123.646 L 116.493 123.518 L 116.268 123.411 L 116.033 123.327 L 115.792 123.266 L 115.545 123.230 L 115.296 123.217 L 115.047 123.229 L 114.800 123.266 L 114.559 123.326 L 114.324 123.410 L 114.099 123.516 L 113.885 123.645 L 113.684 123.793 L 113.500 123.960 L 113.332 124.145 L 113.184 124.345 L 113.055 124.559 Z" fill="none" stroke="#333333" stroke-width="0.35" stroke-linejoin="round" stroke-dasharray="2.4,1.4"/>
<path d="M 112.012 143.040 L 111.976 143.287 L 111.963 143.536 L 111.975 143.785 L 112.012 144.031 L 112.072 144.273 L 112.156 144.508 L 112.263 144.733 L 112.391 144.947 L 112.539 145.147 L 112.706 145.332 L 112.891 145.500 L 113.091 145.648 L 113.305 145.777 L 113.530 145.883 L 113.765 145.967 L 114.006 146.028 L 114.253 146.065 L 114.502 146.077 L 114.751 146.065 L 114.998 146.028 L 115.239 145.968 L 115.474 145.884 L 115.699 145.778 L 115.913 145.650 L 116.114 145.501 L 116.298 145.334 L 116.466 145.149 L 116.614 144.949 L 116.743 144.735 L 116.849 144.510 L 116.933 144.276 L 116.994 144.034 L 117.031 143.787 L 117.043 143.538 L 117.031 143.289 L 116.995 143.043 L 116.934 142.801 L 116.850 142.566 L 116.744 142.341 L 116.616 142.127 L 116.467 141.927 L 116.300 141.742 L 116.115 141.574 L 115.915 141.426 L 115.702 141.298 L 115.476 141.191 L 115.242 141.107 L 115.000 141.046 L 114.753 141.010 L 114.504 140.997 L 114.255 141.009 L 114.009 141.046 L 113.767 141.106 L 113.532 141.190 L 113.307 141.296 L 113.093 141.425 L 112.893 141.573 L 112.708 141.740 L 112.541 141.925 L 112.392 142.125 L 112.264 142.339 L 112.157 142.564 L 112.073 142.799 L 112.012 143.040 Z" fill="none" stroke="#333333" stroke-width="0.35" stroke-linejoin="round" stroke-dasharray="2.4,1.4"/>
<path d="M 97.609 142.127 L 97.461 141.927 L 97.294 141.742 L 97.109 141.574 L 96.909 141.426 L 96.695 141.298 L 96.470 141.191 L 96.235 141.107 L 95.994 141.046 L 95.747 141.010 L 95.498 140.997 L 95.249 141.009 L 95.002 141.046 L 94.761 141.106 L 94.526 141.190 L 94.301 141.296 L 94.087 141.425 L 93.886 141.573 L 93.702 141.740 L 93.534 141.925 L 93.386 142.125 L 93.257 142.339 L 93.151 142.564 L 93.067 142.799 L 93.006 143.040 L 92.969 143.287 L 92.957 143.536 L 92.969 143.785 L 93.005 144.031 L 93.066 144.273 L 93.150 144.508 L 93.256 144.733 L 93.384 144.947 L 93.533 145.147 L 93.700 145.332 L 93.885 145.500 L 94.085 145.648 L 94.298 145.777 L 94.524 145.883 L 94.758 145.967 L 95.000 146.028 L 95.247 146.065 L 95.496 146.077 L 95.745 146.065 L 95.991 146.028 L 96.233 145.968 L 96.468 145.884 L 96.693 145.778 L 96.907 145.650 L 97.107 145.501 L 97.292 145.334 L 97.459 145.149 L 97.608 144.949 L 97.736 144.735 L 97.843 144.510 L 97.927 144.276 L 97.988 144.034 L 98.024 143.787 L 98.037 143.538 L 98.025 143.289 L 97.988 143.043 L 97.928 142.801 L 97.844 142.566 L 97.737 142.341 L 97.609 142.127 Z" fill="none" stroke="#333333" stroke-width="0.35" stroke-linejoin="round" stroke-dasharray="2.4,1.4"/>
<path d="M 94.457 123.229 L 94.211 123.266 L 93.969 123.326 L 93.734 123.410 L 93.509 123.516 L 93.295 123.645 L 93.095 123.793 L 92.910 123.960 L 92.743 124.145 L 92.594 124.345 L 92.466 124.559 L 92.359 124.784 L 92.275 125.019 L 92.214 125.260 L 92.178 125.507 L 92.165 125.756 L 92.177 126.005 L 92.214 126.251 L 92.274 126.493 L 92.358 126.728 L 92.465 126.953 L 92.593 127.167 L 92.741 127.367 L 92.908 127.552 L 93.093 127.720 L 93.293 127.868 L 93.507 127.997 L 93.732 128.103 L 93.967 128.187 L 94.208 128.248 L 94.455 128.285 L 94.704 128.297 L 94.953 128.285 L 95.200 128.248 L 95.441 128.188 L 95.676 128.104 L 95.901 127.998 L 96.115 127.870 L 96.316 127.721 L 96.500 127.554 L 96.668 127.369 L 96.816 127.169 L 96.945 126.955 L 97.051 126.730 L 97.135 126.496 L 97.196 126.254 L 97.233 126.007 L 97.245 125.758 L 97.233 125.509 L 97.197 125.263 L 97.136 125.021 L 97.052 124.786 L 96.946 124.561 L 96.818 124.347 L 96.669 124.147 L 96.502 123.962 L 96.317 123.794 L 96.117 123.646 L 95.904 123.518 L 95.678 123.411 L 95.444 123.327 L 95.202 123.266 L 94.955 123.230 L 94.706 123.217 L 94.457 123.229 Z" fill="none" stroke="#333333" stroke-width="0.35" stroke-linejoin="round" stroke-dasharray="2.4,1.4"/>
<line x1="88.801" y1="177.114" x2="91.601" y2="177.114" stroke="black" stroke-width="0.2"/>
<line x1="90.201" y1="175.714" x2="90.201" y2="178.514" stroke="black" stroke-width="0.2"/>
<line x1="118.350" y1="177.107" x2="121.150" y2="177.107" stroke="black" stroke-width="0.2"/>
<line x1="119.750" y1="175.707" x2="119.750" y2="178.507" stroke="black" stroke-width="0.2"/>
<line x1="113.066" y1="143.526" x2="115.866" y2="143.526" stroke="black" stroke-width="0.2"/>
<line x1="114.466" y1="142.126" x2="114.466" y2="144.926" stroke="black" stroke-width="0.2"/>
<line x1="94.131" y1="143.519" x2="96.931" y2="143.519" stroke="black" stroke-width="0.2"/>
<line x1="95.531" y1="142.119" x2="95.531" y2="144.919" stroke="black" stroke-width="0.2"/>
<line x1="113.862" y1="125.735" x2="116.662" y2="125.735" stroke="black" stroke-width="0.2"/>
<line x1="115.262" y1="124.335" x2="115.262" y2="127.135" stroke="black" stroke-width="0.2"/>
<line x1="93.305" y1="125.718" x2="96.105" y2="125.718" stroke="black" stroke-width="0.2"/>
<line x1="94.705" y1="124.318" x2="94.705" y2="127.118" stroke="black" stroke-width="0.2"/>
<line x1="72.821" y1="117.025" x2="62.821" y2="117.025" stroke="black" stroke-width="0.18"/>
<line x1="72.821" y1="209.975" x2="62.821" y2="209.975" stroke="black" stroke-width="0.18"/>
<line x1="63.821" y1="117.025" x2="63.821" y2="209.975" stroke="black" stroke-width="0.25"/>
<polygon points="63.821,117.025 64.571,119.425 63.071,119.425" fill="black"/>
<polygon points="63.821,209.975 63.071,207.575 64.571,207.575" fill="black"/>
<text x="62.421" y="164.500" font-family="Helvetica, Arial, sans-serif" font-size="3" font-weight="bold" text-anchor="end" fill="black" paint-order="stroke" stroke="white" stroke-width="0.9">92.95</text>
<line x1="72.821" y1="209.975" x2="72.821" y2="218.975" stroke="black" stroke-width="0.18"/>
<line x1="137.169" y1="209.975" x2="137.169" y2="218.975" stroke="black" stroke-width="0.18"/>
<line x1="72.821" y1="217.975" x2="137.169" y2="217.975" stroke="black" stroke-width="0.25"/>
<polygon points="72.821,217.975 75.221,217.225 75.221,218.725" fill="black"/>
<polygon points="137.169,217.975 134.769,218.725 134.769,217.225" fill="black"/>
<text x="104.995" y="221.875" font-family="Helvetica, Arial, sans-serif" font-size="3" font-weight="bold" text-anchor="middle" fill="black" paint-order="stroke" stroke="white" stroke-width="0.9">64.35</text>
<line x1="91.265" y1="117.025" x2="91.265" y2="110.025" stroke="black" stroke-width="0.18"/>
<line x1="118.735" y1="117.025" x2="118.735" y2="110.025" stroke="black" stroke-width="0.18"/>
<line x1="91.265" y1="111.025" x2="118.735" y2="111.025" stroke="black" stroke-width="0.25"/>
<polygon points="91.265,111.025 93.665,110.275 93.665,111.775" fill="black"/>
<polygon points="118.735,111.025 116.335,111.775 116.335,110.275" fill="black"/>
<text x="105.000" y="109.925" font-family="Helvetica, Arial, sans-serif" font-size="3" font-weight="bold" text-anchor="middle" fill="black" paint-order="stroke" stroke="white" stroke-width="0.9">notch 27.47</text>
<line x1="88.750" y1="117.025" x2="88.750" y2="103.525" stroke="black" stroke-width="0.18"/>
<line x1="121.250" y1="117.025" x2="121.250" y2="103.525" stroke="black" stroke-width="0.18"/>
<line x1="88.750" y1="104.525" x2="121.250" y2="104.525" stroke="black" stroke-width="0.25"/>
<polygon points="88.750,104.525 91.150,103.775 91.150,105.275" fill="black"/>
<polygon points="121.250,104.525 118.850,105.275 118.850,103.775" fill="black"/>
<text x="105.000" y="103.425" font-family="Helvetica, Arial, sans-serif" font-size="3" font-weight="bold" text-anchor="middle" fill="black" paint-order="stroke" stroke="white" stroke-width="0.9">pocket 32.5</text>
<line x1="137.169" y1="117.025" x2="146.169" y2="117.025" stroke="black" stroke-width="0.18"/>
<line x1="137.169" y1="160.825" x2="146.169" y2="160.825" stroke="black" stroke-width="0.18"/>
<line x1="145.169" y1="117.025" x2="145.169" y2="160.825" stroke="black" stroke-width="0.25"/>
<polygon points="145.169,117.025 145.919,119.425 144.419,119.425" fill="black"/>
<polygon points="145.169,160.825 144.419,158.425 145.919,158.425" fill="black"/>
<text x="146.569" y="139.925" font-family="Helvetica, Arial, sans-serif" font-size="3" font-weight="bold" text-anchor="start" fill="black" paint-order="stroke" stroke="white" stroke-width="0.9">pocket depth 43.8</text>
<line x1="90.201" y1="177.114" x2="90.201" y2="178.114" stroke="black" stroke-width="0.18"/>
<line x1="119.750" y1="177.114" x2="119.750" y2="178.114" stroke="black" stroke-width="0.18"/>
<line x1="90.201" y1="177.114" x2="119.750" y2="177.114" stroke="black" stroke-width="0.25"/>
<polygon points="90.201,177.114 92.601,176.364 92.601,177.864" fill="black"/>
<polygon points="119.750,177.114 117.350,177.864 117.350,176.364" fill="black"/>
<text x="104.976" y="176.014" font-family="Helvetica, Arial, sans-serif" font-size="3" font-weight="bold" text-anchor="middle" fill="black" paint-order="stroke" stroke="white" stroke-width="0.9">29.5</text>
<line x1="128.137" y1="184.144" x2="135.031" y2="189.929" stroke="black" stroke-width="0.25"/>
<polygon points="128.137,184.144 130.457,185.112 129.493,186.261" fill="black"/>
<line x1="135.031" y1="189.929" x2="141.031" y2="189.929" stroke="black" stroke-width="0.25"/>
<text x="141.831" y="189.029" font-family="Helvetica, Arial, sans-serif" font-size="3" font-weight="bold" text-anchor="start" fill="black" paint-order="stroke" stroke="white" stroke-width="0.9">Ø21.9 (2×)</text>
<line x1="94.705" y1="125.735" x2="94.705" y2="135.631" stroke="black" stroke-width="0.18"/>
<line x1="115.262" y1="125.735" x2="115.262" y2="135.631" stroke="black" stroke-width="0.18"/>
<line x1="94.705" y1="134.631" x2="115.262" y2="134.631" stroke="black" stroke-width="0.25"/>
<polygon points="94.705,134.631 97.105,133.881 97.105,135.381" fill="black"/>
<polygon points="115.262,134.631 112.862,135.381 112.862,133.881" fill="black"/>
<text x="104.984" y="133.531" font-family="Helvetica, Arial, sans-serif" font-size="2.6" font-weight="bold" text-anchor="middle" fill="black" paint-order="stroke" stroke="white" stroke-width="0.9">-20.56</text>
<line x1="115.262" y1="125.735" x2="104.262" y2="125.735" stroke="black" stroke-width="0.18"/>
<line x1="115.262" y1="143.526" x2="104.262" y2="143.526" stroke="black" stroke-width="0.18"/>
<line x1="105.262" y1="125.735" x2="105.262" y2="143.526" stroke="black" stroke-width="0.25"/>
<polygon points="105.262,125.735 106.012,128.135 104.512,128.135" fill="black"/>
<polygon points="105.262,143.526 104.512,141.126 106.012,141.126" fill="black"/>
<text x="103.862" y="135.631" font-family="Helvetica, Arial, sans-serif" font-size="2.6" font-weight="bold" text-anchor="end" fill="black" paint-order="stroke" stroke="white" stroke-width="0.9">17.79</text>
<line x1="112.670" y1="145.321" x2="107.013" y2="150.978" stroke="black" stroke-width="0.25"/>
<polygon points="112.670,145.321 111.503,147.549 110.443,146.488" fill="black"/>
<line x1="107.013" y1="150.978" x2="101.013" y2="150.978" stroke="black" stroke-width="0.25"/>
<text x="100.213" y="150.078" font-family="Helvetica, Arial, sans-serif" font-size="2.6" font-weight="bold" text-anchor="end" fill="black" paint-order="stroke" stroke="white" stroke-width="0.9">Ø5.08 (4×)</text>
</svg>
