<svg xmlns="http://www.w3.org/2000/svg" width="210mm" height="279mm" viewBox="0 0 210 279">
<rect x="0" y="0" width="210" height="279" fill="white"/>
<text x="105.000" y="12.000" font-family="Helvetica, Arial, sans-serif" font-size="5" font-weight="bold" text-anchor="middle" fill="black">Plug Puller — Heavy-duty clamshell plate · Large</text>
<text x="105.000" y="17.500" font-family="Helvetica, Arial, sans-serif" font-size="2.8" font-weight="normal" text-anchor="middle" fill="black">1:1 outline sheet — print at 100% scale / “Actual size”, never “fit to page”. Check the calibration square before trusting anything.</text>
<rect x="14" y="22" width="50" height="50" fill="none" stroke="black" stroke-width="0.4"/>
<text x="39.000" y="45.500" font-family="Helvetica, Arial, sans-serif" font-size="3.4" font-weight="bold" text-anchor="middle" fill="black">CALIBRATION</text>
<text x="39.000" y="50.500" font-family="Helvetica, Arial, sans-serif" font-size="3.4" font-weight="normal" text-anchor="middle" fill="black">50 × 50 mm</text>
<text x="39.000" y="56.500" font-family="Helvetica, Arial, sans-serif" font-size="2.6" font-weight="normal" text-anchor="middle" fill="#444444">Measure me with a ruler.</text>
<text x="39.000" y="60.500" font-family="Helvetica, Arial, sans-serif" font-size="2.6" font-weight="normal" text-anchor="middle" fill="#444444">Not 50 mm? Re-print at 100%.</text>
<rect x="70" y="22" width="126" height="50" fill="none" stroke="black" stroke-width="0.3"/>
<text x="73.000" y="27.000" font-family="Helvetica, Arial, sans-serif" font-size="3.4" font-weight="bold" text-anchor="start" fill="black">Heavy-duty clamshell plate</text>
<text x="73.000" y="31.600" font-family="Helvetica, Arial, sans-serif" font-size="2.8" font-weight="normal" text-anchor="start" fill="black">Heavy-duty extension cord</text>
<text x="73.000" y="35.400" font-family="Helvetica, Arial, sans-serif" font-size="2.8" font-weight="normal" text-anchor="start" fill="black">Large hand size · the tool is TWO plates</text>
<text x="73.000" y="39.200" font-family="Helvetica, Arial, sans-serif" font-size="2.8" font-weight="normal" text-anchor="start" fill="black">Printed footprint ≈ 72.99 × 76.8 mm (one plate)</text>
<text x="73.000" y="43.800" font-family="Helvetica, Arial, sans-serif" font-size="2.6" font-weight="normal" text-anchor="start" fill="#333333">Customizer settings for this exact plate:</text>
<text x="73.000" y="47.200" font-family="Helvetica, Arial, sans-serif" font-size="2.6" font-weight="normal" text-anchor="start" fill="#333333">  tool_style = Heavy-duty clamshell</text>
<text x="73.000" y="50.600" font-family="Helvetica, Arial, sans-serif" font-size="2.6" font-weight="normal" text-anchor="start" fill="#333333">  plug_preset =</text>
<text x="73.000" y="54.000" font-family="Helvetica, Arial, sans-serif" font-size="2.6" font-weight="normal" text-anchor="start" fill="#333333">      Heavy-duty extension cord - NEMA 5-15</text>
<text x="73.000" y="57.400" font-family="Helvetica, Arial, sans-serif" font-size="2.6" font-weight="normal" text-anchor="start" fill="#333333">  size = Large</text>
<text x="73.000" y="60.800" font-family="Helvetica, Arial, sans-serif" font-size="2.6" font-weight="normal" text-anchor="start" fill="#333333">  (everything else at its default)</text>
<text x="133.000" y="27.000" font-family="Helvetica, Arial, sans-serif" font-size="2.8" font-weight="bold" text-anchor="start" fill="black">Key dimensions</text>
<text x="133.000" y="31.000" font-family="Helvetica, Arial, sans-serif" font-size="2.6" font-weight="normal" text-anchor="start" fill="black">Plate thickness: 4 mm each (×2 plates)</text>
<text x="133.000" y="34.500" font-family="Helvetica, Arial, sans-serif" font-size="2.6" font-weight="normal" text-anchor="start" fill="black">Finger holes: 2 × Ø24</text>
<text x="133.000" y="38.000" font-family="Helvetica, Arial, sans-serif" font-size="2.6" font-weight="normal" text-anchor="start" fill="black">Cord channel: 9 mm wide</text>
<text x="133.000" y="41.500" font-family="Helvetica, Arial, sans-serif" font-size="2.6" font-weight="normal" text-anchor="start" fill="black">Zip holes: 6 × Ø4</text>
<text x="133.000" y="45.000" font-family="Helvetica, Arial, sans-serif" font-size="2.6" font-weight="normal" text-anchor="start" fill="black">Velcro slots: 9.3 × 28</text>
<text x="133.000" y="48.500" font-family="Helvetica, Arial, sans-serif" font-size="2.6" font-weight="normal" text-anchor="start" fill="black">Serrated V-edges grip the plug</text>
<line x1="14.000" y1="248.000" x2="196.000" y2="248.000" stroke="#888888" stroke-width="0.2"/>
<text x="14.000" y="252.500" font-family="Helvetica, Arial, sans-serif" font-size="3.2" font-weight="bold" text-anchor="start" fill="black">How to use this sheet</text>
<text x="14.000" y="256.500" font-family="Helvetica, Arial, sans-serif" font-size="2.7" font-weight="normal" text-anchor="start" fill="black">1. Print at 100% and measure the calibration square — it must be exactly 50 × 50 mm.</text>
<text x="14.000" y="260.100" font-family="Helvetica, Arial, sans-serif" font-size="2.7" font-weight="normal" text-anchor="start" fill="black">2. Cut along the SOLID outline (both arms). Dashed lines are holes and slots.</text>
<text x="14.000" y="263.700" font-family="Helvetica, Arial, sans-serif" font-size="2.7" font-weight="normal" text-anchor="start" fill="black">3. Lay the cutout over your plug: the plug body sits between the serrated V-edges, the cord in the bottom channel.</text>
<text x="14.000" y="267.300" font-family="Helvetica, Arial, sans-serif" font-size="2.7" font-weight="normal" text-anchor="start" fill="black">4. The real tool is TWO of these plates zip-tied face to face around the plug — this sheet previews one.</text>
<text x="14.000" y="270.900" font-family="Helvetica, Arial, sans-serif" font-size="2.7" font-weight="normal" text-anchor="start" fill="black">5. Happy? Open the Customizer with the title-block settings and export your STL (docs/guides/quick-start-beginner.md).</text>
<text x="105.000" y="275.500" font-family="Helvetica, Arial, sans-serif" font-size="2.4" font-weight="normal" text-anchor="middle" fill="#444444">openscad-plug-puller v0.9 · outline_heavy-duty-clamshell_large.svg · scale 1:1 · guide: docs/guides/print-preview-outlines.md</text>
<path d="M 118.202 126.021 L 118.452 125.871 L 118.650 125.653 L 118.775 125.388 L 118.813 125.196 L 118.813 125.000 L 118.742 124.715 L 118.591 124.463 L 118.375 124.268 L 118.545 123.929 L 118.731 123.618 L 119.158 123.043 L 119.526 122.649 L 119.932 122.294 L 120.223 122.077 L 120.681 121.793 L 121.165 121.554 L 121.670 121.364 L 122.364 121.191 L 122.899 121.120 L 123.262 121.102 L 123.977 121.137 L 124.509 121.225 L 125.030 121.364 L 125.371 121.487 L 125.863 121.709 L 126.330 121.979 L 126.768 122.294 L 127.298 122.774 L 127.654 123.180 L 127.969 123.618 L 128.155 123.929 L 128.394 124.413 L 128.621 125.025 L 132.139 135.799 L 132.314 136.483 L 141.161 177.524 L 141.405 179.144 L 141.496 180.810 L 141.422 182.476 L 141.186 184.127 L 140.789 185.747 L 140.236 187.320 L 139.530 188.832 L 138.680 190.267 L 137.694 191.611 L 136.580 192.853 L 135.350 193.980 L 134.016 194.980 L 132.590 195.845 L 131.086 196.566 L 129.518 197.136 L 127.902 197.550 L 126.254 197.803 L 124.456 197.898 L 111.124 197.889 L 110.949 197.863 L 110.611 197.761 L 110.300 197.594 L 110.027 197.371 L 109.803 197.098 L 109.637 196.787 L 109.535 196.449 L 109.509 196.274 L 109.500 169.155 L 109.533 168.811 L 109.728 167.822 L 109.847 167.489 L 110.029 167.187 L 110.141 167.050 L 110.403 166.813 L 110.705 166.632 L 110.869 166.565 L 116.857 165.059 L 117.033 165.180 L 117.310 165.279 L 117.505 165.298 L 117.795 165.255 L 118.060 165.129 L 118.278 164.932 L 118.429 164.681 L 118.500 164.396 L 118.500 164.200 L 118.462 164.008 L 118.387 163.826 L 118.278 163.663 L 118.139 163.525 L 117.976 163.416 L 117.795 163.341 L 117.513 163.298 L 117.519 162.497 L 117.722 162.479 L 117.910 162.422 L 118.083 162.329 L 118.234 162.205 L 118.359 162.053 L 118.451 161.881 L 118.508 161.693 L 118.527 161.498 L 118.508 161.303 L 118.451 161.115 L 118.359 160.942 L 118.234 160.791 L 118.083 160.666 L 117.910 160.574 L 117.722 160.517 L 117.535 160.498 L 117.542 159.697 L 117.745 159.679 L 117.932 159.622 L 118.105 159.529 L 118.257 159.405 L 118.381 159.253 L 118.473 159.081 L 118.530 158.893 L 118.550 158.698 L 118.530 158.503 L 118.473 158.315 L 118.381 158.142 L 118.257 157.991 L 118.105 157.866 L 117.932 157.774 L 117.745 157.717 L 117.558 157.698 L 117.564 156.897 L 117.767 156.879 L 117.955 156.822 L 118.127 156.729 L 118.279 156.605 L 118.403 156.453 L 118.496 156.281 L 118.553 156.093 L 118.572 155.898 L 118.553 155.703 L 118.496 155.515 L 118.403 155.342 L 118.279 155.191 L 118.127 155.066 L 117.955 154.974 L 117.767 154.917 L 117.580 154.898 L 117.586 154.097 L 117.789 154.079 L 117.977 154.022 L 118.150 153.929 L 118.301 153.805 L 118.426 153.653 L 118.518 153.481 L 118.575 153.293 L 118.594 153.098 L 118.575 152.903 L 118.518 152.715 L 118.426 152.542 L 118.301 152.391 L 118.150 152.266 L 117.977 152.174 L 117.789 152.117 L 117.602 152.098 L 117.609 151.297 L 117.812 151.279 L 117.999 151.222 L 118.172 151.129 L 118.324 151.005 L 118.448 150.853 L 118.541 150.681 L 118.597 150.493 L 118.617 150.298 L 118.597 150.103 L 118.541 149.915 L 118.448 149.742 L 118.324 149.591 L 118.172 149.466 L 117.999 149.374 L 117.812 149.317 L 117.625 149.298 L 117.631 148.497 L 117.834 148.479 L 118.022 148.422 L 118.195 148.329 L 118.346 148.205 L 118.471 148.053 L 118.563 147.881 L 118.620 147.693 L 118.639 147.498 L 118.620 147.303 L 118.563 147.115 L 118.471 146.942 L 118.346 146.791 L 118.195 146.666 L 118.022 146.574 L 117.834 146.517 L 117.647 146.498 L 117.653 145.697 L 117.857 145.679 L 118.044 145.622 L 118.217 145.529 L 118.369 145.405 L 118.493 145.253 L 118.585 145.081 L 118.642 144.893 L 118.661 144.698 L 118.642 144.503 L 118.585 144.315 L 118.493 144.142 L 118.369 143.991 L 118.217 143.866 L 118.044 143.774 L 117.857 143.717 L 117.669 143.698 L 117.676 142.897 L 117.879 142.879 L 118.066 142.822 L 118.239 142.729 L 118.391 142.605 L 118.515 142.453 L 118.608 142.281 L 118.665 142.093 L 118.684 141.898 L 118.665 141.703 L 118.608 141.515 L 118.515 141.342 L 118.391 141.191 L 118.239 141.066 L 118.066 140.974 L 117.879 140.917 L 117.692 140.898 L 117.698 140.097 L 117.901 140.079 L 118.089 140.022 L 118.262 139.929 L 118.413 139.805 L 118.538 139.653 L 118.630 139.481 L 118.687 139.293 L 118.706 139.098 L 118.687 138.903 L 118.630 138.715 L 118.538 138.542 L 118.413 138.391 L 118.262 138.266 L 118.089 138.174 L 117.901 138.117 L 117.714 138.098 L 117.721 137.297 L 117.924 137.279 L 118.111 137.222 L 118.284 137.129 L 118.436 137.005 L 118.560 136.853 L 118.652 136.681 L 118.709 136.493 L 118.729 136.298 L 118.709 136.103 L 118.652 135.915 L 118.560 135.742 L 118.436 135.591 L 118.284 135.466 L 118.111 135.374 L 117.924 135.317 L 117.737 135.298 L 117.743 134.497 L 117.849 134.493 L 118.041 134.455 L 118.222 134.380 L 118.385 134.271 L 118.524 134.132 L 118.633 133.969 L 118.708 133.788 L 118.746 133.596 L 118.746 133.400 L 118.708 133.208 L 118.633 133.026 L 118.524 132.863 L 118.385 132.725 L 118.222 132.616 L 118.041 132.541 L 117.759 132.498 L 117.765 131.697 L 117.871 131.693 L 118.064 131.655 L 118.245 131.580 L 118.408 131.471 L 118.546 131.332 L 118.655 131.169 L 118.730 130.988 L 118.768 130.796 L 118.768 130.600 L 118.730 130.408 L 118.655 130.226 L 118.546 130.063 L 118.408 129.925 L 118.245 129.816 L 118.064 129.741 L 117.781 129.698 L 117.788 128.897 L 117.894 128.893 L 118.086 128.855 L 118.267 128.780 L 118.430 128.671 L 118.569 128.532 L 118.678 128.369 L 118.753 128.188 L 118.791 127.996 L 118.791 127.800 L 118.753 127.608 L 118.678 127.426 L 118.569 127.263 L 118.430 127.125 L 118.267 127.016 L 118.086 126.941 L 117.804 126.898 L 117.807 126.447 L 117.844 126.097 L 118.013 126.079 L 118.202 126.021 Z" fill="none" stroke="black" stroke-width="0.5" stroke-linejoin="round"/>
<path d="M 130.165 154.649 L 130.053 155.098 L 129.899 155.527 L 129.704 155.940 L 129.470 156.331 L 129.198 156.698 L 128.891 157.036 L 128.553 157.342 L 128.187 157.614 L 127.795 157.849 L 127.383 158.044 L 126.953 158.198 L 126.510 158.308 L 126.059 158.375 L 125.603 158.398 L 125.148 158.375 L 124.696 158.308 L 124.253 158.198 L 123.824 158.044 L 123.411 157.849 L 123.020 157.614 L 122.653 157.342 L 122.315 157.036 L 122.009 156.698 L 121.737 156.331 L 121.502 155.940 L 121.307 155.527 L 121.154 155.098 L 121.043 154.655 L 120.976 154.204 L 120.953 153.748 L 120.953 137.848 L 120.976 137.392 L 121.043 136.941 L 121.154 136.498 L 121.307 136.068 L 121.502 135.656 L 121.737 135.264 L 122.009 134.898 L 122.315 134.560 L 122.653 134.253 L 123.020 133.981 L 123.411 133.747 L 123.824 133.552 L 124.253 133.398 L 124.696 133.287 L 125.148 133.220 L 125.603 133.198 L 126.059 133.220 L 126.510 133.287 L 126.953 133.398 L 127.383 133.552 L 127.795 133.747 L 128.187 133.981 L 128.553 134.253 L 128.891 134.560 L 129.198 134.898 L 129.470 135.264 L 129.704 135.656 L 129.899 136.068 L 130.053 136.498 L 130.164 136.941 L 130.231 137.392 L 130.253 137.848 L 130.253 153.748 L 130.231 154.204 L 130.165 154.649 Z" fill="none" stroke="black" stroke-width="0.35" stroke-linejoin="round" stroke-dasharray="1.6,1.1"/>
<path d="M 123.883 161.453 L 123.666 161.129 L 123.389 160.852 L 123.063 160.634 L 122.701 160.484 L 122.316 160.407 L 121.924 160.407 L 121.539 160.484 L 121.177 160.634 L 120.851 160.852 L 120.574 161.129 L 120.356 161.455 L 120.206 161.817 L 120.130 162.202 L 120.130 162.594 L 120.206 162.978 L 120.356 163.341 L 120.574 163.667 L 120.851 163.944 L 121.177 164.162 L 121.539 164.312 L 121.924 164.388 L 122.316 164.388 L 122.701 164.312 L 123.063 164.162 L 123.389 163.944 L 123.666 163.667 L 123.884 163.341 L 124.034 162.978 L 124.110 162.594 L 124.110 162.202 L 124.034 161.817 L 123.883 161.453 Z" fill="none" stroke="black" stroke-width="0.35" stroke-linejoin="round" stroke-dasharray="1.6,1.1"/>
<path d="M 113.517 192.145 L 113.157 192.294 L 112.831 192.512 L 112.554 192.789 L 112.336 193.115 L 112.186 193.477 L 112.110 193.862 L 112.110 194.254 L 112.186 194.638 L 112.336 195.001 L 112.554 195.327 L 112.831 195.604 L 113.157 195.822 L 113.519 195.972 L 113.904 196.048 L 114.296 196.048 L 114.681 195.972 L 115.043 195.822 L 115.369 195.604 L 115.646 195.327 L 115.864 195.001 L 116.014 194.638 L 116.090 194.254 L 116.090 193.862 L 116.014 193.477 L 115.864 193.115 L 115.646 192.789 L 115.369 192.512 L 115.043 192.294 L 114.681 192.144 L 114.296 192.067 L 113.904 192.067 L 113.517 192.145 Z" fill="none" stroke="black" stroke-width="0.35" stroke-linejoin="round" stroke-dasharray="1.6,1.1"/>
<path d="M 122.969 131.046 L 122.623 130.861 L 122.320 130.612 L 122.071 130.309 L 121.886 129.963 L 121.772 129.588 L 121.734 129.198 L 121.772 128.808 L 121.886 128.432 L 122.071 128.087 L 122.320 127.784 L 122.623 127.535 L 122.969 127.350 L 123.344 127.236 L 123.734 127.198 L 124.124 127.236 L 124.499 127.350 L 124.845 127.535 L 125.148 127.784 L 125.397 128.087 L 125.582 128.432 L 125.696 128.808 L 125.734 129.198 L 125.696 129.588 L 125.582 129.963 L 125.397 130.309 L 125.148 130.612 L 124.845 130.861 L 124.499 131.046 L 124.124 131.159 L 123.734 131.198 L 123.344 131.159 L 122.969 131.046 Z" fill="none" stroke="black" stroke-width="0.35" stroke-linejoin="round" stroke-dasharray="1.6,1.1"/>
<path d="M 129.092 169.811 L 127.983 169.415 L 126.841 169.128 L 125.676 168.956 L 124.500 168.898 L 123.324 168.956 L 122.159 169.128 L 121.017 169.415 L 119.908 169.811 L 118.843 170.315 L 117.833 170.920 L 116.887 171.622 L 116.015 172.413 L 115.224 173.285 L 114.522 174.231 L 113.917 175.241 L 113.413 176.306 L 113.017 177.414 L 112.731 178.557 L 112.558 179.722 L 112.500 180.898 L 112.558 182.074 L 112.731 183.239 L 113.017 184.381 L 113.413 185.490 L 113.917 186.555 L 114.522 187.565 L 115.224 188.511 L 116.015 189.383 L 116.887 190.174 L 117.833 190.875 L 118.843 191.481 L 119.908 191.984 L 121.017 192.381 L 122.159 192.667 L 123.324 192.840 L 124.500 192.898 L 125.676 192.840 L 126.841 192.667 L 127.983 192.381 L 129.092 191.984 L 130.157 191.481 L 131.167 190.875 L 132.113 190.174 L 132.985 189.383 L 133.776 188.511 L 134.478 187.565 L 135.083 186.555 L 135.587 185.490 L 135.983 184.381 L 136.269 183.239 L 136.442 182.074 L 136.500 180.898 L 136.442 179.722 L 136.269 178.557 L 135.983 177.414 L 135.587 176.306 L 135.083 175.241 L 134.478 174.231 L 133.776 173.285 L 132.985 172.413 L 132.113 171.622 L 131.167 170.920 L 130.157 170.315 L 129.092 169.811 Z" fill="none" stroke="black" stroke-width="0.35" stroke-linejoin="round" stroke-dasharray="1.6,1.1"/>
<path d="M 91.936 129.741 L 92.219 129.698 L 92.212 128.897 L 92.106 128.893 L 91.914 128.855 L 91.733 128.780 L 91.570 128.671 L 91.431 128.532 L 91.322 128.369 L 91.247 128.188 L 91.209 127.996 L 91.209 127.800 L 91.247 127.608 L 91.322 127.426 L 91.431 127.263 L 91.570 127.125 L 91.733 127.016 L 91.914 126.941 L 92.196 126.898 L 92.193 126.447 L 92.156 126.097 L 91.987 126.079 L 91.799 126.022 L 91.548 125.871 L 91.409 125.732 L 91.300 125.569 L 91.201 125.293 L 91.187 125.000 L 91.258 124.715 L 91.409 124.463 L 91.625 124.268 L 91.455 123.929 L 91.170 123.471 L 90.842 123.043 L 90.598 122.774 L 90.068 122.294 L 89.777 122.077 L 89.319 121.793 L 88.835 121.554 L 88.330 121.364 L 87.809 121.225 L 87.277 121.137 L 86.738 121.102 L 86.199 121.120 L 85.664 121.191 L 85.139 121.313 L 84.629 121.487 L 84.137 121.709 L 83.670 121.979 L 83.232 122.294 L 82.826 122.649 L 82.458 123.043 L 82.130 123.471 L 81.845 123.929 L 81.606 124.413 L 81.379 125.025 L 77.861 135.799 L 77.686 136.483 L 68.839 177.524 L 68.595 179.144 L 68.504 180.810 L 68.578 182.476 L 68.814 184.127 L 69.211 185.747 L 69.764 187.320 L 70.470 188.832 L 71.320 190.267 L 72.306 191.611 L 73.420 192.853 L 74.650 193.980 L 75.984 194.980 L 77.410 195.845 L 78.914 196.566 L 80.482 197.136 L 82.098 197.550 L 83.746 197.803 L 85.544 197.898 L 98.876 197.889 L 99.051 197.863 L 99.389 197.761 L 99.700 197.594 L 99.973 197.371 L 100.197 197.098 L 100.363 196.787 L 100.465 196.449 L 100.491 196.274 L 100.500 169.155 L 100.467 168.811 L 100.272 167.822 L 100.153 167.489 L 99.971 167.187 L 99.859 167.050 L 99.597 166.813 L 99.295 166.632 L 99.131 166.565 L 93.143 165.059 L 92.967 165.180 L 92.690 165.279 L 92.495 165.298 L 92.205 165.255 L 91.940 165.129 L 91.722 164.932 L 91.571 164.681 L 91.500 164.396 L 91.500 164.200 L 91.538 164.008 L 91.613 163.826 L 91.722 163.663 L 91.861 163.525 L 92.024 163.416 L 92.205 163.341 L 92.487 163.298 L 92.481 162.497 L 92.278 162.479 L 92.090 162.422 L 91.917 162.329 L 91.766 162.205 L 91.641 162.053 L 91.549 161.881 L 91.492 161.693 L 91.473 161.498 L 91.492 161.303 L 91.549 161.115 L 91.641 160.942 L 91.766 160.791 L 91.917 160.666 L 92.090 160.574 L 92.278 160.517 L 92.465 160.498 L 92.458 159.697 L 92.255 159.679 L 92.068 159.622 L 91.895 159.529 L 91.743 159.405 L 91.619 159.253 L 91.527 159.081 L 91.470 158.893 L 91.450 158.698 L 91.470 158.503 L 91.527 158.315 L 91.619 158.142 L 91.743 157.991 L 91.895 157.866 L 92.068 157.774 L 92.255 157.717 L 92.442 157.698 L 92.436 156.897 L 92.233 156.879 L 92.045 156.822 L 91.873 156.729 L 91.721 156.605 L 91.597 156.453 L 91.504 156.281 L 91.447 156.093 L 91.428 155.898 L 91.447 155.703 L 91.504 155.515 L 91.597 155.342 L 91.721 155.191 L 91.873 155.066 L 92.045 154.974 L 92.233 154.917 L 92.420 154.898 L 92.414 154.097 L 92.211 154.079 L 92.023 154.022 L 91.850 153.929 L 91.699 153.805 L 91.574 153.653 L 91.482 153.481 L 91.425 153.293 L 91.406 153.098 L 91.425 152.903 L 91.482 152.715 L 91.574 152.542 L 91.699 152.391 L 91.850 152.266 L 92.023 152.174 L 92.211 152.117 L 92.398 152.098 L 92.391 151.297 L 92.188 151.279 L 92.001 151.222 L 91.828 151.129 L 91.676 151.005 L 91.552 150.853 L 91.459 150.681 L 91.403 150.493 L 91.383 150.298 L 91.403 150.103 L 91.459 149.915 L 91.552 149.742 L 91.676 149.591 L 91.828 149.466 L 92.001 149.374 L 92.188 149.317 L 92.375 149.298 L 92.369 148.497 L 92.166 148.479 L 91.978 148.422 L 91.805 148.329 L 91.654 148.205 L 91.529 148.053 L 91.437 147.881 L 91.380 147.693 L 91.361 147.498 L 91.380 147.303 L 91.437 147.115 L 91.529 146.942 L 91.654 146.791 L 91.805 146.666 L 91.978 146.574 L 92.166 146.517 L 92.353 146.498 L 92.347 145.697 L 92.143 145.679 L 91.956 145.622 L 91.783 145.529 L 91.631 145.405 L 91.507 145.253 L 91.415 145.081 L 91.358 144.893 L 91.339 144.698 L 91.358 144.503 L 91.415 144.315 L 91.507 144.142 L 91.631 143.991 L 91.783 143.866 L 91.956 143.774 L 92.143 143.717 L 92.331 143.698 L 92.324 142.897 L 92.121 142.879 L 91.934 142.822 L 91.761 142.729 L 91.609 142.605 L 91.485 142.453 L 91.392 142.281 L 91.335 142.093 L 91.316 141.898 L 91.335 141.703 L 91.392 141.515 L 91.485 141.342 L 91.609 141.191 L 91.761 141.066 L 91.934 140.974 L 92.121 140.917 L 92.308 140.898 L 92.302 140.097 L 92.099 140.079 L 91.911 140.022 L 91.738 139.929 L 91.587 139.805 L 91.462 139.653 L 91.370 139.481 L 91.313 139.293 L 91.294 139.098 L 91.313 138.903 L 91.370 138.715 L 91.462 138.542 L 91.587 138.391 L 91.738 138.266 L 91.911 138.174 L 92.099 138.117 L 92.286 138.098 L 92.279 137.297 L 92.076 137.279 L 91.889 137.222 L 91.716 137.129 L 91.564 137.005 L 91.440 136.853 L 91.348 136.681 L 91.291 136.493 L 91.271 136.298 L 91.291 136.103 L 91.348 135.915 L 91.440 135.742 L 91.564 135.591 L 91.716 135.466 L 91.889 135.374 L 92.076 135.317 L 92.263 135.298 L 92.257 134.497 L 92.054 134.479 L 91.866 134.422 L 91.694 134.329 L 91.542 134.205 L 91.418 134.053 L 91.325 133.881 L 91.268 133.693 L 91.249 133.498 L 91.268 133.303 L 91.325 133.115 L 91.418 132.942 L 91.542 132.791 L 91.694 132.666 L 91.866 132.574 L 92.054 132.517 L 92.241 132.498 L 92.235 131.697 L 92.032 131.679 L 91.844 131.622 L 91.671 131.529 L 91.520 131.405 L 91.395 131.253 L 91.303 131.081 L 91.246 130.893 L 91.227 130.698 L 91.270 130.408 L 91.345 130.226 L 91.454 130.063 L 91.592 129.925 L 91.755 129.816 L 91.936 129.741 Z" fill="none" stroke="black" stroke-width="0.5" stroke-linejoin="round"/>
<path d="M 96.483 195.971 L 96.096 196.048 L 95.704 196.048 L 95.319 195.972 L 94.957 195.822 L 94.631 195.604 L 94.354 195.327 L 94.136 195.001 L 93.986 194.638 L 93.910 194.254 L 93.910 193.862 L 93.986 193.477 L 94.136 193.115 L 94.354 192.789 L 94.631 192.512 L 94.957 192.294 L 95.319 192.144 L 95.704 192.067 L 96.096 192.067 L 96.481 192.144 L 96.843 192.294 L 97.169 192.512 L 97.446 192.789 L 97.664 193.115 L 97.814 193.477 L 97.890 193.862 L 97.890 194.254 L 97.814 194.638 L 97.664 195.001 L 97.446 195.327 L 97.169 195.604 L 96.843 195.822 L 96.483 195.971 Z" fill="none" stroke="black" stroke-width="0.35" stroke-linejoin="round" stroke-dasharray="1.6,1.1"/>
<path d="M 86.117 163.343 L 85.966 162.978 L 85.890 162.594 L 85.890 162.202 L 85.966 161.817 L 86.116 161.455 L 86.334 161.129 L 86.611 160.852 L 86.937 160.634 L 87.299 160.484 L 87.684 160.407 L 88.076 160.407 L 88.461 160.484 L 88.823 160.634 L 89.149 160.852 L 89.426 161.129 L 89.644 161.455 L 89.794 161.817 L 89.870 162.202 L 89.870 162.594 L 89.794 162.978 L 89.644 163.341 L 89.426 163.667 L 89.149 163.944 L 88.823 164.162 L 88.461 164.312 L 88.076 164.388 L 87.684 164.388 L 87.299 164.312 L 86.937 164.162 L 86.611 163.944 L 86.334 163.667 L 86.117 163.343 Z" fill="none" stroke="black" stroke-width="0.35" stroke-linejoin="round" stroke-dasharray="1.6,1.1"/>
<path d="M 79.835 136.946 L 79.769 137.392 L 79.747 137.848 L 79.747 153.748 L 79.769 154.204 L 79.836 154.655 L 79.947 155.098 L 80.101 155.527 L 80.296 155.940 L 80.530 156.331 L 80.802 156.698 L 81.109 157.036 L 81.447 157.342 L 81.813 157.614 L 82.205 157.849 L 82.617 158.044 L 83.047 158.198 L 83.490 158.308 L 83.941 158.375 L 84.397 158.398 L 84.852 158.375 L 85.304 158.308 L 85.747 158.198 L 86.176 158.044 L 86.589 157.849 L 86.980 157.614 L 87.347 157.342 L 87.685 157.036 L 87.991 156.698 L 88.263 156.331 L 88.498 155.940 L 88.693 155.527 L 88.846 155.098 L 88.957 154.655 L 89.024 154.204 L 89.047 153.748 L 89.047 137.848 L 89.024 137.392 L 88.957 136.941 L 88.846 136.498 L 88.693 136.068 L 88.498 135.656 L 88.263 135.264 L 87.991 134.898 L 87.685 134.560 L 87.347 134.253 L 86.980 133.981 L 86.589 133.747 L 86.176 133.552 L 85.747 133.398 L 85.304 133.287 L 84.852 133.220 L 84.397 133.198 L 83.941 133.220 L 83.490 133.287 L 83.047 133.398 L 82.617 133.552 L 82.205 133.747 L 81.813 133.981 L 81.447 134.253 L 81.109 134.560 L 80.802 134.898 L 80.530 135.264 L 80.296 135.656 L 80.101 136.068 L 79.947 136.498 L 79.835 136.946 Z" fill="none" stroke="black" stroke-width="0.35" stroke-linejoin="round" stroke-dasharray="1.6,1.1"/>
<path d="M 92.149 170.909 L 93.113 171.622 L 93.985 172.413 L 94.776 173.285 L 95.478 174.231 L 96.083 175.241 L 96.587 176.306 L 96.983 177.414 L 97.269 178.557 L 97.442 179.722 L 97.500 180.898 L 97.442 182.074 L 97.269 183.239 L 96.983 184.381 L 96.587 185.490 L 96.083 186.555 L 95.478 187.565 L 94.776 188.511 L 93.985 189.383 L 93.113 190.174 L 92.167 190.875 L 91.157 191.481 L 90.092 191.984 L 88.983 192.381 L 87.841 192.667 L 86.676 192.840 L 85.500 192.898 L 84.324 192.840 L 83.159 192.667 L 82.017 192.381 L 80.908 191.984 L 79.843 191.481 L 78.833 190.875 L 77.887 190.174 L 77.015 189.383 L 76.224 188.511 L 75.522 187.565 L 74.917 186.555 L 74.413 185.490 L 74.017 184.381 L 73.731 183.239 L 73.558 182.074 L 73.500 180.898 L 73.558 179.722 L 73.731 178.557 L 74.017 177.414 L 74.413 176.306 L 74.917 175.241 L 75.522 174.231 L 76.224 173.285 L 77.015 172.413 L 77.887 171.622 L 78.833 170.920 L 79.843 170.315 L 80.908 169.811 L 82.017 169.415 L 83.159 169.128 L 84.324 168.956 L 85.500 168.898 L 86.676 168.956 L 87.841 169.128 L 88.983 169.415 L 90.092 169.811 L 91.157 170.315 L 92.149 170.909 Z" fill="none" stroke="black" stroke-width="0.35" stroke-linejoin="round" stroke-dasharray="1.6,1.1"/>
<path d="M 84.605 130.311 L 84.852 130.612 L 85.155 130.861 L 85.501 131.046 L 85.876 131.159 L 86.266 131.198 L 86.656 131.159 L 87.031 131.046 L 87.377 130.861 L 87.680 130.612 L 87.929 130.309 L 88.114 129.963 L 88.228 129.588 L 88.266 129.198 L 88.228 128.808 L 88.114 128.432 L 87.929 128.087 L 87.680 127.784 L 87.377 127.535 L 87.031 127.350 L 86.656 127.236 L 86.266 127.198 L 85.876 127.236 L 85.501 127.350 L 85.155 127.535 L 84.852 127.784 L 84.603 128.087 L 84.418 128.432 L 84.304 128.808 L 84.266 129.198 L 84.304 129.588 L 84.418 129.963 L 84.605 130.311 Z" fill="none" stroke="black" stroke-width="0.35" stroke-linejoin="round" stroke-dasharray="1.6,1.1"/>
<line x1="120.773" y1="162.369" x2="123.573" y2="162.369" stroke="black" stroke-width="0.2"/>
<line x1="122.173" y1="160.969" x2="122.173" y2="163.769" stroke="black" stroke-width="0.2"/>
<line x1="112.682" y1="194.000" x2="115.482" y2="194.000" stroke="black" stroke-width="0.2"/>
<line x1="114.082" y1="192.600" x2="114.082" y2="195.400" stroke="black" stroke-width="0.2"/>
<line x1="122.311" y1="129.254" x2="125.111" y2="129.254" stroke="black" stroke-width="0.2"/>
<line x1="123.711" y1="127.854" x2="123.711" y2="130.654" stroke="black" stroke-width="0.2"/>
<line x1="123.171" y1="180.727" x2="125.971" y2="180.727" stroke="black" stroke-width="0.2"/>
<line x1="124.571" y1="179.327" x2="124.571" y2="182.127" stroke="black" stroke-width="0.2"/>
<line x1="94.518" y1="194.116" x2="97.318" y2="194.116" stroke="black" stroke-width="0.2"/>
<line x1="95.918" y1="192.716" x2="95.918" y2="195.516" stroke="black" stroke-width="0.2"/>
<line x1="86.427" y1="162.427" x2="89.227" y2="162.427" stroke="black" stroke-width="0.2"/>
<line x1="87.827" y1="161.027" x2="87.827" y2="163.827" stroke="black" stroke-width="0.2"/>
<line x1="84.202" y1="180.744" x2="87.002" y2="180.744" stroke="black" stroke-width="0.2"/>
<line x1="85.602" y1="179.344" x2="85.602" y2="182.144" stroke="black" stroke-width="0.2"/>
<line x1="84.816" y1="129.232" x2="87.616" y2="129.232" stroke="black" stroke-width="0.2"/>
<line x1="86.216" y1="127.832" x2="86.216" y2="130.632" stroke="black" stroke-width="0.2"/>
<path d="M 99.000 197.898 L 111.000 197.898 L 111.000 166.898 L 99.000 166.898 Z" fill="none" stroke="#888888" stroke-width="0.25" stroke-linejoin="round" stroke-dasharray="2.4,1.4"/>
<text x="105.000" y="165.398" font-family="Helvetica, Arial, sans-serif" font-size="2.2" font-weight="normal" text-anchor="middle" fill="#888888" paint-order="stroke" stroke="white" stroke-width="0.9">cable strip (outer face)</text>
<line x1="68.504" y1="121.102" x2="58.504" y2="121.102" stroke="black" stroke-width="0.18"/>
<line x1="68.504" y1="197.898" x2="58.504" y2="197.898" stroke="black" stroke-width="0.18"/>
<line x1="59.504" y1="121.102" x2="59.504" y2="197.898" stroke="black" stroke-width="0.25"/>
<polygon points="59.504,121.102 60.254,123.502 58.754,123.502" fill="black"/>
<polygon points="59.504,197.898 58.754,195.498 60.254,195.498" fill="black"/>
<text x="58.104" y="160.500" font-family="Helvetica, Arial, sans-serif" font-size="3" font-weight="bold" text-anchor="end" fill="black" paint-order="stroke" stroke="white" stroke-width="0.9">76.8</text>
<line x1="68.504" y1="197.898" x2="68.504" y2="206.898" stroke="black" stroke-width="0.18"/>
<line x1="141.496" y1="197.898" x2="141.496" y2="206.898" stroke="black" stroke-width="0.18"/>
<line x1="68.504" y1="205.898" x2="141.496" y2="205.898" stroke="black" stroke-width="0.25"/>
<polygon points="68.504,205.898 70.904,205.148 70.904,206.648" fill="black"/>
<polygon points="141.496,205.898 139.096,206.648 139.096,205.148" fill="black"/>
<text x="105.000" y="209.798" font-family="Helvetica, Arial, sans-serif" font-size="3" font-weight="bold" text-anchor="middle" fill="black" paint-order="stroke" stroke="white" stroke-width="0.9">72.99</text>
<line x1="100.500" y1="197.898" x2="100.500" y2="202.398" stroke="black" stroke-width="0.18"/>
<line x1="109.500" y1="197.898" x2="109.500" y2="202.398" stroke="black" stroke-width="0.18"/>
<line x1="95.500" y1="201.398" x2="114.500" y2="201.398" stroke="black" stroke-width="0.25"/>
<polygon points="100.500,201.398 98.100,202.148 98.100,200.648" fill="black"/>
<polygon points="109.500,201.398 111.900,200.648 111.900,202.148" fill="black"/>
<text x="115.300" y="204.898" font-family="Helvetica, Arial, sans-serif" font-size="2.6" font-weight="bold" text-anchor="start" fill="black" paint-order="stroke" stroke="white" stroke-width="0.9">cord 9</text>
<line x1="133.054" y1="189.211" x2="139.418" y2="195.575" stroke="black" stroke-width="0.25"/>
<polygon points="133.054,189.211 135.282,190.378 134.221,191.438" fill="black"/>
<line x1="139.418" y1="195.575" x2="145.418" y2="195.575" stroke="black" stroke-width="0.25"/>
<text x="146.218" y="194.675" font-family="Helvetica, Arial, sans-serif" font-size="3" font-weight="bold" text-anchor="start" fill="black" paint-order="stroke" stroke="white" stroke-width="0.9">Ø24 (2×)</text>
</svg>
