<svg xmlns="http://www.w3.org/2000/svg" width="210mm" height="279mm" viewBox="0 0 210 279">
<rect x="0" y="0" width="210" height="279" fill="white"/>
<text x="105.000" y="12.000" font-family="Helvetica, Arial, sans-serif" font-size="5" font-weight="bold" text-anchor="middle" fill="black">Plug Puller — Heavy-duty clamshell plate · Medium</text>
<text x="105.000" y="17.500" font-family="Helvetica, Arial, sans-serif" font-size="2.8" font-weight="normal" text-anchor="middle" fill="black">1:1 outline sheet — print at 100% scale / “Actual size”, never “fit to page”. Check the calibration square before trusting anything.</text>
<rect x="14" y="22" width="50" height="50" fill="none" stroke="black" stroke-width="0.4"/>
<text x="39.000" y="45.500" font-family="Helvetica, Arial, sans-serif" font-size="3.4" font-weight="bold" text-anchor="middle" fill="black">CALIBRATION</text>
<text x="39.000" y="50.500" font-family="Helvetica, Arial, sans-serif" font-size="3.4" font-weight="normal" text-anchor="middle" fill="black">50 × 50 mm</text>
<text x="39.000" y="56.500" font-family="Helvetica, Arial, sans-serif" font-size="2.6" font-weight="normal" text-anchor="middle" fill="#444444">Measure me with a ruler.</text>
<text x="39.000" y="60.500" font-family="Helvetica, Arial, sans-serif" font-size="2.6" font-weight="normal" text-anchor="middle" fill="#444444">Not 50 mm? Re-print at 100%.</text>
<rect x="70" y="22" width="126" height="50" fill="none" stroke="black" stroke-width="0.3"/>
<text x="73.000" y="27.000" font-family="Helvetica, Arial, sans-serif" font-size="3.4" font-weight="bold" text-anchor="start" fill="black">Heavy-duty clamshell plate</text>
<text x="73.000" y="31.600" font-family="Helvetica, Arial, sans-serif" font-size="2.8" font-weight="normal" text-anchor="start" fill="black">Heavy-duty extension cord</text>
<text x="73.000" y="35.400" font-family="Helvetica, Arial, sans-serif" font-size="2.8" font-weight="normal" text-anchor="start" fill="black">Medium hand size · the tool is TWO plates</text>
<text x="73.000" y="39.200" font-family="Helvetica, Arial, sans-serif" font-size="2.8" font-weight="normal" text-anchor="start" fill="black">Printed footprint ≈ 66.99 × 73.8 mm (one plate)</text>
<text x="73.000" y="43.800" font-family="Helvetica, Arial, sans-serif" font-size="2.6" font-weight="normal" text-anchor="start" fill="#333333">Customizer settings for this exact plate:</text>
<text x="73.000" y="47.200" font-family="Helvetica, Arial, sans-serif" font-size="2.6" font-weight="normal" text-anchor="start" fill="#333333">  tool_style = Heavy-duty clamshell</text>
<text x="73.000" y="50.600" font-family="Helvetica, Arial, sans-serif" font-size="2.6" font-weight="normal" text-anchor="start" fill="#333333">  plug_preset =</text>
<text x="73.000" y="54.000" font-family="Helvetica, Arial, sans-serif" font-size="2.6" font-weight="normal" text-anchor="start" fill="#333333">      Heavy-duty extension cord - NEMA 5-15</text>
<text x="73.000" y="57.400" font-family="Helvetica, Arial, sans-serif" font-size="2.6" font-weight="normal" text-anchor="start" fill="#333333">  size = Medium</text>
<text x="73.000" y="60.800" font-family="Helvetica, Arial, sans-serif" font-size="2.6" font-weight="normal" text-anchor="start" fill="#333333">  (everything else at its default)</text>
<text x="133.000" y="27.000" font-family="Helvetica, Arial, sans-serif" font-size="2.8" font-weight="bold" text-anchor="start" fill="black">Key dimensions</text>
<text x="133.000" y="31.000" font-family="Helvetica, Arial, sans-serif" font-size="2.6" font-weight="normal" text-anchor="start" fill="black">Plate thickness: 4 mm each (×2 plates)</text>
<text x="133.000" y="34.500" font-family="Helvetica, Arial, sans-serif" font-size="2.6" font-weight="normal" text-anchor="start" fill="black">Finger holes: 2 × Ø21</text>
<text x="133.000" y="38.000" font-family="Helvetica, Arial, sans-serif" font-size="2.6" font-weight="normal" text-anchor="start" fill="black">Cord channel: 9 mm wide</text>
<text x="133.000" y="41.500" font-family="Helvetica, Arial, sans-serif" font-size="2.6" font-weight="normal" text-anchor="start" fill="black">Zip holes: 6 × Ø4</text>
<text x="133.000" y="45.000" font-family="Helvetica, Arial, sans-serif" font-size="2.6" font-weight="normal" text-anchor="start" fill="black">Velcro slots: 9.3 × 28</text>
<text x="133.000" y="48.500" font-family="Helvetica, Arial, sans-serif" font-size="2.6" font-weight="normal" text-anchor="start" fill="black">Serrated V-edges grip the plug</text>
<line x1="14.000" y1="248.000" x2="196.000" y2="248.000" stroke="#888888" stroke-width="0.2"/>
<text x="14.000" y="252.500" font-family="Helvetica, Arial, sans-serif" font-size="3.2" font-weight="bold" text-anchor="start" fill="black">How to use this sheet</text>
<text x="14.000" y="256.500" font-family="Helvetica, Arial, sans-serif" font-size="2.7" font-weight="normal" text-anchor="start" fill="black">1. Print at 100% and measure the calibration square — it must be exactly 50 × 50 mm.</text>
<text x="14.000" y="260.100" font-family="Helvetica, Arial, sans-serif" font-size="2.7" font-weight="normal" text-anchor="start" fill="black">2. Cut along the SOLID outline (both arms). Dashed lines are holes and slots.</text>
<text x="14.000" y="263.700" font-family="Helvetica, Arial, sans-serif" font-size="2.7" font-weight="normal" text-anchor="start" fill="black">3. Lay the cutout over your plug: the plug body sits between the serrated V-edges, the cord in the bottom channel.</text>
<text x="14.000" y="267.300" font-family="Helvetica, Arial, sans-serif" font-size="2.7" font-weight="normal" text-anchor="start" fill="black">4. The real tool is TWO of these plates zip-tied face to face around the plug — this sheet previews one.</text>
<text x="14.000" y="270.900" font-family="Helvetica, Arial, sans-serif" font-size="2.7" font-weight="normal" text-anchor="start" fill="black">5. Happy? Open the Customizer with the title-block settings and export your STL (docs/guides/quick-start-beginner.md).</text>
<text x="105.000" y="275.500" font-family="Helvetica, Arial, sans-serif" font-size="2.4" font-weight="normal" text-anchor="middle" fill="#444444">openscad-plug-puller v0.8 · outline_heavy-duty-clamshell_medium.svg · scale 1:1 · guide: docs/guides/print-preview-outlines.md</text>
<path d="M 118.202 127.521 L 118.452 127.371 L 118.650 127.153 L 118.775 126.888 L 118.813 126.696 L 118.813 126.500 L 118.742 126.215 L 118.591 125.963 L 118.375 125.768 L 118.545 125.429 L 118.830 124.971 L 119.158 124.543 L 119.402 124.274 L 119.932 123.794 L 120.370 123.479 L 120.837 123.209 L 121.329 122.987 L 121.670 122.864 L 122.191 122.725 L 122.723 122.637 L 123.438 122.602 L 123.801 122.620 L 124.336 122.691 L 124.861 122.813 L 125.371 122.987 L 126.019 123.293 L 126.330 123.479 L 126.768 123.794 L 127.174 124.149 L 127.542 124.543 L 127.969 125.118 L 128.238 125.585 L 128.461 126.076 L 128.621 126.525 L 132.139 137.299 L 132.335 138.099 L 138.413 179.292 L 138.496 180.986 L 138.412 182.505 L 138.181 184.008 L 137.854 185.311 L 137.350 186.746 L 136.708 188.125 L 135.835 189.580 L 134.922 190.796 L 133.897 191.915 L 132.899 192.820 L 131.535 193.831 L 130.227 194.605 L 128.848 195.248 L 127.414 195.752 L 125.936 196.113 L 124.431 196.328 L 122.956 196.398 L 111.124 196.389 L 110.949 196.363 L 110.611 196.261 L 110.300 196.094 L 110.027 195.871 L 109.803 195.598 L 109.637 195.287 L 109.535 194.949 L 109.509 194.774 L 109.500 169.803 L 109.520 169.538 L 109.605 169.196 L 109.673 169.033 L 109.855 168.730 L 109.967 168.594 L 110.228 168.357 L 110.531 168.176 L 110.694 168.108 L 116.857 166.559 L 117.033 166.680 L 117.310 166.779 L 117.505 166.798 L 117.795 166.755 L 117.976 166.680 L 118.212 166.505 L 118.387 166.269 L 118.486 165.993 L 118.505 165.798 L 118.486 165.603 L 118.387 165.326 L 118.278 165.163 L 118.139 165.025 L 117.976 164.916 L 117.795 164.841 L 117.513 164.798 L 117.519 163.997 L 117.722 163.979 L 117.910 163.922 L 118.083 163.829 L 118.234 163.705 L 118.359 163.553 L 118.451 163.381 L 118.508 163.193 L 118.527 162.998 L 118.508 162.803 L 118.451 162.615 L 118.359 162.442 L 118.234 162.291 L 118.083 162.166 L 117.910 162.074 L 117.722 162.017 L 117.535 161.998 L 117.542 161.197 L 117.745 161.179 L 117.932 161.122 L 118.105 161.029 L 118.257 160.905 L 118.381 160.753 L 118.473 160.581 L 118.530 160.393 L 118.550 160.198 L 118.530 160.003 L 118.473 159.815 L 118.381 159.642 L 118.257 159.491 L 118.105 159.366 L 117.932 159.274 L 117.745 159.217 L 117.558 159.198 L 117.564 158.397 L 117.767 158.379 L 117.955 158.322 L 118.127 158.229 L 118.279 158.105 L 118.403 157.953 L 118.496 157.781 L 118.553 157.593 L 118.572 157.398 L 118.553 157.203 L 118.496 157.015 L 118.403 156.842 L 118.279 156.691 L 118.127 156.566 L 117.955 156.474 L 117.767 156.417 L 117.580 156.398 L 117.586 155.597 L 117.789 155.579 L 117.977 155.522 L 118.150 155.429 L 118.301 155.305 L 118.426 155.153 L 118.518 154.981 L 118.575 154.793 L 118.594 154.598 L 118.575 154.403 L 118.518 154.215 L 118.426 154.042 L 118.301 153.891 L 118.150 153.766 L 117.977 153.674 L 117.789 153.617 L 117.602 153.598 L 117.609 152.797 L 117.812 152.779 L 117.999 152.722 L 118.172 152.629 L 118.324 152.505 L 118.448 152.353 L 118.541 152.181 L 118.597 151.993 L 118.617 151.798 L 118.597 151.603 L 118.541 151.415 L 118.448 151.242 L 118.324 151.091 L 118.172 150.966 L 117.999 150.874 L 117.812 150.817 L 117.625 150.798 L 117.631 149.997 L 117.834 149.979 L 118.022 149.922 L 118.195 149.829 L 118.346 149.705 L 118.471 149.553 L 118.563 149.381 L 118.620 149.193 L 118.639 148.998 L 118.620 148.803 L 118.563 148.615 L 118.471 148.442 L 118.346 148.291 L 118.195 148.166 L 118.022 148.074 L 117.834 148.017 L 117.647 147.998 L 117.653 147.197 L 117.857 147.179 L 118.044 147.122 L 118.217 147.029 L 118.369 146.905 L 118.493 146.753 L 118.585 146.581 L 118.642 146.393 L 118.661 146.198 L 118.642 146.003 L 118.585 145.815 L 118.493 145.642 L 118.369 145.491 L 118.217 145.366 L 118.044 145.274 L 117.857 145.217 L 117.669 145.198 L 117.676 144.397 L 117.879 144.379 L 118.066 144.322 L 118.239 144.229 L 118.391 144.105 L 118.515 143.953 L 118.608 143.781 L 118.665 143.593 L 118.684 143.398 L 118.665 143.203 L 118.608 143.015 L 118.515 142.842 L 118.391 142.691 L 118.239 142.566 L 118.066 142.474 L 117.879 142.417 L 117.692 142.398 L 117.698 141.597 L 117.901 141.579 L 118.089 141.522 L 118.262 141.429 L 118.413 141.305 L 118.538 141.153 L 118.630 140.981 L 118.687 140.793 L 118.706 140.598 L 118.687 140.403 L 118.630 140.215 L 118.538 140.042 L 118.413 139.891 L 118.262 139.766 L 118.089 139.674 L 117.901 139.617 L 117.714 139.598 L 117.721 138.797 L 117.924 138.779 L 118.111 138.722 L 118.284 138.629 L 118.436 138.505 L 118.560 138.353 L 118.652 138.181 L 118.709 137.993 L 118.729 137.798 L 118.709 137.603 L 118.652 137.415 L 118.560 137.242 L 118.436 137.091 L 118.284 136.966 L 118.111 136.874 L 117.924 136.817 L 117.737 136.798 L 117.743 135.997 L 117.849 135.993 L 118.041 135.955 L 118.222 135.880 L 118.385 135.771 L 118.524 135.632 L 118.633 135.469 L 118.708 135.288 L 118.746 135.096 L 118.746 134.900 L 118.708 134.708 L 118.633 134.526 L 118.524 134.363 L 118.385 134.225 L 118.222 134.116 L 118.041 134.041 L 117.759 133.998 L 117.765 133.197 L 117.871 133.193 L 118.064 133.155 L 118.245 133.080 L 118.408 132.971 L 118.546 132.832 L 118.655 132.669 L 118.730 132.488 L 118.768 132.296 L 118.768 132.100 L 118.730 131.908 L 118.655 131.726 L 118.546 131.563 L 118.408 131.425 L 118.245 131.316 L 118.064 131.241 L 117.781 131.198 L 117.788 130.397 L 117.894 130.393 L 118.086 130.355 L 118.267 130.280 L 118.430 130.171 L 118.569 130.032 L 118.678 129.869 L 118.753 129.688 L 118.791 129.496 L 118.791 129.300 L 118.753 129.108 L 118.678 128.926 L 118.569 128.763 L 118.430 128.625 L 118.267 128.516 L 118.086 128.441 L 117.804 128.398 L 117.807 127.931 L 117.842 127.597 L 118.013 127.579 L 118.202 127.521 Z" fill="none" stroke="black" stroke-width="0.5" stroke-linejoin="round"/>
<path d="M 130.165 156.149 L 130.053 156.598 L 129.899 157.027 L 129.704 157.440 L 129.470 157.831 L 129.198 158.198 L 128.891 158.536 L 128.553 158.842 L 128.187 159.114 L 127.795 159.349 L 127.383 159.544 L 126.953 159.698 L 126.510 159.808 L 126.059 159.875 L 125.603 159.898 L 125.148 159.875 L 124.696 159.808 L 124.253 159.698 L 123.824 159.544 L 123.411 159.349 L 123.020 159.114 L 122.653 158.842 L 122.315 158.536 L 122.009 158.198 L 121.737 157.831 L 121.502 157.440 L 121.307 157.027 L 121.154 156.598 L 121.043 156.155 L 120.976 155.704 L 120.953 155.248 L 120.953 139.348 L 120.976 138.892 L 121.043 138.441 L 121.154 137.998 L 121.307 137.568 L 121.502 137.156 L 121.737 136.764 L 122.009 136.398 L 122.315 136.060 L 122.653 135.753 L 123.020 135.481 L 123.411 135.247 L 123.824 135.052 L 124.253 134.898 L 124.696 134.787 L 125.148 134.720 L 125.603 134.698 L 126.059 134.720 L 126.510 134.787 L 126.953 134.898 L 127.383 135.052 L 127.795 135.247 L 128.187 135.481 L 128.553 135.753 L 128.891 136.060 L 129.198 136.398 L 129.470 136.764 L 129.704 137.156 L 129.899 137.568 L 130.053 137.998 L 130.164 138.441 L 130.231 138.892 L 130.253 139.348 L 130.253 155.248 L 130.231 155.704 L 130.165 156.149 Z" fill="none" stroke="black" stroke-width="0.35" stroke-linejoin="round" stroke-dasharray="1.6,1.1"/>
<path d="M 123.883 162.953 L 123.666 162.629 L 123.389 162.352 L 123.063 162.134 L 122.701 161.984 L 122.316 161.907 L 121.924 161.907 L 121.539 161.984 L 121.177 162.134 L 120.851 162.352 L 120.574 162.629 L 120.356 162.955 L 120.206 163.317 L 120.130 163.702 L 120.130 164.094 L 120.206 164.478 L 120.356 164.841 L 120.574 165.167 L 120.851 165.444 L 121.177 165.662 L 121.539 165.812 L 121.924 165.888 L 122.316 165.888 L 122.701 165.812 L 123.063 165.662 L 123.389 165.444 L 123.666 165.167 L 123.884 164.841 L 124.034 164.478 L 124.110 164.094 L 124.110 163.702 L 124.034 163.317 L 123.883 162.953 Z" fill="none" stroke="black" stroke-width="0.35" stroke-linejoin="round" stroke-dasharray="1.6,1.1"/>
<path d="M 113.517 190.795 L 113.157 190.944 L 112.831 191.162 L 112.554 191.439 L 112.336 191.765 L 112.186 192.127 L 112.110 192.512 L 112.110 192.904 L 112.186 193.288 L 112.336 193.651 L 112.554 193.977 L 112.831 194.254 L 113.157 194.472 L 113.519 194.622 L 113.904 194.698 L 114.296 194.698 L 114.681 194.622 L 115.043 194.472 L 115.369 194.254 L 115.646 193.977 L 115.864 193.651 L 116.014 193.288 L 116.090 192.904 L 116.090 192.512 L 116.014 192.127 L 115.864 191.765 L 115.646 191.439 L 115.369 191.162 L 115.043 190.944 L 114.681 190.794 L 114.296 190.717 L 113.904 190.717 L 113.517 190.795 Z" fill="none" stroke="black" stroke-width="0.35" stroke-linejoin="round" stroke-dasharray="1.6,1.1"/>
<path d="M 133.298 182.946 L 133.449 181.927 L 133.500 180.898 L 133.449 179.869 L 133.298 178.849 L 133.048 177.850 L 132.701 176.880 L 132.260 175.948 L 131.730 175.064 L 131.117 174.237 L 130.425 173.473 L 129.661 172.781 L 128.833 172.167 L 127.950 171.638 L 127.018 171.197 L 126.048 170.850 L 125.048 170.600 L 124.029 170.448 L 123.000 170.398 L 121.971 170.448 L 120.952 170.600 L 119.952 170.850 L 118.982 171.197 L 118.050 171.638 L 117.167 172.167 L 116.339 172.781 L 115.575 173.473 L 114.883 174.237 L 114.270 175.064 L 113.740 175.948 L 113.299 176.880 L 112.952 177.850 L 112.702 178.849 L 112.551 179.869 L 112.500 180.898 L 112.551 181.927 L 112.702 182.946 L 112.952 183.946 L 113.299 184.916 L 113.740 185.847 L 114.270 186.731 L 114.883 187.559 L 115.575 188.322 L 116.339 189.014 L 117.167 189.628 L 118.050 190.158 L 118.982 190.599 L 119.952 190.946 L 120.952 191.196 L 121.971 191.347 L 123.000 191.398 L 124.029 191.347 L 125.048 191.196 L 126.048 190.946 L 127.018 190.599 L 127.950 190.158 L 128.833 189.628 L 129.661 189.014 L 130.425 188.322 L 131.117 187.559 L 131.730 186.731 L 132.260 185.847 L 132.701 184.916 L 133.048 183.946 L 133.298 182.946 Z" fill="none" stroke="black" stroke-width="0.35" stroke-linejoin="round" stroke-dasharray="1.6,1.1"/>
<path d="M 122.969 132.546 L 122.623 132.361 L 122.320 132.112 L 122.071 131.809 L 121.886 131.463 L 121.772 131.088 L 121.734 130.698 L 121.772 130.308 L 121.886 129.932 L 122.071 129.587 L 122.320 129.284 L 122.623 129.035 L 122.969 128.850 L 123.344 128.736 L 123.734 128.698 L 124.124 128.736 L 124.499 128.850 L 124.845 129.035 L 125.148 129.284 L 125.397 129.587 L 125.582 129.932 L 125.696 130.308 L 125.734 130.698 L 125.696 131.088 L 125.582 131.463 L 125.397 131.809 L 125.148 132.112 L 124.845 132.361 L 124.499 132.546 L 124.124 132.659 L 123.734 132.698 L 123.344 132.659 L 122.969 132.546 Z" fill="none" stroke="black" stroke-width="0.35" stroke-linejoin="round" stroke-dasharray="1.6,1.1"/>
<path d="M 91.936 131.241 L 92.219 131.198 L 92.212 130.397 L 92.106 130.393 L 91.914 130.355 L 91.733 130.280 L 91.570 130.171 L 91.431 130.032 L 91.322 129.869 L 91.247 129.688 L 91.209 129.496 L 91.209 129.300 L 91.247 129.108 L 91.322 128.926 L 91.431 128.763 L 91.570 128.625 L 91.733 128.516 L 91.914 128.441 L 92.196 128.398 L 92.193 127.931 L 92.158 127.597 L 91.987 127.579 L 91.799 127.522 L 91.548 127.371 L 91.409 127.232 L 91.300 127.069 L 91.201 126.793 L 91.187 126.500 L 91.258 126.215 L 91.409 125.963 L 91.625 125.768 L 91.455 125.429 L 91.170 124.971 L 90.842 124.543 L 90.598 124.274 L 90.068 123.794 L 89.777 123.577 L 89.319 123.293 L 88.835 123.054 L 88.330 122.864 L 87.809 122.725 L 87.277 122.637 L 86.738 122.602 L 86.199 122.620 L 85.664 122.691 L 85.139 122.813 L 84.629 122.987 L 84.137 123.209 L 83.670 123.479 L 83.232 123.794 L 82.826 124.149 L 82.458 124.543 L 82.130 124.971 L 81.845 125.429 L 81.606 125.913 L 81.379 126.525 L 77.861 137.299 L 77.665 138.099 L 71.587 179.292 L 71.504 180.986 L 71.588 182.505 L 71.819 184.008 L 72.146 185.311 L 72.650 186.746 L 73.292 188.125 L 74.165 189.580 L 75.078 190.796 L 75.983 191.795 L 77.101 192.820 L 78.465 193.831 L 79.773 194.605 L 81.152 195.248 L 82.586 195.752 L 84.064 196.113 L 85.569 196.328 L 87.044 196.398 L 98.876 196.389 L 99.051 196.363 L 99.389 196.261 L 99.700 196.094 L 99.973 195.871 L 100.197 195.598 L 100.363 195.287 L 100.465 194.949 L 100.491 194.774 L 100.500 169.803 L 100.480 169.538 L 100.395 169.196 L 100.327 169.033 L 100.145 168.730 L 100.033 168.594 L 99.772 168.357 L 99.469 168.176 L 99.306 168.108 L 93.143 166.559 L 92.967 166.680 L 92.690 166.779 L 92.495 166.798 L 92.205 166.755 L 92.024 166.680 L 91.788 166.505 L 91.613 166.269 L 91.514 165.993 L 91.495 165.798 L 91.514 165.603 L 91.613 165.326 L 91.722 165.163 L 91.861 165.025 L 92.024 164.916 L 92.205 164.841 L 92.487 164.798 L 92.481 163.997 L 92.278 163.979 L 92.090 163.922 L 91.917 163.829 L 91.766 163.705 L 91.641 163.553 L 91.549 163.381 L 91.492 163.193 L 91.473 162.998 L 91.492 162.803 L 91.549 162.615 L 91.641 162.442 L 91.766 162.291 L 91.917 162.166 L 92.090 162.074 L 92.278 162.017 L 92.465 161.998 L 92.458 161.197 L 92.255 161.179 L 92.068 161.122 L 91.895 161.029 L 91.743 160.905 L 91.619 160.753 L 91.527 160.581 L 91.470 160.393 L 91.450 160.198 L 91.470 160.003 L 91.527 159.815 L 91.619 159.642 L 91.743 159.491 L 91.895 159.366 L 92.068 159.274 L 92.255 159.217 L 92.442 159.198 L 92.436 158.397 L 92.233 158.379 L 92.045 158.322 L 91.873 158.229 L 91.721 158.105 L 91.597 157.953 L 91.504 157.781 L 91.447 157.593 L 91.428 157.398 L 91.447 157.203 L 91.504 157.015 L 91.597 156.842 L 91.721 156.691 L 91.873 156.566 L 92.045 156.474 L 92.233 156.417 L 92.420 156.398 L 92.414 155.597 L 92.211 155.579 L 92.023 155.522 L 91.850 155.429 L 91.699 155.305 L 91.574 155.153 L 91.482 154.981 L 91.425 154.793 L 91.406 154.598 L 91.425 154.403 L 91.482 154.215 L 91.574 154.042 L 91.699 153.891 L 91.850 153.766 L 92.023 153.674 L 92.211 153.617 L 92.398 153.598 L 92.391 152.797 L 92.188 152.779 L 92.001 152.722 L 91.828 152.629 L 91.676 152.505 L 91.552 152.353 L 91.459 152.181 L 91.403 151.993 L 91.383 151.798 L 91.403 151.603 L 91.459 151.415 L 91.552 151.242 L 91.676 151.091 L 91.828 150.966 L 92.001 150.874 L 92.188 150.817 L 92.375 150.798 L 92.369 149.997 L 92.166 149.979 L 91.978 149.922 L 91.805 149.829 L 91.654 149.705 L 91.529 149.553 L 91.437 149.381 L 91.380 149.193 L 91.361 148.998 L 91.380 148.803 L 91.437 148.615 L 91.529 148.442 L 91.654 148.291 L 91.805 148.166 L 91.978 148.074 L 92.166 148.017 L 92.353 147.998 L 92.347 147.197 L 92.143 147.179 L 91.956 147.122 L 91.783 147.029 L 91.631 146.905 L 91.507 146.753 L 91.415 146.581 L 91.358 146.393 L 91.339 146.198 L 91.358 146.003 L 91.415 145.815 L 91.507 145.642 L 91.631 145.491 L 91.783 145.366 L 91.956 145.274 L 92.143 145.217 L 92.331 145.198 L 92.324 144.397 L 92.121 144.379 L 91.934 144.322 L 91.761 144.229 L 91.609 144.105 L 91.485 143.953 L 91.392 143.781 L 91.335 143.593 L 91.316 143.398 L 91.335 143.203 L 91.392 143.015 L 91.485 142.842 L 91.609 142.691 L 91.761 142.566 L 91.934 142.474 L 92.121 142.417 L 92.308 142.398 L 92.302 141.597 L 92.099 141.579 L 91.911 141.522 L 91.738 141.429 L 91.587 141.305 L 91.462 141.153 L 91.370 140.981 L 91.313 140.793 L 91.294 140.598 L 91.313 140.403 L 91.370 140.215 L 91.462 140.042 L 91.587 139.891 L 91.738 139.766 L 91.911 139.674 L 92.099 139.617 L 92.286 139.598 L 92.279 138.797 L 92.076 138.779 L 91.889 138.722 L 91.716 138.629 L 91.564 138.505 L 91.440 138.353 L 91.348 138.181 L 91.291 137.993 L 91.271 137.798 L 91.291 137.603 L 91.348 137.415 L 91.440 137.242 L 91.564 137.091 L 91.716 136.966 L 91.889 136.874 L 92.076 136.817 L 92.263 136.798 L 92.257 135.997 L 92.054 135.979 L 91.866 135.922 L 91.694 135.829 L 91.542 135.705 L 91.418 135.553 L 91.325 135.381 L 91.268 135.193 L 91.249 134.998 L 91.268 134.803 L 91.325 134.615 L 91.418 134.442 L 91.542 134.291 L 91.694 134.166 L 91.866 134.074 L 92.054 134.017 L 92.241 133.998 L 92.235 133.197 L 92.032 133.179 L 91.844 133.122 L 91.671 133.029 L 91.520 132.905 L 91.395 132.753 L 91.303 132.581 L 91.246 132.393 L 91.227 132.198 L 91.270 131.908 L 91.345 131.726 L 91.454 131.563 L 91.592 131.425 L 91.755 131.316 L 91.936 131.241 Z" fill="none" stroke="black" stroke-width="0.5" stroke-linejoin="round"/>
<path d="M 96.483 194.621 L 96.096 194.698 L 95.704 194.698 L 95.319 194.622 L 94.957 194.472 L 94.631 194.254 L 94.354 193.977 L 94.136 193.651 L 93.986 193.288 L 93.910 192.904 L 93.910 192.512 L 93.986 192.127 L 94.136 191.765 L 94.354 191.439 L 94.631 191.162 L 94.957 190.944 L 95.319 190.794 L 95.704 190.717 L 96.096 190.717 L 96.481 190.794 L 96.843 190.944 L 97.169 191.162 L 97.446 191.439 L 97.664 191.765 L 97.814 192.127 L 97.890 192.512 L 97.890 192.904 L 97.814 193.288 L 97.664 193.651 L 97.446 193.977 L 97.169 194.254 L 96.843 194.472 L 96.483 194.621 Z" fill="none" stroke="black" stroke-width="0.35" stroke-linejoin="round" stroke-dasharray="1.6,1.1"/>
<path d="M 86.117 164.843 L 85.966 164.478 L 85.890 164.094 L 85.890 163.702 L 85.966 163.317 L 86.116 162.955 L 86.334 162.629 L 86.611 162.352 L 86.937 162.134 L 87.299 161.984 L 87.684 161.907 L 88.076 161.907 L 88.461 161.984 L 88.823 162.134 L 89.149 162.352 L 89.426 162.629 L 89.644 162.955 L 89.794 163.317 L 89.870 163.702 L 89.870 164.094 L 89.794 164.478 L 89.644 164.841 L 89.426 165.167 L 89.149 165.444 L 88.823 165.662 L 88.461 165.812 L 88.076 165.888 L 87.684 165.888 L 87.299 165.812 L 86.937 165.662 L 86.611 165.444 L 86.334 165.167 L 86.117 164.843 Z" fill="none" stroke="black" stroke-width="0.35" stroke-linejoin="round" stroke-dasharray="1.6,1.1"/>
<path d="M 79.835 138.446 L 79.769 138.892 L 79.747 139.348 L 79.747 155.248 L 79.769 155.704 L 79.836 156.155 L 79.947 156.598 L 80.101 157.027 L 80.296 157.440 L 80.530 157.831 L 80.802 158.198 L 81.109 158.536 L 81.447 158.842 L 81.813 159.114 L 82.205 159.349 L 82.617 159.544 L 83.047 159.698 L 83.490 159.808 L 83.941 159.875 L 84.397 159.898 L 84.852 159.875 L 85.304 159.808 L 85.747 159.698 L 86.176 159.544 L 86.589 159.349 L 86.980 159.114 L 87.347 158.842 L 87.685 158.536 L 87.991 158.198 L 88.263 157.831 L 88.498 157.440 L 88.693 157.027 L 88.846 156.598 L 88.957 156.155 L 89.024 155.704 L 89.047 155.248 L 89.047 139.348 L 89.024 138.892 L 88.957 138.441 L 88.846 137.998 L 88.693 137.568 L 88.498 137.156 L 88.263 136.764 L 87.991 136.398 L 87.685 136.060 L 87.347 135.753 L 86.980 135.481 L 86.589 135.247 L 86.176 135.052 L 85.747 134.898 L 85.304 134.787 L 84.852 134.720 L 84.397 134.698 L 83.941 134.720 L 83.490 134.787 L 83.047 134.898 L 82.617 135.052 L 82.205 135.247 L 81.813 135.481 L 81.447 135.753 L 81.109 136.060 L 80.802 136.398 L 80.530 136.764 L 80.296 137.156 L 80.101 137.568 L 79.947 137.998 L 79.835 138.446 Z" fill="none" stroke="black" stroke-width="0.35" stroke-linejoin="round" stroke-dasharray="1.6,1.1"/>
<path d="M 96.260 175.948 L 96.701 176.880 L 97.048 177.850 L 97.298 178.849 L 97.449 179.869 L 97.500 180.898 L 97.449 181.927 L 97.298 182.946 L 97.048 183.946 L 96.701 184.916 L 96.260 185.847 L 95.730 186.731 L 95.117 187.559 L 94.425 188.322 L 93.661 189.014 L 92.833 189.628 L 91.950 190.158 L 91.018 190.599 L 90.048 190.946 L 89.048 191.196 L 88.029 191.347 L 87.000 191.398 L 85.971 191.347 L 84.952 191.196 L 83.952 190.946 L 82.982 190.599 L 82.050 190.158 L 81.167 189.628 L 80.339 189.014 L 79.575 188.322 L 78.883 187.559 L 78.270 186.731 L 77.740 185.847 L 77.299 184.916 L 76.952 183.946 L 76.702 182.946 L 76.551 181.927 L 76.500 180.898 L 76.551 179.869 L 76.702 178.849 L 76.952 177.850 L 77.299 176.880 L 77.740 175.948 L 78.270 175.064 L 78.883 174.237 L 79.575 173.473 L 80.339 172.781 L 81.167 172.167 L 82.050 171.638 L 82.982 171.197 L 83.952 170.850 L 84.952 170.600 L 85.971 170.448 L 87.000 170.398 L 88.029 170.448 L 89.048 170.600 L 90.048 170.850 L 91.018 171.197 L 91.950 171.638 L 92.833 172.167 L 93.661 172.781 L 94.425 173.473 L 95.117 174.237 L 95.730 175.064 L 96.260 175.948 Z" fill="none" stroke="black" stroke-width="0.35" stroke-linejoin="round" stroke-dasharray="1.6,1.1"/>
<path d="M 84.605 131.811 L 84.852 132.112 L 85.155 132.361 L 85.501 132.546 L 85.876 132.659 L 86.266 132.698 L 86.656 132.659 L 87.031 132.546 L 87.377 132.361 L 87.680 132.112 L 87.929 131.809 L 88.114 131.463 L 88.228 131.088 L 88.266 130.698 L 88.228 130.308 L 88.114 129.932 L 87.929 129.587 L 87.680 129.284 L 87.377 129.035 L 87.031 128.850 L 86.656 128.736 L 86.266 128.698 L 85.876 128.736 L 85.501 128.850 L 85.155 129.035 L 84.852 129.284 L 84.603 129.587 L 84.418 129.932 L 84.304 130.308 L 84.266 130.698 L 84.304 131.088 L 84.418 131.463 L 84.605 131.811 Z" fill="none" stroke="black" stroke-width="0.35" stroke-linejoin="round" stroke-dasharray="1.6,1.1"/>
<line x1="120.773" y1="163.869" x2="123.573" y2="163.869" stroke="black" stroke-width="0.2"/>
<line x1="122.173" y1="162.469" x2="122.173" y2="165.269" stroke="black" stroke-width="0.2"/>
<line x1="112.682" y1="192.650" x2="115.482" y2="192.650" stroke="black" stroke-width="0.2"/>
<line x1="114.082" y1="191.250" x2="114.082" y2="194.050" stroke="black" stroke-width="0.2"/>
<line x1="121.758" y1="180.929" x2="124.558" y2="180.929" stroke="black" stroke-width="0.2"/>
<line x1="123.158" y1="179.529" x2="123.158" y2="182.329" stroke="black" stroke-width="0.2"/>
<line x1="122.311" y1="130.754" x2="125.111" y2="130.754" stroke="black" stroke-width="0.2"/>
<line x1="123.711" y1="129.354" x2="123.711" y2="132.154" stroke="black" stroke-width="0.2"/>
<line x1="94.518" y1="192.766" x2="97.318" y2="192.766" stroke="black" stroke-width="0.2"/>
<line x1="95.918" y1="191.366" x2="95.918" y2="194.166" stroke="black" stroke-width="0.2"/>
<line x1="86.427" y1="163.927" x2="89.227" y2="163.927" stroke="black" stroke-width="0.2"/>
<line x1="87.827" y1="162.527" x2="87.827" y2="165.327" stroke="black" stroke-width="0.2"/>
<line x1="85.742" y1="180.822" x2="88.542" y2="180.822" stroke="black" stroke-width="0.2"/>
<line x1="87.142" y1="179.422" x2="87.142" y2="182.222" stroke="black" stroke-width="0.2"/>
<line x1="84.816" y1="130.732" x2="87.616" y2="130.732" stroke="black" stroke-width="0.2"/>
<line x1="86.216" y1="129.332" x2="86.216" y2="132.132" stroke="black" stroke-width="0.2"/>
<path d="M 99.000 196.398 L 111.000 196.398 L 111.000 168.398 L 99.000 168.398 Z" fill="none" stroke="#888888" stroke-width="0.25" stroke-linejoin="round" stroke-dasharray="2.4,1.4"/>
<text x="105.000" y="166.898" font-family="Helvetica, Arial, sans-serif" font-size="2.2" font-weight="normal" text-anchor="middle" fill="#888888" paint-order="stroke" stroke="white" stroke-width="0.9">cable strip (outer face)</text>
<line x1="71.504" y1="122.602" x2="61.504" y2="122.602" stroke="black" stroke-width="0.18"/>
<line x1="71.504" y1="196.398" x2="61.504" y2="196.398" stroke="black" stroke-width="0.18"/>
<line x1="62.504" y1="122.602" x2="62.504" y2="196.398" stroke="black" stroke-width="0.25"/>
<polygon points="62.504,122.602 63.254,125.002 61.754,125.002" fill="black"/>
<polygon points="62.504,196.398 61.754,193.998 63.254,193.998" fill="black"/>
<text x="61.104" y="160.500" font-family="Helvetica, Arial, sans-serif" font-size="3" font-weight="bold" text-anchor="end" fill="black" paint-order="stroke" stroke="white" stroke-width="0.9">73.8</text>
<line x1="71.504" y1="196.398" x2="71.504" y2="205.398" stroke="black" stroke-width="0.18"/>
<line x1="138.496" y1="196.398" x2="138.496" y2="205.398" stroke="black" stroke-width="0.18"/>
<line x1="71.504" y1="204.398" x2="138.496" y2="204.398" stroke="black" stroke-width="0.25"/>
<polygon points="71.504,204.398 73.904,203.648 73.904,205.148" fill="black"/>
<polygon points="138.496,204.398 136.096,205.148 136.096,203.648" fill="black"/>
<text x="105.000" y="208.298" font-family="Helvetica, Arial, sans-serif" font-size="3" font-weight="bold" text-anchor="middle" fill="black" paint-order="stroke" stroke="white" stroke-width="0.9">66.99</text>
<line x1="100.500" y1="196.398" x2="100.500" y2="200.898" stroke="black" stroke-width="0.18"/>
<line x1="109.500" y1="196.398" x2="109.500" y2="200.898" stroke="black" stroke-width="0.18"/>
<line x1="95.500" y1="199.898" x2="114.500" y2="199.898" stroke="black" stroke-width="0.25"/>
<polygon points="100.500,199.898 98.100,200.648 98.100,199.148" fill="black"/>
<polygon points="109.500,199.898 111.900,199.148 111.900,200.648" fill="black"/>
<text x="115.300" y="203.398" font-family="Helvetica, Arial, sans-serif" font-size="2.6" font-weight="bold" text-anchor="start" fill="black" paint-order="stroke" stroke="white" stroke-width="0.9">cord 9</text>
<line x1="130.582" y1="188.353" x2="136.946" y2="194.717" stroke="black" stroke-width="0.25"/>
<polygon points="130.582,188.353 132.809,189.519 131.748,190.580" fill="black"/>
<line x1="136.946" y1="194.717" x2="142.946" y2="194.717" stroke="black" stroke-width="0.25"/>
<text x="143.746" y="193.817" font-family="Helvetica, Arial, sans-serif" font-size="3" font-weight="bold" text-anchor="start" fill="black" paint-order="stroke" stroke="white" stroke-width="0.9">Ø21 (2×)</text>
</svg>
