<svg xmlns="http://www.w3.org/2000/svg" width="210mm" height="279mm" viewBox="0 0 210 279">
<rect x="0" y="0" width="210" height="279" fill="white"/>
<text x="105.000" y="12.000" font-family="Helvetica, Arial, sans-serif" font-size="5" font-weight="bold" text-anchor="middle" fill="black">Plug Puller — Heavy-duty extension cord (NEMA 5-15) · Medium</text>
<text x="105.000" y="17.500" font-family="Helvetica, Arial, sans-serif" font-size="2.8" font-weight="normal" text-anchor="middle" fill="black">1:1 outline sheet — print at 100% scale / “Actual size”, never “fit to page”. Check the calibration square before trusting anything.</text>
<rect x="14" y="22" width="50" height="50" fill="none" stroke="black" stroke-width="0.4"/>
<text x="39.000" y="45.500" font-family="Helvetica, Arial, sans-serif" font-size="3.4" font-weight="bold" text-anchor="middle" fill="black">CALIBRATION</text>
<text x="39.000" y="50.500" font-family="Helvetica, Arial, sans-serif" font-size="3.4" font-weight="normal" text-anchor="middle" fill="black">50 × 50 mm</text>
<text x="39.000" y="56.500" font-family="Helvetica, Arial, sans-serif" font-size="2.6" font-weight="normal" text-anchor="middle" fill="#444444">Measure me with a ruler.</text>
<text x="39.000" y="60.500" font-family="Helvetica, Arial, sans-serif" font-size="2.6" font-weight="normal" text-anchor="middle" fill="#444444">Not 50 mm? Re-print at 100%.</text>
<rect x="70" y="22" width="126" height="50" fill="none" stroke="black" stroke-width="0.3"/>
<text x="73.000" y="27.000" font-family="Helvetica, Arial, sans-serif" font-size="3.4" font-weight="bold" text-anchor="start" fill="black">Heavy-duty extension cord</text>
<text x="73.000" y="31.600" font-family="Helvetica, Arial, sans-serif" font-size="2.8" font-weight="normal" text-anchor="start" fill="black">Flat tool · Medium hand size</text>
<text x="73.000" y="35.400" font-family="Helvetica, Arial, sans-serif" font-size="2.8" font-weight="normal" text-anchor="start" fill="black">Printed footprint ≈ 74.88 × 95.9 mm</text>
<text x="73.000" y="40.000" font-family="Helvetica, Arial, sans-serif" font-size="2.6" font-weight="normal" text-anchor="start" fill="#333333">Customizer settings for this exact tool:</text>
<text x="73.000" y="43.400" font-family="Helvetica, Arial, sans-serif" font-size="2.6" font-weight="normal" text-anchor="start" fill="#333333">  tool_style = Flat tool</text>
<text x="73.000" y="46.800" font-family="Helvetica, Arial, sans-serif" font-size="2.6" font-weight="normal" text-anchor="start" fill="#333333">  plug_preset =</text>
<text x="73.000" y="50.200" font-family="Helvetica, Arial, sans-serif" font-size="2.6" font-weight="normal" text-anchor="start" fill="#333333">      Heavy-duty extension cord - NEMA 5-15</text>
<text x="73.000" y="53.600" font-family="Helvetica, Arial, sans-serif" font-size="2.6" font-weight="normal" text-anchor="start" fill="#333333">  size = Medium</text>
<text x="73.000" y="57.000" font-family="Helvetica, Arial, sans-serif" font-size="2.6" font-weight="normal" text-anchor="start" fill="#333333">  (everything else at its default)</text>
<text x="133.000" y="27.000" font-family="Helvetica, Arial, sans-serif" font-size="2.8" font-weight="bold" text-anchor="start" fill="black">Key dimensions</text>
<text x="133.000" y="31.000" font-family="Helvetica, Arial, sans-serif" font-size="2.6" font-weight="normal" text-anchor="start" fill="black">Body thickness: 6.35 mm (this sheet is 2D)</text>
<text x="133.000" y="34.500" font-family="Helvetica, Arial, sans-serif" font-size="2.6" font-weight="normal" text-anchor="start" fill="black">Finger holes: Ø25.4, 33 apart</text>
<text x="133.000" y="38.000" font-family="Helvetica, Arial, sans-serif" font-size="2.6" font-weight="normal" text-anchor="start" fill="black">Pocket: 32.5 wide × 43.8 deep</text>
<text x="133.000" y="41.500" font-family="Helvetica, Arial, sans-serif" font-size="2.6" font-weight="normal" text-anchor="start" fill="black">Wall notch: 27.47 wide × 3.81 deep</text>
<text x="133.000" y="45.000" font-family="Helvetica, Arial, sans-serif" font-size="2.6" font-weight="normal" text-anchor="start" fill="black">Zip holes: 4 × Ø5.08, rows 17.78 apart</text>
<text x="133.000" y="48.500" font-family="Helvetica, Arial, sans-serif" font-size="2.6" font-weight="normal" text-anchor="start" fill="black">J-hook cord gap: 8.96 mm</text>
<line x1="14.000" y1="248.000" x2="196.000" y2="248.000" stroke="#888888" stroke-width="0.2"/>
<text x="14.000" y="252.500" font-family="Helvetica, Arial, sans-serif" font-size="3.2" font-weight="bold" text-anchor="start" fill="black">How to use this sheet</text>
<text x="14.000" y="256.500" font-family="Helvetica, Arial, sans-serif" font-size="2.7" font-weight="normal" text-anchor="start" fill="black">1. Print at 100% and measure the calibration square — it must be exactly 50 × 50 mm.</text>
<text x="14.000" y="260.100" font-family="Helvetica, Arial, sans-serif" font-size="2.7" font-weight="normal" text-anchor="start" fill="black">2. Cut along the SOLID outline. Dashed lines are holes and the plug pocket — poke through the two big finger circles.</text>
<text x="14.000" y="263.700" font-family="Helvetica, Arial, sans-serif" font-size="2.7" font-weight="normal" text-anchor="start" fill="black">3. Hold the cutout on your plug at the wall: the plug fits the dashed pocket, the top notch straddles the wall plate.</text>
<text x="14.000" y="267.300" font-family="Helvetica, Arial, sans-serif" font-size="2.7" font-weight="normal" text-anchor="start" fill="black">4. Try the finger holes (medium size). Wrong size? Try a neighbouring sheet, or print stl/Finger_Sizing_Stencil.stl.</text>
<text x="14.000" y="270.900" font-family="Helvetica, Arial, sans-serif" font-size="2.7" font-weight="normal" text-anchor="start" fill="black">5. Happy? Open the Customizer with the title-block settings and export your STL (docs/guides/quick-start-beginner.md).</text>
<text x="105.000" y="275.500" font-family="Helvetica, Arial, sans-serif" font-size="2.4" font-weight="normal" text-anchor="middle" fill="#444444">openscad-plug-puller v0.8 · outline_heavy-duty-round_medium.svg · scale 1:1 · guide: docs/guides/print-preview-outlines.md</text>
<path d="M 67.681 188.211 L 67.962 186.562 L 73.815 160.112 L 73.974 159.500 L 73.950 159.500 L 87.125 115.550 L 89.995 115.550 L 90.119 115.556 L 90.364 115.605 L 90.594 115.700 L 90.701 115.764 L 90.893 115.922 L 91.051 116.114 L 91.168 116.334 L 91.241 116.572 L 91.277 117.069 L 91.314 117.316 L 91.374 117.557 L 91.458 117.792 L 91.565 118.017 L 91.693 118.231 L 91.842 118.431 L 92.009 118.616 L 92.194 118.783 L 92.394 118.932 L 92.608 119.060 L 92.833 119.167 L 93.068 119.251 L 93.309 119.311 L 93.556 119.348 L 93.805 119.360 L 116.195 119.360 L 116.444 119.348 L 116.691 119.311 L 116.932 119.251 L 117.167 119.167 L 117.392 119.060 L 117.606 118.932 L 117.806 118.783 L 117.991 118.616 L 118.158 118.431 L 118.307 118.231 L 118.435 118.017 L 118.542 117.792 L 118.626 117.557 L 118.686 117.316 L 118.723 117.069 L 118.759 116.572 L 118.832 116.334 L 118.949 116.114 L 119.107 115.922 L 119.299 115.764 L 119.406 115.700 L 119.636 115.605 L 119.881 115.556 L 120.005 115.550 L 122.875 115.550 L 136.050 159.500 L 136.026 159.500 L 136.185 160.112 L 142.089 186.801 L 142.346 188.455 L 142.440 190.125 L 142.370 191.797 L 142.136 193.454 L 141.741 195.080 L 141.188 196.659 L 140.484 198.176 L 139.634 199.618 L 138.646 200.969 L 137.531 202.216 L 136.300 203.349 L 134.963 204.355 L 133.534 205.225 L 132.026 205.951 L 130.455 206.526 L 128.835 206.944 L 117.931 209.192 L 117.931 202.459 L 117.362 201.890 L 117.356 193.476 L 117.308 193.231 L 117.213 193.001 L 117.074 192.794 L 116.898 192.618 L 116.691 192.480 L 116.579 192.427 L 116.340 192.354 L 116.093 192.330 L 97.720 192.330 L 97.596 192.336 L 97.351 192.385 L 97.121 192.480 L 97.014 192.544 L 96.822 192.702 L 96.738 192.794 L 96.600 193.001 L 96.547 193.114 L 96.505 193.231 L 96.456 193.476 L 96.450 200.620 L 96.474 200.868 L 96.547 201.106 L 96.664 201.326 L 96.822 201.518 L 97.014 201.676 L 97.234 201.793 L 97.472 201.866 L 97.720 201.890 L 106.459 201.890 L 108.969 204.399 L 108.969 211.041 L 108.209 211.196 L 106.552 211.430 L 106.071 211.450 L 103.988 211.450 L 103.209 211.406 L 101.556 211.149 L 80.926 206.893 L 79.312 206.451 L 77.749 205.854 L 76.252 205.106 L 74.835 204.216 L 73.513 203.190 L 72.298 202.040 L 71.201 200.777 L 70.233 199.412 L 69.404 197.959 L 68.721 196.431 L 68.191 194.844 L 67.820 193.213 L 67.610 191.553 L 67.563 189.880 L 67.681 188.211 Z" fill="none" stroke="black" stroke-width="0.5" stroke-linejoin="round"/>
<path d="M 113.635 141.325 L 113.575 141.567 L 113.538 141.813 L 113.526 142.062 L 113.538 142.311 L 113.575 142.558 L 113.635 142.799 L 113.719 143.034 L 113.826 143.259 L 113.954 143.473 L 114.102 143.673 L 114.270 143.858 L 114.454 144.026 L 114.655 144.174 L 114.868 144.302 L 115.094 144.409 L 115.328 144.493 L 115.570 144.553 L 115.817 144.590 L 116.066 144.602 L 116.315 144.590 L 116.561 144.553 L 116.803 144.493 L 117.038 144.409 L 117.263 144.302 L 117.477 144.174 L 117.677 144.026 L 117.862 143.858 L 118.029 143.673 L 118.178 143.473 L 118.306 143.259 L 118.412 143.034 L 118.496 142.799 L 118.557 142.558 L 118.593 142.311 L 118.606 142.062 L 118.593 141.813 L 118.557 141.567 L 118.496 141.325 L 118.412 141.090 L 118.306 140.865 L 118.178 140.651 L 118.029 140.451 L 117.862 140.266 L 117.677 140.099 L 117.477 139.950 L 117.263 139.822 L 117.038 139.715 L 116.803 139.631 L 116.561 139.571 L 116.315 139.534 L 116.066 139.522 L 115.817 139.534 L 115.570 139.571 L 115.328 139.631 L 115.094 139.715 L 114.868 139.822 L 114.655 139.950 L 114.454 140.099 L 114.270 140.266 L 114.102 140.451 L 113.954 140.651 L 113.826 140.865 L 113.719 141.090 L 113.635 141.325 Z" fill="none" stroke="black" stroke-width="0.35" stroke-linejoin="round" stroke-dasharray="1.6,1.1"/>
<path d="M 96.281 141.090 L 96.174 140.865 L 96.046 140.651 L 95.898 140.451 L 95.730 140.266 L 95.546 140.099 L 95.345 139.950 L 95.132 139.822 L 94.906 139.715 L 94.672 139.631 L 94.430 139.571 L 94.183 139.534 L 93.934 139.522 L 93.685 139.534 L 93.439 139.571 L 93.197 139.631 L 92.962 139.715 L 92.737 139.822 L 92.523 139.950 L 92.323 140.099 L 92.138 140.266 L 91.971 140.451 L 91.822 140.651 L 91.694 140.865 L 91.588 141.090 L 91.504 141.325 L 91.443 141.567 L 91.407 141.813 L 91.394 142.062 L 91.407 142.311 L 91.443 142.558 L 91.504 142.799 L 91.588 143.034 L 91.694 143.259 L 91.822 143.473 L 91.971 143.673 L 92.138 143.858 L 92.323 144.026 L 92.523 144.174 L 92.737 144.302 L 92.962 144.409 L 93.197 144.493 L 93.439 144.553 L 93.685 144.590 L 93.934 144.602 L 94.183 144.590 L 94.430 144.553 L 94.672 144.493 L 94.906 144.409 L 95.132 144.302 L 95.345 144.174 L 95.546 144.026 L 95.730 143.858 L 95.898 143.673 L 96.046 143.473 L 96.174 143.259 L 96.281 143.034 L 96.365 142.799 L 96.425 142.558 L 96.462 142.311 L 96.474 142.062 L 96.462 141.813 L 96.425 141.567 L 96.365 141.325 L 96.281 141.090 Z" fill="none" stroke="black" stroke-width="0.35" stroke-linejoin="round" stroke-dasharray="1.6,1.1"/>
<path d="M 93.407 153.395 L 93.407 153.395 L 93.407 153.395 L 93.407 153.395 Z" fill="none" stroke="black" stroke-width="0.35" stroke-linejoin="round" stroke-dasharray="1.6,1.1"/>
<path d="M 85.122 137.509 L 84.972 137.762 L 84.894 137.967 L 78.257 160.115 L 78.211 160.405 L 78.223 160.699 L 78.292 160.985 L 78.415 161.252 L 78.588 161.490 L 78.804 161.689 L 79.055 161.842 L 79.331 161.944 L 79.475 161.974 L 79.769 161.991 L 80.060 161.951 L 80.201 161.909 L 81.727 161.197 L 83.362 160.612 L 85.047 160.190 L 86.765 159.935 L 88.500 159.850 L 90.235 159.935 L 91.569 160.126 L 91.863 160.111 L 92.007 160.083 L 92.148 160.040 L 92.414 159.914 L 92.650 159.739 L 92.754 159.635 L 92.929 159.399 L 92.999 159.269 L 93.098 158.992 L 93.141 158.701 L 93.143 157.537 L 93.114 157.244 L 93.029 156.963 L 92.890 156.704 L 92.802 156.585 L 92.011 155.710 L 91.029 154.385 L 90.181 152.971 L 89.476 151.480 L 88.921 149.928 L 88.520 148.328 L 88.279 146.703 L 88.215 145.508 L 88.170 145.217 L 88.073 144.947 L 87.892 144.565 L 87.676 143.961 L 87.520 143.338 L 87.426 142.703 L 87.394 142.062 L 87.426 141.421 L 87.520 140.786 L 87.676 140.164 L 87.836 139.695 L 87.879 139.404 L 87.829 138.317 L 87.784 138.026 L 87.741 137.886 L 87.614 137.621 L 87.438 137.385 L 87.333 137.282 L 87.096 137.107 L 86.966 137.039 L 86.830 136.983 L 86.544 136.913 L 86.251 136.900 L 85.960 136.944 L 85.819 136.987 L 85.554 137.114 L 85.432 137.197 L 85.215 137.395 L 85.122 137.509 Z" fill="none" stroke="black" stroke-width="0.35" stroke-linejoin="round" stroke-dasharray="1.6,1.1"/>
<path d="M 86.022 165.094 L 84.813 165.397 L 83.640 165.817 L 82.513 166.350 L 81.444 166.990 L 80.443 167.733 L 79.520 168.570 L 78.683 169.493 L 77.940 170.494 L 77.300 171.563 L 76.767 172.690 L 76.347 173.863 L 76.044 175.072 L 75.861 176.305 L 75.800 177.550 L 75.861 178.795 L 76.044 180.028 L 76.347 181.237 L 76.767 182.410 L 77.300 183.537 L 77.940 184.606 L 78.683 185.607 L 79.520 186.530 L 80.443 187.367 L 81.444 188.110 L 82.513 188.750 L 83.640 189.283 L 84.813 189.703 L 86.022 190.006 L 87.255 190.189 L 88.500 190.250 L 89.745 190.189 L 90.978 190.006 L 92.187 189.703 L 93.360 189.283 L 94.487 188.750 L 95.556 188.110 L 96.557 187.367 L 97.480 186.530 L 98.317 185.607 L 99.060 184.606 L 99.700 183.537 L 100.233 182.410 L 100.653 181.237 L 100.956 180.028 L 101.139 178.795 L 101.200 177.550 L 101.139 176.305 L 100.956 175.072 L 100.653 173.863 L 100.233 172.690 L 99.700 171.563 L 99.060 170.494 L 98.317 169.493 L 97.480 168.570 L 96.557 167.733 L 95.556 166.990 L 94.487 166.350 L 93.360 165.817 L 92.187 165.397 L 90.978 165.094 L 89.745 164.911 L 88.500 164.850 L 87.255 164.911 L 86.022 165.094 Z" fill="none" stroke="black" stroke-width="0.35" stroke-linejoin="round" stroke-dasharray="1.6,1.1"/>
<path d="M 77.760 160.568 L 77.760 160.568 L 77.760 160.568 L 77.760 160.568 Z" fill="none" stroke="black" stroke-width="0.35" stroke-linejoin="round" stroke-dasharray="1.6,1.1"/>
<path d="M 77.794 188.325 L 77.794 188.325 L 77.794 188.325 L 77.794 188.325 Z" fill="none" stroke="black" stroke-width="0.35" stroke-linejoin="round" stroke-dasharray="1.6,1.1"/>
<path d="M 70.818 186.357 L 70.818 186.357 L 70.818 186.357 L 70.818 186.357 Z" fill="none" stroke="black" stroke-width="0.35" stroke-linejoin="round" stroke-dasharray="1.6,1.1"/>
<path d="M 75.128 183.089 L 75.431 183.731 L 75.128 183.089 L 75.128 183.089 Z" fill="none" stroke="black" stroke-width="0.35" stroke-linejoin="round" stroke-dasharray="1.6,1.1"/>
<path d="M 78.018 160.771 L 78.018 160.771 L 78.018 160.771 L 78.018 160.771 Z" fill="none" stroke="black" stroke-width="0.35" stroke-linejoin="round" stroke-dasharray="1.6,1.1"/>
<path d="M 94.115 121.935 L 93.880 121.851 L 93.638 121.791 L 93.392 121.754 L 93.143 121.742 L 92.894 121.754 L 92.647 121.791 L 92.405 121.851 L 92.171 121.935 L 91.945 122.042 L 91.732 122.170 L 91.531 122.319 L 91.347 122.486 L 91.179 122.671 L 91.031 122.871 L 90.903 123.085 L 90.796 123.310 L 90.712 123.545 L 90.652 123.787 L 90.615 124.033 L 90.603 124.282 L 90.615 124.531 L 90.652 124.778 L 90.712 125.019 L 90.796 125.254 L 90.903 125.479 L 91.031 125.693 L 91.179 125.893 L 91.347 126.078 L 91.531 126.246 L 91.732 126.394 L 91.945 126.522 L 92.171 126.629 L 92.405 126.713 L 92.647 126.773 L 92.894 126.810 L 93.143 126.822 L 93.392 126.810 L 93.638 126.773 L 93.880 126.713 L 94.115 126.629 L 94.340 126.522 L 94.554 126.394 L 94.754 126.246 L 94.939 126.078 L 95.106 125.893 L 95.255 125.693 L 95.383 125.479 L 95.489 125.254 L 95.573 125.019 L 95.634 124.778 L 95.670 124.531 L 95.683 124.282 L 95.670 124.033 L 95.634 123.787 L 95.573 123.545 L 95.489 123.310 L 95.383 123.085 L 95.255 122.871 L 95.106 122.671 L 94.939 122.486 L 94.754 122.319 L 94.554 122.170 L 94.340 122.042 L 94.115 121.935 Z" fill="none" stroke="black" stroke-width="0.35" stroke-linejoin="round" stroke-dasharray="1.6,1.1"/>
<path d="M 88.046 131.597 L 88.046 131.597 L 88.046 131.597 L 88.046 131.597 Z" fill="none" stroke="black" stroke-width="0.35" stroke-linejoin="round" stroke-dasharray="1.6,1.1"/>
<path d="M 90.559 142.535 L 90.559 142.535 L 90.559 142.535 L 90.559 142.535 Z" fill="none" stroke="black" stroke-width="0.35" stroke-linejoin="round" stroke-dasharray="1.6,1.1"/>
<path d="M 90.660 144.422 L 90.660 144.422 L 90.660 144.422 L 90.660 144.422 Z" fill="none" stroke="black" stroke-width="0.35" stroke-linejoin="round" stroke-dasharray="1.6,1.1"/>
<path d="M 101.659 172.099 L 100.866 170.940 L 100.866 170.940 L 101.659 172.099 Z" fill="none" stroke="black" stroke-width="0.35" stroke-linejoin="round" stroke-dasharray="1.6,1.1"/>
<path d="M 125.057 137.828 L 124.994 137.695 L 124.832 137.450 L 124.733 137.340 L 124.506 137.153 L 124.380 137.077 L 124.109 136.963 L 123.966 136.927 L 123.674 136.897 L 123.381 136.925 L 123.238 136.961 L 123.100 137.010 L 122.840 137.148 L 122.721 137.235 L 122.513 137.442 L 122.348 137.686 L 122.285 137.819 L 122.199 138.100 L 122.177 138.246 L 122.120 139.397 L 122.162 139.688 L 122.324 140.164 L 122.480 140.786 L 122.574 141.421 L 122.606 142.062 L 122.574 142.703 L 122.480 143.338 L 122.324 143.961 L 122.108 144.565 L 121.927 144.947 L 121.828 145.224 L 121.785 145.508 L 121.721 146.703 L 121.480 148.328 L 121.079 149.928 L 120.524 151.480 L 119.819 152.971 L 118.971 154.385 L 117.989 155.710 L 117.246 156.530 L 117.071 156.766 L 117.001 156.896 L 116.902 157.172 L 116.859 157.463 L 116.857 158.628 L 116.886 158.920 L 116.971 159.202 L 117.034 159.335 L 117.110 159.461 L 117.297 159.688 L 117.406 159.787 L 117.650 159.951 L 117.783 160.013 L 118.065 160.099 L 118.357 160.128 L 118.504 160.120 L 119.765 159.935 L 121.500 159.850 L 123.235 159.935 L 124.953 160.190 L 126.638 160.612 L 128.273 161.197 L 129.786 161.905 L 130.071 161.976 L 130.218 161.991 L 130.511 161.976 L 130.656 161.947 L 130.933 161.848 L 131.185 161.697 L 131.403 161.500 L 131.578 161.264 L 131.704 160.998 L 131.775 160.712 L 131.790 160.419 L 131.746 160.128 L 125.057 137.828 Z" fill="none" stroke="black" stroke-width="0.35" stroke-linejoin="round" stroke-dasharray="1.6,1.1"/>
<path d="M 121.500 164.850 L 120.255 164.911 L 119.022 165.094 L 117.813 165.397 L 116.640 165.817 L 115.513 166.350 L 114.444 166.990 L 113.443 167.733 L 112.520 168.570 L 111.683 169.493 L 110.940 170.494 L 110.300 171.563 L 109.767 172.690 L 109.347 173.863 L 109.044 175.072 L 108.861 176.305 L 108.800 177.550 L 108.861 178.795 L 109.044 180.028 L 109.347 181.237 L 109.767 182.410 L 110.300 183.537 L 110.940 184.606 L 111.683 185.607 L 112.520 186.530 L 113.443 187.367 L 114.444 188.110 L 115.513 188.750 L 116.640 189.283 L 117.813 189.703 L 119.022 190.006 L 120.255 190.189 L 121.500 190.250 L 122.745 190.189 L 123.978 190.006 L 125.187 189.703 L 126.360 189.283 L 127.487 188.750 L 128.556 188.110 L 129.557 187.367 L 130.480 186.530 L 131.317 185.607 L 132.060 184.606 L 132.700 183.537 L 133.233 182.410 L 133.653 181.237 L 133.956 180.028 L 134.139 178.795 L 134.200 177.550 L 134.139 176.305 L 133.956 175.072 L 133.653 173.863 L 133.233 172.690 L 132.700 171.563 L 132.060 170.494 L 131.317 169.493 L 130.480 168.570 L 129.557 167.733 L 128.556 166.990 L 127.487 166.350 L 126.360 165.817 L 125.187 165.397 L 123.978 165.094 L 122.745 164.911 L 121.500 164.850 Z" fill="none" stroke="black" stroke-width="0.35" stroke-linejoin="round" stroke-dasharray="1.6,1.1"/>
<path d="M 115.246 122.319 L 115.061 122.486 L 114.894 122.671 L 114.745 122.871 L 114.617 123.085 L 114.511 123.310 L 114.427 123.545 L 114.366 123.787 L 114.330 124.033 L 114.317 124.282 L 114.330 124.531 L 114.366 124.778 L 114.427 125.019 L 114.511 125.254 L 114.617 125.479 L 114.745 125.693 L 114.894 125.893 L 115.061 126.078 L 115.246 126.246 L 115.446 126.394 L 115.660 126.522 L 115.885 126.629 L 116.120 126.713 L 116.362 126.773 L 116.608 126.810 L 116.857 126.822 L 117.106 126.810 L 117.353 126.773 L 117.595 126.713 L 117.829 126.629 L 118.055 126.522 L 118.268 126.394 L 118.469 126.246 L 118.653 126.078 L 118.821 125.893 L 118.969 125.693 L 119.097 125.479 L 119.204 125.254 L 119.288 125.019 L 119.348 124.778 L 119.385 124.531 L 119.397 124.282 L 119.385 124.033 L 119.348 123.787 L 119.288 123.545 L 119.204 123.310 L 119.097 123.085 L 118.969 122.871 L 118.821 122.671 L 118.653 122.486 L 118.469 122.319 L 118.268 122.170 L 118.055 122.042 L 117.829 121.935 L 117.595 121.851 L 117.353 121.791 L 117.106 121.754 L 116.857 121.742 L 116.608 121.754 L 116.362 121.791 L 116.120 121.851 L 115.885 121.935 L 115.660 122.042 L 115.446 122.170 L 115.246 122.319 Z" fill="none" stroke="black" stroke-width="0.35" stroke-linejoin="round" stroke-dasharray="1.6,1.1"/>
<path d="M 108.672 178.813 L 108.672 178.813 L 108.567 178.824 L 108.672 178.813 Z" fill="none" stroke="black" stroke-width="0.35" stroke-linejoin="round" stroke-dasharray="1.6,1.1"/>
<path d="M 121.941 130.999 L 121.941 130.999 L 121.941 130.999 L 121.941 130.999 Z" fill="none" stroke="black" stroke-width="0.35" stroke-linejoin="round" stroke-dasharray="1.6,1.1"/>
<path d="M 119.944 118.284 L 119.944 118.284 L 119.944 118.284 L 119.944 118.284 Z" fill="none" stroke="black" stroke-width="0.35" stroke-linejoin="round" stroke-dasharray="1.6,1.1"/>
<path d="M 119.901 140.169 L 119.901 140.169 L 119.901 140.169 L 119.901 140.169 Z" fill="none" stroke="black" stroke-width="0.35" stroke-linejoin="round" stroke-dasharray="1.6,1.1"/>
<path d="M 120.700 138.854 L 120.700 138.854 L 120.700 138.854 L 120.700 138.854 Z" fill="none" stroke="black" stroke-width="0.35" stroke-linejoin="round" stroke-dasharray="1.6,1.1"/>
<path d="M 121.015 116.736 L 121.015 116.736 L 121.015 116.736 L 121.015 116.736 Z" fill="none" stroke="black" stroke-width="0.35" stroke-linejoin="round" stroke-dasharray="1.6,1.1"/>
<path d="M 121.031 130.329 L 121.031 130.329 L 121.031 130.329 L 121.031 130.329 Z" fill="none" stroke="black" stroke-width="0.35" stroke-linejoin="round" stroke-dasharray="1.6,1.1"/>
<path d="M 131.464 185.728 L 131.464 185.728 L 130.689 186.739 L 131.464 185.728 Z" fill="none" stroke="black" stroke-width="0.35" stroke-linejoin="round" stroke-dasharray="1.6,1.1"/>
<path d="M 133.935 169.241 L 133.935 169.241 L 133.935 169.241 L 133.935 169.241 Z" fill="none" stroke="black" stroke-width="0.35" stroke-linejoin="round" stroke-dasharray="1.6,1.1"/>
<path d="M 88.783 115.603 L 88.798 115.564 L 88.833 115.550 L 90.116 115.556 L 90.368 115.607 L 90.594 115.700 L 90.703 115.766 L 90.893 115.922 L 91.048 116.111 L 91.168 116.334 L 91.240 116.572 L 91.277 117.070 L 91.314 117.317 L 91.375 117.558 L 91.459 117.793 L 91.564 118.016 L 91.692 118.230 L 91.841 118.430 L 92.008 118.615 L 92.193 118.783 L 92.393 118.931 L 92.607 119.059 L 92.832 119.166 L 93.067 119.250 L 93.308 119.311 L 93.555 119.348 L 93.806 119.360 L 116.194 119.360 L 116.445 119.348 L 116.692 119.311 L 116.933 119.250 L 117.168 119.166 L 117.393 119.059 L 117.607 118.931 L 117.805 118.784 L 117.990 118.617 L 118.158 118.432 L 118.306 118.232 L 118.434 118.018 L 118.541 117.793 L 118.625 117.558 L 118.686 117.317 L 118.723 117.070 L 118.760 116.572 L 118.832 116.334 L 118.952 116.111 L 119.107 115.922 L 119.297 115.766 L 119.406 115.700 L 119.632 115.607 L 119.881 115.556 L 121.167 115.550 L 121.210 115.575 L 119.560 146.482 L 119.349 147.907 L 119.000 149.299 L 118.516 150.651 L 117.902 151.949 L 117.166 153.176 L 116.311 154.329 L 115.347 155.393 L 114.283 156.358 L 113.130 157.213 L 111.899 157.952 L 110.601 158.566 L 109.249 159.050 L 107.857 159.399 L 106.436 159.610 L 105.002 159.680 L 103.568 159.610 L 102.148 159.400 L 100.755 159.051 L 99.404 158.568 L 98.105 157.954 L 96.874 157.216 L 95.721 156.361 L 94.657 155.397 L 93.692 154.333 L 92.837 153.180 L 92.098 151.949 L 91.484 150.651 L 91.000 149.299 L 90.651 147.907 L 90.440 146.482 L 88.783 115.603 Z" fill="none" stroke="#333333" stroke-width="0.35" stroke-linejoin="round" stroke-dasharray="2.4,1.4"/>
<path d="M 115.062 122.485 L 114.895 122.670 L 114.746 122.870 L 114.618 123.084 L 114.511 123.309 L 114.427 123.544 L 114.366 123.785 L 114.330 124.032 L 114.317 124.281 L 114.329 124.530 L 114.366 124.776 L 114.426 125.018 L 114.510 125.253 L 114.617 125.478 L 114.745 125.692 L 114.893 125.892 L 115.060 126.077 L 115.245 126.245 L 115.445 126.393 L 115.659 126.522 L 115.884 126.628 L 116.119 126.712 L 116.361 126.773 L 116.607 126.810 L 116.856 126.822 L 117.105 126.810 L 117.352 126.773 L 117.593 126.713 L 117.828 126.629 L 118.054 126.523 L 118.267 126.395 L 118.468 126.246 L 118.652 126.079 L 118.820 125.894 L 118.968 125.694 L 119.097 125.480 L 119.203 125.255 L 119.287 125.021 L 119.348 124.779 L 119.385 124.532 L 119.397 124.283 L 119.385 124.034 L 119.349 123.788 L 119.288 123.546 L 119.204 123.311 L 119.098 123.086 L 118.970 122.872 L 118.821 122.672 L 118.654 122.487 L 118.470 122.319 L 118.269 122.171 L 118.056 122.043 L 117.830 121.936 L 117.596 121.852 L 117.354 121.791 L 117.107 121.755 L 116.859 121.742 L 116.610 121.754 L 116.363 121.791 L 116.121 121.851 L 115.886 121.935 L 115.661 122.041 L 115.447 122.170 L 115.247 122.318 L 115.062 122.485 Z" fill="none" stroke="#333333" stroke-width="0.35" stroke-linejoin="round" stroke-dasharray="2.4,1.4"/>
<path d="M 113.575 141.565 L 113.538 141.812 L 113.526 142.061 L 113.538 142.310 L 113.574 142.556 L 113.635 142.798 L 113.719 143.033 L 113.825 143.258 L 113.953 143.472 L 114.102 143.672 L 114.269 143.857 L 114.453 144.025 L 114.654 144.173 L 114.867 144.302 L 115.093 144.408 L 115.327 144.492 L 115.569 144.553 L 115.816 144.590 L 116.064 144.602 L 116.313 144.590 L 116.560 144.553 L 116.802 144.493 L 117.037 144.409 L 117.262 144.303 L 117.476 144.175 L 117.676 144.026 L 117.861 143.859 L 118.028 143.674 L 118.177 143.474 L 118.305 143.260 L 118.412 143.035 L 118.496 142.801 L 118.557 142.559 L 118.593 142.312 L 118.606 142.063 L 118.594 141.814 L 118.557 141.568 L 118.497 141.326 L 118.413 141.091 L 118.306 140.866 L 118.178 140.652 L 118.030 140.452 L 117.863 140.267 L 117.678 140.099 L 117.478 139.951 L 117.264 139.823 L 117.039 139.716 L 116.804 139.632 L 116.562 139.571 L 116.316 139.535 L 116.067 139.522 L 115.818 139.534 L 115.571 139.571 L 115.330 139.631 L 115.095 139.715 L 114.869 139.821 L 114.656 139.950 L 114.455 140.098 L 114.271 140.265 L 114.103 140.450 L 113.955 140.650 L 113.826 140.864 L 113.720 141.089 L 113.635 141.324 L 113.575 141.565 Z" fill="none" stroke="#333333" stroke-width="0.35" stroke-linejoin="round" stroke-dasharray="2.4,1.4"/>
<path d="M 96.175 140.866 L 96.047 140.652 L 95.898 140.452 L 95.731 140.267 L 95.547 140.099 L 95.346 139.951 L 95.133 139.823 L 94.907 139.716 L 94.673 139.632 L 94.431 139.571 L 94.184 139.535 L 93.936 139.522 L 93.687 139.534 L 93.440 139.571 L 93.198 139.631 L 92.963 139.715 L 92.738 139.821 L 92.524 139.950 L 92.324 140.098 L 92.139 140.265 L 91.972 140.450 L 91.823 140.650 L 91.695 140.864 L 91.588 141.089 L 91.504 141.324 L 91.443 141.565 L 91.407 141.812 L 91.394 142.061 L 91.406 142.310 L 91.443 142.556 L 91.503 142.798 L 91.587 143.033 L 91.694 143.258 L 91.822 143.472 L 91.970 143.672 L 92.137 143.857 L 92.322 144.025 L 92.522 144.173 L 92.736 144.302 L 92.961 144.408 L 93.196 144.492 L 93.438 144.553 L 93.684 144.590 L 93.933 144.602 L 94.182 144.590 L 94.429 144.553 L 94.670 144.493 L 94.905 144.409 L 95.131 144.303 L 95.344 144.175 L 95.545 144.026 L 95.729 143.859 L 95.897 143.674 L 96.045 143.474 L 96.174 143.260 L 96.280 143.035 L 96.365 142.801 L 96.425 142.559 L 96.462 142.312 L 96.474 142.063 L 96.462 141.814 L 96.426 141.568 L 96.365 141.326 L 96.281 141.091 L 96.175 140.866 Z" fill="none" stroke="#333333" stroke-width="0.35" stroke-linejoin="round" stroke-dasharray="2.4,1.4"/>
<path d="M 93.881 121.852 L 93.639 121.791 L 93.393 121.755 L 93.144 121.742 L 92.895 121.754 L 92.648 121.791 L 92.407 121.851 L 92.172 121.935 L 91.946 122.041 L 91.733 122.170 L 91.532 122.318 L 91.348 122.485 L 91.180 122.670 L 91.032 122.870 L 90.903 123.084 L 90.797 123.309 L 90.713 123.544 L 90.652 123.785 L 90.615 124.032 L 90.603 124.281 L 90.615 124.530 L 90.651 124.776 L 90.712 125.018 L 90.796 125.253 L 90.902 125.478 L 91.030 125.692 L 91.179 125.892 L 91.346 126.077 L 91.530 126.245 L 91.731 126.393 L 91.944 126.522 L 92.170 126.628 L 92.404 126.712 L 92.646 126.773 L 92.893 126.810 L 93.141 126.822 L 93.390 126.810 L 93.637 126.773 L 93.879 126.713 L 94.114 126.629 L 94.339 126.523 L 94.553 126.395 L 94.753 126.246 L 94.938 126.079 L 95.105 125.894 L 95.254 125.694 L 95.382 125.480 L 95.489 125.255 L 95.573 125.021 L 95.634 124.779 L 95.670 124.532 L 95.683 124.283 L 95.671 124.034 L 95.634 123.788 L 95.574 123.546 L 95.490 123.311 L 95.383 123.086 L 95.255 122.872 L 95.107 122.672 L 94.940 122.487 L 94.755 122.319 L 94.555 122.171 L 94.341 122.043 L 94.116 121.936 L 93.881 121.852 Z" fill="none" stroke="#333333" stroke-width="0.35" stroke-linejoin="round" stroke-dasharray="2.4,1.4"/>
<line x1="87.062" y1="177.358" x2="89.862" y2="177.358" stroke="black" stroke-width="0.2"/>
<line x1="88.462" y1="175.958" x2="88.462" y2="178.758" stroke="black" stroke-width="0.2"/>
<line x1="120.100" y1="177.355" x2="122.900" y2="177.355" stroke="black" stroke-width="0.2"/>
<line x1="121.500" y1="175.955" x2="121.500" y2="178.755" stroke="black" stroke-width="0.2"/>
<line x1="92.570" y1="142.047" x2="95.370" y2="142.047" stroke="black" stroke-width="0.2"/>
<line x1="93.970" y1="140.647" x2="93.970" y2="143.447" stroke="black" stroke-width="0.2"/>
<line x1="114.628" y1="142.051" x2="117.428" y2="142.051" stroke="black" stroke-width="0.2"/>
<line x1="116.028" y1="140.651" x2="116.028" y2="143.451" stroke="black" stroke-width="0.2"/>
<line x1="91.758" y1="124.246" x2="94.558" y2="124.246" stroke="black" stroke-width="0.2"/>
<line x1="93.158" y1="122.846" x2="93.158" y2="125.646" stroke="black" stroke-width="0.2"/>
<line x1="115.432" y1="124.252" x2="118.232" y2="124.252" stroke="black" stroke-width="0.2"/>
<line x1="116.832" y1="122.852" x2="116.832" y2="125.652" stroke="black" stroke-width="0.2"/>
<line x1="67.563" y1="115.550" x2="57.563" y2="115.550" stroke="black" stroke-width="0.18"/>
<line x1="67.563" y1="211.450" x2="57.563" y2="211.450" stroke="black" stroke-width="0.18"/>
<line x1="58.563" y1="115.550" x2="58.563" y2="211.450" stroke="black" stroke-width="0.25"/>
<polygon points="58.563,115.550 59.313,117.950 57.813,117.950" fill="black"/>
<polygon points="58.563,211.450 57.813,209.050 59.313,209.050" fill="black"/>
<text x="57.163" y="164.500" font-family="Helvetica, Arial, sans-serif" font-size="3" font-weight="bold" text-anchor="end" fill="black" paint-order="stroke" stroke="white" stroke-width="0.9">95.9</text>
<line x1="67.563" y1="211.450" x2="67.563" y2="220.450" stroke="black" stroke-width="0.18"/>
<line x1="142.440" y1="211.450" x2="142.440" y2="220.450" stroke="black" stroke-width="0.18"/>
<line x1="67.563" y1="219.450" x2="142.440" y2="219.450" stroke="black" stroke-width="0.25"/>
<polygon points="67.563,219.450 69.963,218.700 69.963,220.200" fill="black"/>
<polygon points="142.440,219.450 140.040,220.200 140.040,218.700" fill="black"/>
<text x="105.002" y="223.350" font-family="Helvetica, Arial, sans-serif" font-size="3" font-weight="bold" text-anchor="middle" fill="black" paint-order="stroke" stroke="white" stroke-width="0.9">74.88</text>
<line x1="91.265" y1="115.550" x2="91.265" y2="108.550" stroke="black" stroke-width="0.18"/>
<line x1="118.735" y1="115.550" x2="118.735" y2="108.550" stroke="black" stroke-width="0.18"/>
<line x1="91.265" y1="109.550" x2="118.735" y2="109.550" stroke="black" stroke-width="0.25"/>
<polygon points="91.265,109.550 93.665,108.800 93.665,110.300" fill="black"/>
<polygon points="118.735,109.550 116.335,110.300 116.335,108.800" fill="black"/>
<text x="105.000" y="108.450" font-family="Helvetica, Arial, sans-serif" font-size="3" font-weight="bold" text-anchor="middle" fill="black" paint-order="stroke" stroke="white" stroke-width="0.9">notch 27.47</text>
<line x1="88.750" y1="115.550" x2="88.750" y2="102.050" stroke="black" stroke-width="0.18"/>
<line x1="121.250" y1="115.550" x2="121.250" y2="102.050" stroke="black" stroke-width="0.18"/>
<line x1="88.750" y1="103.050" x2="121.250" y2="103.050" stroke="black" stroke-width="0.25"/>
<polygon points="88.750,103.050 91.150,102.300 91.150,103.800" fill="black"/>
<polygon points="121.250,103.050 118.850,103.800 118.850,102.300" fill="black"/>
<text x="105.000" y="101.950" font-family="Helvetica, Arial, sans-serif" font-size="3" font-weight="bold" text-anchor="middle" fill="black" paint-order="stroke" stroke="white" stroke-width="0.9">pocket 32.5</text>
<line x1="142.440" y1="115.550" x2="151.440" y2="115.550" stroke="black" stroke-width="0.18"/>
<line x1="142.440" y1="159.350" x2="151.440" y2="159.350" stroke="black" stroke-width="0.18"/>
<line x1="150.440" y1="115.550" x2="150.440" y2="159.350" stroke="black" stroke-width="0.25"/>
<polygon points="150.440,115.550 151.190,117.950 149.690,117.950" fill="black"/>
<polygon points="150.440,159.350 149.690,156.950 151.190,156.950" fill="black"/>
<text x="151.840" y="138.450" font-family="Helvetica, Arial, sans-serif" font-size="3" font-weight="bold" text-anchor="start" fill="black" paint-order="stroke" stroke="white" stroke-width="0.9">pocket depth 43.8</text>
<line x1="88.462" y1="177.358" x2="88.462" y2="178.358" stroke="black" stroke-width="0.18"/>
<line x1="121.500" y1="177.358" x2="121.500" y2="178.358" stroke="black" stroke-width="0.18"/>
<line x1="88.462" y1="177.358" x2="121.500" y2="177.358" stroke="black" stroke-width="0.25"/>
<polygon points="88.462,177.358 90.862,176.608 90.862,178.108" fill="black"/>
<polygon points="121.500,177.358 119.100,178.108 119.100,176.608" fill="black"/>
<text x="104.981" y="176.258" font-family="Helvetica, Arial, sans-serif" font-size="3" font-weight="bold" text-anchor="middle" fill="black" paint-order="stroke" stroke="white" stroke-width="0.9">33</text>
<line x1="131.227" y1="185.517" x2="138.121" y2="191.302" stroke="black" stroke-width="0.25"/>
<polygon points="131.227,185.517 133.548,186.485 132.583,187.634" fill="black"/>
<line x1="138.121" y1="191.302" x2="144.121" y2="191.302" stroke="black" stroke-width="0.25"/>
<text x="144.921" y="190.402" font-family="Helvetica, Arial, sans-serif" font-size="3" font-weight="bold" text-anchor="start" fill="black" paint-order="stroke" stroke="white" stroke-width="0.9">Ø25.4 (2×)</text>
<line x1="93.158" y1="124.246" x2="93.158" y2="134.147" stroke="black" stroke-width="0.18"/>
<line x1="116.832" y1="124.246" x2="116.832" y2="134.147" stroke="black" stroke-width="0.18"/>
<line x1="93.158" y1="133.147" x2="116.832" y2="133.147" stroke="black" stroke-width="0.25"/>
<polygon points="93.158,133.147 95.558,132.397 95.558,133.897" fill="black"/>
<polygon points="116.832,133.147 114.432,133.897 114.432,132.397" fill="black"/>
<text x="104.995" y="132.047" font-family="Helvetica, Arial, sans-serif" font-size="2.6" font-weight="bold" text-anchor="middle" fill="black" paint-order="stroke" stroke="white" stroke-width="0.9">23.67</text>
<line x1="93.158" y1="124.246" x2="82.158" y2="124.246" stroke="black" stroke-width="0.18"/>
<line x1="93.158" y1="142.047" x2="82.158" y2="142.047" stroke="black" stroke-width="0.18"/>
<line x1="83.158" y1="124.246" x2="83.158" y2="142.047" stroke="black" stroke-width="0.25"/>
<polygon points="83.158,124.246 83.908,126.646 82.408,126.646" fill="black"/>
<polygon points="83.158,142.047 82.408,139.647 83.908,139.647" fill="black"/>
<text x="81.758" y="134.147" font-family="Helvetica, Arial, sans-serif" font-size="2.6" font-weight="bold" text-anchor="end" fill="black" paint-order="stroke" stroke="white" stroke-width="0.9">17.8</text>
<line x1="114.233" y1="143.846" x2="108.576" y2="149.503" stroke="black" stroke-width="0.25"/>
<polygon points="114.233,143.846 113.066,146.074 112.005,145.013" fill="black"/>
<line x1="108.576" y1="149.503" x2="102.576" y2="149.503" stroke="black" stroke-width="0.25"/>
<text x="101.776" y="148.603" font-family="Helvetica, Arial, sans-serif" font-size="2.6" font-weight="bold" text-anchor="end" fill="black" paint-order="stroke" stroke="white" stroke-width="0.9">Ø5.08 (4×)</text>
</svg>
