<svg xmlns="http://www.w3.org/2000/svg" width="210mm" height="279mm" viewBox="0 0 210 279">
<rect x="0" y="0" width="210" height="279" fill="white"/>
<text x="105.000" y="12.000" font-family="Helvetica, Arial, sans-serif" font-size="5" font-weight="bold" text-anchor="middle" fill="black">Plug Puller — Standard 3-prong plug (NEMA 5-15) · Medium</text>
<text x="105.000" y="17.500" font-family="Helvetica, Arial, sans-serif" font-size="2.8" font-weight="normal" text-anchor="middle" fill="black">1:1 outline sheet — print at 100% scale / “Actual size”, never “fit to page”. Check the calibration square before trusting anything.</text>
<rect x="14" y="22" width="50" height="50" fill="none" stroke="black" stroke-width="0.4"/>
<text x="39.000" y="45.500" font-family="Helvetica, Arial, sans-serif" font-size="3.4" font-weight="bold" text-anchor="middle" fill="black">CALIBRATION</text>
<text x="39.000" y="50.500" font-family="Helvetica, Arial, sans-serif" font-size="3.4" font-weight="normal" text-anchor="middle" fill="black">50 × 50 mm</text>
<text x="39.000" y="56.500" font-family="Helvetica, Arial, sans-serif" font-size="2.6" font-weight="normal" text-anchor="middle" fill="#444444">Measure me with a ruler.</text>
<text x="39.000" y="60.500" font-family="Helvetica, Arial, sans-serif" font-size="2.6" font-weight="normal" text-anchor="middle" fill="#444444">Not 50 mm? Re-print at 100%.</text>
<rect x="70" y="22" width="126" height="50" fill="none" stroke="black" stroke-width="0.3"/>
<text x="73.000" y="27.000" font-family="Helvetica, Arial, sans-serif" font-size="3.4" font-weight="bold" text-anchor="start" fill="black">Standard 3-prong plug</text>
<text x="73.000" y="31.600" font-family="Helvetica, Arial, sans-serif" font-size="2.8" font-weight="normal" text-anchor="start" fill="black">Flat tool · Medium hand size</text>
<text x="73.000" y="35.400" font-family="Helvetica, Arial, sans-serif" font-size="2.8" font-weight="normal" text-anchor="start" fill="black">Printed footprint ≈ 74.8 × 95.1 mm</text>
<text x="73.000" y="40.000" font-family="Helvetica, Arial, sans-serif" font-size="2.6" font-weight="normal" text-anchor="start" fill="#333333">Customizer settings for this exact tool:</text>
<text x="73.000" y="43.400" font-family="Helvetica, Arial, sans-serif" font-size="2.6" font-weight="normal" text-anchor="start" fill="#333333">  tool_style = Flat tool</text>
<text x="73.000" y="46.800" font-family="Helvetica, Arial, sans-serif" font-size="2.6" font-weight="normal" text-anchor="start" fill="#333333">  plug_preset =</text>
<text x="73.000" y="50.200" font-family="Helvetica, Arial, sans-serif" font-size="2.6" font-weight="normal" text-anchor="start" fill="#333333">      Standard 3-prong plug - NEMA 5-15</text>
<text x="73.000" y="53.600" font-family="Helvetica, Arial, sans-serif" font-size="2.6" font-weight="normal" text-anchor="start" fill="#333333">  size = Medium</text>
<text x="73.000" y="57.000" font-family="Helvetica, Arial, sans-serif" font-size="2.6" font-weight="normal" text-anchor="start" fill="#333333">  (everything else at its default)</text>
<text x="133.000" y="27.000" font-family="Helvetica, Arial, sans-serif" font-size="2.8" font-weight="bold" text-anchor="start" fill="black">Key dimensions</text>
<text x="133.000" y="31.000" font-family="Helvetica, Arial, sans-serif" font-size="2.6" font-weight="normal" text-anchor="start" fill="black">Body thickness: 6.35 mm (this sheet is 2D)</text>
<text x="133.000" y="34.500" font-family="Helvetica, Arial, sans-serif" font-size="2.6" font-weight="normal" text-anchor="start" fill="black">Finger holes: Ø25.4, 33 apart</text>
<text x="133.000" y="38.000" font-family="Helvetica, Arial, sans-serif" font-size="2.6" font-weight="normal" text-anchor="start" fill="black">Pocket: 33.3 wide × 46.2 deep</text>
<text x="133.000" y="41.500" font-family="Helvetica, Arial, sans-serif" font-size="2.6" font-weight="normal" text-anchor="start" fill="black">Wall notch: 28.27 wide × 3.81 deep</text>
<text x="133.000" y="45.000" font-family="Helvetica, Arial, sans-serif" font-size="2.6" font-weight="normal" text-anchor="start" fill="black">Zip holes: 4 × Ø5.08, rows 17.78 apart</text>
<text x="133.000" y="48.500" font-family="Helvetica, Arial, sans-serif" font-size="2.6" font-weight="normal" text-anchor="start" fill="black">J-hook cord gap: 7.76 mm</text>
<line x1="14.000" y1="248.000" x2="196.000" y2="248.000" stroke="#888888" stroke-width="0.2"/>
<text x="14.000" y="252.500" font-family="Helvetica, Arial, sans-serif" font-size="3.2" font-weight="bold" text-anchor="start" fill="black">How to use this sheet</text>
<text x="14.000" y="256.500" font-family="Helvetica, Arial, sans-serif" font-size="2.7" font-weight="normal" text-anchor="start" fill="black">1. Print at 100% and measure the calibration square — it must be exactly 50 × 50 mm.</text>
<text x="14.000" y="260.100" font-family="Helvetica, Arial, sans-serif" font-size="2.7" font-weight="normal" text-anchor="start" fill="black">2. Cut along the SOLID outline. Dashed lines are holes and the plug pocket — poke through the two big finger circles.</text>
<text x="14.000" y="263.700" font-family="Helvetica, Arial, sans-serif" font-size="2.7" font-weight="normal" text-anchor="start" fill="black">3. Hold the cutout on your plug at the wall: the plug fits the dashed pocket, the top notch straddles the wall plate.</text>
<text x="14.000" y="267.300" font-family="Helvetica, Arial, sans-serif" font-size="2.7" font-weight="normal" text-anchor="start" fill="black">4. Try the finger holes (medium size). Wrong size? Try a neighbouring sheet, or print the cards in stl/Measuring-Stencil/.</text>
<text x="14.000" y="270.900" font-family="Helvetica, Arial, sans-serif" font-size="2.7" font-weight="normal" text-anchor="start" fill="black">5. Happy? Open the Customizer with the title-block settings and export your STL (docs/guides/quick-start-beginner.md).</text>
<text x="105.000" y="275.500" font-family="Helvetica, Arial, sans-serif" font-size="2.4" font-weight="normal" text-anchor="middle" fill="#444444">openscad-plug-puller v0.9 · outline_standard-3-prong_medium.svg · scale 1:1 · guide: docs/guides/print-preview-outlines.md</text>
<path d="M 67.645 191.188 L 67.602 189.516 L 67.722 187.847 L 68.006 186.198 L 73.813 160.166 L 73.974 159.550 L 73.950 159.550 L 87.125 115.950 L 89.719 115.956 L 89.964 116.005 L 90.081 116.047 L 90.301 116.164 L 90.493 116.322 L 90.577 116.414 L 90.715 116.621 L 90.768 116.734 L 90.841 116.972 L 90.877 117.469 L 90.914 117.716 L 90.974 117.957 L 91.058 118.192 L 91.165 118.417 L 91.293 118.631 L 91.442 118.831 L 91.609 119.016 L 91.794 119.183 L 91.994 119.332 L 92.208 119.460 L 92.433 119.567 L 92.668 119.651 L 92.909 119.711 L 93.156 119.748 L 93.405 119.760 L 116.595 119.760 L 116.844 119.748 L 117.091 119.711 L 117.332 119.651 L 117.567 119.567 L 117.792 119.460 L 118.006 119.332 L 118.206 119.183 L 118.391 119.016 L 118.558 118.831 L 118.707 118.631 L 118.835 118.417 L 118.942 118.192 L 119.026 117.957 L 119.086 117.716 L 119.123 117.469 L 119.159 116.972 L 119.232 116.734 L 119.285 116.621 L 119.423 116.414 L 119.507 116.322 L 119.699 116.164 L 119.919 116.047 L 120.036 116.005 L 120.281 115.956 L 122.875 115.950 L 136.050 159.550 L 136.026 159.550 L 136.187 160.166 L 142.060 186.507 L 142.313 188.161 L 142.403 189.831 L 142.328 191.503 L 142.090 193.159 L 141.691 194.784 L 141.135 196.362 L 140.426 197.878 L 139.573 199.317 L 138.582 200.665 L 137.464 201.910 L 136.230 203.040 L 134.890 204.043 L 133.459 204.909 L 131.950 205.632 L 130.377 206.203 L 128.756 206.617 L 116.181 209.178 L 116.181 203.239 L 115.713 202.770 L 115.706 195.636 L 115.658 195.391 L 115.563 195.161 L 115.424 194.954 L 115.248 194.778 L 115.041 194.640 L 114.929 194.587 L 114.690 194.514 L 114.442 194.490 L 98.870 194.490 L 98.746 194.496 L 98.501 194.545 L 98.271 194.640 L 98.164 194.704 L 97.972 194.862 L 97.888 194.954 L 97.750 195.161 L 97.697 195.274 L 97.655 195.391 L 97.606 195.636 L 97.606 201.624 L 97.655 201.869 L 97.750 202.099 L 97.814 202.206 L 97.972 202.398 L 98.164 202.556 L 98.384 202.673 L 98.622 202.746 L 98.870 202.770 L 106.245 202.770 L 108.419 204.944 L 108.419 210.759 L 106.593 211.031 L 106.163 211.050 L 103.893 211.050 L 103.251 211.015 L 101.597 210.762 L 80.935 206.551 L 79.322 206.107 L 77.760 205.507 L 76.265 204.757 L 74.850 203.864 L 73.529 202.836 L 72.316 201.684 L 71.221 200.419 L 70.256 199.052 L 69.429 197.597 L 68.749 196.069 L 68.221 194.481 L 67.852 192.849 L 67.645 191.188 Z" fill="none" stroke="black" stroke-width="0.5" stroke-linejoin="round"/>
<path d="M 111.914 140.463 L 111.765 140.663 L 111.637 140.877 L 111.531 141.102 L 111.447 141.337 L 111.386 141.579 L 111.350 141.825 L 111.337 142.074 L 111.350 142.323 L 111.386 142.570 L 111.447 142.812 L 111.531 143.046 L 111.637 143.272 L 111.765 143.485 L 111.914 143.686 L 112.081 143.870 L 112.266 144.038 L 112.466 144.186 L 112.680 144.314 L 112.905 144.421 L 113.140 144.505 L 113.382 144.566 L 113.628 144.602 L 113.877 144.614 L 114.126 144.602 L 114.373 144.566 L 114.615 144.505 L 114.849 144.421 L 115.075 144.314 L 115.288 144.186 L 115.489 144.038 L 115.673 143.870 L 115.841 143.686 L 115.989 143.485 L 116.117 143.272 L 116.224 143.046 L 116.308 142.812 L 116.369 142.570 L 116.405 142.323 L 116.417 142.074 L 116.405 141.825 L 116.369 141.579 L 116.308 141.337 L 116.224 141.102 L 116.117 140.877 L 115.989 140.663 L 115.841 140.463 L 115.673 140.278 L 115.489 140.111 L 115.288 139.962 L 115.075 139.834 L 114.849 139.728 L 114.615 139.644 L 114.373 139.583 L 114.126 139.547 L 113.877 139.534 L 113.628 139.547 L 113.382 139.583 L 113.140 139.644 L 112.905 139.728 L 112.680 139.834 L 112.466 139.962 L 112.266 140.111 L 112.081 140.278 L 111.914 140.463 Z" fill="none" stroke="black" stroke-width="0.35" stroke-linejoin="round" stroke-dasharray="1.6,1.1"/>
<path d="M 113.177 193.036 L 113.177 193.036 L 113.177 193.036 L 113.177 193.036 Z" fill="none" stroke="black" stroke-width="0.35" stroke-linejoin="round" stroke-dasharray="1.6,1.1"/>
<path d="M 94.555 121.948 L 94.320 121.864 L 94.078 121.803 L 93.832 121.767 L 93.583 121.754 L 93.334 121.767 L 93.087 121.803 L 92.845 121.864 L 92.611 121.948 L 92.385 122.054 L 92.172 122.182 L 91.971 122.331 L 91.787 122.498 L 91.619 122.683 L 91.471 122.883 L 91.343 123.097 L 91.236 123.322 L 91.152 123.557 L 91.091 123.799 L 91.055 124.045 L 91.043 124.294 L 91.055 124.543 L 91.091 124.790 L 91.152 125.032 L 91.236 125.266 L 91.343 125.492 L 91.471 125.705 L 91.619 125.906 L 91.787 126.090 L 91.971 126.258 L 92.172 126.406 L 92.385 126.534 L 92.611 126.641 L 92.845 126.725 L 93.087 126.786 L 93.334 126.822 L 93.583 126.834 L 93.832 126.822 L 94.078 126.786 L 94.320 126.725 L 94.555 126.641 L 94.780 126.534 L 94.994 126.406 L 95.194 126.258 L 95.379 126.090 L 95.546 125.906 L 95.695 125.705 L 95.823 125.492 L 95.929 125.266 L 96.013 125.032 L 96.074 124.790 L 96.110 124.543 L 96.123 124.294 L 96.110 124.045 L 96.074 123.799 L 96.013 123.557 L 95.929 123.322 L 95.823 123.097 L 95.695 122.883 L 95.546 122.683 L 95.379 122.498 L 95.194 122.331 L 94.994 122.182 L 94.780 122.054 L 94.555 121.948 Z" fill="none" stroke="black" stroke-width="0.35" stroke-linejoin="round" stroke-dasharray="1.6,1.1"/>
<path d="M 86.398 133.222 L 78.280 160.087 L 77.999 161.153 L 77.502 163.378 L 77.466 163.670 L 77.488 163.963 L 77.521 164.107 L 77.627 164.381 L 77.700 164.509 L 77.881 164.741 L 77.988 164.842 L 78.228 165.011 L 78.497 165.130 L 78.639 165.169 L 78.784 165.194 L 79.078 165.201 L 79.224 165.182 L 79.508 165.103 L 79.737 164.991 L 80.156 164.740 L 81.727 163.997 L 83.362 163.412 L 85.047 162.990 L 86.765 162.735 L 88.500 162.650 L 90.235 162.735 L 92.009 162.991 L 92.156 162.991 L 92.447 162.948 L 92.724 162.849 L 92.976 162.698 L 93.090 162.604 L 93.194 162.500 L 93.369 162.264 L 93.439 162.134 L 93.538 161.857 L 93.566 161.713 L 93.583 161.493 L 93.575 157.474 L 93.518 157.186 L 93.403 156.904 L 92.988 155.744 L 92.692 154.562 L 91.493 147.055 L 91.418 146.771 L 91.289 146.507 L 90.685 145.708 L 90.355 145.157 L 90.080 144.577 L 89.864 143.973 L 89.708 143.350 L 89.614 142.715 L 89.583 142.074 L 89.614 141.433 L 89.708 140.798 L 89.864 140.176 L 90.144 139.374 L 90.172 139.229 L 90.187 138.936 L 89.284 133.276 L 89.240 133.135 L 89.111 132.871 L 88.934 132.637 L 88.714 132.442 L 88.590 132.361 L 88.323 132.238 L 88.182 132.197 L 87.890 132.157 L 87.597 132.175 L 87.453 132.205 L 87.177 132.308 L 86.927 132.461 L 86.711 132.661 L 86.619 132.776 L 86.471 133.030 L 86.398 133.222 Z" fill="none" stroke="black" stroke-width="0.35" stroke-linejoin="round" stroke-dasharray="1.6,1.1"/>
<path d="M 86.022 167.894 L 84.813 168.197 L 83.640 168.617 L 82.513 169.150 L 81.444 169.790 L 80.443 170.533 L 79.520 171.370 L 78.683 172.293 L 77.940 173.294 L 77.300 174.363 L 76.767 175.490 L 76.347 176.663 L 76.044 177.872 L 75.861 179.105 L 75.800 180.350 L 75.861 181.595 L 76.044 182.828 L 76.347 184.037 L 76.767 185.210 L 77.300 186.337 L 77.940 187.406 L 78.683 188.407 L 79.520 189.330 L 80.443 190.167 L 81.444 190.910 L 82.513 191.550 L 83.640 192.083 L 84.813 192.503 L 86.022 192.806 L 87.255 192.989 L 88.500 193.050 L 89.745 192.989 L 90.978 192.806 L 92.187 192.503 L 93.360 192.083 L 94.487 191.550 L 95.556 190.910 L 96.557 190.167 L 97.480 189.330 L 98.317 188.407 L 99.060 187.406 L 99.700 186.337 L 100.233 185.210 L 100.653 184.037 L 100.956 182.828 L 101.139 181.595 L 101.200 180.350 L 101.139 179.105 L 100.956 177.872 L 100.653 176.663 L 100.233 175.490 L 99.700 174.363 L 99.060 173.294 L 98.317 172.293 L 97.480 171.370 L 96.557 170.533 L 95.556 169.790 L 94.487 169.150 L 93.360 168.617 L 92.187 168.197 L 90.978 167.894 L 89.745 167.711 L 88.500 167.650 L 87.255 167.711 L 86.022 167.894 Z" fill="none" stroke="black" stroke-width="0.35" stroke-linejoin="round" stroke-dasharray="1.6,1.1"/>
<path d="M 87.050 117.895 L 87.050 117.895 L 87.050 117.895 L 87.050 117.895 Z" fill="none" stroke="black" stroke-width="0.35" stroke-linejoin="round" stroke-dasharray="1.6,1.1"/>
<path d="M 71.415 200.409 L 71.415 200.409 L 71.415 200.409 L 71.415 200.409 Z" fill="none" stroke="black" stroke-width="0.35" stroke-linejoin="round" stroke-dasharray="1.6,1.1"/>
<path d="M 73.240 188.469 L 73.240 188.469 L 73.240 188.469 L 73.240 188.469 Z" fill="none" stroke="black" stroke-width="0.35" stroke-linejoin="round" stroke-dasharray="1.6,1.1"/>
<path d="M 75.990 162.161 L 75.990 162.161 L 75.990 162.161 L 75.990 162.161 Z" fill="none" stroke="black" stroke-width="0.35" stroke-linejoin="round" stroke-dasharray="1.6,1.1"/>
<path d="M 95.151 139.728 L 94.925 139.834 L 94.712 139.962 L 94.511 140.111 L 94.327 140.278 L 94.159 140.463 L 94.011 140.663 L 93.883 140.877 L 93.776 141.102 L 93.692 141.337 L 93.631 141.579 L 93.595 141.825 L 93.583 142.074 L 93.595 142.323 L 93.631 142.570 L 93.692 142.812 L 93.776 143.046 L 93.883 143.272 L 94.011 143.485 L 94.159 143.686 L 94.327 143.870 L 94.511 144.038 L 94.712 144.186 L 94.925 144.314 L 95.151 144.421 L 95.385 144.505 L 95.627 144.566 L 95.874 144.602 L 96.123 144.614 L 96.372 144.602 L 96.618 144.566 L 96.860 144.505 L 97.095 144.421 L 97.320 144.314 L 97.534 144.186 L 97.734 144.038 L 97.919 143.870 L 98.086 143.686 L 98.235 143.485 L 98.363 143.272 L 98.469 143.046 L 98.553 142.812 L 98.614 142.570 L 98.650 142.323 L 98.663 142.074 L 98.650 141.825 L 98.614 141.579 L 98.553 141.337 L 98.469 141.102 L 98.363 140.877 L 98.235 140.663 L 98.086 140.463 L 97.919 140.278 L 97.734 140.111 L 97.534 139.962 L 97.320 139.834 L 97.095 139.728 L 96.860 139.644 L 96.618 139.583 L 96.372 139.547 L 96.123 139.534 L 95.874 139.547 L 95.627 139.583 L 95.385 139.644 L 95.151 139.728 Z" fill="none" stroke="black" stroke-width="0.35" stroke-linejoin="round" stroke-dasharray="1.6,1.1"/>
<path d="M 93.992 127.820 L 93.992 127.820 L 93.992 127.820 L 93.992 127.820 Z" fill="none" stroke="black" stroke-width="0.35" stroke-linejoin="round" stroke-dasharray="1.6,1.1"/>
<path d="M 92.117 141.838 L 92.117 141.838 L 92.117 141.838 L 92.117 141.838 Z" fill="none" stroke="black" stroke-width="0.35" stroke-linejoin="round" stroke-dasharray="1.6,1.1"/>
<path d="M 91.703 139.246 L 91.703 139.246 L 91.703 139.246 L 91.703 139.246 Z" fill="none" stroke="black" stroke-width="0.35" stroke-linejoin="round" stroke-dasharray="1.6,1.1"/>
<path d="M 98.883 188.871 L 99.668 187.813 L 99.668 187.813 L 98.883 188.871 Z" fill="none" stroke="black" stroke-width="0.35" stroke-linejoin="round" stroke-dasharray="1.6,1.1"/>
<path d="M 105.518 185.206 L 105.518 185.206 L 105.518 185.206 L 105.518 185.206 Z" fill="none" stroke="black" stroke-width="0.35" stroke-linejoin="round" stroke-dasharray="1.6,1.1"/>
<path d="M 123.490 132.951 L 123.415 132.824 L 123.228 132.597 L 123.119 132.498 L 122.875 132.334 L 122.603 132.221 L 122.315 132.164 L 122.168 132.156 L 121.875 132.185 L 121.594 132.270 L 121.461 132.333 L 121.216 132.496 L 121.107 132.595 L 121.008 132.703 L 120.844 132.948 L 120.732 133.219 L 120.696 133.362 L 119.814 138.919 L 119.813 139.066 L 119.852 139.358 L 120.136 140.176 L 120.292 140.798 L 120.386 141.433 L 120.417 142.074 L 120.386 142.715 L 120.292 143.350 L 120.136 143.973 L 119.920 144.577 L 119.645 145.157 L 119.315 145.708 L 118.702 146.521 L 118.633 146.651 L 118.534 146.927 L 117.308 154.562 L 117.012 155.744 L 116.597 156.904 L 116.505 157.116 L 116.434 157.401 L 116.417 157.622 L 116.417 161.493 L 116.446 161.786 L 116.482 161.928 L 116.594 162.200 L 116.670 162.326 L 116.857 162.554 L 117.084 162.740 L 117.210 162.816 L 117.343 162.879 L 117.625 162.964 L 117.770 162.986 L 118.064 162.986 L 119.765 162.735 L 121.500 162.650 L 123.235 162.735 L 124.953 162.990 L 126.638 163.412 L 128.273 163.997 L 129.844 164.740 L 130.263 164.991 L 130.529 165.117 L 130.670 165.160 L 130.961 165.203 L 131.108 165.203 L 131.399 165.160 L 131.676 165.061 L 131.805 164.991 L 132.042 164.816 L 132.146 164.712 L 132.321 164.476 L 132.390 164.346 L 132.489 164.069 L 132.518 163.925 L 132.532 163.631 L 132.498 163.378 L 132.001 161.153 L 131.720 160.087 L 123.602 133.222 L 123.490 132.951 Z" fill="none" stroke="black" stroke-width="0.35" stroke-linejoin="round" stroke-dasharray="1.6,1.1"/>
<path d="M 121.500 167.650 L 120.255 167.711 L 119.022 167.894 L 117.813 168.197 L 116.640 168.617 L 115.513 169.150 L 114.444 169.790 L 113.443 170.533 L 112.520 171.370 L 111.683 172.293 L 110.940 173.294 L 110.300 174.363 L 109.767 175.490 L 109.347 176.663 L 109.044 177.872 L 108.861 179.105 L 108.800 180.350 L 108.861 181.595 L 109.044 182.828 L 109.347 184.037 L 109.767 185.210 L 110.300 186.337 L 110.940 187.406 L 111.683 188.407 L 112.520 189.330 L 113.443 190.167 L 114.444 190.910 L 115.513 191.550 L 116.640 192.083 L 117.813 192.503 L 119.022 192.806 L 120.255 192.989 L 121.500 193.050 L 122.745 192.989 L 123.978 192.806 L 125.187 192.503 L 126.360 192.083 L 127.487 191.550 L 128.556 190.910 L 129.557 190.167 L 130.480 189.330 L 131.317 188.407 L 132.060 187.406 L 132.700 186.337 L 133.233 185.210 L 133.653 184.037 L 133.956 182.828 L 134.139 181.595 L 134.200 180.350 L 134.139 179.105 L 133.956 177.872 L 133.653 176.663 L 133.233 175.490 L 132.700 174.363 L 132.060 173.294 L 131.317 172.293 L 130.480 171.370 L 129.557 170.533 L 128.556 169.790 L 127.487 169.150 L 126.360 168.617 L 125.187 168.197 L 123.978 167.894 L 122.745 167.711 L 121.500 167.650 Z" fill="none" stroke="black" stroke-width="0.35" stroke-linejoin="round" stroke-dasharray="1.6,1.1"/>
<path d="M 115.445 121.948 L 115.220 122.054 L 115.006 122.182 L 114.806 122.331 L 114.621 122.498 L 114.454 122.683 L 114.305 122.883 L 114.177 123.097 L 114.071 123.322 L 113.987 123.557 L 113.926 123.799 L 113.890 124.045 L 113.877 124.294 L 113.890 124.543 L 113.926 124.790 L 113.987 125.032 L 114.071 125.266 L 114.177 125.492 L 114.305 125.705 L 114.454 125.906 L 114.621 126.090 L 114.806 126.258 L 115.006 126.406 L 115.220 126.534 L 115.445 126.641 L 115.680 126.725 L 115.922 126.786 L 116.168 126.822 L 116.417 126.834 L 116.666 126.822 L 116.913 126.786 L 117.155 126.725 L 117.389 126.641 L 117.615 126.534 L 117.828 126.406 L 118.029 126.258 L 118.213 126.090 L 118.381 125.906 L 118.529 125.705 L 118.657 125.492 L 118.764 125.266 L 118.848 125.032 L 118.909 124.790 L 118.945 124.543 L 118.957 124.294 L 118.945 124.045 L 118.909 123.799 L 118.848 123.557 L 118.764 123.322 L 118.657 123.097 L 118.529 122.883 L 118.381 122.683 L 118.213 122.498 L 118.029 122.331 L 117.828 122.182 L 117.615 122.054 L 117.389 121.948 L 117.155 121.864 L 116.913 121.803 L 116.666 121.767 L 116.417 121.754 L 116.168 121.767 L 115.922 121.803 L 115.680 121.864 L 115.445 121.948 Z" fill="none" stroke="black" stroke-width="0.35" stroke-linejoin="round" stroke-dasharray="1.6,1.1"/>
<path d="M 108.631 177.790 L 108.804 176.499 L 108.631 177.790 L 108.631 177.790 Z" fill="none" stroke="black" stroke-width="0.35" stroke-linejoin="round" stroke-dasharray="1.6,1.1"/>
<path d="M 107.304 183.174 L 107.304 183.174 L 107.353 183.372 L 107.304 183.174 Z" fill="none" stroke="black" stroke-width="0.35" stroke-linejoin="round" stroke-dasharray="1.6,1.1"/>
<path d="M 104.953 157.438 L 104.953 157.438 L 104.953 157.438 L 104.953 157.438 Z" fill="none" stroke="black" stroke-width="0.35" stroke-linejoin="round" stroke-dasharray="1.6,1.1"/>
<path d="M 117.003 194.904 L 117.003 194.904 L 117.003 194.904 L 117.003 194.904 Z" fill="none" stroke="black" stroke-width="0.35" stroke-linejoin="round" stroke-dasharray="1.6,1.1"/>
<path d="M 119.678 118.171 L 119.678 118.171 L 119.678 118.171 L 119.678 118.171 Z" fill="none" stroke="black" stroke-width="0.35" stroke-linejoin="round" stroke-dasharray="1.6,1.1"/>
<path d="M 133.506 175.377 L 133.409 175.417 L 133.506 175.377 L 133.506 175.377 Z" fill="none" stroke="black" stroke-width="0.35" stroke-linejoin="round" stroke-dasharray="1.6,1.1"/>
<path d="M 134.017 162.223 L 134.017 162.223 L 134.017 162.223 L 134.017 162.223 Z" fill="none" stroke="black" stroke-width="0.35" stroke-linejoin="round" stroke-dasharray="1.6,1.1"/>
<path d="M 88.732 116.012 L 88.740 115.975 L 88.777 115.954 L 89.724 115.957 L 89.960 116.004 L 90.081 116.047 L 90.300 116.164 L 90.490 116.320 L 90.579 116.417 L 90.713 116.618 L 90.769 116.738 L 90.840 116.972 L 90.877 117.468 L 90.914 117.714 L 90.974 117.956 L 91.058 118.191 L 91.166 118.418 L 91.294 118.632 L 91.441 118.830 L 91.608 119.015 L 91.793 119.183 L 91.993 119.331 L 92.207 119.459 L 92.432 119.566 L 92.667 119.650 L 92.908 119.711 L 93.155 119.748 L 93.406 119.760 L 116.594 119.760 L 116.845 119.748 L 117.092 119.711 L 117.333 119.650 L 117.568 119.566 L 117.793 119.459 L 118.007 119.331 L 118.205 119.184 L 118.390 119.017 L 118.558 118.832 L 118.706 118.632 L 118.834 118.418 L 118.941 118.193 L 119.025 117.958 L 119.086 117.717 L 119.123 117.470 L 119.160 116.972 L 119.232 116.734 L 119.285 116.621 L 119.426 116.412 L 119.507 116.322 L 119.696 116.167 L 119.922 116.045 L 120.040 116.004 L 120.281 115.956 L 121.219 115.954 L 121.264 115.984 L 121.107 117.019 L 121.082 117.526 L 120.850 119.090 L 120.646 119.904 L 115.181 154.125 L 114.934 155.111 L 114.589 156.075 L 114.153 156.995 L 113.630 157.869 L 113.023 158.687 L 112.338 159.442 L 111.587 160.123 L 110.769 160.730 L 109.895 161.253 L 108.975 161.689 L 108.016 162.033 L 107.027 162.280 L 106.020 162.430 L 105.002 162.480 L 103.985 162.431 L 102.977 162.281 L 101.989 162.034 L 101.030 161.691 L 100.109 161.256 L 99.235 160.732 L 98.417 160.126 L 97.662 159.442 L 96.977 158.687 L 96.370 157.869 L 95.847 156.995 L 95.411 156.075 L 95.067 155.116 L 94.819 154.125 L 89.354 119.904 L 89.150 119.090 L 88.918 117.526 L 88.893 117.019 L 88.732 116.012 Z" fill="none" stroke="#333333" stroke-width="0.35" stroke-linejoin="round" stroke-dasharray="2.4,1.4"/>
<path d="M 115.221 122.054 L 115.007 122.182 L 114.807 122.330 L 114.622 122.497 L 114.455 122.682 L 114.306 122.882 L 114.178 123.096 L 114.071 123.321 L 113.987 123.556 L 113.926 123.798 L 113.890 124.044 L 113.877 124.293 L 113.890 124.542 L 113.926 124.789 L 113.986 125.030 L 114.070 125.265 L 114.177 125.491 L 114.305 125.704 L 114.453 125.905 L 114.620 126.089 L 114.805 126.257 L 115.005 126.406 L 115.219 126.534 L 115.444 126.640 L 115.679 126.725 L 115.921 126.785 L 116.167 126.822 L 116.416 126.834 L 116.665 126.822 L 116.912 126.786 L 117.153 126.725 L 117.388 126.641 L 117.614 126.535 L 117.827 126.407 L 118.028 126.258 L 118.212 126.091 L 118.380 125.907 L 118.529 125.706 L 118.657 125.493 L 118.763 125.267 L 118.848 125.033 L 118.908 124.791 L 118.945 124.544 L 118.957 124.296 L 118.945 124.047 L 118.909 123.800 L 118.848 123.558 L 118.764 123.323 L 118.658 123.098 L 118.530 122.884 L 118.382 122.684 L 118.214 122.499 L 118.030 122.332 L 117.829 122.183 L 117.616 122.055 L 117.390 121.948 L 117.156 121.864 L 116.914 121.803 L 116.668 121.767 L 116.419 121.754 L 116.170 121.766 L 115.923 121.803 L 115.681 121.863 L 115.446 121.947 L 115.221 122.054 Z" fill="none" stroke="#333333" stroke-width="0.35" stroke-linejoin="round" stroke-dasharray="2.4,1.4"/>
<path d="M 111.766 140.662 L 111.638 140.876 L 111.531 141.101 L 111.447 141.336 L 111.386 141.578 L 111.350 141.824 L 111.337 142.073 L 111.350 142.322 L 111.386 142.569 L 111.446 142.810 L 111.530 143.045 L 111.637 143.271 L 111.765 143.484 L 111.913 143.685 L 112.080 143.869 L 112.265 144.037 L 112.465 144.186 L 112.679 144.314 L 112.904 144.420 L 113.139 144.505 L 113.381 144.565 L 113.627 144.602 L 113.876 144.614 L 114.125 144.602 L 114.372 144.566 L 114.613 144.505 L 114.848 144.421 L 115.074 144.315 L 115.287 144.187 L 115.488 144.038 L 115.672 143.871 L 115.840 143.687 L 115.989 143.486 L 116.117 143.273 L 116.223 143.047 L 116.308 142.813 L 116.368 142.571 L 116.405 142.324 L 116.417 142.076 L 116.405 141.827 L 116.369 141.580 L 116.308 141.338 L 116.224 141.103 L 116.118 140.878 L 115.990 140.664 L 115.842 140.464 L 115.674 140.279 L 115.490 140.112 L 115.289 139.963 L 115.076 139.835 L 114.850 139.728 L 114.616 139.644 L 114.374 139.583 L 114.128 139.547 L 113.879 139.534 L 113.630 139.546 L 113.383 139.583 L 113.141 139.643 L 112.906 139.727 L 112.681 139.834 L 112.467 139.962 L 112.267 140.110 L 112.082 140.277 L 111.915 140.462 L 111.766 140.662 Z" fill="none" stroke="#333333" stroke-width="0.35" stroke-linejoin="round" stroke-dasharray="2.4,1.4"/>
<path d="M 94.926 139.834 L 94.713 139.962 L 94.512 140.110 L 94.328 140.277 L 94.160 140.462 L 94.011 140.662 L 93.883 140.876 L 93.777 141.101 L 93.692 141.336 L 93.632 141.578 L 93.595 141.824 L 93.583 142.073 L 93.595 142.322 L 93.631 142.569 L 93.692 142.810 L 93.776 143.045 L 93.882 143.271 L 94.010 143.484 L 94.158 143.685 L 94.326 143.869 L 94.510 144.037 L 94.711 144.186 L 94.924 144.314 L 95.150 144.420 L 95.384 144.505 L 95.626 144.565 L 95.872 144.602 L 96.121 144.614 L 96.370 144.602 L 96.617 144.566 L 96.859 144.505 L 97.094 144.421 L 97.319 144.315 L 97.533 144.187 L 97.733 144.038 L 97.918 143.871 L 98.085 143.687 L 98.234 143.486 L 98.362 143.273 L 98.469 143.047 L 98.553 142.813 L 98.614 142.571 L 98.650 142.324 L 98.663 142.076 L 98.650 141.827 L 98.614 141.580 L 98.554 141.338 L 98.470 141.103 L 98.363 140.878 L 98.235 140.664 L 98.087 140.464 L 97.920 140.279 L 97.735 140.112 L 97.535 139.963 L 97.321 139.835 L 97.096 139.728 L 96.861 139.644 L 96.619 139.583 L 96.373 139.547 L 96.124 139.534 L 95.875 139.546 L 95.628 139.583 L 95.387 139.643 L 95.152 139.727 L 94.926 139.834 Z" fill="none" stroke="#333333" stroke-width="0.35" stroke-linejoin="round" stroke-dasharray="2.4,1.4"/>
<path d="M 94.321 121.864 L 94.079 121.803 L 93.833 121.767 L 93.584 121.754 L 93.335 121.766 L 93.088 121.803 L 92.847 121.863 L 92.612 121.947 L 92.386 122.054 L 92.173 122.182 L 91.972 122.330 L 91.788 122.497 L 91.620 122.682 L 91.471 122.882 L 91.343 123.096 L 91.237 123.321 L 91.152 123.556 L 91.092 123.798 L 91.055 124.044 L 91.043 124.293 L 91.055 124.542 L 91.091 124.789 L 91.152 125.030 L 91.236 125.265 L 91.342 125.491 L 91.470 125.704 L 91.618 125.905 L 91.786 126.089 L 91.970 126.257 L 92.171 126.406 L 92.384 126.534 L 92.610 126.640 L 92.844 126.725 L 93.086 126.785 L 93.332 126.822 L 93.581 126.834 L 93.830 126.822 L 94.077 126.786 L 94.319 126.725 L 94.554 126.641 L 94.779 126.535 L 94.993 126.407 L 95.193 126.258 L 95.378 126.091 L 95.545 125.907 L 95.694 125.706 L 95.822 125.493 L 95.929 125.267 L 96.013 125.033 L 96.074 124.791 L 96.110 124.544 L 96.123 124.296 L 96.110 124.047 L 96.074 123.800 L 96.014 123.558 L 95.930 123.323 L 95.823 123.098 L 95.695 122.884 L 95.547 122.684 L 95.380 122.499 L 95.195 122.332 L 94.995 122.183 L 94.781 122.055 L 94.556 121.948 L 94.321 121.864 Z" fill="none" stroke="#333333" stroke-width="0.35" stroke-linejoin="round" stroke-dasharray="2.4,1.4"/>
<line x1="87.062" y1="180.158" x2="89.862" y2="180.158" stroke="black" stroke-width="0.2"/>
<line x1="88.462" y1="178.758" x2="88.462" y2="181.558" stroke="black" stroke-width="0.2"/>
<line x1="120.100" y1="180.155" x2="122.900" y2="180.155" stroke="black" stroke-width="0.2"/>
<line x1="121.500" y1="178.755" x2="121.500" y2="181.555" stroke="black" stroke-width="0.2"/>
<line x1="94.708" y1="142.038" x2="97.508" y2="142.038" stroke="black" stroke-width="0.2"/>
<line x1="96.108" y1="140.638" x2="96.108" y2="143.438" stroke="black" stroke-width="0.2"/>
<line x1="112.447" y1="142.050" x2="115.247" y2="142.050" stroke="black" stroke-width="0.2"/>
<line x1="113.847" y1="140.650" x2="113.847" y2="143.450" stroke="black" stroke-width="0.2"/>
<line x1="92.198" y1="124.258" x2="94.998" y2="124.258" stroke="black" stroke-width="0.2"/>
<line x1="93.598" y1="122.858" x2="93.598" y2="125.658" stroke="black" stroke-width="0.2"/>
<line x1="115.002" y1="124.258" x2="117.802" y2="124.258" stroke="black" stroke-width="0.2"/>
<line x1="116.402" y1="122.858" x2="116.402" y2="125.658" stroke="black" stroke-width="0.2"/>
<line x1="67.602" y1="115.950" x2="57.602" y2="115.950" stroke="black" stroke-width="0.18"/>
<line x1="67.602" y1="211.050" x2="57.602" y2="211.050" stroke="black" stroke-width="0.18"/>
<line x1="58.602" y1="115.950" x2="58.602" y2="211.050" stroke="black" stroke-width="0.25"/>
<polygon points="58.602,115.950 59.352,118.350 57.852,118.350" fill="black"/>
<polygon points="58.602,211.050 57.852,208.650 59.352,208.650" fill="black"/>
<text x="57.202" y="164.500" font-family="Helvetica, Arial, sans-serif" font-size="3" font-weight="bold" text-anchor="end" fill="black" paint-order="stroke" stroke="white" stroke-width="0.9">95.1</text>
<line x1="67.602" y1="211.050" x2="67.602" y2="220.050" stroke="black" stroke-width="0.18"/>
<line x1="142.403" y1="211.050" x2="142.403" y2="220.050" stroke="black" stroke-width="0.18"/>
<line x1="67.602" y1="219.050" x2="142.403" y2="219.050" stroke="black" stroke-width="0.25"/>
<polygon points="67.602,219.050 70.002,218.300 70.002,219.800" fill="black"/>
<polygon points="142.403,219.050 140.003,219.800 140.003,218.300" fill="black"/>
<text x="105.002" y="222.950" font-family="Helvetica, Arial, sans-serif" font-size="3" font-weight="bold" text-anchor="middle" fill="black" paint-order="stroke" stroke="white" stroke-width="0.9">74.8</text>
<line x1="90.865" y1="115.950" x2="90.865" y2="108.950" stroke="black" stroke-width="0.18"/>
<line x1="119.135" y1="115.950" x2="119.135" y2="108.950" stroke="black" stroke-width="0.18"/>
<line x1="90.865" y1="109.950" x2="119.135" y2="109.950" stroke="black" stroke-width="0.25"/>
<polygon points="90.865,109.950 93.265,109.200 93.265,110.700" fill="black"/>
<polygon points="119.135,109.950 116.735,110.700 116.735,109.200" fill="black"/>
<text x="105.000" y="108.850" font-family="Helvetica, Arial, sans-serif" font-size="3" font-weight="bold" text-anchor="middle" fill="black" paint-order="stroke" stroke="white" stroke-width="0.9">notch 28.27</text>
<line x1="88.350" y1="115.950" x2="88.350" y2="102.450" stroke="black" stroke-width="0.18"/>
<line x1="121.650" y1="115.950" x2="121.650" y2="102.450" stroke="black" stroke-width="0.18"/>
<line x1="88.350" y1="103.450" x2="121.650" y2="103.450" stroke="black" stroke-width="0.25"/>
<polygon points="88.350,103.450 90.750,102.700 90.750,104.200" fill="black"/>
<polygon points="121.650,103.450 119.250,104.200 119.250,102.700" fill="black"/>
<text x="105.000" y="102.350" font-family="Helvetica, Arial, sans-serif" font-size="3" font-weight="bold" text-anchor="middle" fill="black" paint-order="stroke" stroke="white" stroke-width="0.9">pocket 33.3</text>
<line x1="142.403" y1="115.950" x2="151.403" y2="115.950" stroke="black" stroke-width="0.18"/>
<line x1="142.403" y1="162.150" x2="151.403" y2="162.150" stroke="black" stroke-width="0.18"/>
<line x1="150.403" y1="115.950" x2="150.403" y2="162.150" stroke="black" stroke-width="0.25"/>
<polygon points="150.403,115.950 151.153,118.350 149.653,118.350" fill="black"/>
<polygon points="150.403,162.150 149.653,159.750 151.153,159.750" fill="black"/>
<text x="151.803" y="140.050" font-family="Helvetica, Arial, sans-serif" font-size="3" font-weight="bold" text-anchor="start" fill="black" paint-order="stroke" stroke="white" stroke-width="0.9">pocket depth 46.2</text>
<line x1="88.462" y1="180.158" x2="88.462" y2="181.158" stroke="black" stroke-width="0.18"/>
<line x1="121.500" y1="180.158" x2="121.500" y2="181.158" stroke="black" stroke-width="0.18"/>
<line x1="88.462" y1="180.158" x2="121.500" y2="180.158" stroke="black" stroke-width="0.25"/>
<polygon points="88.462,180.158 90.862,179.408 90.862,180.908" fill="black"/>
<polygon points="121.500,180.158 119.100,180.908 119.100,179.408" fill="black"/>
<text x="104.981" y="179.058" font-family="Helvetica, Arial, sans-serif" font-size="3" font-weight="bold" text-anchor="middle" fill="black" paint-order="stroke" stroke="white" stroke-width="0.9">33</text>
<line x1="131.227" y1="188.317" x2="138.121" y2="194.102" stroke="black" stroke-width="0.25"/>
<polygon points="131.227,188.317 133.548,189.285 132.583,190.434" fill="black"/>
<line x1="138.121" y1="194.102" x2="144.121" y2="194.102" stroke="black" stroke-width="0.25"/>
<text x="144.921" y="193.202" font-family="Helvetica, Arial, sans-serif" font-size="3" font-weight="bold" text-anchor="start" fill="black" paint-order="stroke" stroke="white" stroke-width="0.9">Ø25.4 (2×)</text>
<line x1="93.598" y1="124.258" x2="93.598" y2="134.148" stroke="black" stroke-width="0.18"/>
<line x1="116.402" y1="124.258" x2="116.402" y2="134.148" stroke="black" stroke-width="0.18"/>
<line x1="93.598" y1="133.148" x2="116.402" y2="133.148" stroke="black" stroke-width="0.25"/>
<polygon points="93.598,133.148 95.998,132.398 95.998,133.898" fill="black"/>
<polygon points="116.402,133.148 114.002,133.898 114.002,132.398" fill="black"/>
<text x="105.000" y="132.048" font-family="Helvetica, Arial, sans-serif" font-size="2.6" font-weight="bold" text-anchor="middle" fill="black" paint-order="stroke" stroke="white" stroke-width="0.9">22.8</text>
<line x1="93.598" y1="124.258" x2="82.598" y2="124.258" stroke="black" stroke-width="0.18"/>
<line x1="93.598" y1="142.038" x2="82.598" y2="142.038" stroke="black" stroke-width="0.18"/>
<line x1="83.598" y1="124.258" x2="83.598" y2="142.038" stroke="black" stroke-width="0.25"/>
<polygon points="83.598,124.258 84.348,126.658 82.848,126.658" fill="black"/>
<polygon points="83.598,142.038 82.848,139.638 84.348,139.638" fill="black"/>
<text x="82.198" y="134.148" font-family="Helvetica, Arial, sans-serif" font-size="2.6" font-weight="bold" text-anchor="end" fill="black" paint-order="stroke" stroke="white" stroke-width="0.9">17.78</text>
<line x1="112.051" y1="143.845" x2="106.395" y2="149.502" stroke="black" stroke-width="0.25"/>
<polygon points="112.051,143.845 110.885,146.073 109.824,145.012" fill="black"/>
<line x1="106.395" y1="149.502" x2="100.395" y2="149.502" stroke="black" stroke-width="0.25"/>
<text x="99.595" y="148.602" font-family="Helvetica, Arial, sans-serif" font-size="2.6" font-weight="bold" text-anchor="end" fill="black" paint-order="stroke" stroke="white" stroke-width="0.9">Ø5.08 (4×)</text>
</svg>
