<svg xmlns="http://www.w3.org/2000/svg" width="210mm" height="279mm" viewBox="0 0 210 279">
<rect x="0" y="0" width="210" height="279" fill="white"/>
<text x="105.000" y="12.000" font-family="Helvetica, Arial, sans-serif" font-size="5" font-weight="bold" text-anchor="middle" fill="black">Plug Puller — Flat 2-prong lamp plug (NEMA 1-15) · Large</text>
<text x="105.000" y="17.500" font-family="Helvetica, Arial, sans-serif" font-size="2.8" font-weight="normal" text-anchor="middle" fill="black">1:1 outline sheet — print at 100% scale / “Actual size”, never “fit to page”. Check the calibration square before trusting anything.</text>
<rect x="14" y="22" width="50" height="50" fill="none" stroke="black" stroke-width="0.4"/>
<text x="39.000" y="45.500" font-family="Helvetica, Arial, sans-serif" font-size="3.4" font-weight="bold" text-anchor="middle" fill="black">CALIBRATION</text>
<text x="39.000" y="50.500" font-family="Helvetica, Arial, sans-serif" font-size="3.4" font-weight="normal" text-anchor="middle" fill="black">50 × 50 mm</text>
<text x="39.000" y="56.500" font-family="Helvetica, Arial, sans-serif" font-size="2.6" font-weight="normal" text-anchor="middle" fill="#444444">Measure me with a ruler.</text>
<text x="39.000" y="60.500" font-family="Helvetica, Arial, sans-serif" font-size="2.6" font-weight="normal" text-anchor="middle" fill="#444444">Not 50 mm? Re-print at 100%.</text>
<rect x="70" y="22" width="126" height="50" fill="none" stroke="black" stroke-width="0.3"/>
<text x="73.000" y="27.000" font-family="Helvetica, Arial, sans-serif" font-size="3.4" font-weight="bold" text-anchor="start" fill="black">Flat 2-prong lamp plug</text>
<text x="73.000" y="31.600" font-family="Helvetica, Arial, sans-serif" font-size="2.8" font-weight="normal" text-anchor="start" fill="black">Flat tool · Large hand size</text>
<text x="73.000" y="35.400" font-family="Helvetica, Arial, sans-serif" font-size="2.8" font-weight="normal" text-anchor="start" fill="black">Printed footprint ≈ 80.59 × 77.8 mm</text>
<text x="73.000" y="40.000" font-family="Helvetica, Arial, sans-serif" font-size="2.6" font-weight="normal" text-anchor="start" fill="#333333">Customizer settings for this exact tool:</text>
<text x="73.000" y="43.400" font-family="Helvetica, Arial, sans-serif" font-size="2.6" font-weight="normal" text-anchor="start" fill="#333333">  tool_style = Flat tool</text>
<text x="73.000" y="46.800" font-family="Helvetica, Arial, sans-serif" font-size="2.6" font-weight="normal" text-anchor="start" fill="#333333">  plug_preset =</text>
<text x="73.000" y="50.200" font-family="Helvetica, Arial, sans-serif" font-size="2.6" font-weight="normal" text-anchor="start" fill="#333333">      Flat 2-prong lamp plug - NEMA 1-15</text>
<text x="73.000" y="53.600" font-family="Helvetica, Arial, sans-serif" font-size="2.6" font-weight="normal" text-anchor="start" fill="#333333">  size = Large</text>
<text x="73.000" y="57.000" font-family="Helvetica, Arial, sans-serif" font-size="2.6" font-weight="normal" text-anchor="start" fill="#333333">  (everything else at its default)</text>
<text x="133.000" y="27.000" font-family="Helvetica, Arial, sans-serif" font-size="2.8" font-weight="bold" text-anchor="start" fill="black">Key dimensions</text>
<text x="133.000" y="31.000" font-family="Helvetica, Arial, sans-serif" font-size="2.6" font-weight="normal" text-anchor="start" fill="black">Body thickness: 7.15 mm (this sheet is 2D)</text>
<text x="133.000" y="34.500" font-family="Helvetica, Arial, sans-serif" font-size="2.6" font-weight="normal" text-anchor="start" fill="black">Finger holes: Ø28.4, 36 apart</text>
<text x="133.000" y="38.000" font-family="Helvetica, Arial, sans-serif" font-size="2.6" font-weight="normal" text-anchor="start" fill="black">Pocket: 31.7 wide × 37 deep</text>
<text x="133.000" y="41.500" font-family="Helvetica, Arial, sans-serif" font-size="2.6" font-weight="normal" text-anchor="start" fill="black">Wall notch: 26.67 wide × 3.81 deep</text>
<text x="133.000" y="45.000" font-family="Helvetica, Arial, sans-serif" font-size="2.6" font-weight="normal" text-anchor="start" fill="black">Zip holes: 4 × Ø5.08, rows 17.78 apart</text>
<text x="133.000" y="48.500" font-family="Helvetica, Arial, sans-serif" font-size="2.6" font-weight="normal" text-anchor="start" fill="black">J-hook cord gap: 4.36 mm</text>
<line x1="14.000" y1="248.000" x2="196.000" y2="248.000" stroke="#888888" stroke-width="0.2"/>
<text x="14.000" y="252.500" font-family="Helvetica, Arial, sans-serif" font-size="3.2" font-weight="bold" text-anchor="start" fill="black">How to use this sheet</text>
<text x="14.000" y="256.500" font-family="Helvetica, Arial, sans-serif" font-size="2.7" font-weight="normal" text-anchor="start" fill="black">1. Print at 100% and measure the calibration square — it must be exactly 50 × 50 mm.</text>
<text x="14.000" y="260.100" font-family="Helvetica, Arial, sans-serif" font-size="2.7" font-weight="normal" text-anchor="start" fill="black">2. Cut along the SOLID outline. Dashed lines are holes and the plug pocket — poke through the two big finger circles.</text>
<text x="14.000" y="263.700" font-family="Helvetica, Arial, sans-serif" font-size="2.7" font-weight="normal" text-anchor="start" fill="black">3. Hold the cutout on your plug at the wall: the plug fits the dashed pocket, the top notch straddles the wall plate.</text>
<text x="14.000" y="267.300" font-family="Helvetica, Arial, sans-serif" font-size="2.7" font-weight="normal" text-anchor="start" fill="black">4. Try the finger holes (large size). Wrong size? Try a neighbouring sheet, or print stl/Finger_Sizing_Stencil.stl.</text>
<text x="14.000" y="270.900" font-family="Helvetica, Arial, sans-serif" font-size="2.7" font-weight="normal" text-anchor="start" fill="black">5. Happy? Open the Customizer with the title-block settings and export your STL (docs/guides/quick-start-beginner.md).</text>
<text x="105.000" y="275.500" font-family="Helvetica, Arial, sans-serif" font-size="2.4" font-weight="normal" text-anchor="middle" fill="#444444">openscad-plug-puller v0.8 · outline_flat-2-prong_large.svg · scale 1:1 · guide: docs/guides/print-preview-outlines.md</text>
<path d="M 64.691 180.107 L 64.791 178.220 L 65.076 176.353 L 65.542 174.522 L 69.650 161.170 L 69.973 160.275 L 69.925 160.275 L 84.825 124.600 L 90.395 124.600 L 90.643 124.624 L 90.881 124.697 L 91.101 124.814 L 91.293 124.972 L 91.451 125.164 L 91.515 125.271 L 91.610 125.501 L 91.641 125.622 L 91.677 126.119 L 91.714 126.366 L 91.774 126.607 L 91.858 126.842 L 91.965 127.067 L 92.093 127.281 L 92.242 127.481 L 92.409 127.666 L 92.594 127.833 L 92.794 127.982 L 93.008 128.110 L 93.233 128.217 L 93.468 128.301 L 93.709 128.361 L 93.956 128.398 L 94.205 128.410 L 115.795 128.410 L 116.044 128.398 L 116.291 128.361 L 116.532 128.301 L 116.767 128.217 L 116.992 128.110 L 117.206 127.982 L 117.406 127.833 L 117.591 127.666 L 117.758 127.481 L 117.907 127.281 L 118.035 127.067 L 118.142 126.842 L 118.226 126.607 L 118.286 126.366 L 118.323 126.119 L 118.359 125.622 L 118.390 125.501 L 118.485 125.271 L 118.549 125.164 L 118.707 124.972 L 118.899 124.814 L 119.119 124.697 L 119.357 124.624 L 119.605 124.600 L 125.175 124.600 L 140.075 160.275 L 140.027 160.275 L 140.350 161.170 L 144.458 174.522 L 144.735 175.517 L 145.102 177.370 L 145.286 179.250 L 145.285 181.139 L 145.099 183.019 L 144.729 184.871 L 144.179 186.679 L 143.455 188.424 L 142.564 190.089 L 141.513 191.659 L 140.314 193.119 L 138.977 194.454 L 137.516 195.651 L 135.945 196.700 L 134.278 197.589 L 132.533 198.311 L 130.724 198.858 L 128.871 199.226 L 111.281 201.823 L 111.281 197.999 L 111.029 197.747 L 111.023 194.239 L 110.974 193.995 L 110.879 193.765 L 110.741 193.558 L 110.565 193.382 L 110.358 193.243 L 110.245 193.190 L 110.007 193.118 L 109.759 193.093 L 102.120 193.093 L 101.872 193.118 L 101.751 193.148 L 101.521 193.243 L 101.314 193.382 L 101.222 193.465 L 101.064 193.658 L 100.947 193.877 L 100.905 193.995 L 100.856 194.239 L 100.856 196.601 L 100.905 196.845 L 101.000 197.075 L 101.064 197.182 L 101.222 197.375 L 101.414 197.533 L 101.634 197.650 L 101.872 197.722 L 101.996 197.741 L 105.697 197.747 L 106.919 198.968 L 106.919 202.400 L 102.990 202.400 L 101.901 202.293 L 81.129 199.226 L 80.112 199.047 L 78.281 198.581 L 76.505 197.938 L 74.800 197.123 L 73.184 196.146 L 71.671 195.015 L 70.276 193.740 L 69.013 192.336 L 67.893 190.814 L 66.929 189.190 L 66.128 187.479 L 65.498 185.698 L 65.046 183.863 L 64.777 181.994 L 64.691 180.107 Z" fill="none" stroke="black" stroke-width="0.5" stroke-linejoin="round"/>
<path d="M 114.681 130.305 L 114.284 130.430 L 114.059 130.537 L 113.845 130.665 L 113.645 130.813 L 113.460 130.981 L 113.293 131.165 L 113.144 131.366 L 113.016 131.579 L 112.910 131.805 L 112.826 132.039 L 112.765 132.281 L 112.728 132.528 L 112.716 132.777 L 112.728 133.026 L 112.765 133.272 L 112.826 133.514 L 112.910 133.749 L 113.016 133.974 L 113.144 134.188 L 113.293 134.388 L 113.460 134.573 L 113.645 134.740 L 113.845 134.889 L 114.059 135.017 L 114.284 135.123 L 114.519 135.207 L 114.761 135.268 L 115.007 135.304 L 115.256 135.317 L 115.505 135.304 L 115.752 135.268 L 115.994 135.207 L 116.228 135.123 L 116.454 135.017 L 116.667 134.889 L 116.868 134.740 L 117.052 134.573 L 117.220 134.388 L 117.368 134.188 L 117.496 133.974 L 117.603 133.749 L 117.687 133.514 L 117.747 133.272 L 117.784 133.026 L 117.796 132.777 L 117.784 132.528 L 117.747 132.281 L 117.687 132.039 L 117.603 131.805 L 117.496 131.579 L 117.368 131.366 L 117.220 131.165 L 117.052 130.981 L 116.868 130.813 L 116.667 130.665 L 116.454 130.537 L 116.228 130.430 L 115.994 130.346 L 115.752 130.286 L 115.505 130.249 L 115.256 130.237 L 115.007 130.249 L 114.681 130.305 Z" fill="none" stroke="black" stroke-width="0.35" stroke-linejoin="round" stroke-dasharray="1.6,1.1"/>
<path d="M 111.692 148.029 L 111.445 148.066 L 111.203 148.126 L 110.968 148.210 L 110.743 148.317 L 110.529 148.445 L 110.329 148.593 L 110.144 148.761 L 109.977 148.945 L 109.829 149.146 L 109.700 149.359 L 109.594 149.585 L 109.510 149.819 L 109.449 150.061 L 109.413 150.308 L 109.400 150.557 L 109.413 150.806 L 109.449 151.052 L 109.510 151.294 L 109.594 151.529 L 109.700 151.754 L 109.829 151.968 L 109.977 152.168 L 110.144 152.353 L 110.329 152.520 L 110.529 152.669 L 110.743 152.797 L 110.968 152.903 L 111.203 152.987 L 111.445 153.048 L 111.692 153.084 L 111.940 153.097 L 112.189 153.084 L 112.436 153.048 L 112.678 152.987 L 112.912 152.903 L 113.138 152.797 L 113.352 152.669 L 113.552 152.520 L 113.737 152.353 L 113.904 152.168 L 114.052 151.968 L 114.181 151.754 L 114.287 151.529 L 114.371 151.294 L 114.432 151.052 L 114.468 150.806 L 114.480 150.557 L 114.468 150.308 L 114.432 150.061 L 114.371 149.819 L 114.287 149.585 L 114.181 149.359 L 114.052 149.146 L 113.904 148.945 L 113.737 148.761 L 113.552 148.593 L 113.352 148.445 L 113.138 148.317 L 112.912 148.210 L 112.678 148.126 L 112.436 148.066 L 112.189 148.029 L 111.940 148.017 L 111.692 148.029 Z" fill="none" stroke="black" stroke-width="0.35" stroke-linejoin="round" stroke-dasharray="1.6,1.1"/>
<path d="M 100.406 149.585 L 100.300 149.359 L 100.171 149.146 L 100.023 148.945 L 99.856 148.761 L 99.671 148.593 L 99.471 148.445 L 99.257 148.317 L 99.032 148.210 L 98.797 148.126 L 98.555 148.066 L 98.308 148.029 L 98.060 148.017 L 97.811 148.029 L 97.564 148.066 L 97.322 148.126 L 97.088 148.210 L 96.862 148.317 L 96.648 148.445 L 96.448 148.593 L 96.263 148.761 L 96.096 148.945 L 95.948 149.146 L 95.819 149.359 L 95.713 149.585 L 95.629 149.819 L 95.568 150.061 L 95.532 150.308 L 95.520 150.557 L 95.532 150.806 L 95.568 151.052 L 95.629 151.294 L 95.713 151.529 L 95.819 151.754 L 95.948 151.968 L 96.096 152.168 L 96.263 152.353 L 96.448 152.520 L 96.648 152.669 L 96.862 152.797 L 97.088 152.903 L 97.322 152.987 L 97.564 153.048 L 97.811 153.084 L 98.060 153.097 L 98.308 153.084 L 98.555 153.048 L 98.797 152.987 L 99.032 152.903 L 99.257 152.797 L 99.471 152.669 L 99.671 152.520 L 99.856 152.353 L 100.023 152.168 L 100.171 151.968 L 100.300 151.754 L 100.406 151.529 L 100.490 151.294 L 100.551 151.052 L 100.587 150.806 L 100.600 150.557 L 100.587 150.308 L 100.551 150.061 L 100.490 149.819 L 100.406 149.585 Z" fill="none" stroke="black" stroke-width="0.35" stroke-linejoin="round" stroke-dasharray="1.6,1.1"/>
<path d="M 115.301 157.692 L 115.272 157.837 L 115.256 158.057 L 115.256 161.573 L 115.285 161.866 L 115.370 162.147 L 115.433 162.281 L 115.509 162.407 L 115.696 162.634 L 115.923 162.821 L 116.182 162.959 L 116.321 163.009 L 116.464 163.045 L 116.756 163.073 L 117.049 163.045 L 117.427 162.927 L 119.254 162.469 L 121.118 162.192 L 123.000 162.100 L 124.882 162.192 L 126.746 162.469 L 128.573 162.927 L 130.348 163.562 L 132.051 164.367 L 133.667 165.336 L 134.609 166.025 L 134.875 166.151 L 135.015 166.194 L 135.306 166.237 L 135.600 166.222 L 135.885 166.151 L 136.151 166.025 L 136.274 165.944 L 136.491 165.746 L 136.667 165.510 L 136.792 165.244 L 136.835 165.103 L 136.878 164.812 L 136.878 164.665 L 136.835 164.374 L 136.282 162.569 L 135.692 160.938 L 124.459 134.042 L 124.395 133.910 L 124.231 133.666 L 124.023 133.458 L 123.778 133.296 L 123.506 133.184 L 123.363 133.148 L 123.070 133.121 L 122.923 133.128 L 122.635 133.186 L 122.364 133.300 L 122.238 133.376 L 122.011 133.563 L 121.912 133.672 L 121.825 133.791 L 121.687 134.051 L 121.638 134.189 L 121.515 134.675 L 121.298 135.279 L 121.024 135.860 L 120.694 136.410 L 120.022 137.288 L 119.896 137.554 L 119.841 137.750 L 117.847 147.247 L 117.844 147.541 L 117.863 147.687 L 117.946 147.969 L 118.199 148.658 L 118.355 149.281 L 118.449 149.916 L 118.480 150.557 L 118.449 151.198 L 118.355 151.833 L 118.199 152.455 L 117.983 153.059 L 117.708 153.640 L 117.378 154.190 L 116.996 154.706 L 116.565 155.181 L 116.264 155.464 L 116.089 155.700 L 115.963 155.966 L 115.581 157.033 L 115.400 157.416 L 115.301 157.692 Z" fill="none" stroke="black" stroke-width="0.35" stroke-linejoin="round" stroke-dasharray="1.6,1.1"/>
<path d="M 86.999 133.122 L 86.705 133.137 L 86.561 133.165 L 86.284 133.265 L 86.154 133.334 L 85.918 133.509 L 85.814 133.613 L 85.721 133.727 L 85.569 133.979 L 74.308 160.938 L 73.718 162.569 L 73.186 164.298 L 73.150 164.440 L 73.120 164.733 L 73.148 165.026 L 73.183 165.169 L 73.294 165.441 L 73.370 165.567 L 73.457 165.686 L 73.664 165.894 L 73.908 166.059 L 74.041 166.122 L 74.322 166.209 L 74.614 166.239 L 74.907 166.211 L 75.189 166.127 L 75.448 165.989 L 76.333 165.336 L 77.949 164.367 L 79.652 163.562 L 81.427 162.927 L 83.254 162.469 L 85.118 162.192 L 87.000 162.100 L 88.882 162.192 L 90.746 162.469 L 92.573 162.927 L 92.879 163.029 L 93.170 163.072 L 93.317 163.072 L 93.608 163.029 L 93.749 162.986 L 93.885 162.929 L 94.137 162.778 L 94.355 162.581 L 94.449 162.467 L 94.530 162.345 L 94.656 162.079 L 94.728 161.794 L 94.744 161.573 L 94.744 158.057 L 94.737 157.910 L 94.679 157.621 L 94.630 157.483 L 94.419 157.033 L 94.037 155.966 L 93.911 155.700 L 93.736 155.464 L 93.435 155.181 L 93.004 154.706 L 92.622 154.190 L 92.292 153.640 L 92.017 153.059 L 91.801 152.455 L 91.645 151.833 L 91.551 151.198 L 91.520 150.557 L 91.551 149.916 L 91.645 149.281 L 91.801 148.658 L 92.117 147.775 L 92.160 147.485 L 92.146 147.191 L 90.122 137.608 L 90.071 137.470 L 89.929 137.212 L 89.688 136.926 L 89.306 136.410 L 88.976 135.860 L 88.702 135.279 L 88.485 134.675 L 88.338 134.115 L 88.281 133.979 L 88.130 133.727 L 87.933 133.509 L 87.697 133.334 L 87.567 133.265 L 87.290 133.165 L 86.999 133.122 Z" fill="none" stroke="black" stroke-width="0.35" stroke-linejoin="round" stroke-dasharray="1.6,1.1"/>
<path d="M 82.878 167.711 L 81.566 168.181 L 80.306 168.777 L 79.111 169.493 L 77.992 170.323 L 76.959 171.259 L 76.023 172.292 L 75.193 173.411 L 74.477 174.606 L 73.881 175.866 L 73.411 177.178 L 73.073 178.530 L 72.868 179.908 L 72.800 181.300 L 72.868 182.692 L 73.073 184.070 L 73.411 185.422 L 73.881 186.734 L 74.477 187.994 L 75.193 189.189 L 76.023 190.308 L 76.959 191.341 L 77.992 192.277 L 79.111 193.107 L 80.306 193.823 L 81.566 194.419 L 82.878 194.889 L 84.230 195.227 L 85.608 195.432 L 87.000 195.500 L 88.392 195.432 L 89.770 195.227 L 91.122 194.889 L 92.434 194.419 L 93.694 193.823 L 94.889 193.107 L 96.008 192.277 L 97.041 191.341 L 97.977 190.308 L 98.807 189.189 L 99.523 187.994 L 100.119 186.734 L 100.589 185.422 L 100.927 184.070 L 101.132 182.692 L 101.200 181.300 L 101.132 179.908 L 100.927 178.530 L 100.589 177.178 L 100.119 175.866 L 99.523 174.606 L 98.807 173.411 L 97.977 172.292 L 97.041 171.259 L 96.008 170.323 L 94.889 169.493 L 93.694 168.777 L 92.434 168.181 L 91.122 167.711 L 89.770 167.373 L 88.392 167.168 L 87.000 167.100 L 85.608 167.168 L 84.230 167.373 L 82.878 167.711 Z" fill="none" stroke="black" stroke-width="0.35" stroke-linejoin="round" stroke-dasharray="1.6,1.1"/>
<path d="M 70.341 173.176 L 70.341 173.176 L 70.341 173.176 L 70.341 173.176 Z" fill="none" stroke="black" stroke-width="0.35" stroke-linejoin="round" stroke-dasharray="1.6,1.1"/>
<path d="M 70.278 192.493 L 70.278 192.493 L 70.278 192.493 L 70.278 192.493 Z" fill="none" stroke="black" stroke-width="0.35" stroke-linejoin="round" stroke-dasharray="1.6,1.1"/>
<path d="M 70.705 161.513 L 70.705 161.513 L 70.705 161.513 L 70.705 161.513 Z" fill="none" stroke="black" stroke-width="0.35" stroke-linejoin="round" stroke-dasharray="1.6,1.1"/>
<path d="M 78.657 192.786 L 77.984 192.286 L 77.984 192.286 L 78.657 192.786 Z" fill="none" stroke="black" stroke-width="0.35" stroke-linejoin="round" stroke-dasharray="1.6,1.1"/>
<path d="M 95.481 130.346 L 95.239 130.286 L 94.993 130.249 L 94.744 130.237 L 94.495 130.249 L 94.248 130.286 L 94.006 130.346 L 93.772 130.430 L 93.546 130.537 L 93.333 130.665 L 93.132 130.813 L 92.948 130.981 L 92.780 131.165 L 92.632 131.366 L 92.504 131.579 L 92.397 131.805 L 92.313 132.039 L 92.253 132.281 L 92.216 132.528 L 92.204 132.777 L 92.216 133.026 L 92.253 133.272 L 92.313 133.514 L 92.397 133.749 L 92.504 133.974 L 92.632 134.188 L 92.780 134.388 L 92.948 134.573 L 93.132 134.740 L 93.333 134.889 L 93.546 135.017 L 93.772 135.123 L 94.006 135.207 L 94.248 135.268 L 94.495 135.304 L 94.744 135.317 L 94.993 135.304 L 95.239 135.268 L 95.481 135.207 L 95.716 135.123 L 95.941 135.017 L 96.155 134.889 L 96.355 134.740 L 96.540 134.573 L 96.707 134.388 L 96.856 134.188 L 96.984 133.974 L 97.090 133.749 L 97.174 133.514 L 97.235 133.272 L 97.272 133.026 L 97.284 132.777 L 97.272 132.528 L 97.235 132.281 L 97.174 132.039 L 97.090 131.805 L 96.984 131.579 L 96.856 131.366 L 96.707 131.165 L 96.540 130.981 L 96.355 130.813 L 96.155 130.665 L 95.941 130.537 L 95.716 130.430 L 95.481 130.346 Z" fill="none" stroke="black" stroke-width="0.35" stroke-linejoin="round" stroke-dasharray="1.6,1.1"/>
<path d="M 89.431 125.372 L 89.431 125.372 L 89.431 125.372 L 89.431 125.372 Z" fill="none" stroke="black" stroke-width="0.35" stroke-linejoin="round" stroke-dasharray="1.6,1.1"/>
<path d="M 94.449 149.838 L 94.449 149.838 L 94.449 149.838 L 94.449 149.838 Z" fill="none" stroke="black" stroke-width="0.35" stroke-linejoin="round" stroke-dasharray="1.6,1.1"/>
<path d="M 89.672 125.244 L 89.672 125.244 L 89.672 125.244 L 89.672 125.244 Z" fill="none" stroke="black" stroke-width="0.35" stroke-linejoin="round" stroke-dasharray="1.6,1.1"/>
<path d="M 94.768 129.724 L 94.768 129.724 L 94.768 129.724 L 94.768 129.724 Z" fill="none" stroke="black" stroke-width="0.35" stroke-linejoin="round" stroke-dasharray="1.6,1.1"/>
<path d="M 93.990 130.234 L 93.990 130.234 L 93.990 130.234 L 93.990 130.234 Z" fill="none" stroke="black" stroke-width="0.35" stroke-linejoin="round" stroke-dasharray="1.6,1.1"/>
<path d="M 98.395 164.975 L 98.395 164.975 L 98.395 164.975 L 98.395 164.975 Z" fill="none" stroke="black" stroke-width="0.35" stroke-linejoin="round" stroke-dasharray="1.6,1.1"/>
<path d="M 97.811 162.676 L 97.811 162.676 L 97.811 162.676 L 97.811 162.676 Z" fill="none" stroke="black" stroke-width="0.35" stroke-linejoin="round" stroke-dasharray="1.6,1.1"/>
<path d="M 101.096 165.928 L 101.096 165.928 L 101.096 165.928 L 101.096 165.928 Z" fill="none" stroke="black" stroke-width="0.35" stroke-linejoin="round" stroke-dasharray="1.6,1.1"/>
<path d="M 103.701 166.848 L 103.701 166.848 L 103.701 166.848 L 103.701 166.848 Z" fill="none" stroke="black" stroke-width="0.35" stroke-linejoin="round" stroke-dasharray="1.6,1.1"/>
<path d="M 102.065 185.870 L 102.065 185.870 L 101.545 187.325 L 102.065 185.870 Z" fill="none" stroke="black" stroke-width="0.35" stroke-linejoin="round" stroke-dasharray="1.6,1.1"/>
<path d="M 95.959 137.838 L 95.959 137.838 L 95.959 137.838 L 95.959 137.838 Z" fill="none" stroke="black" stroke-width="0.35" stroke-linejoin="round" stroke-dasharray="1.6,1.1"/>
<path d="M 123.000 167.100 L 121.608 167.168 L 120.230 167.373 L 118.878 167.711 L 117.566 168.181 L 116.306 168.777 L 115.111 169.493 L 113.992 170.323 L 112.959 171.259 L 112.023 172.292 L 111.193 173.411 L 110.477 174.606 L 109.881 175.866 L 109.411 177.178 L 109.073 178.530 L 108.868 179.908 L 108.800 181.300 L 108.868 182.692 L 109.073 184.070 L 109.411 185.422 L 109.881 186.734 L 110.477 187.994 L 111.193 189.189 L 112.023 190.308 L 112.959 191.341 L 113.992 192.277 L 115.111 193.107 L 116.306 193.823 L 117.566 194.419 L 118.878 194.889 L 120.230 195.227 L 121.608 195.432 L 123.000 195.500 L 124.392 195.432 L 125.770 195.227 L 127.122 194.889 L 128.434 194.419 L 129.694 193.823 L 130.889 193.107 L 132.008 192.277 L 133.041 191.341 L 133.977 190.308 L 134.807 189.189 L 135.523 187.994 L 136.119 186.734 L 136.589 185.422 L 136.927 184.070 L 137.132 182.692 L 137.200 181.300 L 137.132 179.908 L 136.927 178.530 L 136.589 177.178 L 136.119 175.866 L 135.523 174.606 L 134.807 173.411 L 133.977 172.292 L 133.041 171.259 L 132.008 170.323 L 130.889 169.493 L 129.694 168.777 L 128.434 168.181 L 127.122 167.711 L 125.770 167.373 L 124.392 167.168 L 123.000 167.100 Z" fill="none" stroke="black" stroke-width="0.35" stroke-linejoin="round" stroke-dasharray="1.6,1.1"/>
<path d="M 116.608 165.853 L 116.608 165.853 L 116.608 165.854 L 116.608 165.853 Z" fill="none" stroke="black" stroke-width="0.35" stroke-linejoin="round" stroke-dasharray="1.6,1.1"/>
<path d="M 111.936 194.104 L 111.936 194.104 L 111.936 194.104 L 111.936 194.104 Z" fill="none" stroke="black" stroke-width="0.35" stroke-linejoin="round" stroke-dasharray="1.6,1.1"/>
<path d="M 136.052 168.969 L 136.052 168.969 L 136.052 168.969 L 136.052 168.969 Z" fill="none" stroke="black" stroke-width="0.35" stroke-linejoin="round" stroke-dasharray="1.6,1.1"/>
<path d="M 135.985 168.724 L 135.985 168.724 L 135.985 168.724 L 135.985 168.724 Z" fill="none" stroke="black" stroke-width="0.35" stroke-linejoin="round" stroke-dasharray="1.6,1.1"/>
<path d="M 137.340 175.360 L 136.689 173.983 L 136.978 174.594 L 137.340 175.360 Z" fill="none" stroke="black" stroke-width="0.35" stroke-linejoin="round" stroke-dasharray="1.6,1.1"/>
<path d="M 144.439 174.502 L 144.439 174.502 L 144.439 174.502 L 144.439 174.502 Z" fill="none" stroke="black" stroke-width="0.35" stroke-linejoin="round" stroke-dasharray="1.6,1.1"/>
<path d="M 144.438 174.503 L 144.438 174.503 L 144.438 174.503 L 144.438 174.503 Z" fill="none" stroke="black" stroke-width="0.35" stroke-linejoin="round" stroke-dasharray="1.6,1.1"/>
<path d="M 143.327 186.592 L 143.327 186.592 L 143.327 186.592 L 143.327 186.592 Z" fill="none" stroke="black" stroke-width="0.35" stroke-linejoin="round" stroke-dasharray="1.6,1.1"/>
<path d="M 89.618 124.660 L 89.628 124.619 L 89.667 124.600 L 90.393 124.600 L 90.643 124.625 L 90.885 124.699 L 91.100 124.814 L 91.289 124.969 L 91.453 125.168 L 91.515 125.271 L 91.610 125.501 L 91.640 125.622 L 91.677 126.118 L 91.714 126.364 L 91.774 126.606 L 91.858 126.841 L 91.966 127.068 L 92.094 127.282 L 92.241 127.480 L 92.408 127.665 L 92.593 127.833 L 92.793 127.981 L 93.007 128.109 L 93.232 128.216 L 93.467 128.300 L 93.708 128.361 L 93.955 128.398 L 94.206 128.410 L 115.794 128.410 L 116.045 128.398 L 116.292 128.361 L 116.533 128.300 L 116.768 128.216 L 116.993 128.109 L 117.207 127.981 L 117.405 127.834 L 117.590 127.667 L 117.758 127.482 L 117.906 127.282 L 118.034 127.068 L 118.142 126.841 L 118.226 126.606 L 118.286 126.364 L 118.323 126.118 L 118.360 125.622 L 118.390 125.501 L 118.485 125.271 L 118.547 125.168 L 118.711 124.969 L 118.900 124.814 L 119.115 124.699 L 119.357 124.625 L 119.607 124.600 L 120.333 124.600 L 120.377 124.627 L 120.349 124.816 L 120.286 126.098 L 120.064 127.589 L 119.698 129.051 L 119.192 130.466 L 119.131 130.595 L 114.100 154.469 L 113.880 155.346 L 113.573 156.204 L 113.183 157.027 L 112.715 157.808 L 112.172 158.539 L 111.564 159.210 L 110.889 159.822 L 110.158 160.365 L 109.377 160.833 L 108.554 161.223 L 107.696 161.530 L 106.813 161.751 L 105.912 161.885 L 105.002 161.930 L 104.093 161.886 L 103.192 161.752 L 102.308 161.531 L 101.451 161.225 L 100.627 160.836 L 99.846 160.368 L 99.115 159.825 L 98.440 159.214 L 97.828 158.539 L 97.285 157.808 L 96.817 157.027 L 96.425 156.199 L 96.120 155.346 L 95.900 154.469 L 90.869 130.595 L 90.808 130.466 L 90.302 129.051 L 89.936 127.589 L 89.714 126.098 L 89.651 124.816 L 89.618 124.660 Z" fill="none" stroke="#333333" stroke-width="0.35" stroke-linejoin="round" stroke-dasharray="2.4,1.4"/>
<path d="M 114.286 130.430 L 114.060 130.536 L 113.846 130.664 L 113.646 130.813 L 113.461 130.980 L 113.294 131.164 L 113.145 131.365 L 113.017 131.578 L 112.910 131.804 L 112.826 132.038 L 112.765 132.280 L 112.729 132.527 L 112.716 132.775 L 112.728 133.024 L 112.765 133.271 L 112.825 133.513 L 112.909 133.748 L 113.016 133.973 L 113.144 134.187 L 113.292 134.387 L 113.459 134.572 L 113.644 134.739 L 113.844 134.888 L 114.058 135.016 L 114.283 135.123 L 114.518 135.207 L 114.759 135.268 L 115.006 135.304 L 115.255 135.317 L 115.504 135.305 L 115.751 135.268 L 115.992 135.208 L 116.227 135.124 L 116.452 135.017 L 116.666 134.889 L 116.867 134.741 L 117.051 134.574 L 117.219 134.389 L 117.367 134.189 L 117.496 133.975 L 117.602 133.750 L 117.686 133.515 L 117.747 133.273 L 117.784 133.027 L 117.796 132.778 L 117.784 132.529 L 117.748 132.282 L 117.687 132.041 L 117.603 131.806 L 117.497 131.580 L 117.369 131.367 L 117.220 131.166 L 117.053 130.982 L 116.868 130.814 L 116.668 130.665 L 116.455 130.537 L 116.229 130.431 L 115.995 130.346 L 115.753 130.286 L 115.506 130.249 L 115.257 130.237 L 115.006 130.249 L 114.682 130.305 L 114.286 130.430 Z" fill="none" stroke="#333333" stroke-width="0.35" stroke-linejoin="round" stroke-dasharray="2.4,1.4"/>
<path d="M 111.446 148.065 L 111.204 148.126 L 110.970 148.210 L 110.744 148.316 L 110.530 148.444 L 110.330 148.593 L 110.145 148.760 L 109.978 148.944 L 109.829 149.145 L 109.701 149.358 L 109.594 149.584 L 109.510 149.818 L 109.450 150.060 L 109.413 150.307 L 109.401 150.555 L 109.413 150.804 L 109.449 151.051 L 109.510 151.293 L 109.593 151.528 L 109.700 151.753 L 109.828 151.967 L 109.976 152.167 L 110.144 152.352 L 110.328 152.519 L 110.528 152.668 L 110.742 152.796 L 110.967 152.903 L 111.202 152.987 L 111.444 153.048 L 111.690 153.084 L 111.939 153.097 L 112.188 153.085 L 112.435 153.048 L 112.677 152.988 L 112.911 152.904 L 113.137 152.797 L 113.351 152.669 L 113.551 152.521 L 113.736 152.354 L 113.903 152.169 L 114.052 151.969 L 114.180 151.755 L 114.287 151.530 L 114.371 151.295 L 114.431 151.053 L 114.468 150.807 L 114.480 150.558 L 114.468 150.309 L 114.432 150.062 L 114.371 149.821 L 114.288 149.586 L 114.181 149.360 L 114.053 149.147 L 113.905 148.946 L 113.737 148.762 L 113.553 148.594 L 113.353 148.445 L 113.139 148.317 L 112.914 148.211 L 112.679 148.126 L 112.437 148.066 L 112.191 148.029 L 111.942 148.017 L 111.693 148.029 L 111.446 148.065 Z" fill="none" stroke="#333333" stroke-width="0.35" stroke-linejoin="round" stroke-dasharray="2.4,1.4"/>
<path d="M 100.300 149.360 L 100.172 149.147 L 100.024 148.946 L 99.856 148.762 L 99.672 148.594 L 99.472 148.445 L 99.258 148.317 L 99.033 148.211 L 98.798 148.126 L 98.556 148.066 L 98.310 148.029 L 98.061 148.017 L 97.812 148.029 L 97.565 148.065 L 97.323 148.126 L 97.089 148.210 L 96.863 148.316 L 96.649 148.444 L 96.449 148.593 L 96.264 148.760 L 96.097 148.944 L 95.948 149.145 L 95.820 149.358 L 95.713 149.584 L 95.629 149.818 L 95.569 150.060 L 95.532 150.307 L 95.520 150.555 L 95.532 150.804 L 95.568 151.051 L 95.629 151.293 L 95.712 151.528 L 95.819 151.753 L 95.947 151.967 L 96.095 152.167 L 96.263 152.352 L 96.447 152.519 L 96.647 152.668 L 96.861 152.796 L 97.086 152.903 L 97.321 152.987 L 97.563 153.048 L 97.809 153.084 L 98.058 153.097 L 98.307 153.085 L 98.554 153.048 L 98.796 152.988 L 99.030 152.904 L 99.256 152.797 L 99.470 152.669 L 99.670 152.521 L 99.855 152.354 L 100.022 152.169 L 100.171 151.969 L 100.299 151.755 L 100.406 151.530 L 100.490 151.295 L 100.550 151.053 L 100.587 150.807 L 100.599 150.558 L 100.587 150.309 L 100.551 150.062 L 100.490 149.821 L 100.407 149.586 L 100.300 149.360 Z" fill="none" stroke="#333333" stroke-width="0.35" stroke-linejoin="round" stroke-dasharray="2.4,1.4"/>
<path d="M 95.241 130.286 L 94.994 130.249 L 94.745 130.237 L 94.496 130.249 L 94.249 130.285 L 94.008 130.346 L 93.773 130.430 L 93.548 130.536 L 93.334 130.664 L 93.133 130.813 L 92.949 130.980 L 92.781 131.164 L 92.633 131.365 L 92.504 131.578 L 92.398 131.804 L 92.314 132.038 L 92.253 132.280 L 92.216 132.527 L 92.204 132.775 L 92.216 133.024 L 92.252 133.271 L 92.313 133.513 L 92.397 133.748 L 92.503 133.973 L 92.631 134.187 L 92.780 134.387 L 92.947 134.572 L 93.132 134.739 L 93.332 134.888 L 93.545 135.016 L 93.771 135.123 L 94.005 135.207 L 94.247 135.268 L 94.494 135.304 L 94.743 135.317 L 94.992 135.305 L 95.238 135.268 L 95.480 135.208 L 95.715 135.124 L 95.940 135.017 L 96.154 134.889 L 96.354 134.741 L 96.539 134.574 L 96.706 134.389 L 96.855 134.189 L 96.983 133.975 L 97.090 133.750 L 97.174 133.515 L 97.235 133.273 L 97.271 133.027 L 97.284 132.778 L 97.272 132.529 L 97.235 132.282 L 97.175 132.041 L 97.091 131.806 L 96.984 131.580 L 96.856 131.367 L 96.708 131.166 L 96.541 130.982 L 96.356 130.814 L 96.156 130.665 L 95.942 130.537 L 95.717 130.431 L 95.482 130.346 L 95.241 130.286 Z" fill="none" stroke="#333333" stroke-width="0.35" stroke-linejoin="round" stroke-dasharray="2.4,1.4"/>
<line x1="85.537" y1="181.091" x2="88.337" y2="181.091" stroke="black" stroke-width="0.2"/>
<line x1="86.937" y1="179.691" x2="86.937" y2="182.491" stroke="black" stroke-width="0.2"/>
<line x1="121.600" y1="181.082" x2="124.400" y2="181.082" stroke="black" stroke-width="0.2"/>
<line x1="123.000" y1="179.682" x2="123.000" y2="182.482" stroke="black" stroke-width="0.2"/>
<line x1="96.696" y1="150.542" x2="99.496" y2="150.542" stroke="black" stroke-width="0.2"/>
<line x1="98.096" y1="149.142" x2="98.096" y2="151.942" stroke="black" stroke-width="0.2"/>
<line x1="110.537" y1="150.518" x2="113.337" y2="150.518" stroke="black" stroke-width="0.2"/>
<line x1="111.937" y1="149.118" x2="111.937" y2="151.918" stroke="black" stroke-width="0.2"/>
<line x1="113.857" y1="132.776" x2="116.657" y2="132.776" stroke="black" stroke-width="0.2"/>
<line x1="115.257" y1="131.376" x2="115.257" y2="134.176" stroke="black" stroke-width="0.2"/>
<line x1="93.355" y1="132.739" x2="96.155" y2="132.739" stroke="black" stroke-width="0.2"/>
<line x1="94.755" y1="131.339" x2="94.755" y2="134.139" stroke="black" stroke-width="0.2"/>
<line x1="64.691" y1="124.600" x2="54.691" y2="124.600" stroke="black" stroke-width="0.18"/>
<line x1="64.691" y1="202.400" x2="54.691" y2="202.400" stroke="black" stroke-width="0.18"/>
<line x1="55.691" y1="124.600" x2="55.691" y2="202.400" stroke="black" stroke-width="0.25"/>
<polygon points="55.691,124.600 56.441,127.000 54.941,127.000" fill="black"/>
<polygon points="55.691,202.400 54.941,200.000 56.441,200.000" fill="black"/>
<text x="54.291" y="164.500" font-family="Helvetica, Arial, sans-serif" font-size="3" font-weight="bold" text-anchor="end" fill="black" paint-order="stroke" stroke="white" stroke-width="0.9">77.8</text>
<line x1="64.691" y1="202.400" x2="64.691" y2="211.400" stroke="black" stroke-width="0.18"/>
<line x1="145.286" y1="202.400" x2="145.286" y2="211.400" stroke="black" stroke-width="0.18"/>
<line x1="64.691" y1="210.400" x2="145.286" y2="210.400" stroke="black" stroke-width="0.25"/>
<polygon points="64.691,210.400 67.091,209.650 67.091,211.150" fill="black"/>
<polygon points="145.286,210.400 142.886,211.150 142.886,209.650" fill="black"/>
<text x="104.989" y="214.300" font-family="Helvetica, Arial, sans-serif" font-size="3" font-weight="bold" text-anchor="middle" fill="black" paint-order="stroke" stroke="white" stroke-width="0.9">80.59</text>
<line x1="91.665" y1="124.600" x2="91.665" y2="117.600" stroke="black" stroke-width="0.18"/>
<line x1="118.335" y1="124.600" x2="118.335" y2="117.600" stroke="black" stroke-width="0.18"/>
<line x1="91.665" y1="118.600" x2="118.335" y2="118.600" stroke="black" stroke-width="0.25"/>
<polygon points="91.665,118.600 94.065,117.850 94.065,119.350" fill="black"/>
<polygon points="118.335,118.600 115.935,119.350 115.935,117.850" fill="black"/>
<text x="105.000" y="117.500" font-family="Helvetica, Arial, sans-serif" font-size="3" font-weight="bold" text-anchor="middle" fill="black" paint-order="stroke" stroke="white" stroke-width="0.9">notch 26.67</text>
<line x1="89.150" y1="124.600" x2="89.150" y2="111.100" stroke="black" stroke-width="0.18"/>
<line x1="120.850" y1="124.600" x2="120.850" y2="111.100" stroke="black" stroke-width="0.18"/>
<line x1="89.150" y1="112.100" x2="120.850" y2="112.100" stroke="black" stroke-width="0.25"/>
<polygon points="89.150,112.100 91.550,111.350 91.550,112.850" fill="black"/>
<polygon points="120.850,112.100 118.450,112.850 118.450,111.350" fill="black"/>
<text x="105.000" y="111.000" font-family="Helvetica, Arial, sans-serif" font-size="3" font-weight="bold" text-anchor="middle" fill="black" paint-order="stroke" stroke="white" stroke-width="0.9">pocket 31.7</text>
<line x1="145.286" y1="124.600" x2="154.286" y2="124.600" stroke="black" stroke-width="0.18"/>
<line x1="145.286" y1="161.600" x2="154.286" y2="161.600" stroke="black" stroke-width="0.18"/>
<line x1="153.286" y1="124.600" x2="153.286" y2="161.600" stroke="black" stroke-width="0.25"/>
<polygon points="153.286,124.600 154.036,127.000 152.536,127.000" fill="black"/>
<polygon points="153.286,161.600 152.536,159.200 154.036,159.200" fill="black"/>
<text x="154.686" y="144.100" font-family="Helvetica, Arial, sans-serif" font-size="3" font-weight="bold" text-anchor="start" fill="black" paint-order="stroke" stroke="white" stroke-width="0.9">pocket depth 37</text>
<line x1="86.937" y1="181.091" x2="86.937" y2="182.091" stroke="black" stroke-width="0.18"/>
<line x1="123.000" y1="181.091" x2="123.000" y2="182.091" stroke="black" stroke-width="0.18"/>
<line x1="86.937" y1="181.091" x2="123.000" y2="181.091" stroke="black" stroke-width="0.25"/>
<polygon points="86.937,181.091 89.337,180.341 89.337,181.841" fill="black"/>
<polygon points="123.000,181.091 120.600,181.841 120.600,180.341" fill="black"/>
<text x="104.968" y="179.991" font-family="Helvetica, Arial, sans-serif" font-size="3" font-weight="bold" text-anchor="middle" fill="black" paint-order="stroke" stroke="white" stroke-width="0.9">36</text>
<line x1="133.876" y1="190.207" x2="140.770" y2="195.993" stroke="black" stroke-width="0.25"/>
<polygon points="133.876,190.207 136.196,191.176 135.232,192.325" fill="black"/>
<line x1="140.770" y1="195.993" x2="146.770" y2="195.993" stroke="black" stroke-width="0.25"/>
<text x="147.570" y="195.093" font-family="Helvetica, Arial, sans-serif" font-size="3" font-weight="bold" text-anchor="start" fill="black" paint-order="stroke" stroke="white" stroke-width="0.9">Ø28.4 (2×)</text>
<line x1="94.755" y1="132.776" x2="94.755" y2="142.659" stroke="black" stroke-width="0.18"/>
<line x1="115.257" y1="132.776" x2="115.257" y2="142.659" stroke="black" stroke-width="0.18"/>
<line x1="94.755" y1="141.659" x2="115.257" y2="141.659" stroke="black" stroke-width="0.25"/>
<polygon points="94.755,141.659 97.155,140.909 97.155,142.409" fill="black"/>
<polygon points="115.257,141.659 112.857,142.409 112.857,140.909" fill="black"/>
<text x="105.006" y="140.559" font-family="Helvetica, Arial, sans-serif" font-size="2.6" font-weight="bold" text-anchor="middle" fill="black" paint-order="stroke" stroke="white" stroke-width="0.9">-20.5</text>
<line x1="115.257" y1="132.776" x2="104.257" y2="132.776" stroke="black" stroke-width="0.18"/>
<line x1="115.257" y1="150.542" x2="104.257" y2="150.542" stroke="black" stroke-width="0.18"/>
<line x1="105.257" y1="132.776" x2="105.257" y2="150.542" stroke="black" stroke-width="0.25"/>
<polygon points="105.257,132.776 106.007,135.176 104.507,135.176" fill="black"/>
<polygon points="105.257,150.542 104.507,148.142 106.007,148.142" fill="black"/>
<text x="103.857" y="142.659" font-family="Helvetica, Arial, sans-serif" font-size="2.6" font-weight="bold" text-anchor="end" fill="black" paint-order="stroke" stroke="white" stroke-width="0.9">17.77</text>
<line x1="96.300" y1="152.337" x2="90.643" y2="157.994" stroke="black" stroke-width="0.25"/>
<polygon points="96.300,152.337 95.133,154.565 94.073,153.504" fill="black"/>
<line x1="90.643" y1="157.994" x2="84.643" y2="157.994" stroke="black" stroke-width="0.25"/>
<text x="83.843" y="157.094" font-family="Helvetica, Arial, sans-serif" font-size="2.6" font-weight="bold" text-anchor="end" fill="black" paint-order="stroke" stroke="white" stroke-width="0.9">Ø5.08 (4×)</text>
</svg>
