<svg xmlns="http://www.w3.org/2000/svg" width="210mm" height="279mm" viewBox="0 0 210 279">
<rect x="0" y="0" width="210" height="279" fill="white"/>
<text x="105.000" y="12.000" font-family="Helvetica, Arial, sans-serif" font-size="5" font-weight="bold" text-anchor="middle" fill="black">Plug Puller — Flat 2-prong lamp plug (NEMA 1-15) · Medium</text>
<text x="105.000" y="17.500" font-family="Helvetica, Arial, sans-serif" font-size="2.8" font-weight="normal" text-anchor="middle" fill="black">1:1 outline sheet — print at 100% scale / “Actual size”, never “fit to page”. Check the calibration square before trusting anything.</text>
<rect x="14" y="22" width="50" height="50" fill="none" stroke="black" stroke-width="0.4"/>
<text x="39.000" y="45.500" font-family="Helvetica, Arial, sans-serif" font-size="3.4" font-weight="bold" text-anchor="middle" fill="black">CALIBRATION</text>
<text x="39.000" y="50.500" font-family="Helvetica, Arial, sans-serif" font-size="3.4" font-weight="normal" text-anchor="middle" fill="black">50 × 50 mm</text>
<text x="39.000" y="56.500" font-family="Helvetica, Arial, sans-serif" font-size="2.6" font-weight="normal" text-anchor="middle" fill="#444444">Measure me with a ruler.</text>
<text x="39.000" y="60.500" font-family="Helvetica, Arial, sans-serif" font-size="2.6" font-weight="normal" text-anchor="middle" fill="#444444">Not 50 mm? Re-print at 100%.</text>
<rect x="70" y="22" width="126" height="50" fill="none" stroke="black" stroke-width="0.3"/>
<text x="73.000" y="27.000" font-family="Helvetica, Arial, sans-serif" font-size="3.4" font-weight="bold" text-anchor="start" fill="black">Flat 2-prong lamp plug</text>
<text x="73.000" y="31.600" font-family="Helvetica, Arial, sans-serif" font-size="2.8" font-weight="normal" text-anchor="start" fill="black">Flat tool · Medium hand size</text>
<text x="73.000" y="35.400" font-family="Helvetica, Arial, sans-serif" font-size="2.8" font-weight="normal" text-anchor="start" fill="black">Printed footprint ≈ 72.51 × 75.7 mm</text>
<text x="73.000" y="40.000" font-family="Helvetica, Arial, sans-serif" font-size="2.6" font-weight="normal" text-anchor="start" fill="#333333">Customizer settings for this exact tool:</text>
<text x="73.000" y="43.400" font-family="Helvetica, Arial, sans-serif" font-size="2.6" font-weight="normal" text-anchor="start" fill="#333333">  tool_style = Flat tool</text>
<text x="73.000" y="46.800" font-family="Helvetica, Arial, sans-serif" font-size="2.6" font-weight="normal" text-anchor="start" fill="#333333">  plug_preset =</text>
<text x="73.000" y="50.200" font-family="Helvetica, Arial, sans-serif" font-size="2.6" font-weight="normal" text-anchor="start" fill="#333333">      Flat 2-prong lamp plug - NEMA 1-15</text>
<text x="73.000" y="53.600" font-family="Helvetica, Arial, sans-serif" font-size="2.6" font-weight="normal" text-anchor="start" fill="#333333">  size = Medium</text>
<text x="73.000" y="57.000" font-family="Helvetica, Arial, sans-serif" font-size="2.6" font-weight="normal" text-anchor="start" fill="#333333">  (everything else at its default)</text>
<text x="133.000" y="27.000" font-family="Helvetica, Arial, sans-serif" font-size="2.8" font-weight="bold" text-anchor="start" fill="black">Key dimensions</text>
<text x="133.000" y="31.000" font-family="Helvetica, Arial, sans-serif" font-size="2.6" font-weight="normal" text-anchor="start" fill="black">Body thickness: 6.35 mm (this sheet is 2D)</text>
<text x="133.000" y="34.500" font-family="Helvetica, Arial, sans-serif" font-size="2.6" font-weight="normal" text-anchor="start" fill="black">Finger holes: Ø25.4, 33 apart</text>
<text x="133.000" y="38.000" font-family="Helvetica, Arial, sans-serif" font-size="2.6" font-weight="normal" text-anchor="start" fill="black">Pocket: 31.7 wide × 37 deep</text>
<text x="133.000" y="41.500" font-family="Helvetica, Arial, sans-serif" font-size="2.6" font-weight="normal" text-anchor="start" fill="black">Wall notch: 26.67 wide × 3.81 deep</text>
<text x="133.000" y="45.000" font-family="Helvetica, Arial, sans-serif" font-size="2.6" font-weight="normal" text-anchor="start" fill="black">Zip holes: 4 × Ø5.08, rows 17.78 apart</text>
<text x="133.000" y="48.500" font-family="Helvetica, Arial, sans-serif" font-size="2.6" font-weight="normal" text-anchor="start" fill="black">J-hook cord gap: 4.36 mm</text>
<line x1="14.000" y1="248.000" x2="196.000" y2="248.000" stroke="#888888" stroke-width="0.2"/>
<text x="14.000" y="252.500" font-family="Helvetica, Arial, sans-serif" font-size="3.2" font-weight="bold" text-anchor="start" fill="black">How to use this sheet</text>
<text x="14.000" y="256.500" font-family="Helvetica, Arial, sans-serif" font-size="2.7" font-weight="normal" text-anchor="start" fill="black">1. Print at 100% and measure the calibration square — it must be exactly 50 × 50 mm.</text>
<text x="14.000" y="260.100" font-family="Helvetica, Arial, sans-serif" font-size="2.7" font-weight="normal" text-anchor="start" fill="black">2. Cut along the SOLID outline. Dashed lines are holes and the plug pocket — poke through the two big finger circles.</text>
<text x="14.000" y="263.700" font-family="Helvetica, Arial, sans-serif" font-size="2.7" font-weight="normal" text-anchor="start" fill="black">3. Hold the cutout on your plug at the wall: the plug fits the dashed pocket, the top notch straddles the wall plate.</text>
<text x="14.000" y="267.300" font-family="Helvetica, Arial, sans-serif" font-size="2.7" font-weight="normal" text-anchor="start" fill="black">4. Try the finger holes (medium size). Wrong size? Try a neighbouring sheet, or print stl/Measuring_Stencil.stl.</text>
<text x="14.000" y="270.900" font-family="Helvetica, Arial, sans-serif" font-size="2.7" font-weight="normal" text-anchor="start" fill="black">5. Happy? Open the Customizer with the title-block settings and export your STL (docs/guides/quick-start-beginner.md).</text>
<text x="105.000" y="275.500" font-family="Helvetica, Arial, sans-serif" font-size="2.4" font-weight="normal" text-anchor="middle" fill="#444444">openscad-plug-puller v0.9 · outline_flat-2-prong_medium.svg · scale 1:1 · guide: docs/guides/print-preview-outlines.md</text>
<path d="M 73.986 160.350 L 73.950 160.350 L 87.125 125.650 L 90.395 125.650 L 90.519 125.656 L 90.764 125.705 L 90.994 125.800 L 91.175 125.919 L 91.293 126.022 L 91.451 126.214 L 91.568 126.434 L 91.641 126.672 L 91.677 127.169 L 91.714 127.416 L 91.774 127.657 L 91.858 127.892 L 91.965 128.117 L 92.093 128.331 L 92.242 128.531 L 92.409 128.716 L 92.594 128.883 L 92.794 129.032 L 93.008 129.160 L 93.233 129.267 L 93.468 129.351 L 93.709 129.411 L 93.956 129.448 L 94.205 129.460 L 115.795 129.460 L 116.044 129.448 L 116.291 129.411 L 116.532 129.351 L 116.767 129.267 L 116.992 129.160 L 117.206 129.032 L 117.406 128.883 L 117.591 128.716 L 117.758 128.531 L 117.907 128.331 L 118.035 128.117 L 118.142 127.892 L 118.226 127.657 L 118.286 127.416 L 118.323 127.169 L 118.359 126.672 L 118.432 126.434 L 118.549 126.214 L 118.707 126.022 L 118.899 125.864 L 119.006 125.800 L 119.236 125.705 L 119.481 125.656 L 119.605 125.650 L 122.875 125.650 L 136.050 160.350 L 136.014 160.350 L 136.256 161.086 L 140.690 176.911 L 141.039 178.547 L 141.227 180.209 L 141.251 181.882 L 141.111 183.550 L 140.808 185.195 L 140.345 186.803 L 139.727 188.358 L 138.959 189.845 L 138.050 191.249 L 137.007 192.558 L 135.841 193.758 L 134.562 194.837 L 133.185 195.787 L 131.720 196.596 L 130.184 197.259 L 128.590 197.767 L 126.954 198.117 L 111.281 200.671 L 111.281 196.949 L 111.029 196.697 L 111.023 193.189 L 110.974 192.945 L 110.879 192.715 L 110.741 192.508 L 110.565 192.332 L 110.358 192.193 L 110.245 192.140 L 110.007 192.068 L 109.759 192.043 L 102.120 192.043 L 101.872 192.068 L 101.751 192.098 L 101.521 192.193 L 101.314 192.332 L 101.222 192.415 L 101.064 192.608 L 100.947 192.827 L 100.905 192.945 L 100.856 193.189 L 100.856 195.551 L 100.905 195.795 L 101.000 196.025 L 101.064 196.132 L 101.222 196.325 L 101.414 196.483 L 101.634 196.600 L 101.872 196.672 L 101.996 196.691 L 105.697 196.697 L 106.919 197.918 L 106.919 201.350 L 103.218 201.350 L 102.138 201.228 L 82.819 198.078 L 81.187 197.706 L 79.600 197.176 L 78.073 196.493 L 76.620 195.664 L 75.255 194.696 L 73.992 193.599 L 72.842 192.383 L 71.817 191.061 L 70.926 189.644 L 70.179 188.147 L 69.582 186.584 L 69.141 184.970 L 68.860 183.321 L 68.742 181.652 L 68.789 179.979 L 68.999 178.319 L 69.371 176.688 L 73.744 161.086 L 73.986 160.350 Z" fill="none" stroke="black" stroke-width="0.5" stroke-linejoin="round"/>
<path d="M 114.681 131.355 L 114.284 131.480 L 114.059 131.587 L 113.845 131.715 L 113.645 131.863 L 113.460 132.031 L 113.293 132.215 L 113.144 132.416 L 113.016 132.629 L 112.910 132.855 L 112.826 133.089 L 112.765 133.331 L 112.728 133.578 L 112.716 133.827 L 112.728 134.076 L 112.765 134.322 L 112.826 134.564 L 112.910 134.799 L 113.016 135.024 L 113.144 135.238 L 113.293 135.438 L 113.460 135.623 L 113.645 135.790 L 113.845 135.939 L 114.059 136.067 L 114.284 136.173 L 114.519 136.257 L 114.761 136.318 L 115.007 136.354 L 115.256 136.367 L 115.505 136.354 L 115.752 136.318 L 115.994 136.257 L 116.228 136.173 L 116.454 136.067 L 116.667 135.939 L 116.868 135.790 L 117.052 135.623 L 117.220 135.438 L 117.368 135.238 L 117.496 135.024 L 117.603 134.799 L 117.687 134.564 L 117.747 134.322 L 117.784 134.076 L 117.796 133.827 L 117.784 133.578 L 117.747 133.331 L 117.687 133.089 L 117.603 132.855 L 117.496 132.629 L 117.368 132.416 L 117.220 132.215 L 117.052 132.031 L 116.868 131.863 L 116.667 131.715 L 116.454 131.587 L 116.228 131.480 L 115.994 131.396 L 115.752 131.336 L 115.505 131.299 L 115.256 131.287 L 115.007 131.299 L 114.681 131.355 Z" fill="none" stroke="black" stroke-width="0.35" stroke-linejoin="round" stroke-dasharray="1.6,1.1"/>
<path d="M 106.902 132.548 L 106.902 132.548 L 106.902 132.548 L 106.902 132.548 Z" fill="none" stroke="black" stroke-width="0.35" stroke-linejoin="round" stroke-dasharray="1.6,1.1"/>
<path d="M 111.692 149.079 L 111.445 149.116 L 111.203 149.176 L 110.968 149.260 L 110.743 149.367 L 110.529 149.495 L 110.329 149.643 L 110.144 149.811 L 109.977 149.995 L 109.829 150.196 L 109.700 150.409 L 109.594 150.635 L 109.510 150.869 L 109.449 151.111 L 109.413 151.358 L 109.400 151.607 L 109.413 151.856 L 109.449 152.102 L 109.510 152.344 L 109.594 152.579 L 109.700 152.804 L 109.829 153.018 L 109.977 153.218 L 110.144 153.403 L 110.329 153.570 L 110.529 153.719 L 110.743 153.847 L 110.968 153.953 L 111.203 154.037 L 111.445 154.098 L 111.692 154.134 L 111.940 154.147 L 112.189 154.134 L 112.436 154.098 L 112.678 154.037 L 112.912 153.953 L 113.138 153.847 L 113.352 153.719 L 113.552 153.570 L 113.737 153.403 L 113.904 153.218 L 114.052 153.018 L 114.181 152.804 L 114.287 152.579 L 114.371 152.344 L 114.432 152.102 L 114.468 151.856 L 114.480 151.607 L 114.468 151.358 L 114.432 151.111 L 114.371 150.869 L 114.287 150.635 L 114.181 150.409 L 114.052 150.196 L 113.904 149.995 L 113.737 149.811 L 113.552 149.643 L 113.352 149.495 L 113.138 149.367 L 112.912 149.260 L 112.678 149.176 L 112.436 149.116 L 112.189 149.079 L 111.940 149.067 L 111.692 149.079 Z" fill="none" stroke="black" stroke-width="0.35" stroke-linejoin="round" stroke-dasharray="1.6,1.1"/>
<path d="M 100.406 150.635 L 100.300 150.409 L 100.171 150.196 L 100.023 149.995 L 99.856 149.811 L 99.671 149.643 L 99.471 149.495 L 99.257 149.367 L 99.032 149.260 L 98.797 149.176 L 98.555 149.116 L 98.308 149.079 L 98.060 149.067 L 97.811 149.079 L 97.564 149.116 L 97.322 149.176 L 97.088 149.260 L 96.862 149.367 L 96.648 149.495 L 96.448 149.643 L 96.263 149.811 L 96.096 149.995 L 95.948 150.196 L 95.819 150.409 L 95.713 150.635 L 95.629 150.869 L 95.568 151.111 L 95.532 151.358 L 95.520 151.607 L 95.532 151.856 L 95.568 152.102 L 95.629 152.344 L 95.713 152.579 L 95.819 152.804 L 95.948 153.018 L 96.096 153.218 L 96.263 153.403 L 96.448 153.570 L 96.648 153.719 L 96.862 153.847 L 97.088 153.953 L 97.322 154.037 L 97.564 154.098 L 97.811 154.134 L 98.060 154.147 L 98.308 154.134 L 98.555 154.098 L 98.797 154.037 L 99.032 153.953 L 99.257 153.847 L 99.471 153.719 L 99.671 153.570 L 99.856 153.403 L 100.023 153.218 L 100.171 153.018 L 100.300 152.804 L 100.406 152.579 L 100.490 152.344 L 100.551 152.102 L 100.587 151.856 L 100.600 151.607 L 100.587 151.358 L 100.551 151.111 L 100.490 150.869 L 100.406 150.635 Z" fill="none" stroke="black" stroke-width="0.35" stroke-linejoin="round" stroke-dasharray="1.6,1.1"/>
<path d="M 115.344 158.602 L 115.272 158.887 L 115.256 159.107 L 115.256 162.267 L 115.285 162.560 L 115.370 162.841 L 115.509 163.100 L 115.597 163.219 L 115.805 163.427 L 115.923 163.514 L 116.182 163.653 L 116.464 163.738 L 116.756 163.767 L 116.903 163.760 L 117.121 163.722 L 118.047 163.490 L 119.765 163.235 L 121.500 163.150 L 123.235 163.235 L 124.953 163.490 L 126.638 163.912 L 128.273 164.497 L 129.844 165.240 L 130.480 165.613 L 130.757 165.712 L 131.048 165.755 L 131.342 165.741 L 131.486 165.712 L 131.763 165.613 L 131.893 165.544 L 132.129 165.368 L 132.233 165.264 L 132.408 165.028 L 132.534 164.762 L 132.605 164.477 L 132.620 164.331 L 132.620 164.183 L 132.577 163.893 L 132.151 162.372 L 131.712 161.040 L 123.034 138.182 L 122.903 137.919 L 122.723 137.686 L 122.617 137.584 L 122.378 137.413 L 122.109 137.293 L 121.823 137.227 L 121.529 137.218 L 121.239 137.267 L 121.099 137.312 L 120.836 137.443 L 120.715 137.527 L 120.501 137.729 L 120.104 138.216 L 119.953 138.468 L 119.896 138.604 L 119.841 138.800 L 117.847 148.297 L 117.844 148.591 L 117.863 148.737 L 117.946 149.019 L 118.199 149.708 L 118.355 150.331 L 118.449 150.966 L 118.480 151.607 L 118.449 152.248 L 118.355 152.883 L 118.199 153.505 L 117.983 154.109 L 117.708 154.690 L 117.378 155.240 L 116.996 155.756 L 116.565 156.231 L 116.264 156.514 L 116.089 156.750 L 115.963 157.016 L 115.581 158.083 L 115.344 158.602 Z" fill="none" stroke="black" stroke-width="0.35" stroke-linejoin="round" stroke-dasharray="1.6,1.1"/>
<path d="M 86.966 138.182 L 78.288 161.040 L 77.869 162.307 L 77.401 163.996 L 77.379 164.289 L 77.414 164.581 L 77.505 164.860 L 77.571 164.992 L 77.739 165.233 L 77.841 165.340 L 78.072 165.522 L 78.334 165.655 L 78.474 165.701 L 78.617 165.734 L 78.910 165.757 L 79.057 165.746 L 79.344 165.683 L 79.614 165.565 L 80.156 165.240 L 81.727 164.497 L 83.362 163.912 L 85.047 163.490 L 86.765 163.235 L 88.500 163.150 L 90.235 163.235 L 91.953 163.490 L 92.879 163.722 L 93.024 163.751 L 93.317 163.765 L 93.464 163.751 L 93.749 163.679 L 93.885 163.623 L 94.137 163.472 L 94.355 163.274 L 94.449 163.161 L 94.600 162.908 L 94.656 162.772 L 94.728 162.487 L 94.744 162.267 L 94.744 159.107 L 94.737 158.960 L 94.679 158.671 L 94.630 158.533 L 94.419 158.083 L 94.037 157.016 L 93.911 156.750 L 93.736 156.514 L 93.435 156.231 L 93.004 155.756 L 92.622 155.240 L 92.292 154.690 L 92.017 154.109 L 91.801 153.505 L 91.645 152.883 L 91.551 152.248 L 91.520 151.607 L 91.551 150.966 L 91.645 150.331 L 91.801 149.708 L 92.117 148.825 L 92.160 148.535 L 92.146 148.241 L 90.122 138.658 L 90.071 138.520 L 89.929 138.262 L 89.480 137.707 L 89.376 137.603 L 89.140 137.428 L 89.010 137.358 L 88.874 137.302 L 88.589 137.231 L 88.442 137.216 L 88.149 137.231 L 87.863 137.302 L 87.598 137.428 L 87.361 137.603 L 87.257 137.707 L 87.082 137.943 L 86.966 138.182 Z" fill="none" stroke="black" stroke-width="0.35" stroke-linejoin="round" stroke-dasharray="1.6,1.1"/>
<path d="M 85.047 163.490 L 85.047 163.490 L 85.047 163.490 L 85.047 163.490 Z" fill="none" stroke="black" stroke-width="0.35" stroke-linejoin="round" stroke-dasharray="1.6,1.1"/>
<path d="M 86.022 168.394 L 84.813 168.697 L 83.640 169.117 L 82.513 169.650 L 81.444 170.290 L 80.443 171.033 L 79.520 171.870 L 78.683 172.793 L 77.940 173.794 L 77.300 174.863 L 76.767 175.990 L 76.347 177.163 L 76.044 178.372 L 75.861 179.605 L 75.800 180.850 L 75.861 182.095 L 76.044 183.328 L 76.347 184.537 L 76.767 185.710 L 77.300 186.837 L 77.940 187.906 L 78.683 188.907 L 79.520 189.830 L 80.443 190.667 L 81.444 191.410 L 82.513 192.050 L 83.640 192.583 L 84.813 193.003 L 86.022 193.306 L 87.255 193.489 L 88.500 193.550 L 89.745 193.489 L 90.978 193.306 L 92.187 193.003 L 93.360 192.583 L 94.487 192.050 L 95.556 191.410 L 96.557 190.667 L 97.480 189.830 L 98.317 188.907 L 99.060 187.906 L 99.700 186.837 L 100.233 185.710 L 100.653 184.537 L 100.956 183.328 L 101.139 182.095 L 101.200 180.850 L 101.139 179.605 L 100.956 178.372 L 100.653 177.163 L 100.233 175.990 L 99.700 174.863 L 99.060 173.794 L 98.317 172.793 L 97.480 171.870 L 96.557 171.033 L 95.556 170.290 L 94.487 169.650 L 93.360 169.117 L 92.187 168.697 L 90.978 168.394 L 89.745 168.211 L 88.500 168.150 L 87.255 168.211 L 86.022 168.394 Z" fill="none" stroke="black" stroke-width="0.35" stroke-linejoin="round" stroke-dasharray="1.6,1.1"/>
<path d="M 74.318 166.442 L 74.318 166.442 L 74.318 166.442 L 74.318 166.442 Z" fill="none" stroke="black" stroke-width="0.35" stroke-linejoin="round" stroke-dasharray="1.6,1.1"/>
<path d="M 74.954 178.156 L 74.954 178.156 L 74.755 179.496 L 74.954 178.156 Z" fill="none" stroke="black" stroke-width="0.35" stroke-linejoin="round" stroke-dasharray="1.6,1.1"/>
<path d="M 95.481 131.396 L 95.239 131.336 L 94.993 131.299 L 94.744 131.287 L 94.495 131.299 L 94.248 131.336 L 94.006 131.396 L 93.772 131.480 L 93.546 131.587 L 93.333 131.715 L 93.132 131.863 L 92.948 132.031 L 92.780 132.215 L 92.632 132.416 L 92.504 132.629 L 92.397 132.855 L 92.313 133.089 L 92.253 133.331 L 92.216 133.578 L 92.204 133.827 L 92.216 134.076 L 92.253 134.322 L 92.313 134.564 L 92.397 134.799 L 92.504 135.024 L 92.632 135.238 L 92.780 135.438 L 92.948 135.623 L 93.132 135.790 L 93.333 135.939 L 93.546 136.067 L 93.772 136.173 L 94.006 136.257 L 94.248 136.318 L 94.495 136.354 L 94.744 136.367 L 94.993 136.354 L 95.239 136.318 L 95.481 136.257 L 95.716 136.173 L 95.941 136.067 L 96.155 135.939 L 96.355 135.790 L 96.540 135.623 L 96.707 135.438 L 96.856 135.238 L 96.984 135.024 L 97.090 134.799 L 97.174 134.564 L 97.235 134.322 L 97.272 134.076 L 97.284 133.827 L 97.272 133.578 L 97.235 133.331 L 97.174 133.089 L 97.090 132.855 L 96.984 132.629 L 96.856 132.416 L 96.707 132.215 L 96.540 132.031 L 96.355 131.863 L 96.155 131.715 L 95.941 131.587 L 95.716 131.480 L 95.481 131.396 Z" fill="none" stroke="black" stroke-width="0.35" stroke-linejoin="round" stroke-dasharray="1.6,1.1"/>
<path d="M 89.082 126.706 L 89.082 126.706 L 89.082 126.706 L 89.082 126.706 Z" fill="none" stroke="black" stroke-width="0.35" stroke-linejoin="round" stroke-dasharray="1.6,1.1"/>
<path d="M 89.386 128.892 L 89.386 128.892 L 89.386 128.892 L 89.386 128.892 Z" fill="none" stroke="black" stroke-width="0.35" stroke-linejoin="round" stroke-dasharray="1.6,1.1"/>
<path d="M 90.533 127.489 L 90.533 127.489 L 90.533 127.489 L 90.533 127.489 Z" fill="none" stroke="black" stroke-width="0.35" stroke-linejoin="round" stroke-dasharray="1.6,1.1"/>
<path d="M 93.261 151.134 L 93.261 151.134 L 93.261 151.134 L 93.261 151.134 Z" fill="none" stroke="black" stroke-width="0.35" stroke-linejoin="round" stroke-dasharray="1.6,1.1"/>
<path d="M 95.687 152.905 L 95.687 152.905 L 95.687 152.905 L 95.687 152.905 Z" fill="none" stroke="black" stroke-width="0.35" stroke-linejoin="round" stroke-dasharray="1.6,1.1"/>
<path d="M 101.707 201.007 L 101.707 201.007 L 101.707 201.007 L 101.707 201.007 Z" fill="none" stroke="black" stroke-width="0.35" stroke-linejoin="round" stroke-dasharray="1.6,1.1"/>
<path d="M 100.704 192.194 L 100.704 192.194 L 100.704 192.194 L 100.704 192.194 Z" fill="none" stroke="black" stroke-width="0.35" stroke-linejoin="round" stroke-dasharray="1.6,1.1"/>
<path d="M 100.605 191.824 L 100.605 191.824 L 100.605 191.824 L 100.605 191.824 Z" fill="none" stroke="black" stroke-width="0.35" stroke-linejoin="round" stroke-dasharray="1.6,1.1"/>
<path d="M 98.373 154.299 L 98.373 154.299 L 98.373 154.299 L 98.373 154.299 Z" fill="none" stroke="black" stroke-width="0.35" stroke-linejoin="round" stroke-dasharray="1.6,1.1"/>
<path d="M 110.365 169.966 L 110.365 169.966 L 110.365 169.966 L 110.365 169.966 Z" fill="none" stroke="black" stroke-width="0.35" stroke-linejoin="round" stroke-dasharray="1.6,1.1"/>
<path d="M 121.500 168.150 L 120.255 168.211 L 119.022 168.394 L 117.813 168.697 L 116.640 169.117 L 115.513 169.650 L 114.444 170.290 L 113.443 171.033 L 112.520 171.870 L 111.683 172.793 L 110.940 173.794 L 110.300 174.863 L 109.767 175.990 L 109.347 177.163 L 109.044 178.372 L 108.861 179.605 L 108.800 180.850 L 108.861 182.095 L 109.044 183.328 L 109.347 184.537 L 109.767 185.710 L 110.300 186.837 L 110.940 187.906 L 111.683 188.907 L 112.520 189.830 L 113.443 190.667 L 114.444 191.410 L 115.513 192.050 L 116.640 192.583 L 117.813 193.003 L 119.022 193.306 L 120.255 193.489 L 121.500 193.550 L 122.745 193.489 L 123.978 193.306 L 125.187 193.003 L 126.360 192.583 L 127.487 192.050 L 128.556 191.410 L 129.557 190.667 L 130.480 189.830 L 131.317 188.907 L 132.060 187.906 L 132.700 186.837 L 133.233 185.710 L 133.653 184.537 L 133.956 183.328 L 134.139 182.095 L 134.200 180.850 L 134.139 179.605 L 133.956 178.372 L 133.653 177.163 L 133.233 175.990 L 132.700 174.863 L 132.060 173.794 L 131.317 172.793 L 130.480 171.870 L 129.557 171.033 L 128.556 170.290 L 127.487 169.650 L 126.360 169.117 L 125.187 168.697 L 123.978 168.394 L 122.745 168.211 L 121.500 168.150 Z" fill="none" stroke="black" stroke-width="0.35" stroke-linejoin="round" stroke-dasharray="1.6,1.1"/>
<path d="M 106.422 139.929 L 106.422 139.929 L 106.422 139.929 L 106.422 139.929 Z" fill="none" stroke="black" stroke-width="0.35" stroke-linejoin="round" stroke-dasharray="1.6,1.1"/>
<path d="M 109.032 183.330 L 108.890 182.528 L 109.032 183.330 L 109.032 183.330 Z" fill="none" stroke="black" stroke-width="0.35" stroke-linejoin="round" stroke-dasharray="1.6,1.1"/>
<path d="M 111.673 172.786 L 111.673 172.786 L 112.486 171.836 L 111.673 172.786 Z" fill="none" stroke="black" stroke-width="0.35" stroke-linejoin="round" stroke-dasharray="1.6,1.1"/>
<path d="M 113.191 192.489 L 113.587 192.693 L 113.587 192.693 L 113.191 192.489 Z" fill="none" stroke="black" stroke-width="0.35" stroke-linejoin="round" stroke-dasharray="1.6,1.1"/>
<path d="M 116.059 130.956 L 116.059 130.956 L 116.059 130.956 L 116.059 130.956 Z" fill="none" stroke="black" stroke-width="0.35" stroke-linejoin="round" stroke-dasharray="1.6,1.1"/>
<path d="M 121.447 135.369 L 121.447 135.369 L 121.447 135.369 L 121.447 135.369 Z" fill="none" stroke="black" stroke-width="0.35" stroke-linejoin="round" stroke-dasharray="1.6,1.1"/>
<path d="M 120.338 135.885 L 120.338 135.885 L 120.338 135.885 L 120.338 135.885 Z" fill="none" stroke="black" stroke-width="0.35" stroke-linejoin="round" stroke-dasharray="1.6,1.1"/>
<path d="M 125.675 168.054 L 125.399 167.996 L 125.399 167.996 L 125.675 168.054 Z" fill="none" stroke="black" stroke-width="0.35" stroke-linejoin="round" stroke-dasharray="1.6,1.1"/>
<path d="M 131.464 189.028 L 130.907 189.755 L 131.464 189.028 L 131.464 189.028 Z" fill="none" stroke="black" stroke-width="0.35" stroke-linejoin="round" stroke-dasharray="1.6,1.1"/>
<path d="M 137.703 184.222 L 137.703 184.222 L 137.703 184.222 L 137.703 184.222 Z" fill="none" stroke="black" stroke-width="0.35" stroke-linejoin="round" stroke-dasharray="1.6,1.1"/>
<path d="M 89.618 125.710 L 89.628 125.669 L 89.662 125.650 L 90.519 125.656 L 90.768 125.707 L 90.994 125.800 L 91.177 125.921 L 91.293 126.022 L 91.448 126.211 L 91.568 126.434 L 91.640 126.672 L 91.677 127.170 L 91.714 127.417 L 91.775 127.658 L 91.859 127.893 L 91.964 128.116 L 92.092 128.330 L 92.241 128.530 L 92.408 128.715 L 92.593 128.883 L 92.793 129.031 L 93.007 129.159 L 93.232 129.266 L 93.467 129.350 L 93.708 129.411 L 93.955 129.448 L 94.206 129.460 L 115.794 129.460 L 116.045 129.448 L 116.292 129.411 L 116.533 129.350 L 116.768 129.266 L 116.993 129.159 L 117.207 129.031 L 117.405 128.884 L 117.590 128.717 L 117.758 128.532 L 117.906 128.332 L 118.034 128.118 L 118.142 127.891 L 118.226 127.656 L 118.286 127.414 L 118.323 127.168 L 118.360 126.672 L 118.430 126.439 L 118.549 126.215 L 118.711 126.019 L 118.897 125.866 L 119.003 125.802 L 119.241 125.704 L 119.481 125.656 L 119.606 125.650 L 120.333 125.650 L 120.377 125.677 L 120.349 125.866 L 120.286 127.148 L 120.064 128.639 L 119.698 130.101 L 119.192 131.516 L 119.131 131.645 L 114.100 155.519 L 113.880 156.396 L 113.573 157.254 L 113.183 158.077 L 112.715 158.858 L 112.172 159.589 L 111.564 160.260 L 110.889 160.872 L 110.158 161.415 L 109.377 161.883 L 108.554 162.273 L 107.696 162.580 L 106.813 162.801 L 105.912 162.935 L 105.002 162.980 L 104.093 162.936 L 103.192 162.802 L 102.308 162.581 L 101.451 162.275 L 100.627 161.886 L 99.846 161.418 L 99.115 160.875 L 98.440 160.264 L 97.828 159.589 L 97.285 158.858 L 96.817 158.077 L 96.425 157.249 L 96.120 156.396 L 95.900 155.519 L 90.869 131.645 L 90.808 131.516 L 90.302 130.101 L 89.936 128.639 L 89.714 127.148 L 89.651 125.866 L 89.618 125.710 Z" fill="none" stroke="#333333" stroke-width="0.35" stroke-linejoin="round" stroke-dasharray="2.4,1.4"/>
<path d="M 114.286 131.480 L 114.060 131.586 L 113.846 131.714 L 113.646 131.863 L 113.461 132.030 L 113.294 132.214 L 113.145 132.415 L 113.017 132.628 L 112.910 132.854 L 112.826 133.088 L 112.765 133.330 L 112.729 133.577 L 112.716 133.825 L 112.728 134.074 L 112.765 134.321 L 112.825 134.563 L 112.909 134.798 L 113.016 135.023 L 113.144 135.237 L 113.292 135.437 L 113.459 135.622 L 113.644 135.789 L 113.844 135.938 L 114.058 136.066 L 114.283 136.173 L 114.518 136.257 L 114.759 136.318 L 115.006 136.354 L 115.255 136.367 L 115.504 136.355 L 115.751 136.318 L 115.992 136.258 L 116.227 136.174 L 116.452 136.067 L 116.666 135.939 L 116.867 135.791 L 117.051 135.624 L 117.219 135.439 L 117.367 135.239 L 117.496 135.025 L 117.602 134.800 L 117.686 134.565 L 117.747 134.323 L 117.784 134.077 L 117.796 133.828 L 117.784 133.579 L 117.748 133.332 L 117.687 133.091 L 117.603 132.856 L 117.497 132.630 L 117.369 132.417 L 117.220 132.216 L 117.053 132.032 L 116.868 131.864 L 116.668 131.715 L 116.455 131.587 L 116.229 131.481 L 115.995 131.396 L 115.753 131.336 L 115.506 131.299 L 115.257 131.287 L 115.006 131.299 L 114.682 131.355 L 114.286 131.480 Z" fill="none" stroke="#333333" stroke-width="0.35" stroke-linejoin="round" stroke-dasharray="2.4,1.4"/>
<path d="M 111.446 149.115 L 111.204 149.176 L 110.970 149.260 L 110.744 149.366 L 110.530 149.494 L 110.330 149.643 L 110.145 149.810 L 109.978 149.994 L 109.829 150.195 L 109.701 150.408 L 109.594 150.634 L 109.510 150.868 L 109.450 151.110 L 109.413 151.357 L 109.401 151.605 L 109.413 151.854 L 109.449 152.101 L 109.510 152.343 L 109.593 152.578 L 109.700 152.803 L 109.828 153.017 L 109.976 153.217 L 110.144 153.402 L 110.328 153.569 L 110.528 153.718 L 110.742 153.846 L 110.967 153.953 L 111.202 154.037 L 111.444 154.098 L 111.690 154.134 L 111.939 154.147 L 112.188 154.135 L 112.435 154.098 L 112.677 154.038 L 112.911 153.954 L 113.137 153.847 L 113.351 153.719 L 113.551 153.571 L 113.736 153.404 L 113.903 153.219 L 114.052 153.019 L 114.180 152.805 L 114.287 152.580 L 114.371 152.345 L 114.431 152.103 L 114.468 151.857 L 114.480 151.608 L 114.468 151.359 L 114.432 151.112 L 114.371 150.871 L 114.288 150.636 L 114.181 150.410 L 114.053 150.197 L 113.905 149.996 L 113.737 149.812 L 113.553 149.644 L 113.353 149.495 L 113.139 149.367 L 112.914 149.261 L 112.679 149.176 L 112.437 149.116 L 112.191 149.079 L 111.942 149.067 L 111.693 149.079 L 111.446 149.115 Z" fill="none" stroke="#333333" stroke-width="0.35" stroke-linejoin="round" stroke-dasharray="2.4,1.4"/>
<path d="M 100.300 150.410 L 100.172 150.197 L 100.024 149.996 L 99.856 149.812 L 99.672 149.644 L 99.472 149.495 L 99.258 149.367 L 99.033 149.261 L 98.798 149.176 L 98.556 149.116 L 98.310 149.079 L 98.061 149.067 L 97.812 149.079 L 97.565 149.115 L 97.323 149.176 L 97.089 149.260 L 96.863 149.366 L 96.649 149.494 L 96.449 149.643 L 96.264 149.810 L 96.097 149.994 L 95.948 150.195 L 95.820 150.408 L 95.713 150.634 L 95.629 150.868 L 95.569 151.110 L 95.532 151.357 L 95.520 151.605 L 95.532 151.854 L 95.568 152.101 L 95.629 152.343 L 95.712 152.578 L 95.819 152.803 L 95.947 153.017 L 96.095 153.217 L 96.263 153.402 L 96.447 153.569 L 96.647 153.718 L 96.861 153.846 L 97.086 153.953 L 97.321 154.037 L 97.563 154.098 L 97.809 154.134 L 98.058 154.147 L 98.307 154.135 L 98.554 154.098 L 98.796 154.038 L 99.030 153.954 L 99.256 153.847 L 99.470 153.719 L 99.670 153.571 L 99.855 153.404 L 100.022 153.219 L 100.171 153.019 L 100.299 152.805 L 100.406 152.580 L 100.490 152.345 L 100.550 152.103 L 100.587 151.857 L 100.599 151.608 L 100.587 151.359 L 100.551 151.112 L 100.490 150.871 L 100.407 150.636 L 100.300 150.410 Z" fill="none" stroke="#333333" stroke-width="0.35" stroke-linejoin="round" stroke-dasharray="2.4,1.4"/>
<path d="M 95.241 131.336 L 94.994 131.299 L 94.745 131.287 L 94.496 131.299 L 94.249 131.335 L 94.008 131.396 L 93.773 131.480 L 93.548 131.586 L 93.334 131.714 L 93.133 131.863 L 92.949 132.030 L 92.781 132.214 L 92.633 132.415 L 92.504 132.628 L 92.398 132.854 L 92.314 133.088 L 92.253 133.330 L 92.216 133.577 L 92.204 133.825 L 92.216 134.074 L 92.252 134.321 L 92.313 134.563 L 92.397 134.798 L 92.503 135.023 L 92.631 135.237 L 92.780 135.437 L 92.947 135.622 L 93.132 135.789 L 93.332 135.938 L 93.545 136.066 L 93.771 136.173 L 94.005 136.257 L 94.247 136.318 L 94.494 136.354 L 94.743 136.367 L 94.992 136.355 L 95.238 136.318 L 95.480 136.258 L 95.715 136.174 L 95.940 136.067 L 96.154 135.939 L 96.354 135.791 L 96.539 135.624 L 96.706 135.439 L 96.855 135.239 L 96.983 135.025 L 97.090 134.800 L 97.174 134.565 L 97.235 134.323 L 97.271 134.077 L 97.284 133.828 L 97.272 133.579 L 97.235 133.332 L 97.175 133.091 L 97.091 132.856 L 96.984 132.630 L 96.856 132.417 L 96.708 132.216 L 96.541 132.032 L 96.356 131.864 L 96.156 131.715 L 95.942 131.587 L 95.717 131.481 L 95.482 131.396 L 95.241 131.336 Z" fill="none" stroke="#333333" stroke-width="0.35" stroke-linejoin="round" stroke-dasharray="2.4,1.4"/>
<line x1="87.062" y1="180.658" x2="89.862" y2="180.658" stroke="black" stroke-width="0.2"/>
<line x1="88.462" y1="179.258" x2="88.462" y2="182.058" stroke="black" stroke-width="0.2"/>
<line x1="120.100" y1="180.655" x2="122.900" y2="180.655" stroke="black" stroke-width="0.2"/>
<line x1="121.500" y1="179.255" x2="121.500" y2="182.055" stroke="black" stroke-width="0.2"/>
<line x1="96.696" y1="151.592" x2="99.496" y2="151.592" stroke="black" stroke-width="0.2"/>
<line x1="98.096" y1="150.192" x2="98.096" y2="152.992" stroke="black" stroke-width="0.2"/>
<line x1="110.537" y1="151.568" x2="113.337" y2="151.568" stroke="black" stroke-width="0.2"/>
<line x1="111.937" y1="150.168" x2="111.937" y2="152.968" stroke="black" stroke-width="0.2"/>
<line x1="113.857" y1="133.826" x2="116.657" y2="133.826" stroke="black" stroke-width="0.2"/>
<line x1="115.257" y1="132.426" x2="115.257" y2="135.226" stroke="black" stroke-width="0.2"/>
<line x1="93.355" y1="133.789" x2="96.155" y2="133.789" stroke="black" stroke-width="0.2"/>
<line x1="94.755" y1="132.389" x2="94.755" y2="135.189" stroke="black" stroke-width="0.2"/>
<line x1="68.742" y1="125.650" x2="58.742" y2="125.650" stroke="black" stroke-width="0.18"/>
<line x1="68.742" y1="201.350" x2="58.742" y2="201.350" stroke="black" stroke-width="0.18"/>
<line x1="59.742" y1="125.650" x2="59.742" y2="201.350" stroke="black" stroke-width="0.25"/>
<polygon points="59.742,125.650 60.492,128.050 58.992,128.050" fill="black"/>
<polygon points="59.742,201.350 58.992,198.950 60.492,198.950" fill="black"/>
<text x="58.342" y="164.500" font-family="Helvetica, Arial, sans-serif" font-size="3" font-weight="bold" text-anchor="end" fill="black" paint-order="stroke" stroke="white" stroke-width="0.9">75.7</text>
<line x1="68.742" y1="201.350" x2="68.742" y2="210.350" stroke="black" stroke-width="0.18"/>
<line x1="141.251" y1="201.350" x2="141.251" y2="210.350" stroke="black" stroke-width="0.18"/>
<line x1="68.742" y1="209.350" x2="141.251" y2="209.350" stroke="black" stroke-width="0.25"/>
<polygon points="68.742,209.350 71.142,208.600 71.142,210.100" fill="black"/>
<polygon points="141.251,209.350 138.851,210.100 138.851,208.600" fill="black"/>
<text x="104.997" y="213.250" font-family="Helvetica, Arial, sans-serif" font-size="3" font-weight="bold" text-anchor="middle" fill="black" paint-order="stroke" stroke="white" stroke-width="0.9">72.51</text>
<line x1="91.665" y1="125.650" x2="91.665" y2="118.650" stroke="black" stroke-width="0.18"/>
<line x1="118.335" y1="125.650" x2="118.335" y2="118.650" stroke="black" stroke-width="0.18"/>
<line x1="91.665" y1="119.650" x2="118.335" y2="119.650" stroke="black" stroke-width="0.25"/>
<polygon points="91.665,119.650 94.065,118.900 94.065,120.400" fill="black"/>
<polygon points="118.335,119.650 115.935,120.400 115.935,118.900" fill="black"/>
<text x="105.000" y="118.550" font-family="Helvetica, Arial, sans-serif" font-size="3" font-weight="bold" text-anchor="middle" fill="black" paint-order="stroke" stroke="white" stroke-width="0.9">notch 26.67</text>
<line x1="89.150" y1="125.650" x2="89.150" y2="112.150" stroke="black" stroke-width="0.18"/>
<line x1="120.850" y1="125.650" x2="120.850" y2="112.150" stroke="black" stroke-width="0.18"/>
<line x1="89.150" y1="113.150" x2="120.850" y2="113.150" stroke="black" stroke-width="0.25"/>
<polygon points="89.150,113.150 91.550,112.400 91.550,113.900" fill="black"/>
<polygon points="120.850,113.150 118.450,113.900 118.450,112.400" fill="black"/>
<text x="105.000" y="112.050" font-family="Helvetica, Arial, sans-serif" font-size="3" font-weight="bold" text-anchor="middle" fill="black" paint-order="stroke" stroke="white" stroke-width="0.9">pocket 31.7</text>
<line x1="141.251" y1="125.650" x2="150.251" y2="125.650" stroke="black" stroke-width="0.18"/>
<line x1="141.251" y1="162.650" x2="150.251" y2="162.650" stroke="black" stroke-width="0.18"/>
<line x1="149.251" y1="125.650" x2="149.251" y2="162.650" stroke="black" stroke-width="0.25"/>
<polygon points="149.251,125.650 150.001,128.050 148.501,128.050" fill="black"/>
<polygon points="149.251,162.650 148.501,160.250 150.001,160.250" fill="black"/>
<text x="150.651" y="145.150" font-family="Helvetica, Arial, sans-serif" font-size="3" font-weight="bold" text-anchor="start" fill="black" paint-order="stroke" stroke="white" stroke-width="0.9">pocket depth 37</text>
<line x1="88.462" y1="180.658" x2="88.462" y2="181.658" stroke="black" stroke-width="0.18"/>
<line x1="121.500" y1="180.658" x2="121.500" y2="181.658" stroke="black" stroke-width="0.18"/>
<line x1="88.462" y1="180.658" x2="121.500" y2="180.658" stroke="black" stroke-width="0.25"/>
<polygon points="88.462,180.658 90.862,179.908 90.862,181.408" fill="black"/>
<polygon points="121.500,180.658 119.100,181.408 119.100,179.908" fill="black"/>
<text x="104.981" y="179.558" font-family="Helvetica, Arial, sans-serif" font-size="3" font-weight="bold" text-anchor="middle" fill="black" paint-order="stroke" stroke="white" stroke-width="0.9">33</text>
<line x1="131.227" y1="188.817" x2="138.121" y2="194.602" stroke="black" stroke-width="0.25"/>
<polygon points="131.227,188.817 133.548,189.785 132.583,190.934" fill="black"/>
<line x1="138.121" y1="194.602" x2="144.121" y2="194.602" stroke="black" stroke-width="0.25"/>
<text x="144.921" y="193.702" font-family="Helvetica, Arial, sans-serif" font-size="3" font-weight="bold" text-anchor="start" fill="black" paint-order="stroke" stroke="white" stroke-width="0.9">Ø25.4 (2×)</text>
<line x1="94.755" y1="133.826" x2="94.755" y2="143.709" stroke="black" stroke-width="0.18"/>
<line x1="115.257" y1="133.826" x2="115.257" y2="143.709" stroke="black" stroke-width="0.18"/>
<line x1="94.755" y1="142.709" x2="115.257" y2="142.709" stroke="black" stroke-width="0.25"/>
<polygon points="94.755,142.709 97.155,141.959 97.155,143.459" fill="black"/>
<polygon points="115.257,142.709 112.857,143.459 112.857,141.959" fill="black"/>
<text x="105.006" y="141.609" font-family="Helvetica, Arial, sans-serif" font-size="2.6" font-weight="bold" text-anchor="middle" fill="black" paint-order="stroke" stroke="white" stroke-width="0.9">-20.5</text>
<line x1="115.257" y1="133.826" x2="104.257" y2="133.826" stroke="black" stroke-width="0.18"/>
<line x1="115.257" y1="151.592" x2="104.257" y2="151.592" stroke="black" stroke-width="0.18"/>
<line x1="105.257" y1="133.826" x2="105.257" y2="151.592" stroke="black" stroke-width="0.25"/>
<polygon points="105.257,133.826 106.007,136.226 104.507,136.226" fill="black"/>
<polygon points="105.257,151.592 104.507,149.192 106.007,149.192" fill="black"/>
<text x="103.857" y="143.709" font-family="Helvetica, Arial, sans-serif" font-size="2.6" font-weight="bold" text-anchor="end" fill="black" paint-order="stroke" stroke="white" stroke-width="0.9">17.77</text>
<line x1="96.300" y1="153.387" x2="90.643" y2="159.044" stroke="black" stroke-width="0.25"/>
<polygon points="96.300,153.387 95.133,155.615 94.073,154.554" fill="black"/>
<line x1="90.643" y1="159.044" x2="84.643" y2="159.044" stroke="black" stroke-width="0.25"/>
<text x="83.843" y="158.144" font-family="Helvetica, Arial, sans-serif" font-size="2.6" font-weight="bold" text-anchor="end" fill="black" paint-order="stroke" stroke="white" stroke-width="0.9">Ø5.08 (4×)</text>
</svg>
