<svg xmlns="http://www.w3.org/2000/svg" width="210mm" height="279mm" viewBox="0 0 210 279">
<rect x="0" y="0" width="210" height="279" fill="white"/>
<text x="105.000" y="12.000" font-family="Helvetica, Arial, sans-serif" font-size="5" font-weight="bold" text-anchor="middle" fill="black">Plug Puller — Standard 3-prong plug (NEMA 5-15) · Small</text>
<text x="105.000" y="17.500" font-family="Helvetica, Arial, sans-serif" font-size="2.8" font-weight="normal" text-anchor="middle" fill="black">1:1 outline sheet — print at 100% scale / “Actual size”, never “fit to page”. Check the calibration square before trusting anything.</text>
<rect x="14" y="22" width="50" height="50" fill="none" stroke="black" stroke-width="0.4"/>
<text x="39.000" y="45.500" font-family="Helvetica, Arial, sans-serif" font-size="3.4" font-weight="bold" text-anchor="middle" fill="black">CALIBRATION</text>
<text x="39.000" y="50.500" font-family="Helvetica, Arial, sans-serif" font-size="3.4" font-weight="normal" text-anchor="middle" fill="black">50 × 50 mm</text>
<text x="39.000" y="56.500" font-family="Helvetica, Arial, sans-serif" font-size="2.6" font-weight="normal" text-anchor="middle" fill="#444444">Measure me with a ruler.</text>
<text x="39.000" y="60.500" font-family="Helvetica, Arial, sans-serif" font-size="2.6" font-weight="normal" text-anchor="middle" fill="#444444">Not 50 mm? Re-print at 100%.</text>
<rect x="70" y="22" width="126" height="50" fill="none" stroke="black" stroke-width="0.3"/>
<text x="73.000" y="27.000" font-family="Helvetica, Arial, sans-serif" font-size="3.4" font-weight="bold" text-anchor="start" fill="black">Standard 3-prong plug</text>
<text x="73.000" y="31.600" font-family="Helvetica, Arial, sans-serif" font-size="2.8" font-weight="normal" text-anchor="start" fill="black">Flat tool · Small hand size</text>
<text x="73.000" y="35.400" font-family="Helvetica, Arial, sans-serif" font-size="2.8" font-weight="normal" text-anchor="start" fill="black">Printed footprint ≈ 64.3 × 92.25 mm</text>
<text x="73.000" y="40.000" font-family="Helvetica, Arial, sans-serif" font-size="2.6" font-weight="normal" text-anchor="start" fill="#333333">Customizer settings for this exact tool:</text>
<text x="73.000" y="43.400" font-family="Helvetica, Arial, sans-serif" font-size="2.6" font-weight="normal" text-anchor="start" fill="#333333">  tool_style = Flat tool</text>
<text x="73.000" y="46.800" font-family="Helvetica, Arial, sans-serif" font-size="2.6" font-weight="normal" text-anchor="start" fill="#333333">  plug_preset =</text>
<text x="73.000" y="50.200" font-family="Helvetica, Arial, sans-serif" font-size="2.6" font-weight="normal" text-anchor="start" fill="#333333">      Standard 3-prong plug - NEMA 5-15</text>
<text x="73.000" y="53.600" font-family="Helvetica, Arial, sans-serif" font-size="2.6" font-weight="normal" text-anchor="start" fill="#333333">  size = Small</text>
<text x="73.000" y="57.000" font-family="Helvetica, Arial, sans-serif" font-size="2.6" font-weight="normal" text-anchor="start" fill="#333333">  (everything else at its default)</text>
<text x="133.000" y="27.000" font-family="Helvetica, Arial, sans-serif" font-size="2.8" font-weight="bold" text-anchor="start" fill="black">Key dimensions</text>
<text x="133.000" y="31.000" font-family="Helvetica, Arial, sans-serif" font-size="2.6" font-weight="normal" text-anchor="start" fill="black">Body thickness: 5.4 mm (this sheet is 2D)</text>
<text x="133.000" y="34.500" font-family="Helvetica, Arial, sans-serif" font-size="2.6" font-weight="normal" text-anchor="start" fill="black">Finger holes: Ø21.9, 29.5 apart</text>
<text x="133.000" y="38.000" font-family="Helvetica, Arial, sans-serif" font-size="2.6" font-weight="normal" text-anchor="start" fill="black">Pocket: 33.3 wide × 46.2 deep</text>
<text x="133.000" y="41.500" font-family="Helvetica, Arial, sans-serif" font-size="2.6" font-weight="normal" text-anchor="start" fill="black">Wall notch: 28.27 wide × 3.81 deep</text>
<text x="133.000" y="45.000" font-family="Helvetica, Arial, sans-serif" font-size="2.6" font-weight="normal" text-anchor="start" fill="black">Zip holes: 4 × Ø5.08, rows 17.78 apart</text>
<text x="133.000" y="48.500" font-family="Helvetica, Arial, sans-serif" font-size="2.6" font-weight="normal" text-anchor="start" fill="black">J-hook cord gap: 7.76 mm</text>
<line x1="14.000" y1="248.000" x2="196.000" y2="248.000" stroke="#888888" stroke-width="0.2"/>
<text x="14.000" y="252.500" font-family="Helvetica, Arial, sans-serif" font-size="3.2" font-weight="bold" text-anchor="start" fill="black">How to use this sheet</text>
<text x="14.000" y="256.500" font-family="Helvetica, Arial, sans-serif" font-size="2.7" font-weight="normal" text-anchor="start" fill="black">1. Print at 100% and measure the calibration square — it must be exactly 50 × 50 mm.</text>
<text x="14.000" y="260.100" font-family="Helvetica, Arial, sans-serif" font-size="2.7" font-weight="normal" text-anchor="start" fill="black">2. Cut along the SOLID outline. Dashed lines are holes and the plug pocket — poke through the two big finger circles.</text>
<text x="14.000" y="263.700" font-family="Helvetica, Arial, sans-serif" font-size="2.7" font-weight="normal" text-anchor="start" fill="black">3. Hold the cutout on your plug at the wall: the plug fits the dashed pocket, the top notch straddles the wall plate.</text>
<text x="14.000" y="267.300" font-family="Helvetica, Arial, sans-serif" font-size="2.7" font-weight="normal" text-anchor="start" fill="black">4. Try the finger holes (small size). Wrong size? Try a neighbouring sheet, or print stl/Finger_Sizing_Stencil.stl.</text>
<text x="14.000" y="270.900" font-family="Helvetica, Arial, sans-serif" font-size="2.7" font-weight="normal" text-anchor="start" fill="black">5. Happy? Open the Customizer with the title-block settings and export your STL (docs/guides/quick-start-beginner.md).</text>
<text x="105.000" y="275.500" font-family="Helvetica, Arial, sans-serif" font-size="2.4" font-weight="normal" text-anchor="middle" fill="#444444">openscad-plug-puller v0.8 · outline_standard-3-prong_small.svg · scale 1:1 · guide: docs/guides/print-preview-outlines.md</text>
<path d="M 72.909 189.689 L 73.112 188.286 L 78.700 159.650 L 88.950 117.375 L 89.595 117.375 L 89.843 117.399 L 89.964 117.430 L 90.194 117.525 L 90.401 117.663 L 90.577 117.839 L 90.715 118.046 L 90.768 118.159 L 90.841 118.397 L 90.877 118.894 L 90.914 119.141 L 90.974 119.382 L 91.058 119.617 L 91.165 119.842 L 91.293 120.056 L 91.442 120.256 L 91.609 120.441 L 91.794 120.608 L 91.994 120.757 L 92.208 120.885 L 92.433 120.992 L 92.668 121.076 L 92.909 121.136 L 93.156 121.173 L 93.405 121.185 L 116.595 121.185 L 116.844 121.173 L 117.091 121.136 L 117.332 121.076 L 117.567 120.992 L 117.792 120.885 L 118.006 120.757 L 118.206 120.608 L 118.391 120.441 L 118.558 120.256 L 118.707 120.056 L 118.835 119.842 L 118.942 119.617 L 119.026 119.382 L 119.086 119.141 L 119.123 118.894 L 119.159 118.397 L 119.232 118.159 L 119.285 118.046 L 119.410 117.858 L 119.599 117.663 L 119.806 117.525 L 120.036 117.430 L 120.157 117.399 L 120.405 117.375 L 121.050 117.375 L 131.300 159.650 L 136.888 188.286 L 137.027 189.129 L 137.147 190.542 L 137.127 191.960 L 136.969 193.369 L 136.673 194.756 L 136.243 196.107 L 135.683 197.410 L 134.997 198.651 L 134.193 199.819 L 133.279 200.903 L 132.263 201.892 L 131.154 202.776 L 129.964 203.548 L 128.705 204.199 L 127.387 204.724 L 126.025 205.117 L 116.181 207.440 L 116.181 201.814 L 115.713 201.345 L 115.706 194.211 L 115.658 193.966 L 115.563 193.736 L 115.424 193.529 L 115.248 193.353 L 115.041 193.215 L 114.929 193.162 L 114.690 193.089 L 114.442 193.065 L 98.870 193.065 L 98.746 193.071 L 98.501 193.120 L 98.271 193.215 L 98.164 193.279 L 97.972 193.437 L 97.888 193.529 L 97.750 193.736 L 97.697 193.849 L 97.655 193.966 L 97.606 194.211 L 97.606 200.199 L 97.655 200.444 L 97.750 200.674 L 97.814 200.781 L 97.972 200.973 L 98.164 201.131 L 98.384 201.248 L 98.622 201.321 L 98.870 201.345 L 106.245 201.345 L 108.419 203.518 L 108.419 209.272 L 107.315 209.495 L 106.161 209.625 L 103.922 209.625 L 103.075 209.553 L 101.681 209.296 L 83.975 205.117 L 83.150 204.896 L 81.813 204.423 L 80.529 203.822 L 79.310 203.097 L 78.168 202.256 L 77.114 201.308 L 76.157 200.261 L 75.309 199.125 L 74.575 197.911 L 73.964 196.631 L 73.482 195.298 L 73.132 193.924 L 72.919 192.522 L 72.844 191.106 L 72.909 189.689 Z" fill="none" stroke="black" stroke-width="0.5" stroke-linejoin="round"/>
<path d="M 110.187 142.088 L 110.059 142.302 L 109.952 142.527 L 109.868 142.762 L 109.807 143.004 L 109.771 143.250 L 109.759 143.499 L 109.771 143.748 L 109.807 143.995 L 109.868 144.237 L 109.952 144.471 L 110.059 144.697 L 110.187 144.910 L 110.335 145.111 L 110.503 145.295 L 110.687 145.463 L 110.887 145.611 L 111.101 145.739 L 111.327 145.846 L 111.561 145.930 L 111.803 145.991 L 112.050 146.027 L 112.299 146.039 L 112.548 146.027 L 112.794 145.991 L 113.036 145.930 L 113.271 145.846 L 113.496 145.739 L 113.710 145.611 L 113.910 145.463 L 114.095 145.295 L 114.262 145.111 L 114.411 144.910 L 114.539 144.697 L 114.645 144.471 L 114.729 144.237 L 114.790 143.995 L 114.826 143.748 L 114.839 143.499 L 114.826 143.250 L 114.790 143.004 L 114.729 142.762 L 114.645 142.527 L 114.539 142.302 L 114.411 142.088 L 114.262 141.888 L 114.095 141.703 L 113.910 141.536 L 113.710 141.387 L 113.496 141.259 L 113.271 141.153 L 113.036 141.069 L 112.794 141.008 L 112.548 140.972 L 112.299 140.959 L 112.050 140.972 L 111.803 141.008 L 111.561 141.069 L 111.327 141.153 L 111.101 141.259 L 110.887 141.387 L 110.687 141.536 L 110.503 141.703 L 110.335 141.888 L 110.187 142.088 Z" fill="none" stroke="black" stroke-width="0.35" stroke-linejoin="round" stroke-dasharray="1.6,1.1"/>
<path d="M 82.964 160.316 L 82.845 160.858 L 82.323 163.534 L 82.295 163.827 L 82.303 163.974 L 82.362 164.262 L 82.412 164.401 L 82.475 164.533 L 82.639 164.777 L 82.739 164.886 L 82.966 165.072 L 83.226 165.209 L 83.365 165.259 L 83.508 165.294 L 83.801 165.322 L 84.093 165.292 L 84.301 165.234 L 85.620 164.762 L 87.138 164.381 L 88.687 164.152 L 90.250 164.075 L 91.813 164.152 L 93.441 164.394 L 93.588 164.408 L 93.881 164.394 L 94.026 164.365 L 94.303 164.266 L 94.433 164.197 L 94.669 164.022 L 94.866 163.804 L 95.017 163.552 L 95.074 163.416 L 95.145 163.130 L 95.161 162.910 L 95.154 160.128 L 95.097 159.840 L 95.047 159.701 L 94.861 159.303 L 94.498 158.289 L 94.239 157.255 L 92.813 148.161 L 92.783 148.017 L 92.681 147.741 L 92.536 147.500 L 92.264 147.133 L 91.934 146.582 L 91.659 146.002 L 91.443 145.398 L 91.287 144.775 L 91.193 144.140 L 91.161 143.499 L 91.193 142.858 L 91.287 142.223 L 91.443 141.601 L 91.594 141.158 L 91.637 140.867 L 91.637 140.720 L 91.268 138.310 L 91.238 138.166 L 91.136 137.890 L 91.066 137.760 L 90.889 137.526 L 90.669 137.330 L 90.416 137.181 L 90.279 137.126 L 89.994 137.057 L 89.700 137.045 L 89.409 137.090 L 89.133 137.192 L 88.882 137.345 L 88.666 137.544 L 88.493 137.782 L 88.369 138.049 L 82.964 160.316 Z" fill="none" stroke="black" stroke-width="0.35" stroke-linejoin="round" stroke-dasharray="1.6,1.1"/>
<path d="M 86.060 169.909 L 85.088 170.368 L 84.167 170.920 L 83.303 171.561 L 82.507 172.282 L 81.786 173.078 L 81.145 173.942 L 80.593 174.863 L 80.134 175.835 L 79.772 176.846 L 79.510 177.889 L 79.353 178.952 L 79.300 180.025 L 79.353 181.098 L 79.510 182.161 L 79.772 183.204 L 80.134 184.215 L 80.593 185.187 L 81.145 186.108 L 81.786 186.972 L 82.507 187.768 L 83.303 188.489 L 84.167 189.130 L 85.088 189.682 L 86.060 190.141 L 87.071 190.503 L 88.114 190.765 L 89.177 190.922 L 90.250 190.975 L 91.323 190.922 L 92.386 190.765 L 93.429 190.503 L 94.440 190.141 L 95.412 189.682 L 96.333 189.130 L 97.197 188.489 L 97.993 187.768 L 98.714 186.972 L 99.355 186.108 L 99.907 185.187 L 100.366 184.215 L 100.728 183.204 L 100.990 182.161 L 101.147 181.098 L 101.200 180.025 L 101.147 178.952 L 100.990 177.889 L 100.728 176.846 L 100.366 175.835 L 99.907 174.863 L 99.355 173.942 L 98.714 173.078 L 97.993 172.282 L 97.197 171.561 L 96.333 170.920 L 95.412 170.368 L 94.440 169.909 L 93.429 169.547 L 92.386 169.285 L 91.323 169.128 L 90.250 169.075 L 89.177 169.128 L 88.114 169.285 L 87.071 169.547 L 86.060 169.909 Z" fill="none" stroke="black" stroke-width="0.35" stroke-linejoin="round" stroke-dasharray="1.6,1.1"/>
<path d="M 79.327 194.438 L 79.327 194.438 L 79.327 194.438 L 79.327 194.438 Z" fill="none" stroke="black" stroke-width="0.35" stroke-linejoin="round" stroke-dasharray="1.6,1.1"/>
<path d="M 79.302 194.690 L 79.302 194.690 L 79.302 194.690 L 79.302 194.690 Z" fill="none" stroke="black" stroke-width="0.35" stroke-linejoin="round" stroke-dasharray="1.6,1.1"/>
<path d="M 80.975 160.312 L 80.975 160.312 L 80.975 160.312 L 80.975 160.312 Z" fill="none" stroke="black" stroke-width="0.35" stroke-linejoin="round" stroke-dasharray="1.6,1.1"/>
<path d="M 95.161 123.179 L 94.912 123.192 L 94.666 123.228 L 94.424 123.289 L 94.189 123.373 L 93.964 123.479 L 93.750 123.607 L 93.550 123.756 L 93.365 123.923 L 93.198 124.108 L 93.049 124.308 L 92.921 124.522 L 92.815 124.747 L 92.731 124.982 L 92.670 125.224 L 92.634 125.470 L 92.621 125.719 L 92.634 125.968 L 92.670 126.215 L 92.731 126.457 L 92.815 126.691 L 92.921 126.917 L 93.049 127.130 L 93.198 127.331 L 93.365 127.515 L 93.550 127.683 L 93.750 127.831 L 93.964 127.959 L 94.189 128.066 L 94.424 128.150 L 94.666 128.211 L 94.912 128.247 L 95.161 128.259 L 95.410 128.247 L 95.657 128.211 L 95.899 128.150 L 96.133 128.066 L 96.359 127.959 L 96.573 127.831 L 96.773 127.683 L 96.957 127.515 L 97.125 127.331 L 97.273 127.130 L 97.401 126.917 L 97.508 126.691 L 97.592 126.457 L 97.653 126.215 L 97.689 125.968 L 97.701 125.719 L 97.689 125.470 L 97.653 125.224 L 97.592 124.982 L 97.508 124.747 L 97.401 124.522 L 97.273 124.308 L 97.125 124.108 L 96.957 123.923 L 96.773 123.756 L 96.573 123.607 L 96.359 123.479 L 96.133 123.373 L 95.899 123.289 L 95.657 123.228 L 95.410 123.192 L 95.161 123.179 Z" fill="none" stroke="black" stroke-width="0.35" stroke-linejoin="round" stroke-dasharray="1.6,1.1"/>
<path d="M 96.290 141.387 L 96.090 141.536 L 95.905 141.703 L 95.738 141.888 L 95.589 142.088 L 95.461 142.302 L 95.355 142.527 L 95.271 142.762 L 95.210 143.004 L 95.174 143.250 L 95.161 143.499 L 95.174 143.748 L 95.210 143.995 L 95.271 144.237 L 95.355 144.471 L 95.461 144.697 L 95.589 144.910 L 95.738 145.111 L 95.905 145.295 L 96.090 145.463 L 96.290 145.611 L 96.504 145.739 L 96.729 145.846 L 96.964 145.930 L 97.206 145.991 L 97.452 146.027 L 97.701 146.039 L 97.950 146.027 L 98.197 145.991 L 98.439 145.930 L 98.673 145.846 L 98.899 145.739 L 99.113 145.611 L 99.313 145.463 L 99.497 145.295 L 99.665 145.111 L 99.813 144.910 L 99.941 144.697 L 100.048 144.471 L 100.132 144.237 L 100.193 143.995 L 100.229 143.748 L 100.241 143.499 L 100.229 143.250 L 100.193 143.004 L 100.132 142.762 L 100.048 142.527 L 99.941 142.302 L 99.813 142.088 L 99.665 141.888 L 99.497 141.703 L 99.313 141.536 L 99.113 141.387 L 98.899 141.259 L 98.673 141.153 L 98.439 141.069 L 98.197 141.008 L 97.950 140.972 L 97.701 140.959 L 97.452 140.972 L 97.206 141.008 L 96.964 141.069 L 96.729 141.153 L 96.504 141.259 L 96.290 141.387 Z" fill="none" stroke="black" stroke-width="0.35" stroke-linejoin="round" stroke-dasharray="1.6,1.1"/>
<path d="M 88.979 117.406 L 88.979 117.406 L 88.979 117.406 L 88.979 117.406 Z" fill="none" stroke="black" stroke-width="0.35" stroke-linejoin="round" stroke-dasharray="1.6,1.1"/>
<path d="M 90.976 134.191 L 90.976 134.191 L 90.976 134.191 L 90.976 134.191 Z" fill="none" stroke="black" stroke-width="0.35" stroke-linejoin="round" stroke-dasharray="1.6,1.1"/>
<path d="M 94.020 129.803 L 94.020 129.803 L 94.020 129.803 L 94.020 129.803 Z" fill="none" stroke="black" stroke-width="0.35" stroke-linejoin="round" stroke-dasharray="1.6,1.1"/>
<path d="M 94.092 141.570 L 94.092 141.570 L 94.092 141.570 L 94.092 141.570 Z" fill="none" stroke="black" stroke-width="0.35" stroke-linejoin="round" stroke-dasharray="1.6,1.1"/>
<path d="M 93.940 141.517 L 93.940 141.517 L 93.940 141.517 L 93.940 141.517 Z" fill="none" stroke="black" stroke-width="0.35" stroke-linejoin="round" stroke-dasharray="1.6,1.1"/>
<path d="M 93.846 129.453 L 93.846 129.453 L 93.846 129.453 L 93.846 129.453 Z" fill="none" stroke="black" stroke-width="0.35" stroke-linejoin="round" stroke-dasharray="1.6,1.1"/>
<path d="M 102.286 182.419 L 102.286 182.419 L 102.503 182.462 L 102.286 182.419 Z" fill="none" stroke="black" stroke-width="0.35" stroke-linejoin="round" stroke-dasharray="1.6,1.1"/>
<path d="M 102.462 178.822 L 102.462 178.822 L 102.286 177.631 L 102.462 178.822 Z" fill="none" stroke="black" stroke-width="0.35" stroke-linejoin="round" stroke-dasharray="1.6,1.1"/>
<path d="M 121.630 138.048 L 121.507 137.781 L 121.426 137.658 L 121.333 137.543 L 121.117 137.344 L 120.866 137.191 L 120.590 137.090 L 120.299 137.045 L 120.152 137.044 L 119.861 137.085 L 119.720 137.126 L 119.583 137.182 L 119.330 137.331 L 119.215 137.423 L 119.016 137.640 L 118.863 137.891 L 118.762 138.167 L 118.379 140.561 L 118.362 140.854 L 118.403 141.146 L 118.557 141.601 L 118.713 142.223 L 118.807 142.858 L 118.839 143.499 L 118.807 144.140 L 118.713 144.775 L 118.557 145.398 L 118.341 146.002 L 118.066 146.582 L 117.736 147.133 L 117.383 147.622 L 117.257 147.888 L 117.214 148.029 L 115.761 157.255 L 115.502 158.289 L 115.139 159.303 L 114.926 159.770 L 114.855 160.055 L 114.839 160.275 L 114.839 162.910 L 114.867 163.203 L 114.953 163.484 L 115.016 163.617 L 115.179 163.862 L 115.278 163.971 L 115.387 164.070 L 115.632 164.233 L 115.765 164.296 L 116.046 164.381 L 116.339 164.410 L 116.486 164.403 L 118.187 164.152 L 119.750 164.075 L 121.313 164.152 L 122.862 164.381 L 124.380 164.762 L 125.840 165.277 L 126.131 165.320 L 126.425 165.305 L 126.710 165.234 L 126.976 165.108 L 127.212 164.933 L 127.409 164.715 L 127.561 164.463 L 127.660 164.186 L 127.703 163.895 L 127.703 163.748 L 127.677 163.534 L 127.155 160.858 L 127.029 160.283 L 121.630 138.048 Z" fill="none" stroke="black" stroke-width="0.35" stroke-linejoin="round" stroke-dasharray="1.6,1.1"/>
<path d="M 119.750 169.075 L 118.677 169.128 L 117.614 169.285 L 116.571 169.547 L 115.560 169.909 L 114.588 170.368 L 113.667 170.920 L 112.803 171.561 L 112.007 172.282 L 111.286 173.078 L 110.645 173.942 L 110.093 174.863 L 109.634 175.835 L 109.272 176.846 L 109.010 177.889 L 108.853 178.952 L 108.800 180.025 L 108.853 181.098 L 109.010 182.161 L 109.272 183.204 L 109.634 184.215 L 110.093 185.187 L 110.645 186.108 L 111.286 186.972 L 112.007 187.768 L 112.803 188.489 L 113.667 189.130 L 114.588 189.682 L 115.560 190.141 L 116.571 190.503 L 117.614 190.765 L 118.677 190.922 L 119.750 190.975 L 120.823 190.922 L 121.886 190.765 L 122.929 190.503 L 123.940 190.141 L 124.912 189.682 L 125.833 189.130 L 126.697 188.489 L 127.493 187.768 L 128.214 186.972 L 128.855 186.108 L 129.407 185.187 L 129.866 184.215 L 130.228 183.204 L 130.490 182.161 L 130.647 181.098 L 130.700 180.025 L 130.647 178.952 L 130.490 177.889 L 130.228 176.846 L 129.866 175.835 L 129.407 174.863 L 128.855 173.942 L 128.214 173.078 L 127.493 172.282 L 126.697 171.561 L 125.833 170.920 L 124.912 170.368 L 123.940 169.909 L 122.929 169.547 L 121.886 169.285 L 120.823 169.128 L 119.750 169.075 Z" fill="none" stroke="black" stroke-width="0.35" stroke-linejoin="round" stroke-dasharray="1.6,1.1"/>
<path d="M 112.939 124.038 L 112.727 124.308 L 112.599 124.522 L 112.492 124.747 L 112.408 124.982 L 112.347 125.224 L 112.311 125.470 L 112.299 125.719 L 112.311 125.968 L 112.347 126.215 L 112.408 126.457 L 112.492 126.691 L 112.599 126.917 L 112.727 127.130 L 112.875 127.331 L 113.043 127.515 L 113.227 127.683 L 113.427 127.831 L 113.641 127.959 L 113.867 128.066 L 114.101 128.150 L 114.343 128.211 L 114.590 128.247 L 114.839 128.259 L 115.088 128.247 L 115.334 128.211 L 115.576 128.150 L 115.811 128.066 L 116.036 127.959 L 116.250 127.831 L 116.450 127.683 L 116.635 127.515 L 116.802 127.331 L 116.951 127.130 L 117.079 126.917 L 117.185 126.691 L 117.269 126.457 L 117.330 126.215 L 117.366 125.968 L 117.379 125.719 L 117.366 125.470 L 117.330 125.224 L 117.269 124.982 L 117.185 124.747 L 117.079 124.522 L 116.951 124.308 L 116.802 124.108 L 116.635 123.923 L 116.450 123.756 L 116.250 123.607 L 116.036 123.479 L 115.811 123.373 L 115.576 123.289 L 115.334 123.228 L 115.088 123.192 L 114.839 123.179 L 114.590 123.192 L 114.343 123.228 L 114.101 123.289 L 113.867 123.373 L 113.641 123.479 L 113.427 123.607 L 113.227 123.756 L 112.939 124.038 Z" fill="none" stroke="black" stroke-width="0.35" stroke-linejoin="round" stroke-dasharray="1.6,1.1"/>
<path d="M 106.064 163.836 L 106.064 163.836 L 106.064 163.836 L 106.064 163.836 Z" fill="none" stroke="black" stroke-width="0.35" stroke-linejoin="round" stroke-dasharray="1.6,1.1"/>
<path d="M 108.721 182.219 L 109.089 183.259 L 108.721 182.219 L 108.721 182.219 Z" fill="none" stroke="black" stroke-width="0.35" stroke-linejoin="round" stroke-dasharray="1.6,1.1"/>
<path d="M 115.822 192.903 L 115.822 192.903 L 115.822 192.903 L 115.822 192.903 Z" fill="none" stroke="black" stroke-width="0.35" stroke-linejoin="round" stroke-dasharray="1.6,1.1"/>
<path d="M 114.601 145.682 L 114.601 145.682 L 114.601 145.682 L 114.601 145.682 Z" fill="none" stroke="black" stroke-width="0.35" stroke-linejoin="round" stroke-dasharray="1.6,1.1"/>
<path d="M 113.977 151.023 L 113.977 151.023 L 113.977 151.023 L 113.977 151.023 Z" fill="none" stroke="black" stroke-width="0.35" stroke-linejoin="round" stroke-dasharray="1.6,1.1"/>
<path d="M 112.583 131.282 L 112.583 131.282 L 112.583 131.282 L 112.583 131.282 Z" fill="none" stroke="black" stroke-width="0.35" stroke-linejoin="round" stroke-dasharray="1.6,1.1"/>
<path d="M 114.746 145.793 L 114.746 145.793 L 114.746 145.793 L 114.746 145.793 Z" fill="none" stroke="black" stroke-width="0.35" stroke-linejoin="round" stroke-dasharray="1.6,1.1"/>
<path d="M 115.594 122.187 L 115.594 122.187 L 115.594 122.187 L 115.594 122.187 Z" fill="none" stroke="black" stroke-width="0.35" stroke-linejoin="round" stroke-dasharray="1.6,1.1"/>
<path d="M 119.421 166.653 L 119.421 166.653 L 119.421 166.653 L 119.421 166.653 Z" fill="none" stroke="black" stroke-width="0.35" stroke-linejoin="round" stroke-dasharray="1.6,1.1"/>
<path d="M 119.129 131.501 L 119.129 131.501 L 119.129 131.501 L 119.129 131.501 Z" fill="none" stroke="black" stroke-width="0.35" stroke-linejoin="round" stroke-dasharray="1.6,1.1"/>
<path d="M 129.494 161.777 L 129.494 161.777 L 129.494 161.777 L 129.494 161.777 Z" fill="none" stroke="black" stroke-width="0.35" stroke-linejoin="round" stroke-dasharray="1.6,1.1"/>
<path d="M 126.341 189.890 L 126.138 190.011 L 126.341 189.890 L 126.341 189.890 Z" fill="none" stroke="black" stroke-width="0.35" stroke-linejoin="round" stroke-dasharray="1.6,1.1"/>
<path d="M 133.815 183.896 L 133.815 183.896 L 133.815 183.896 L 133.815 183.896 Z" fill="none" stroke="black" stroke-width="0.35" stroke-linejoin="round" stroke-dasharray="1.6,1.1"/>
<path d="M 88.894 118.458 L 88.700 118.753 L 88.666 118.757 L 88.638 118.738 L 88.629 118.701 L 88.933 117.444 L 88.952 117.416 L 89.020 117.375 L 89.597 117.375 L 89.839 117.399 L 89.960 117.429 L 90.194 117.525 L 90.401 117.663 L 90.573 117.836 L 90.715 118.046 L 90.767 118.156 L 90.840 118.397 L 90.877 118.895 L 90.914 119.142 L 90.975 119.383 L 91.059 119.618 L 91.164 119.841 L 91.292 120.055 L 91.441 120.255 L 91.610 120.442 L 91.795 120.609 L 91.995 120.758 L 92.209 120.886 L 92.434 120.992 L 92.669 121.076 L 92.911 121.136 L 93.157 121.173 L 93.406 121.185 L 116.596 121.185 L 116.845 121.173 L 117.092 121.136 L 117.333 121.075 L 117.568 120.991 L 117.793 120.884 L 118.007 120.756 L 118.205 120.609 L 118.390 120.442 L 118.558 120.257 L 118.706 120.057 L 118.834 119.843 L 118.941 119.618 L 119.025 119.383 L 119.086 119.142 L 119.123 118.895 L 119.160 118.397 L 119.232 118.159 L 119.287 118.043 L 119.410 117.858 L 119.599 117.663 L 119.806 117.525 L 120.036 117.430 L 120.154 117.400 L 120.407 117.375 L 121.011 117.375 L 121.056 117.404 L 121.371 118.716 L 121.338 118.755 L 121.288 118.745 L 121.106 118.458 L 121.082 118.951 L 120.850 120.515 L 120.465 122.054 L 119.931 123.547 L 119.253 124.981 L 118.406 126.385 L 113.633 156.820 L 113.423 157.656 L 113.133 158.470 L 112.761 159.255 L 112.317 159.996 L 111.802 160.689 L 111.222 161.329 L 110.582 161.909 L 109.892 162.421 L 109.151 162.865 L 108.370 163.234 L 107.557 163.526 L 106.720 163.736 L 105.865 163.863 L 105.002 163.905 L 104.140 163.863 L 103.285 163.737 L 102.447 163.527 L 101.634 163.236 L 100.853 162.867 L 100.112 162.423 L 99.418 161.909 L 98.778 161.329 L 98.198 160.689 L 97.683 159.996 L 97.239 159.255 L 96.869 158.474 L 96.578 157.661 L 96.367 156.820 L 91.594 126.385 L 90.749 124.985 L 90.069 123.547 L 89.535 122.054 L 89.151 120.520 L 88.918 118.951 L 88.894 118.458 Z" fill="none" stroke="#333333" stroke-width="0.35" stroke-linejoin="round" stroke-dasharray="2.4,1.4"/>
<path d="M 112.728 124.307 L 112.599 124.521 L 112.493 124.746 L 112.408 124.981 L 112.348 125.223 L 112.311 125.469 L 112.299 125.718 L 112.311 125.967 L 112.347 126.214 L 112.408 126.455 L 112.492 126.690 L 112.598 126.916 L 112.726 127.129 L 112.874 127.330 L 113.042 127.514 L 113.226 127.682 L 113.427 127.831 L 113.640 127.959 L 113.866 128.065 L 114.100 128.150 L 114.342 128.210 L 114.588 128.247 L 114.837 128.259 L 115.086 128.247 L 115.333 128.211 L 115.575 128.150 L 115.809 128.066 L 116.035 127.960 L 116.249 127.832 L 116.449 127.683 L 116.634 127.516 L 116.801 127.332 L 116.950 127.131 L 117.078 126.918 L 117.185 126.692 L 117.269 126.458 L 117.330 126.216 L 117.366 125.969 L 117.379 125.721 L 117.366 125.472 L 117.330 125.225 L 117.270 124.983 L 117.186 124.748 L 117.079 124.523 L 116.951 124.309 L 116.803 124.109 L 116.636 123.924 L 116.451 123.757 L 116.251 123.608 L 116.037 123.480 L 115.812 123.373 L 115.577 123.289 L 115.335 123.228 L 115.089 123.192 L 114.840 123.179 L 114.591 123.191 L 114.344 123.228 L 114.103 123.288 L 113.868 123.372 L 113.642 123.479 L 113.429 123.607 L 113.226 123.757 L 112.940 124.037 L 112.728 124.307 Z" fill="none" stroke="#333333" stroke-width="0.35" stroke-linejoin="round" stroke-dasharray="2.4,1.4"/>
<path d="M 110.059 142.301 L 109.953 142.526 L 109.868 142.761 L 109.808 143.003 L 109.771 143.249 L 109.759 143.498 L 109.771 143.747 L 109.807 143.994 L 109.868 144.235 L 109.952 144.470 L 110.058 144.696 L 110.186 144.909 L 110.334 145.110 L 110.502 145.294 L 110.686 145.462 L 110.887 145.611 L 111.100 145.739 L 111.326 145.845 L 111.560 145.930 L 111.802 145.990 L 112.048 146.027 L 112.297 146.039 L 112.546 146.027 L 112.793 145.991 L 113.035 145.930 L 113.269 145.846 L 113.495 145.740 L 113.709 145.612 L 113.909 145.463 L 114.094 145.296 L 114.261 145.112 L 114.410 144.911 L 114.538 144.698 L 114.645 144.472 L 114.729 144.238 L 114.790 143.996 L 114.826 143.749 L 114.839 143.501 L 114.826 143.252 L 114.790 143.005 L 114.730 142.763 L 114.646 142.528 L 114.539 142.303 L 114.411 142.089 L 114.263 141.889 L 114.096 141.704 L 113.911 141.537 L 113.711 141.388 L 113.497 141.260 L 113.272 141.153 L 113.037 141.069 L 112.795 141.008 L 112.549 140.972 L 112.300 140.959 L 112.051 140.971 L 111.804 141.008 L 111.563 141.068 L 111.328 141.152 L 111.102 141.259 L 110.889 141.387 L 110.688 141.535 L 110.503 141.702 L 110.336 141.887 L 110.187 142.087 L 110.059 142.301 Z" fill="none" stroke="#333333" stroke-width="0.35" stroke-linejoin="round" stroke-dasharray="2.4,1.4"/>
<path d="M 96.091 141.535 L 95.906 141.702 L 95.739 141.887 L 95.590 142.087 L 95.462 142.301 L 95.355 142.526 L 95.271 142.761 L 95.210 143.003 L 95.174 143.249 L 95.161 143.498 L 95.174 143.747 L 95.210 143.994 L 95.270 144.235 L 95.354 144.470 L 95.461 144.696 L 95.589 144.909 L 95.737 145.110 L 95.904 145.294 L 96.089 145.462 L 96.289 145.611 L 96.503 145.739 L 96.728 145.845 L 96.963 145.930 L 97.205 145.990 L 97.451 146.027 L 97.700 146.039 L 97.949 146.027 L 98.196 145.991 L 98.437 145.930 L 98.672 145.846 L 98.898 145.740 L 99.111 145.612 L 99.312 145.463 L 99.497 145.296 L 99.664 145.112 L 99.813 144.911 L 99.941 144.698 L 100.047 144.472 L 100.132 144.238 L 100.192 143.996 L 100.229 143.749 L 100.241 143.501 L 100.229 143.252 L 100.193 143.005 L 100.132 142.763 L 100.048 142.528 L 99.942 142.303 L 99.814 142.089 L 99.666 141.889 L 99.498 141.704 L 99.314 141.537 L 99.113 141.388 L 98.900 141.260 L 98.674 141.153 L 98.440 141.069 L 98.198 141.008 L 97.952 140.972 L 97.703 140.959 L 97.454 140.971 L 97.207 141.008 L 96.965 141.068 L 96.731 141.152 L 96.505 141.259 L 96.291 141.387 L 96.091 141.535 Z" fill="none" stroke="#333333" stroke-width="0.35" stroke-linejoin="round" stroke-dasharray="2.4,1.4"/>
<path d="M 94.914 123.191 L 94.667 123.228 L 94.425 123.288 L 94.191 123.372 L 93.965 123.479 L 93.751 123.607 L 93.551 123.755 L 93.366 123.922 L 93.199 124.107 L 93.050 124.307 L 92.922 124.521 L 92.815 124.746 L 92.731 124.981 L 92.670 125.223 L 92.634 125.469 L 92.621 125.718 L 92.634 125.967 L 92.670 126.214 L 92.730 126.455 L 92.814 126.690 L 92.921 126.916 L 93.049 127.129 L 93.197 127.330 L 93.364 127.514 L 93.549 127.682 L 93.749 127.831 L 93.963 127.959 L 94.188 128.065 L 94.423 128.150 L 94.665 128.210 L 94.911 128.247 L 95.160 128.259 L 95.409 128.247 L 95.656 128.211 L 95.897 128.150 L 96.132 128.066 L 96.358 127.960 L 96.571 127.832 L 96.772 127.683 L 96.957 127.516 L 97.124 127.332 L 97.273 127.131 L 97.401 126.918 L 97.507 126.692 L 97.592 126.458 L 97.652 126.216 L 97.689 125.969 L 97.701 125.721 L 97.689 125.472 L 97.653 125.225 L 97.592 124.983 L 97.508 124.748 L 97.402 124.523 L 97.274 124.309 L 97.126 124.109 L 96.958 123.924 L 96.774 123.757 L 96.573 123.608 L 96.360 123.480 L 96.134 123.373 L 95.900 123.289 L 95.658 123.228 L 95.412 123.192 L 95.163 123.179 L 94.914 123.191 Z" fill="none" stroke="#333333" stroke-width="0.35" stroke-linejoin="round" stroke-dasharray="2.4,1.4"/>
<line x1="88.786" y1="179.869" x2="91.586" y2="179.869" stroke="black" stroke-width="0.2"/>
<line x1="90.186" y1="178.469" x2="90.186" y2="181.269" stroke="black" stroke-width="0.2"/>
<line x1="118.350" y1="179.857" x2="121.150" y2="179.857" stroke="black" stroke-width="0.2"/>
<line x1="119.750" y1="178.457" x2="119.750" y2="181.257" stroke="black" stroke-width="0.2"/>
<line x1="110.866" y1="143.478" x2="113.666" y2="143.478" stroke="black" stroke-width="0.2"/>
<line x1="112.266" y1="142.078" x2="112.266" y2="144.878" stroke="black" stroke-width="0.2"/>
<line x1="96.280" y1="143.467" x2="99.080" y2="143.467" stroke="black" stroke-width="0.2"/>
<line x1="97.680" y1="142.067" x2="97.680" y2="144.867" stroke="black" stroke-width="0.2"/>
<line x1="93.761" y1="125.680" x2="96.561" y2="125.680" stroke="black" stroke-width="0.2"/>
<line x1="95.161" y1="124.280" x2="95.161" y2="127.080" stroke="black" stroke-width="0.2"/>
<line x1="113.438" y1="125.720" x2="116.238" y2="125.720" stroke="black" stroke-width="0.2"/>
<line x1="114.838" y1="124.320" x2="114.838" y2="127.120" stroke="black" stroke-width="0.2"/>
<line x1="72.844" y1="117.375" x2="62.844" y2="117.375" stroke="black" stroke-width="0.18"/>
<line x1="72.844" y1="209.625" x2="62.844" y2="209.625" stroke="black" stroke-width="0.18"/>
<line x1="63.844" y1="117.375" x2="63.844" y2="209.625" stroke="black" stroke-width="0.25"/>
<polygon points="63.844,117.375 64.594,119.775 63.094,119.775" fill="black"/>
<polygon points="63.844,209.625 63.094,207.225 64.594,207.225" fill="black"/>
<text x="62.444" y="164.500" font-family="Helvetica, Arial, sans-serif" font-size="3" font-weight="bold" text-anchor="end" fill="black" paint-order="stroke" stroke="white" stroke-width="0.9">92.25</text>
<line x1="72.844" y1="209.625" x2="72.844" y2="218.625" stroke="black" stroke-width="0.18"/>
<line x1="137.147" y1="209.625" x2="137.147" y2="218.625" stroke="black" stroke-width="0.18"/>
<line x1="72.844" y1="217.625" x2="137.147" y2="217.625" stroke="black" stroke-width="0.25"/>
<polygon points="72.844,217.625 75.244,216.875 75.244,218.375" fill="black"/>
<polygon points="137.147,217.625 134.747,218.375 134.747,216.875" fill="black"/>
<text x="104.996" y="221.525" font-family="Helvetica, Arial, sans-serif" font-size="3" font-weight="bold" text-anchor="middle" fill="black" paint-order="stroke" stroke="white" stroke-width="0.9">64.3</text>
<line x1="90.865" y1="117.375" x2="90.865" y2="110.375" stroke="black" stroke-width="0.18"/>
<line x1="119.135" y1="117.375" x2="119.135" y2="110.375" stroke="black" stroke-width="0.18"/>
<line x1="90.865" y1="111.375" x2="119.135" y2="111.375" stroke="black" stroke-width="0.25"/>
<polygon points="90.865,111.375 93.265,110.625 93.265,112.125" fill="black"/>
<polygon points="119.135,111.375 116.735,112.125 116.735,110.625" fill="black"/>
<text x="105.000" y="110.275" font-family="Helvetica, Arial, sans-serif" font-size="3" font-weight="bold" text-anchor="middle" fill="black" paint-order="stroke" stroke="white" stroke-width="0.9">notch 28.27</text>
<line x1="88.350" y1="117.375" x2="88.350" y2="103.875" stroke="black" stroke-width="0.18"/>
<line x1="121.650" y1="117.375" x2="121.650" y2="103.875" stroke="black" stroke-width="0.18"/>
<line x1="88.350" y1="104.875" x2="121.650" y2="104.875" stroke="black" stroke-width="0.25"/>
<polygon points="88.350,104.875 90.750,104.125 90.750,105.625" fill="black"/>
<polygon points="121.650,104.875 119.250,105.625 119.250,104.125" fill="black"/>
<text x="105.000" y="103.775" font-family="Helvetica, Arial, sans-serif" font-size="3" font-weight="bold" text-anchor="middle" fill="black" paint-order="stroke" stroke="white" stroke-width="0.9">pocket 33.3</text>
<line x1="137.147" y1="117.375" x2="146.147" y2="117.375" stroke="black" stroke-width="0.18"/>
<line x1="137.147" y1="163.575" x2="146.147" y2="163.575" stroke="black" stroke-width="0.18"/>
<line x1="145.147" y1="117.375" x2="145.147" y2="163.575" stroke="black" stroke-width="0.25"/>
<polygon points="145.147,117.375 145.897,119.775 144.397,119.775" fill="black"/>
<polygon points="145.147,163.575 144.397,161.175 145.897,161.175" fill="black"/>
<text x="146.547" y="141.475" font-family="Helvetica, Arial, sans-serif" font-size="3" font-weight="bold" text-anchor="start" fill="black" paint-order="stroke" stroke="white" stroke-width="0.9">pocket depth 46.2</text>
<line x1="90.186" y1="179.869" x2="90.186" y2="180.869" stroke="black" stroke-width="0.18"/>
<line x1="119.750" y1="179.869" x2="119.750" y2="180.869" stroke="black" stroke-width="0.18"/>
<line x1="90.186" y1="179.869" x2="119.750" y2="179.869" stroke="black" stroke-width="0.25"/>
<polygon points="90.186,179.869 92.586,179.119 92.586,180.619" fill="black"/>
<polygon points="119.750,179.869 117.350,180.619 117.350,179.119" fill="black"/>
<text x="104.968" y="178.769" font-family="Helvetica, Arial, sans-serif" font-size="3" font-weight="bold" text-anchor="middle" fill="black" paint-order="stroke" stroke="white" stroke-width="0.9">29.5</text>
<line x1="128.137" y1="186.894" x2="135.031" y2="192.679" stroke="black" stroke-width="0.25"/>
<polygon points="128.137,186.894 130.457,187.862 129.493,189.011" fill="black"/>
<line x1="135.031" y1="192.679" x2="141.031" y2="192.679" stroke="black" stroke-width="0.25"/>
<text x="141.831" y="191.779" font-family="Helvetica, Arial, sans-serif" font-size="3" font-weight="bold" text-anchor="start" fill="black" paint-order="stroke" stroke="white" stroke-width="0.9">Ø21.9 (2×)</text>
<line x1="95.161" y1="125.680" x2="95.161" y2="135.579" stroke="black" stroke-width="0.18"/>
<line x1="114.838" y1="125.680" x2="114.838" y2="135.579" stroke="black" stroke-width="0.18"/>
<line x1="95.161" y1="134.579" x2="114.838" y2="134.579" stroke="black" stroke-width="0.25"/>
<polygon points="95.161,134.579 97.561,133.829 97.561,135.329" fill="black"/>
<polygon points="114.838,134.579 112.438,135.329 112.438,133.829" fill="black"/>
<text x="105.000" y="133.479" font-family="Helvetica, Arial, sans-serif" font-size="2.6" font-weight="bold" text-anchor="middle" fill="black" paint-order="stroke" stroke="white" stroke-width="0.9">19.68</text>
<line x1="95.161" y1="125.680" x2="84.161" y2="125.680" stroke="black" stroke-width="0.18"/>
<line x1="95.161" y1="143.478" x2="84.161" y2="143.478" stroke="black" stroke-width="0.18"/>
<line x1="85.161" y1="125.680" x2="85.161" y2="143.478" stroke="black" stroke-width="0.25"/>
<polygon points="85.161,125.680 85.911,128.080 84.411,128.080" fill="black"/>
<polygon points="85.161,143.478 84.411,141.078 85.911,141.078" fill="black"/>
<text x="83.761" y="135.579" font-family="Helvetica, Arial, sans-serif" font-size="2.6" font-weight="bold" text-anchor="end" fill="black" paint-order="stroke" stroke="white" stroke-width="0.9">17.8</text>
<line x1="110.470" y1="145.273" x2="104.814" y2="150.930" stroke="black" stroke-width="0.25"/>
<polygon points="110.470,145.273 109.304,147.501 108.243,146.440" fill="black"/>
<line x1="104.814" y1="150.930" x2="98.814" y2="150.930" stroke="black" stroke-width="0.25"/>
<text x="98.014" y="150.030" font-family="Helvetica, Arial, sans-serif" font-size="2.6" font-weight="bold" text-anchor="end" fill="black" paint-order="stroke" stroke="white" stroke-width="0.9">Ø5.08 (4×)</text>
</svg>
