<svg xmlns="http://www.w3.org/2000/svg" width="210mm" height="279mm" viewBox="0 0 210 279">
<rect x="0" y="0" width="210" height="279" fill="white"/>
<text x="105.000" y="12.000" font-family="Helvetica, Arial, sans-serif" font-size="5" font-weight="bold" text-anchor="middle" fill="black">Plug Puller — Heavy-duty extension cord (NEMA 5-15) · Large</text>
<text x="105.000" y="17.500" font-family="Helvetica, Arial, sans-serif" font-size="2.8" font-weight="normal" text-anchor="middle" fill="black">1:1 outline sheet — print at 100% scale / “Actual size”, never “fit to page”. Check the calibration square before trusting anything.</text>
<rect x="14" y="22" width="50" height="50" fill="none" stroke="black" stroke-width="0.4"/>
<text x="39.000" y="45.500" font-family="Helvetica, Arial, sans-serif" font-size="3.4" font-weight="bold" text-anchor="middle" fill="black">CALIBRATION</text>
<text x="39.000" y="50.500" font-family="Helvetica, Arial, sans-serif" font-size="3.4" font-weight="normal" text-anchor="middle" fill="black">50 × 50 mm</text>
<text x="39.000" y="56.500" font-family="Helvetica, Arial, sans-serif" font-size="2.6" font-weight="normal" text-anchor="middle" fill="#444444">Measure me with a ruler.</text>
<text x="39.000" y="60.500" font-family="Helvetica, Arial, sans-serif" font-size="2.6" font-weight="normal" text-anchor="middle" fill="#444444">Not 50 mm? Re-print at 100%.</text>
<rect x="70" y="22" width="126" height="50" fill="none" stroke="black" stroke-width="0.3"/>
<text x="73.000" y="27.000" font-family="Helvetica, Arial, sans-serif" font-size="3.4" font-weight="bold" text-anchor="start" fill="black">Heavy-duty extension cord</text>
<text x="73.000" y="31.600" font-family="Helvetica, Arial, sans-serif" font-size="2.8" font-weight="normal" text-anchor="start" fill="black">Flat tool · Large hand size</text>
<text x="73.000" y="35.400" font-family="Helvetica, Arial, sans-serif" font-size="2.8" font-weight="normal" text-anchor="start" fill="black">Printed footprint ≈ 83.57 × 98.4 mm</text>
<text x="73.000" y="40.000" font-family="Helvetica, Arial, sans-serif" font-size="2.6" font-weight="normal" text-anchor="start" fill="#333333">Customizer settings for this exact tool:</text>
<text x="73.000" y="43.400" font-family="Helvetica, Arial, sans-serif" font-size="2.6" font-weight="normal" text-anchor="start" fill="#333333">  tool_style = Flat tool</text>
<text x="73.000" y="46.800" font-family="Helvetica, Arial, sans-serif" font-size="2.6" font-weight="normal" text-anchor="start" fill="#333333">  plug_preset =</text>
<text x="73.000" y="50.200" font-family="Helvetica, Arial, sans-serif" font-size="2.6" font-weight="normal" text-anchor="start" fill="#333333">      Heavy-duty extension cord - NEMA 5-15</text>
<text x="73.000" y="53.600" font-family="Helvetica, Arial, sans-serif" font-size="2.6" font-weight="normal" text-anchor="start" fill="#333333">  size = Large</text>
<text x="73.000" y="57.000" font-family="Helvetica, Arial, sans-serif" font-size="2.6" font-weight="normal" text-anchor="start" fill="#333333">  (everything else at its default)</text>
<text x="133.000" y="27.000" font-family="Helvetica, Arial, sans-serif" font-size="2.8" font-weight="bold" text-anchor="start" fill="black">Key dimensions</text>
<text x="133.000" y="31.000" font-family="Helvetica, Arial, sans-serif" font-size="2.6" font-weight="normal" text-anchor="start" fill="black">Body thickness: 7.15 mm (this sheet is 2D)</text>
<text x="133.000" y="34.500" font-family="Helvetica, Arial, sans-serif" font-size="2.6" font-weight="normal" text-anchor="start" fill="black">Finger holes: Ø28.4, 36 apart</text>
<text x="133.000" y="38.000" font-family="Helvetica, Arial, sans-serif" font-size="2.6" font-weight="normal" text-anchor="start" fill="black">Pocket: 32.5 wide × 43.8 deep</text>
<text x="133.000" y="41.500" font-family="Helvetica, Arial, sans-serif" font-size="2.6" font-weight="normal" text-anchor="start" fill="black">Wall notch: 27.47 wide × 3.81 deep</text>
<text x="133.000" y="45.000" font-family="Helvetica, Arial, sans-serif" font-size="2.6" font-weight="normal" text-anchor="start" fill="black">Zip holes: 4 × Ø5.08, rows 17.78 apart</text>
<text x="133.000" y="48.500" font-family="Helvetica, Arial, sans-serif" font-size="2.6" font-weight="normal" text-anchor="start" fill="black">J-hook cord gap: 8.96 mm</text>
<line x1="14.000" y1="248.000" x2="196.000" y2="248.000" stroke="#888888" stroke-width="0.2"/>
<text x="14.000" y="252.500" font-family="Helvetica, Arial, sans-serif" font-size="3.2" font-weight="bold" text-anchor="start" fill="black">How to use this sheet</text>
<text x="14.000" y="256.500" font-family="Helvetica, Arial, sans-serif" font-size="2.7" font-weight="normal" text-anchor="start" fill="black">1. Print at 100% and measure the calibration square — it must be exactly 50 × 50 mm.</text>
<text x="14.000" y="260.100" font-family="Helvetica, Arial, sans-serif" font-size="2.7" font-weight="normal" text-anchor="start" fill="black">2. Cut along the SOLID outline. Dashed lines are holes and the plug pocket — poke through the two big finger circles.</text>
<text x="14.000" y="263.700" font-family="Helvetica, Arial, sans-serif" font-size="2.7" font-weight="normal" text-anchor="start" fill="black">3. Hold the cutout on your plug at the wall: the plug fits the dashed pocket, the top notch straddles the wall plate.</text>
<text x="14.000" y="267.300" font-family="Helvetica, Arial, sans-serif" font-size="2.7" font-weight="normal" text-anchor="start" fill="black">4. Try the finger holes (large size). Wrong size? Try a neighbouring sheet, or print stl/Finger_Sizing_Stencil.stl.</text>
<text x="14.000" y="270.900" font-family="Helvetica, Arial, sans-serif" font-size="2.7" font-weight="normal" text-anchor="start" fill="black">5. Happy? Open the Customizer with the title-block settings and export your STL (docs/guides/quick-start-beginner.md).</text>
<text x="105.000" y="275.500" font-family="Helvetica, Arial, sans-serif" font-size="2.4" font-weight="normal" text-anchor="middle" fill="#444444">openscad-plug-puller v0.8 · outline_heavy-duty-round_large.svg · scale 1:1 · guide: docs/guides/print-preview-outlines.md</text>
<path d="M 63.224 188.500 L 63.397 186.619 L 63.753 184.763 L 69.742 160.152 L 69.957 159.400 L 69.925 159.400 L 84.825 114.300 L 89.995 114.300 L 90.243 114.324 L 90.481 114.397 L 90.701 114.514 L 90.893 114.672 L 91.051 114.864 L 91.115 114.971 L 91.210 115.201 L 91.241 115.322 L 91.277 115.819 L 91.314 116.066 L 91.374 116.307 L 91.458 116.542 L 91.565 116.767 L 91.693 116.981 L 91.842 117.181 L 92.009 117.366 L 92.194 117.533 L 92.394 117.682 L 92.608 117.810 L 92.833 117.917 L 93.068 118.001 L 93.309 118.061 L 93.556 118.098 L 93.805 118.110 L 116.195 118.110 L 116.444 118.098 L 116.691 118.061 L 116.932 118.001 L 117.167 117.917 L 117.392 117.810 L 117.606 117.682 L 117.806 117.533 L 117.991 117.366 L 118.158 117.181 L 118.307 116.981 L 118.435 116.767 L 118.542 116.542 L 118.626 116.307 L 118.686 116.066 L 118.723 115.819 L 118.759 115.322 L 118.811 115.142 L 118.885 114.971 L 118.949 114.864 L 119.107 114.672 L 119.299 114.514 L 119.519 114.397 L 119.757 114.324 L 120.005 114.300 L 125.175 114.300 L 140.075 159.400 L 140.043 159.400 L 140.258 160.152 L 146.247 184.763 L 146.464 185.774 L 146.720 187.646 L 146.792 189.533 L 146.678 191.419 L 146.379 193.284 L 145.900 195.112 L 145.243 196.883 L 144.416 198.581 L 143.426 200.191 L 142.284 201.695 L 141.000 203.080 L 139.586 204.333 L 138.056 205.441 L 136.424 206.394 L 134.707 207.182 L 132.922 207.798 L 131.084 208.237 L 117.931 210.698 L 117.931 203.709 L 117.362 203.140 L 117.356 194.726 L 117.308 194.481 L 117.213 194.251 L 117.074 194.044 L 116.898 193.868 L 116.691 193.730 L 116.579 193.677 L 116.340 193.604 L 116.093 193.580 L 97.720 193.580 L 97.596 193.586 L 97.351 193.635 L 97.121 193.730 L 97.014 193.794 L 96.822 193.952 L 96.738 194.044 L 96.600 194.251 L 96.547 194.364 L 96.505 194.481 L 96.456 194.726 L 96.450 201.870 L 96.474 202.118 L 96.547 202.356 L 96.664 202.576 L 96.822 202.768 L 97.014 202.926 L 97.234 203.043 L 97.472 203.116 L 97.720 203.140 L 106.459 203.140 L 108.969 205.649 L 108.969 212.375 L 108.541 212.455 L 107.104 212.669 L 106.585 212.700 L 103.247 212.700 L 101.459 212.455 L 78.916 208.237 L 77.905 208.019 L 76.094 207.483 L 74.344 206.772 L 72.672 205.893 L 71.094 204.854 L 69.626 203.665 L 68.281 202.338 L 67.073 200.886 L 66.013 199.322 L 65.111 197.662 L 64.376 195.922 L 63.816 194.118 L 63.435 192.268 L 63.237 190.389 L 63.224 188.500 Z" fill="none" stroke="black" stroke-width="0.5" stroke-linejoin="round"/>
<path d="M 114.617 121.835 L 114.511 122.060 L 114.427 122.295 L 114.366 122.537 L 114.330 122.783 L 114.317 123.032 L 114.330 123.281 L 114.366 123.528 L 114.427 123.769 L 114.511 124.004 L 114.617 124.229 L 114.745 124.443 L 114.894 124.643 L 115.061 124.828 L 115.246 124.996 L 115.446 125.144 L 115.660 125.272 L 115.885 125.379 L 116.120 125.463 L 116.362 125.523 L 116.608 125.560 L 116.857 125.572 L 117.106 125.560 L 117.353 125.523 L 117.595 125.463 L 117.829 125.379 L 118.055 125.272 L 118.268 125.144 L 118.469 124.996 L 118.653 124.828 L 118.821 124.643 L 118.969 124.443 L 119.097 124.229 L 119.204 124.004 L 119.288 123.769 L 119.348 123.528 L 119.385 123.281 L 119.397 123.032 L 119.385 122.783 L 119.348 122.537 L 119.288 122.295 L 119.204 122.060 L 119.097 121.835 L 118.969 121.621 L 118.821 121.421 L 118.653 121.236 L 118.469 121.069 L 118.268 120.920 L 118.055 120.792 L 117.829 120.685 L 117.595 120.601 L 117.353 120.541 L 117.106 120.504 L 116.857 120.492 L 116.608 120.504 L 116.362 120.541 L 116.120 120.601 L 115.885 120.685 L 115.660 120.792 L 115.446 120.920 L 115.246 121.069 L 115.061 121.236 L 114.894 121.421 L 114.745 121.621 L 114.617 121.835 Z" fill="none" stroke="black" stroke-width="0.35" stroke-linejoin="round" stroke-dasharray="1.6,1.1"/>
<path d="M 114.655 138.700 L 114.454 138.849 L 114.270 139.016 L 114.102 139.201 L 113.954 139.401 L 113.826 139.615 L 113.719 139.840 L 113.635 140.075 L 113.575 140.317 L 113.538 140.563 L 113.526 140.812 L 113.538 141.061 L 113.575 141.308 L 113.635 141.549 L 113.719 141.784 L 113.826 142.009 L 113.954 142.223 L 114.102 142.423 L 114.270 142.608 L 114.454 142.776 L 114.655 142.924 L 114.868 143.052 L 115.094 143.159 L 115.328 143.243 L 115.570 143.303 L 115.817 143.340 L 116.066 143.352 L 116.315 143.340 L 116.561 143.303 L 116.803 143.243 L 117.038 143.159 L 117.263 143.052 L 117.477 142.924 L 117.677 142.776 L 117.862 142.608 L 118.029 142.423 L 118.178 142.223 L 118.306 142.009 L 118.412 141.784 L 118.496 141.549 L 118.557 141.308 L 118.593 141.061 L 118.606 140.812 L 118.593 140.563 L 118.557 140.317 L 118.496 140.075 L 118.412 139.840 L 118.306 139.615 L 118.178 139.401 L 118.029 139.201 L 117.862 139.016 L 117.677 138.849 L 117.477 138.700 L 117.263 138.572 L 117.038 138.465 L 116.803 138.381 L 116.561 138.321 L 116.315 138.284 L 116.066 138.272 L 115.817 138.284 L 115.570 138.321 L 115.328 138.381 L 115.094 138.465 L 114.868 138.572 L 114.655 138.700 Z" fill="none" stroke="black" stroke-width="0.35" stroke-linejoin="round" stroke-dasharray="1.6,1.1"/>
<path d="M 117.001 155.646 L 116.902 155.922 L 116.859 156.213 L 116.857 157.647 L 116.886 157.940 L 116.922 158.083 L 117.034 158.354 L 117.198 158.599 L 117.297 158.708 L 117.406 158.807 L 117.650 158.970 L 117.922 159.083 L 118.210 159.140 L 118.504 159.140 L 118.722 159.102 L 119.254 158.969 L 121.118 158.692 L 123.000 158.600 L 124.882 158.692 L 126.746 158.969 L 128.573 159.427 L 130.348 160.062 L 132.051 160.867 L 133.677 161.833 L 133.954 161.932 L 134.098 161.961 L 134.392 161.975 L 134.682 161.932 L 134.959 161.833 L 135.212 161.682 L 135.429 161.485 L 135.523 161.371 L 135.674 161.119 L 135.773 160.842 L 135.802 160.697 L 135.816 160.404 L 135.773 160.113 L 135.713 159.903 L 125.505 129.006 L 125.386 128.737 L 125.307 128.613 L 125.115 128.390 L 124.883 128.209 L 124.755 128.137 L 124.481 128.031 L 124.191 127.981 L 123.897 127.988 L 123.610 128.052 L 123.341 128.171 L 123.101 128.341 L 122.994 128.442 L 122.813 128.674 L 122.681 128.937 L 122.603 129.220 L 122.583 129.396 L 122.120 138.147 L 122.162 138.438 L 122.324 138.914 L 122.480 139.536 L 122.574 140.171 L 122.606 140.812 L 122.574 141.453 L 122.480 142.088 L 122.324 142.711 L 122.108 143.315 L 121.927 143.697 L 121.828 143.974 L 121.785 144.258 L 121.721 145.453 L 121.480 147.078 L 121.079 148.678 L 120.524 150.230 L 119.819 151.721 L 118.971 153.135 L 117.989 154.460 L 117.246 155.280 L 117.071 155.516 L 117.001 155.646 Z" fill="none" stroke="black" stroke-width="0.35" stroke-linejoin="round" stroke-dasharray="1.6,1.1"/>
<path d="M 105.119 161.213 L 105.119 161.213 L 105.119 161.213 L 105.119 161.213 Z" fill="none" stroke="black" stroke-width="0.35" stroke-linejoin="round" stroke-dasharray="1.6,1.1"/>
<path d="M 86.026 123.897 L 86.026 123.897 L 86.026 123.897 L 86.026 123.897 Z" fill="none" stroke="black" stroke-width="0.35" stroke-linejoin="round" stroke-dasharray="1.6,1.1"/>
<path d="M 86.277 128.020 L 85.986 127.978 L 85.693 127.994 L 85.408 128.066 L 85.142 128.193 L 84.907 128.370 L 84.711 128.588 L 84.561 128.841 L 84.505 128.978 L 74.287 159.903 L 74.206 160.208 L 74.182 160.501 L 74.216 160.793 L 74.305 161.073 L 74.448 161.330 L 74.638 161.554 L 74.749 161.651 L 74.996 161.811 L 75.269 161.919 L 75.558 161.972 L 75.705 161.977 L 75.852 161.967 L 76.140 161.906 L 76.410 161.789 L 77.949 160.867 L 79.652 160.062 L 81.427 159.427 L 83.254 158.969 L 85.118 158.692 L 87.000 158.600 L 88.882 158.692 L 90.746 158.969 L 91.423 159.131 L 91.716 159.145 L 91.863 159.131 L 92.148 159.060 L 92.414 158.934 L 92.536 158.852 L 92.650 158.759 L 92.848 158.541 L 92.999 158.289 L 93.055 158.153 L 93.126 157.867 L 93.141 157.721 L 93.143 156.287 L 93.114 155.994 L 93.029 155.713 L 92.966 155.580 L 92.802 155.335 L 92.011 154.460 L 91.029 153.135 L 90.181 151.721 L 89.476 150.230 L 88.921 148.678 L 88.520 147.078 L 88.279 145.453 L 88.200 144.111 L 88.127 143.826 L 87.892 143.315 L 87.676 142.711 L 87.520 142.088 L 87.426 141.453 L 87.394 140.812 L 87.426 140.171 L 87.520 139.536 L 87.676 138.914 L 87.836 138.445 L 87.879 138.154 L 87.879 138.007 L 87.402 129.250 L 87.373 129.105 L 87.272 128.829 L 87.202 128.700 L 87.026 128.464 L 86.922 128.361 L 86.685 128.186 L 86.418 128.062 L 86.277 128.020 Z" fill="none" stroke="black" stroke-width="0.35" stroke-linejoin="round" stroke-dasharray="1.6,1.1"/>
<path d="M 84.230 163.873 L 82.878 164.211 L 81.566 164.681 L 80.306 165.277 L 79.111 165.993 L 77.992 166.823 L 76.959 167.759 L 76.023 168.792 L 75.193 169.911 L 74.477 171.106 L 73.881 172.366 L 73.411 173.678 L 73.073 175.030 L 72.868 176.408 L 72.800 177.800 L 72.868 179.192 L 73.073 180.570 L 73.411 181.922 L 73.881 183.234 L 74.477 184.494 L 75.193 185.689 L 76.023 186.808 L 76.959 187.841 L 77.992 188.777 L 79.111 189.607 L 80.306 190.323 L 81.566 190.919 L 82.878 191.389 L 84.230 191.727 L 85.608 191.932 L 87.000 192.000 L 88.392 191.932 L 89.770 191.727 L 91.122 191.389 L 92.434 190.919 L 93.694 190.323 L 94.889 189.607 L 96.008 188.777 L 97.041 187.841 L 97.977 186.808 L 98.807 185.689 L 99.523 184.494 L 100.119 183.234 L 100.589 181.922 L 100.927 180.570 L 101.132 179.192 L 101.200 177.800 L 101.132 176.408 L 100.927 175.030 L 100.589 173.678 L 100.119 172.366 L 99.523 171.106 L 98.807 169.911 L 97.977 168.792 L 97.041 167.759 L 96.008 166.823 L 94.889 165.993 L 93.694 165.277 L 92.434 164.681 L 91.122 164.211 L 89.770 163.873 L 88.392 163.668 L 87.000 163.600 L 85.608 163.668 L 84.230 163.873 Z" fill="none" stroke="black" stroke-width="0.35" stroke-linejoin="round" stroke-dasharray="1.6,1.1"/>
<path d="M 69.818 160.176 L 69.818 160.176 L 69.818 160.176 L 69.818 160.176 Z" fill="none" stroke="black" stroke-width="0.35" stroke-linejoin="round" stroke-dasharray="1.6,1.1"/>
<path d="M 74.268 170.032 L 73.964 170.538 L 74.584 169.504 L 74.268 170.032 Z" fill="none" stroke="black" stroke-width="0.35" stroke-linejoin="round" stroke-dasharray="1.6,1.1"/>
<path d="M 74.057 150.829 L 74.057 150.829 L 74.057 150.829 L 74.057 150.829 Z" fill="none" stroke="black" stroke-width="0.35" stroke-linejoin="round" stroke-dasharray="1.6,1.1"/>
<path d="M 75.505 186.499 L 74.948 185.853 L 74.948 185.853 L 75.505 186.499 Z" fill="none" stroke="black" stroke-width="0.35" stroke-linejoin="round" stroke-dasharray="1.6,1.1"/>
<path d="M 94.115 120.685 L 93.880 120.601 L 93.638 120.541 L 93.392 120.504 L 93.143 120.492 L 92.894 120.504 L 92.647 120.541 L 92.405 120.601 L 92.171 120.685 L 91.945 120.792 L 91.732 120.920 L 91.531 121.069 L 91.347 121.236 L 91.179 121.421 L 91.031 121.621 L 90.903 121.835 L 90.796 122.060 L 90.712 122.295 L 90.652 122.537 L 90.615 122.783 L 90.603 123.032 L 90.615 123.281 L 90.652 123.528 L 90.712 123.769 L 90.796 124.004 L 90.903 124.229 L 91.031 124.443 L 91.179 124.643 L 91.347 124.828 L 91.531 124.996 L 91.732 125.144 L 91.945 125.272 L 92.171 125.379 L 92.405 125.463 L 92.647 125.523 L 92.894 125.560 L 93.143 125.572 L 93.392 125.560 L 93.638 125.523 L 93.880 125.463 L 94.115 125.379 L 94.340 125.272 L 94.554 125.144 L 94.754 124.996 L 94.939 124.828 L 95.106 124.643 L 95.255 124.443 L 95.383 124.229 L 95.489 124.004 L 95.573 123.769 L 95.634 123.528 L 95.670 123.281 L 95.683 123.032 L 95.670 122.783 L 95.634 122.537 L 95.573 122.295 L 95.489 122.060 L 95.383 121.835 L 95.255 121.621 L 95.106 121.421 L 94.939 121.236 L 94.754 121.069 L 94.554 120.920 L 94.340 120.792 L 94.115 120.685 Z" fill="none" stroke="black" stroke-width="0.35" stroke-linejoin="round" stroke-dasharray="1.6,1.1"/>
<path d="M 93.934 138.272 L 93.685 138.284 L 93.439 138.321 L 93.197 138.381 L 92.962 138.465 L 92.737 138.572 L 92.523 138.700 L 92.323 138.849 L 92.138 139.016 L 91.971 139.201 L 91.822 139.401 L 91.694 139.615 L 91.588 139.840 L 91.504 140.075 L 91.443 140.317 L 91.407 140.563 L 91.394 140.812 L 91.407 141.061 L 91.443 141.308 L 91.504 141.549 L 91.588 141.784 L 91.694 142.009 L 91.822 142.223 L 91.971 142.423 L 92.138 142.608 L 92.323 142.776 L 92.523 142.924 L 92.737 143.052 L 92.962 143.159 L 93.197 143.243 L 93.439 143.303 L 93.685 143.340 L 93.934 143.352 L 94.183 143.340 L 94.430 143.303 L 94.672 143.243 L 94.906 143.159 L 95.132 143.052 L 95.345 142.924 L 95.546 142.776 L 95.730 142.608 L 95.898 142.423 L 96.046 142.223 L 96.174 142.009 L 96.281 141.784 L 96.365 141.549 L 96.425 141.308 L 96.462 141.061 L 96.474 140.812 L 96.462 140.563 L 96.425 140.317 L 96.365 140.075 L 96.281 139.840 L 96.174 139.615 L 96.046 139.401 L 95.898 139.201 L 95.730 139.016 L 95.546 138.849 L 95.345 138.700 L 95.132 138.572 L 94.906 138.465 L 94.672 138.381 L 94.430 138.321 L 94.183 138.284 L 93.934 138.272 Z" fill="none" stroke="black" stroke-width="0.35" stroke-linejoin="round" stroke-dasharray="1.6,1.1"/>
<path d="M 95.718 161.642 L 95.718 161.642 L 95.718 161.642 L 95.718 161.642 Z" fill="none" stroke="black" stroke-width="0.35" stroke-linejoin="round" stroke-dasharray="1.6,1.1"/>
<path d="M 90.640 126.855 L 90.640 126.855 L 90.640 126.855 L 90.640 126.855 Z" fill="none" stroke="black" stroke-width="0.35" stroke-linejoin="round" stroke-dasharray="1.6,1.1"/>
<path d="M 88.954 124.966 L 88.954 124.966 L 88.954 124.966 L 88.954 124.966 Z" fill="none" stroke="black" stroke-width="0.35" stroke-linejoin="round" stroke-dasharray="1.6,1.1"/>
<path d="M 88.983 125.397 L 88.983 125.397 L 88.983 125.397 L 88.983 125.397 Z" fill="none" stroke="black" stroke-width="0.35" stroke-linejoin="round" stroke-dasharray="1.6,1.1"/>
<path d="M 89.228 144.887 L 89.228 144.887 L 89.228 144.887 L 89.228 144.887 Z" fill="none" stroke="black" stroke-width="0.35" stroke-linejoin="round" stroke-dasharray="1.6,1.1"/>
<path d="M 89.293 144.848 L 89.293 144.848 L 89.293 144.848 L 89.293 144.848 Z" fill="none" stroke="black" stroke-width="0.35" stroke-linejoin="round" stroke-dasharray="1.6,1.1"/>
<path d="M 93.072 119.264 L 93.072 119.264 L 93.072 119.264 L 93.072 119.264 Z" fill="none" stroke="black" stroke-width="0.35" stroke-linejoin="round" stroke-dasharray="1.6,1.1"/>
<path d="M 88.589 193.934 L 90.163 193.701 L 90.163 193.701 L 88.589 193.934 Z" fill="none" stroke="black" stroke-width="0.35" stroke-linejoin="round" stroke-dasharray="1.6,1.1"/>
<path d="M 92.452 190.963 L 91.136 191.435 L 92.452 190.963 L 92.452 190.963 Z" fill="none" stroke="black" stroke-width="0.35" stroke-linejoin="round" stroke-dasharray="1.6,1.1"/>
<path d="M 97.252 167.921 L 98.014 168.761 L 98.014 168.761 L 97.252 167.921 Z" fill="none" stroke="black" stroke-width="0.35" stroke-linejoin="round" stroke-dasharray="1.6,1.1"/>
<path d="M 102.377 164.601 L 102.377 164.601 L 102.377 164.601 L 102.377 164.601 Z" fill="none" stroke="black" stroke-width="0.35" stroke-linejoin="round" stroke-dasharray="1.6,1.1"/>
<path d="M 102.280 168.323 L 102.280 168.323 L 102.280 168.323 L 102.280 168.323 Z" fill="none" stroke="black" stroke-width="0.35" stroke-linejoin="round" stroke-dasharray="1.6,1.1"/>
<path d="M 102.172 164.614 L 102.172 164.614 L 102.172 164.614 L 102.172 164.614 Z" fill="none" stroke="black" stroke-width="0.35" stroke-linejoin="round" stroke-dasharray="1.6,1.1"/>
<path d="M 102.518 164.593 L 102.518 164.593 L 102.518 164.593 L 102.518 164.593 Z" fill="none" stroke="black" stroke-width="0.35" stroke-linejoin="round" stroke-dasharray="1.6,1.1"/>
<path d="M 103.105 149.628 L 103.105 149.628 L 103.105 149.628 L 103.105 149.628 Z" fill="none" stroke="black" stroke-width="0.35" stroke-linejoin="round" stroke-dasharray="1.6,1.1"/>
<path d="M 105.139 123.283 L 105.139 123.283 L 105.139 123.283 L 105.139 123.283 Z" fill="none" stroke="black" stroke-width="0.35" stroke-linejoin="round" stroke-dasharray="1.6,1.1"/>
<path d="M 124.392 163.668 L 123.000 163.600 L 121.608 163.668 L 120.230 163.873 L 118.878 164.211 L 117.566 164.681 L 116.306 165.277 L 115.111 165.993 L 113.992 166.823 L 112.959 167.759 L 112.023 168.792 L 111.193 169.911 L 110.477 171.106 L 109.881 172.366 L 109.411 173.678 L 109.073 175.030 L 108.868 176.408 L 108.800 177.800 L 108.868 179.192 L 109.073 180.570 L 109.411 181.922 L 109.881 183.234 L 110.477 184.494 L 111.193 185.689 L 112.023 186.808 L 112.959 187.841 L 113.992 188.777 L 115.111 189.607 L 116.306 190.323 L 117.566 190.919 L 118.878 191.389 L 120.230 191.727 L 121.608 191.932 L 123.000 192.000 L 124.392 191.932 L 125.770 191.727 L 127.122 191.389 L 128.434 190.919 L 129.694 190.323 L 130.889 189.607 L 132.008 188.777 L 133.041 187.841 L 133.977 186.808 L 134.807 185.689 L 135.523 184.494 L 136.119 183.234 L 136.589 181.922 L 136.927 180.570 L 137.132 179.192 L 137.200 177.800 L 137.132 176.408 L 136.927 175.030 L 136.589 173.678 L 136.119 172.366 L 135.523 171.106 L 134.807 169.911 L 133.977 168.792 L 133.041 167.759 L 132.008 166.823 L 130.889 165.993 L 129.694 165.277 L 128.434 164.681 L 127.122 164.211 L 125.770 163.873 L 124.392 163.668 Z" fill="none" stroke="black" stroke-width="0.35" stroke-linejoin="round" stroke-dasharray="1.6,1.1"/>
<path d="M 109.386 161.018 L 109.386 161.018 L 109.386 161.018 L 109.386 161.018 Z" fill="none" stroke="black" stroke-width="0.35" stroke-linejoin="round" stroke-dasharray="1.6,1.1"/>
<path d="M 107.512 185.920 L 107.512 185.920 L 107.512 185.920 L 107.512 185.920 Z" fill="none" stroke="black" stroke-width="0.35" stroke-linejoin="round" stroke-dasharray="1.6,1.1"/>
<path d="M 121.162 128.195 L 121.162 128.195 L 121.162 128.195 L 121.162 128.195 Z" fill="none" stroke="black" stroke-width="0.35" stroke-linejoin="round" stroke-dasharray="1.6,1.1"/>
<path d="M 122.575 129.412 L 122.575 129.412 L 122.575 129.412 L 122.575 129.412 Z" fill="none" stroke="black" stroke-width="0.35" stroke-linejoin="round" stroke-dasharray="1.6,1.1"/>
<path d="M 118.509 139.283 L 118.509 139.283 L 118.509 139.283 L 118.509 139.283 Z" fill="none" stroke="black" stroke-width="0.35" stroke-linejoin="round" stroke-dasharray="1.6,1.1"/>
<path d="M 119.498 116.861 L 119.498 116.861 L 119.498 116.861 L 119.498 116.861 Z" fill="none" stroke="black" stroke-width="0.35" stroke-linejoin="round" stroke-dasharray="1.6,1.1"/>
<path d="M 119.121 136.451 L 119.121 136.451 L 119.121 136.451 L 119.121 136.451 Z" fill="none" stroke="black" stroke-width="0.35" stroke-linejoin="round" stroke-dasharray="1.6,1.1"/>
<path d="M 119.151 138.871 L 119.151 138.871 L 119.151 138.871 L 119.151 138.871 Z" fill="none" stroke="black" stroke-width="0.35" stroke-linejoin="round" stroke-dasharray="1.6,1.1"/>
<path d="M 119.438 141.340 L 119.438 141.340 L 119.438 141.340 L 119.438 141.340 Z" fill="none" stroke="black" stroke-width="0.35" stroke-linejoin="round" stroke-dasharray="1.6,1.1"/>
<path d="M 119.863 133.427 L 119.863 133.427 L 119.863 133.427 L 119.863 133.427 Z" fill="none" stroke="black" stroke-width="0.35" stroke-linejoin="round" stroke-dasharray="1.6,1.1"/>
<path d="M 119.308 134.250 L 119.308 134.250 L 119.308 134.250 L 119.308 134.250 Z" fill="none" stroke="black" stroke-width="0.35" stroke-linejoin="round" stroke-dasharray="1.6,1.1"/>
<path d="M 120.785 141.859 L 120.785 141.859 L 120.785 141.859 L 120.785 141.859 Z" fill="none" stroke="black" stroke-width="0.35" stroke-linejoin="round" stroke-dasharray="1.6,1.1"/>
<path d="M 120.466 141.816 L 120.466 141.816 L 120.466 141.816 L 120.466 141.816 Z" fill="none" stroke="black" stroke-width="0.35" stroke-linejoin="round" stroke-dasharray="1.6,1.1"/>
<path d="M 121.266 141.406 L 121.266 141.406 L 121.266 141.406 L 121.266 141.406 Z" fill="none" stroke="black" stroke-width="0.35" stroke-linejoin="round" stroke-dasharray="1.6,1.1"/>
<path d="M 120.852 141.391 L 120.852 141.391 L 120.852 141.391 L 120.852 141.391 Z" fill="none" stroke="black" stroke-width="0.35" stroke-linejoin="round" stroke-dasharray="1.6,1.1"/>
<path d="M 121.060 115.906 L 121.060 115.906 L 121.060 115.906 L 121.060 115.906 Z" fill="none" stroke="black" stroke-width="0.35" stroke-linejoin="round" stroke-dasharray="1.6,1.1"/>
<path d="M 122.320 126.342 L 122.320 126.342 L 122.320 126.342 L 122.320 126.342 Z" fill="none" stroke="black" stroke-width="0.35" stroke-linejoin="round" stroke-dasharray="1.6,1.1"/>
<path d="M 121.169 128.066 L 121.169 128.066 L 121.169 128.066 L 121.169 128.066 Z" fill="none" stroke="black" stroke-width="0.35" stroke-linejoin="round" stroke-dasharray="1.6,1.1"/>
<path d="M 120.509 127.535 L 120.509 127.535 L 120.509 127.535 L 120.509 127.535 Z" fill="none" stroke="black" stroke-width="0.35" stroke-linejoin="round" stroke-dasharray="1.6,1.1"/>
<path d="M 122.914 114.310 L 122.914 114.310 L 122.914 114.310 L 122.914 114.310 Z" fill="none" stroke="black" stroke-width="0.35" stroke-linejoin="round" stroke-dasharray="1.6,1.1"/>
<path d="M 145.162 183.148 L 145.162 183.148 L 145.162 183.148 L 145.162 183.148 Z" fill="none" stroke="black" stroke-width="0.35" stroke-linejoin="round" stroke-dasharray="1.6,1.1"/>
<path d="M 88.783 114.353 L 88.798 114.314 L 88.833 114.300 L 89.997 114.300 L 90.243 114.325 L 90.476 114.395 L 90.704 114.517 L 90.896 114.676 L 91.049 114.862 L 91.116 114.975 L 91.210 115.201 L 91.240 115.322 L 91.277 115.820 L 91.314 116.067 L 91.375 116.308 L 91.459 116.543 L 91.564 116.766 L 91.692 116.980 L 91.841 117.180 L 92.008 117.365 L 92.193 117.533 L 92.393 117.681 L 92.607 117.809 L 92.832 117.916 L 93.067 118.000 L 93.308 118.061 L 93.555 118.098 L 93.806 118.110 L 116.194 118.110 L 116.445 118.098 L 116.692 118.061 L 116.933 118.000 L 117.168 117.916 L 117.393 117.809 L 117.607 117.681 L 117.805 117.534 L 117.990 117.367 L 118.158 117.182 L 118.306 116.982 L 118.434 116.768 L 118.541 116.543 L 118.625 116.308 L 118.686 116.067 L 118.723 115.820 L 118.760 115.322 L 118.812 115.139 L 118.951 114.862 L 119.107 114.672 L 119.296 114.517 L 119.519 114.397 L 119.762 114.324 L 120.007 114.300 L 121.167 114.300 L 121.210 114.325 L 121.136 115.866 L 121.107 115.909 L 121.131 115.954 L 119.560 145.232 L 119.349 146.657 L 119.000 148.049 L 118.516 149.401 L 117.902 150.699 L 117.166 151.926 L 116.311 153.079 L 115.347 154.143 L 114.283 155.108 L 113.130 155.963 L 111.899 156.702 L 110.601 157.316 L 109.249 157.800 L 107.857 158.149 L 106.436 158.360 L 105.002 158.430 L 103.568 158.360 L 102.148 158.150 L 100.755 157.801 L 99.404 157.318 L 98.105 156.704 L 96.874 155.966 L 95.721 155.111 L 94.657 154.147 L 93.692 153.083 L 92.837 151.930 L 92.098 150.699 L 91.484 149.401 L 91.000 148.049 L 90.651 146.657 L 90.440 145.232 L 88.783 114.353 Z" fill="none" stroke="#333333" stroke-width="0.35" stroke-linejoin="round" stroke-dasharray="2.4,1.4"/>
<path d="M 114.511 122.059 L 114.427 122.294 L 114.366 122.535 L 114.330 122.782 L 114.317 123.031 L 114.329 123.280 L 114.366 123.526 L 114.426 123.768 L 114.510 124.003 L 114.617 124.228 L 114.745 124.442 L 114.893 124.642 L 115.060 124.827 L 115.245 124.995 L 115.445 125.143 L 115.659 125.272 L 115.884 125.378 L 116.119 125.462 L 116.361 125.523 L 116.607 125.560 L 116.856 125.572 L 117.105 125.560 L 117.352 125.523 L 117.593 125.463 L 117.828 125.379 L 118.054 125.273 L 118.267 125.145 L 118.468 124.996 L 118.652 124.829 L 118.820 124.644 L 118.968 124.444 L 119.097 124.230 L 119.203 124.005 L 119.287 123.771 L 119.348 123.529 L 119.385 123.282 L 119.397 123.033 L 119.385 122.784 L 119.349 122.538 L 119.288 122.296 L 119.204 122.061 L 119.098 121.836 L 118.970 121.622 L 118.821 121.422 L 118.654 121.237 L 118.470 121.069 L 118.269 120.921 L 118.056 120.793 L 117.830 120.686 L 117.596 120.602 L 117.354 120.541 L 117.107 120.505 L 116.859 120.492 L 116.610 120.504 L 116.363 120.541 L 116.121 120.601 L 115.886 120.685 L 115.661 120.791 L 115.447 120.920 L 115.247 121.068 L 115.062 121.235 L 114.895 121.420 L 114.746 121.620 L 114.618 121.834 L 114.511 122.059 Z" fill="none" stroke="#333333" stroke-width="0.35" stroke-linejoin="round" stroke-dasharray="2.4,1.4"/>
<path d="M 114.455 138.848 L 114.271 139.015 L 114.103 139.200 L 113.955 139.400 L 113.826 139.614 L 113.720 139.839 L 113.635 140.074 L 113.575 140.315 L 113.538 140.562 L 113.526 140.811 L 113.538 141.060 L 113.574 141.306 L 113.635 141.548 L 113.719 141.783 L 113.825 142.008 L 113.953 142.222 L 114.102 142.422 L 114.269 142.607 L 114.453 142.775 L 114.654 142.923 L 114.867 143.052 L 115.093 143.158 L 115.327 143.242 L 115.569 143.303 L 115.816 143.340 L 116.064 143.352 L 116.313 143.340 L 116.560 143.303 L 116.802 143.243 L 117.037 143.159 L 117.262 143.053 L 117.476 142.925 L 117.676 142.776 L 117.861 142.609 L 118.028 142.424 L 118.177 142.224 L 118.305 142.010 L 118.412 141.785 L 118.496 141.551 L 118.557 141.309 L 118.593 141.062 L 118.606 140.813 L 118.594 140.564 L 118.557 140.318 L 118.497 140.076 L 118.413 139.841 L 118.306 139.616 L 118.178 139.402 L 118.030 139.202 L 117.863 139.017 L 117.678 138.849 L 117.478 138.701 L 117.264 138.573 L 117.039 138.466 L 116.804 138.382 L 116.562 138.321 L 116.316 138.285 L 116.067 138.272 L 115.818 138.284 L 115.571 138.321 L 115.330 138.381 L 115.095 138.465 L 114.869 138.571 L 114.656 138.700 L 114.455 138.848 Z" fill="none" stroke="#333333" stroke-width="0.35" stroke-linejoin="round" stroke-dasharray="2.4,1.4"/>
<path d="M 93.687 138.284 L 93.440 138.321 L 93.198 138.381 L 92.963 138.465 L 92.738 138.571 L 92.524 138.700 L 92.324 138.848 L 92.139 139.015 L 91.972 139.200 L 91.823 139.400 L 91.695 139.614 L 91.588 139.839 L 91.504 140.074 L 91.443 140.315 L 91.407 140.562 L 91.394 140.811 L 91.406 141.060 L 91.443 141.306 L 91.503 141.548 L 91.587 141.783 L 91.694 142.008 L 91.822 142.222 L 91.970 142.422 L 92.137 142.607 L 92.322 142.775 L 92.522 142.923 L 92.736 143.052 L 92.961 143.158 L 93.196 143.242 L 93.438 143.303 L 93.684 143.340 L 93.933 143.352 L 94.182 143.340 L 94.429 143.303 L 94.670 143.243 L 94.905 143.159 L 95.131 143.053 L 95.344 142.925 L 95.545 142.776 L 95.729 142.609 L 95.897 142.424 L 96.045 142.224 L 96.174 142.010 L 96.280 141.785 L 96.365 141.551 L 96.425 141.309 L 96.462 141.062 L 96.474 140.813 L 96.462 140.564 L 96.426 140.318 L 96.365 140.076 L 96.281 139.841 L 96.175 139.616 L 96.047 139.402 L 95.898 139.202 L 95.731 139.017 L 95.547 138.849 L 95.346 138.701 L 95.133 138.573 L 94.907 138.466 L 94.673 138.382 L 94.431 138.321 L 94.184 138.285 L 93.936 138.272 L 93.687 138.284 Z" fill="none" stroke="#333333" stroke-width="0.35" stroke-linejoin="round" stroke-dasharray="2.4,1.4"/>
<path d="M 93.881 120.602 L 93.639 120.541 L 93.393 120.505 L 93.144 120.492 L 92.895 120.504 L 92.648 120.541 L 92.407 120.601 L 92.172 120.685 L 91.946 120.791 L 91.733 120.920 L 91.532 121.068 L 91.348 121.235 L 91.180 121.420 L 91.032 121.620 L 90.903 121.834 L 90.797 122.059 L 90.713 122.294 L 90.652 122.535 L 90.615 122.782 L 90.603 123.031 L 90.615 123.280 L 90.651 123.526 L 90.712 123.768 L 90.796 124.003 L 90.902 124.228 L 91.030 124.442 L 91.179 124.642 L 91.346 124.827 L 91.530 124.995 L 91.731 125.143 L 91.944 125.272 L 92.170 125.378 L 92.404 125.462 L 92.646 125.523 L 92.893 125.560 L 93.141 125.572 L 93.390 125.560 L 93.637 125.523 L 93.879 125.463 L 94.114 125.379 L 94.339 125.273 L 94.553 125.145 L 94.753 124.996 L 94.938 124.829 L 95.105 124.644 L 95.254 124.444 L 95.382 124.230 L 95.489 124.005 L 95.573 123.771 L 95.634 123.529 L 95.670 123.282 L 95.683 123.033 L 95.671 122.784 L 95.634 122.538 L 95.574 122.296 L 95.490 122.061 L 95.383 121.836 L 95.255 121.622 L 95.107 121.422 L 94.940 121.237 L 94.755 121.069 L 94.555 120.921 L 94.341 120.793 L 94.116 120.686 L 93.881 120.602 Z" fill="none" stroke="#333333" stroke-width="0.35" stroke-linejoin="round" stroke-dasharray="2.4,1.4"/>
<line x1="85.557" y1="177.586" x2="88.357" y2="177.586" stroke="black" stroke-width="0.2"/>
<line x1="86.957" y1="176.186" x2="86.957" y2="178.986" stroke="black" stroke-width="0.2"/>
<line x1="121.621" y1="177.583" x2="124.421" y2="177.583" stroke="black" stroke-width="0.2"/>
<line x1="123.021" y1="176.183" x2="123.021" y2="178.983" stroke="black" stroke-width="0.2"/>
<line x1="92.534" y1="140.773" x2="95.334" y2="140.773" stroke="black" stroke-width="0.2"/>
<line x1="93.934" y1="139.373" x2="93.934" y2="142.173" stroke="black" stroke-width="0.2"/>
<line x1="114.644" y1="140.780" x2="117.444" y2="140.780" stroke="black" stroke-width="0.2"/>
<line x1="116.044" y1="139.380" x2="116.044" y2="142.180" stroke="black" stroke-width="0.2"/>
<line x1="91.758" y1="122.996" x2="94.558" y2="122.996" stroke="black" stroke-width="0.2"/>
<line x1="93.158" y1="121.596" x2="93.158" y2="124.396" stroke="black" stroke-width="0.2"/>
<line x1="115.423" y1="123.014" x2="118.223" y2="123.014" stroke="black" stroke-width="0.2"/>
<line x1="116.823" y1="121.614" x2="116.823" y2="124.414" stroke="black" stroke-width="0.2"/>
<line x1="63.224" y1="114.300" x2="53.224" y2="114.300" stroke="black" stroke-width="0.18"/>
<line x1="63.224" y1="212.700" x2="53.224" y2="212.700" stroke="black" stroke-width="0.18"/>
<line x1="54.224" y1="114.300" x2="54.224" y2="212.700" stroke="black" stroke-width="0.25"/>
<polygon points="54.224,114.300 54.974,116.700 53.474,116.700" fill="black"/>
<polygon points="54.224,212.700 53.474,210.300 54.974,210.300" fill="black"/>
<text x="52.824" y="164.500" font-family="Helvetica, Arial, sans-serif" font-size="3" font-weight="bold" text-anchor="end" fill="black" paint-order="stroke" stroke="white" stroke-width="0.9">98.4</text>
<line x1="63.224" y1="212.700" x2="63.224" y2="221.700" stroke="black" stroke-width="0.18"/>
<line x1="146.792" y1="212.700" x2="146.792" y2="221.700" stroke="black" stroke-width="0.18"/>
<line x1="63.224" y1="220.700" x2="146.792" y2="220.700" stroke="black" stroke-width="0.25"/>
<polygon points="63.224,220.700 65.624,219.950 65.624,221.450" fill="black"/>
<polygon points="146.792,220.700 144.392,221.450 144.392,219.950" fill="black"/>
<text x="105.008" y="224.600" font-family="Helvetica, Arial, sans-serif" font-size="3" font-weight="bold" text-anchor="middle" fill="black" paint-order="stroke" stroke="white" stroke-width="0.9">83.57</text>
<line x1="91.265" y1="114.300" x2="91.265" y2="107.300" stroke="black" stroke-width="0.18"/>
<line x1="118.735" y1="114.300" x2="118.735" y2="107.300" stroke="black" stroke-width="0.18"/>
<line x1="91.265" y1="108.300" x2="118.735" y2="108.300" stroke="black" stroke-width="0.25"/>
<polygon points="91.265,108.300 93.665,107.550 93.665,109.050" fill="black"/>
<polygon points="118.735,108.300 116.335,109.050 116.335,107.550" fill="black"/>
<text x="105.000" y="107.200" font-family="Helvetica, Arial, sans-serif" font-size="3" font-weight="bold" text-anchor="middle" fill="black" paint-order="stroke" stroke="white" stroke-width="0.9">notch 27.47</text>
<line x1="88.750" y1="114.300" x2="88.750" y2="100.800" stroke="black" stroke-width="0.18"/>
<line x1="121.250" y1="114.300" x2="121.250" y2="100.800" stroke="black" stroke-width="0.18"/>
<line x1="88.750" y1="101.800" x2="121.250" y2="101.800" stroke="black" stroke-width="0.25"/>
<polygon points="88.750,101.800 91.150,101.050 91.150,102.550" fill="black"/>
<polygon points="121.250,101.800 118.850,102.550 118.850,101.050" fill="black"/>
<text x="105.000" y="100.700" font-family="Helvetica, Arial, sans-serif" font-size="3" font-weight="bold" text-anchor="middle" fill="black" paint-order="stroke" stroke="white" stroke-width="0.9">pocket 32.5</text>
<line x1="146.792" y1="114.300" x2="155.792" y2="114.300" stroke="black" stroke-width="0.18"/>
<line x1="146.792" y1="158.100" x2="155.792" y2="158.100" stroke="black" stroke-width="0.18"/>
<line x1="154.792" y1="114.300" x2="154.792" y2="158.100" stroke="black" stroke-width="0.25"/>
<polygon points="154.792,114.300 155.542,116.700 154.042,116.700" fill="black"/>
<polygon points="154.792,158.100 154.042,155.700 155.542,155.700" fill="black"/>
<text x="156.192" y="137.200" font-family="Helvetica, Arial, sans-serif" font-size="3" font-weight="bold" text-anchor="start" fill="black" paint-order="stroke" stroke="white" stroke-width="0.9">pocket depth 43.8</text>
<line x1="86.957" y1="177.586" x2="86.957" y2="178.586" stroke="black" stroke-width="0.18"/>
<line x1="123.021" y1="177.586" x2="123.021" y2="178.586" stroke="black" stroke-width="0.18"/>
<line x1="86.957" y1="177.586" x2="123.021" y2="177.586" stroke="black" stroke-width="0.25"/>
<polygon points="86.957,177.586 89.357,176.836 89.357,178.336" fill="black"/>
<polygon points="123.021,177.586 120.621,178.336 120.621,176.836" fill="black"/>
<text x="104.989" y="176.486" font-family="Helvetica, Arial, sans-serif" font-size="3" font-weight="bold" text-anchor="middle" fill="black" paint-order="stroke" stroke="white" stroke-width="0.9">36</text>
<line x1="133.897" y1="186.709" x2="140.792" y2="192.494" stroke="black" stroke-width="0.25"/>
<polygon points="133.897,186.709 136.218,187.677 135.254,188.826" fill="black"/>
<line x1="140.792" y1="192.494" x2="146.792" y2="192.494" stroke="black" stroke-width="0.25"/>
<text x="147.592" y="191.594" font-family="Helvetica, Arial, sans-serif" font-size="3" font-weight="bold" text-anchor="start" fill="black" paint-order="stroke" stroke="white" stroke-width="0.9">Ø28.4 (2×)</text>
<line x1="93.158" y1="122.996" x2="93.158" y2="132.885" stroke="black" stroke-width="0.18"/>
<line x1="116.823" y1="122.996" x2="116.823" y2="132.885" stroke="black" stroke-width="0.18"/>
<line x1="93.158" y1="131.885" x2="116.823" y2="131.885" stroke="black" stroke-width="0.25"/>
<polygon points="93.158,131.885 95.558,131.135 95.558,132.635" fill="black"/>
<polygon points="116.823,131.885 114.423,132.635 114.423,131.135" fill="black"/>
<text x="104.990" y="130.785" font-family="Helvetica, Arial, sans-serif" font-size="2.6" font-weight="bold" text-anchor="middle" fill="black" paint-order="stroke" stroke="white" stroke-width="0.9">23.67</text>
<line x1="93.158" y1="122.996" x2="82.158" y2="122.996" stroke="black" stroke-width="0.18"/>
<line x1="93.158" y1="140.773" x2="82.158" y2="140.773" stroke="black" stroke-width="0.18"/>
<line x1="83.158" y1="122.996" x2="83.158" y2="140.773" stroke="black" stroke-width="0.25"/>
<polygon points="83.158,122.996 83.908,125.396 82.408,125.396" fill="black"/>
<polygon points="83.158,140.773 82.408,138.373 83.908,138.373" fill="black"/>
<text x="81.758" y="132.885" font-family="Helvetica, Arial, sans-serif" font-size="2.6" font-weight="bold" text-anchor="end" fill="black" paint-order="stroke" stroke="white" stroke-width="0.9">17.78</text>
<line x1="114.248" y1="142.575" x2="108.591" y2="148.232" stroke="black" stroke-width="0.25"/>
<polygon points="114.248,142.575 113.082,144.803 112.021,143.742" fill="black"/>
<line x1="108.591" y1="148.232" x2="102.591" y2="148.232" stroke="black" stroke-width="0.25"/>
<text x="101.791" y="147.332" font-family="Helvetica, Arial, sans-serif" font-size="2.6" font-weight="bold" text-anchor="end" fill="black" paint-order="stroke" stroke="white" stroke-width="0.9">Ø5.08 (4×)</text>
</svg>
