<svg xmlns="http://www.w3.org/2000/svg" width="210mm" height="279mm" viewBox="0 0 210 279">
<rect x="0" y="0" width="210" height="279" fill="white"/>
<text x="105.000" y="12.000" font-family="Helvetica, Arial, sans-serif" font-size="5" font-weight="bold" text-anchor="middle" fill="black">Plug Puller — Flat 2-prong lamp plug (NEMA 1-15) · Small</text>
<text x="105.000" y="17.500" font-family="Helvetica, Arial, sans-serif" font-size="2.8" font-weight="normal" text-anchor="middle" fill="black">1:1 outline sheet — print at 100% scale / “Actual size”, never “fit to page”. Check the calibration square before trusting anything.</text>
<rect x="14" y="22" width="50" height="50" fill="none" stroke="black" stroke-width="0.4"/>
<text x="39.000" y="45.500" font-family="Helvetica, Arial, sans-serif" font-size="3.4" font-weight="bold" text-anchor="middle" fill="black">CALIBRATION</text>
<text x="39.000" y="50.500" font-family="Helvetica, Arial, sans-serif" font-size="3.4" font-weight="normal" text-anchor="middle" fill="black">50 × 50 mm</text>
<text x="39.000" y="56.500" font-family="Helvetica, Arial, sans-serif" font-size="2.6" font-weight="normal" text-anchor="middle" fill="#444444">Measure me with a ruler.</text>
<text x="39.000" y="60.500" font-family="Helvetica, Arial, sans-serif" font-size="2.6" font-weight="normal" text-anchor="middle" fill="#444444">Not 50 mm? Re-print at 100%.</text>
<rect x="70" y="22" width="126" height="50" fill="none" stroke="black" stroke-width="0.3"/>
<text x="73.000" y="27.000" font-family="Helvetica, Arial, sans-serif" font-size="3.4" font-weight="bold" text-anchor="start" fill="black">Flat 2-prong lamp plug</text>
<text x="73.000" y="31.600" font-family="Helvetica, Arial, sans-serif" font-size="2.8" font-weight="normal" text-anchor="start" fill="black">Flat tool · Small hand size</text>
<text x="73.000" y="35.400" font-family="Helvetica, Arial, sans-serif" font-size="2.8" font-weight="normal" text-anchor="start" fill="black">Printed footprint ≈ 62.62 × 73.2 mm</text>
<text x="73.000" y="40.000" font-family="Helvetica, Arial, sans-serif" font-size="2.6" font-weight="normal" text-anchor="start" fill="#333333">Customizer settings for this exact tool:</text>
<text x="73.000" y="43.400" font-family="Helvetica, Arial, sans-serif" font-size="2.6" font-weight="normal" text-anchor="start" fill="#333333">  tool_style = Flat tool</text>
<text x="73.000" y="46.800" font-family="Helvetica, Arial, sans-serif" font-size="2.6" font-weight="normal" text-anchor="start" fill="#333333">  plug_preset =</text>
<text x="73.000" y="50.200" font-family="Helvetica, Arial, sans-serif" font-size="2.6" font-weight="normal" text-anchor="start" fill="#333333">      Flat 2-prong lamp plug - NEMA 1-15</text>
<text x="73.000" y="53.600" font-family="Helvetica, Arial, sans-serif" font-size="2.6" font-weight="normal" text-anchor="start" fill="#333333">  size = Small</text>
<text x="73.000" y="57.000" font-family="Helvetica, Arial, sans-serif" font-size="2.6" font-weight="normal" text-anchor="start" fill="#333333">  (everything else at its default)</text>
<text x="133.000" y="27.000" font-family="Helvetica, Arial, sans-serif" font-size="2.8" font-weight="bold" text-anchor="start" fill="black">Key dimensions</text>
<text x="133.000" y="31.000" font-family="Helvetica, Arial, sans-serif" font-size="2.6" font-weight="normal" text-anchor="start" fill="black">Body thickness: 5.4 mm (this sheet is 2D)</text>
<text x="133.000" y="34.500" font-family="Helvetica, Arial, sans-serif" font-size="2.6" font-weight="normal" text-anchor="start" fill="black">Finger holes: Ø21.9, 29.5 apart</text>
<text x="133.000" y="38.000" font-family="Helvetica, Arial, sans-serif" font-size="2.6" font-weight="normal" text-anchor="start" fill="black">Pocket: 31.7 wide × 37 deep</text>
<text x="133.000" y="41.500" font-family="Helvetica, Arial, sans-serif" font-size="2.6" font-weight="normal" text-anchor="start" fill="black">Wall notch: 26.67 wide × 3.81 deep</text>
<text x="133.000" y="45.000" font-family="Helvetica, Arial, sans-serif" font-size="2.6" font-weight="normal" text-anchor="start" fill="black">Zip holes: 4 × Ø5.08, rows 17.78 apart</text>
<text x="133.000" y="48.500" font-family="Helvetica, Arial, sans-serif" font-size="2.6" font-weight="normal" text-anchor="start" fill="black">J-hook cord gap: 4.36 mm</text>
<line x1="14.000" y1="248.000" x2="196.000" y2="248.000" stroke="#888888" stroke-width="0.2"/>
<text x="14.000" y="252.500" font-family="Helvetica, Arial, sans-serif" font-size="3.2" font-weight="bold" text-anchor="start" fill="black">How to use this sheet</text>
<text x="14.000" y="256.500" font-family="Helvetica, Arial, sans-serif" font-size="2.7" font-weight="normal" text-anchor="start" fill="black">1. Print at 100% and measure the calibration square — it must be exactly 50 × 50 mm.</text>
<text x="14.000" y="260.100" font-family="Helvetica, Arial, sans-serif" font-size="2.7" font-weight="normal" text-anchor="start" fill="black">2. Cut along the SOLID outline. Dashed lines are holes and the plug pocket — poke through the two big finger circles.</text>
<text x="14.000" y="263.700" font-family="Helvetica, Arial, sans-serif" font-size="2.7" font-weight="normal" text-anchor="start" fill="black">3. Hold the cutout on your plug at the wall: the plug fits the dashed pocket, the top notch straddles the wall plate.</text>
<text x="14.000" y="267.300" font-family="Helvetica, Arial, sans-serif" font-size="2.7" font-weight="normal" text-anchor="start" fill="black">4. Try the finger holes (small size). Wrong size? Try a neighbouring sheet, or print stl/Finger_Sizing_Stencil.stl.</text>
<text x="14.000" y="270.900" font-family="Helvetica, Arial, sans-serif" font-size="2.7" font-weight="normal" text-anchor="start" fill="black">5. Happy? Open the Customizer with the title-block settings and export your STL (docs/guides/quick-start-beginner.md).</text>
<text x="105.000" y="275.500" font-family="Helvetica, Arial, sans-serif" font-size="2.4" font-weight="normal" text-anchor="middle" fill="#444444">openscad-plug-puller v0.9 · outline_flat-2-prong_small.svg · scale 1:1 · guide: docs/guides/print-preview-outlines.md</text>
<path d="M 74.128 186.186 L 73.846 184.797 L 73.701 183.386 L 73.695 181.968 L 73.828 180.556 L 74.098 179.164 L 78.567 160.991 L 78.722 160.450 L 78.700 160.450 L 89.750 126.900 L 90.395 126.900 L 90.643 126.924 L 90.764 126.955 L 90.994 127.050 L 91.201 127.188 L 91.377 127.364 L 91.515 127.571 L 91.568 127.684 L 91.641 127.922 L 91.677 128.419 L 91.714 128.666 L 91.774 128.907 L 91.858 129.142 L 91.965 129.367 L 92.093 129.581 L 92.242 129.781 L 92.409 129.966 L 92.594 130.133 L 92.794 130.282 L 93.008 130.410 L 93.233 130.517 L 93.468 130.601 L 93.709 130.661 L 93.956 130.698 L 94.205 130.710 L 115.795 130.710 L 116.044 130.698 L 116.291 130.661 L 116.532 130.601 L 116.767 130.517 L 116.992 130.410 L 117.206 130.282 L 117.406 130.133 L 117.591 129.966 L 117.758 129.781 L 117.907 129.581 L 118.035 129.367 L 118.142 129.142 L 118.226 128.907 L 118.286 128.666 L 118.323 128.419 L 118.359 127.922 L 118.432 127.684 L 118.485 127.571 L 118.623 127.364 L 118.799 127.188 L 119.006 127.050 L 119.236 126.955 L 119.357 126.924 L 119.605 126.900 L 120.250 126.900 L 131.300 160.450 L 131.278 160.450 L 131.433 160.991 L 135.902 179.164 L 136.072 179.950 L 136.265 181.355 L 136.319 182.772 L 136.234 184.188 L 136.011 185.588 L 135.651 186.960 L 135.159 188.290 L 134.539 189.565 L 133.796 190.773 L 132.939 191.903 L 131.975 192.943 L 130.914 193.884 L 129.766 194.716 L 128.542 195.432 L 127.254 196.024 L 125.913 196.487 L 124.534 196.817 L 111.281 199.303 L 111.281 195.699 L 111.029 195.447 L 111.023 191.939 L 110.974 191.695 L 110.879 191.465 L 110.741 191.258 L 110.565 191.082 L 110.358 190.943 L 110.245 190.890 L 110.007 190.818 L 109.759 190.793 L 102.120 190.793 L 101.872 190.818 L 101.751 190.848 L 101.521 190.943 L 101.414 191.007 L 101.222 191.165 L 101.138 191.258 L 101.000 191.465 L 100.947 191.577 L 100.905 191.695 L 100.856 191.939 L 100.856 194.301 L 100.905 194.545 L 100.947 194.663 L 101.000 194.775 L 101.138 194.982 L 101.314 195.158 L 101.521 195.297 L 101.751 195.392 L 101.996 195.441 L 105.697 195.447 L 106.919 196.668 L 106.919 200.081 L 106.786 200.100 L 103.256 200.100 L 102.179 199.952 L 85.466 196.817 L 84.680 196.647 L 83.321 196.241 L 82.008 195.704 L 80.755 195.041 L 79.573 194.258 L 78.472 193.363 L 77.465 192.365 L 76.561 191.273 L 75.768 190.097 L 75.094 188.849 L 74.546 187.541 L 74.128 186.186 Z" fill="none" stroke="black" stroke-width="0.5" stroke-linejoin="round"/>
<path d="M 112.667 137.317 L 112.892 137.423 L 113.127 137.507 L 113.369 137.568 L 113.615 137.604 L 113.864 137.617 L 114.113 137.604 L 114.360 137.568 L 114.602 137.507 L 114.836 137.423 L 115.062 137.317 L 115.275 137.189 L 115.476 137.040 L 115.660 136.873 L 115.828 136.688 L 115.976 136.488 L 116.104 136.274 L 116.211 136.049 L 116.295 135.814 L 116.356 135.572 L 116.392 135.326 L 116.404 135.077 L 116.392 134.828 L 116.356 134.581 L 116.295 134.339 L 116.211 134.105 L 116.104 133.879 L 115.976 133.666 L 115.828 133.465 L 115.660 133.281 L 115.476 133.113 L 115.275 132.965 L 115.062 132.837 L 114.836 132.730 L 114.602 132.646 L 114.360 132.586 L 114.113 132.549 L 113.864 132.537 L 113.615 132.549 L 113.369 132.586 L 113.127 132.646 L 112.892 132.730 L 112.667 132.837 L 112.453 132.965 L 112.253 133.113 L 112.068 133.281 L 111.901 133.465 L 111.752 133.666 L 111.624 133.879 L 111.518 134.105 L 111.434 134.339 L 111.373 134.581 L 111.337 134.828 L 111.324 135.077 L 111.337 135.326 L 111.373 135.572 L 111.434 135.814 L 111.518 136.049 L 111.624 136.274 L 111.752 136.488 L 111.901 136.688 L 112.068 136.873 L 112.253 137.040 L 112.453 137.189 L 112.667 137.317 Z" fill="none" stroke="black" stroke-width="0.35" stroke-linejoin="round" stroke-dasharray="1.6,1.1"/>
<path d="M 101.063 150.893 L 100.863 150.745 L 100.649 150.617 L 100.423 150.510 L 100.189 150.426 L 99.947 150.366 L 99.700 150.329 L 99.451 150.317 L 99.202 150.329 L 98.956 150.366 L 98.714 150.426 L 98.479 150.510 L 98.254 150.617 L 98.040 150.745 L 97.840 150.893 L 97.655 151.061 L 97.488 151.245 L 97.339 151.446 L 97.211 151.659 L 97.105 151.885 L 97.021 152.119 L 96.960 152.361 L 96.924 152.608 L 96.911 152.857 L 96.924 153.106 L 96.960 153.352 L 97.021 153.594 L 97.105 153.829 L 97.211 154.054 L 97.339 154.268 L 97.488 154.468 L 97.655 154.653 L 97.840 154.820 L 98.040 154.969 L 98.254 155.097 L 98.479 155.203 L 98.714 155.287 L 98.956 155.348 L 99.202 155.384 L 99.451 155.397 L 99.700 155.384 L 99.947 155.348 L 100.189 155.287 L 100.423 155.203 L 100.649 155.097 L 100.863 154.969 L 101.063 154.820 L 101.247 154.653 L 101.415 154.468 L 101.563 154.268 L 101.691 154.054 L 101.798 153.829 L 101.882 153.594 L 101.943 153.352 L 101.979 153.106 L 101.991 152.857 L 101.979 152.608 L 101.943 152.361 L 101.882 152.119 L 101.798 151.885 L 101.691 151.659 L 101.563 151.446 L 101.415 151.245 L 101.247 151.061 L 101.063 150.893 Z" fill="none" stroke="black" stroke-width="0.35" stroke-linejoin="round" stroke-dasharray="1.6,1.1"/>
<path d="M 109.811 155.287 L 110.053 155.348 L 110.300 155.384 L 110.549 155.397 L 110.798 155.384 L 111.044 155.348 L 111.286 155.287 L 111.521 155.203 L 111.746 155.097 L 111.960 154.969 L 112.160 154.820 L 112.345 154.653 L 112.512 154.468 L 112.661 154.268 L 112.789 154.054 L 112.895 153.829 L 112.979 153.594 L 113.040 153.352 L 113.076 153.106 L 113.089 152.857 L 113.076 152.608 L 113.040 152.361 L 112.979 152.119 L 112.895 151.885 L 112.789 151.659 L 112.661 151.446 L 112.512 151.245 L 112.345 151.061 L 112.160 150.893 L 111.960 150.745 L 111.746 150.617 L 111.521 150.510 L 111.286 150.426 L 111.044 150.366 L 110.798 150.329 L 110.549 150.317 L 110.300 150.329 L 110.053 150.366 L 109.811 150.426 L 109.577 150.510 L 109.351 150.617 L 109.137 150.745 L 108.937 150.893 L 108.753 151.061 L 108.585 151.245 L 108.437 151.446 L 108.309 151.659 L 108.202 151.885 L 108.118 152.119 L 108.057 152.361 L 108.021 152.608 L 108.009 152.857 L 108.021 153.106 L 108.057 153.352 L 108.118 153.594 L 108.202 153.829 L 108.309 154.054 L 108.437 154.268 L 108.585 154.468 L 108.753 154.653 L 108.937 154.820 L 109.137 154.969 L 109.351 155.097 L 109.577 155.203 L 109.811 155.287 Z" fill="none" stroke="black" stroke-width="0.35" stroke-linejoin="round" stroke-dasharray="1.6,1.1"/>
<path d="M 113.881 161.220 L 113.864 161.440 L 113.864 163.479 L 113.872 163.626 L 113.929 163.915 L 114.041 164.186 L 114.117 164.313 L 114.205 164.431 L 114.413 164.639 L 114.657 164.802 L 114.790 164.865 L 115.072 164.950 L 115.364 164.979 L 115.657 164.950 L 116.638 164.706 L 118.187 164.477 L 119.750 164.400 L 121.313 164.477 L 122.862 164.706 L 124.380 165.087 L 125.875 165.614 L 126.166 165.657 L 126.313 165.657 L 126.459 165.643 L 126.745 165.571 L 126.881 165.515 L 127.133 165.364 L 127.351 165.166 L 127.444 165.052 L 127.526 164.930 L 127.652 164.664 L 127.723 164.379 L 127.737 164.233 L 127.723 163.939 L 127.284 162.126 L 127.024 161.215 L 120.940 142.740 L 120.821 142.471 L 120.652 142.231 L 120.550 142.124 L 120.319 141.943 L 120.056 141.811 L 119.917 141.764 L 119.627 141.714 L 119.333 141.721 L 119.046 141.785 L 118.777 141.904 L 118.536 142.073 L 118.334 142.286 L 118.176 142.534 L 118.070 142.808 L 116.600 149.939 L 116.592 150.086 L 116.619 150.379 L 116.654 150.522 L 116.807 150.958 L 116.963 151.581 L 117.057 152.216 L 117.089 152.857 L 117.057 153.498 L 116.963 154.133 L 116.807 154.755 L 116.591 155.359 L 116.316 155.940 L 115.986 156.490 L 115.604 157.006 L 115.176 157.489 L 115.024 157.741 L 114.925 158.018 L 114.628 159.262 L 114.295 160.192 L 113.952 160.935 L 113.881 161.220 Z" fill="none" stroke="black" stroke-width="0.35" stroke-linejoin="round" stroke-dasharray="1.6,1.1"/>
<path d="M 89.768 141.892 L 89.525 142.057 L 89.318 142.267 L 89.157 142.512 L 89.060 142.740 L 82.993 161.160 L 82.731 162.070 L 82.304 163.801 L 82.262 164.092 L 82.278 164.385 L 82.307 164.530 L 82.408 164.806 L 82.560 165.058 L 82.654 165.171 L 82.872 165.368 L 82.995 165.449 L 83.125 165.518 L 83.403 165.616 L 83.694 165.657 L 83.841 165.657 L 84.132 165.612 L 85.620 165.087 L 87.138 164.706 L 88.687 164.477 L 90.250 164.400 L 91.813 164.477 L 93.362 164.706 L 94.416 164.963 L 94.562 164.977 L 94.856 164.963 L 95.000 164.934 L 95.277 164.835 L 95.407 164.766 L 95.643 164.591 L 95.840 164.373 L 95.922 164.250 L 96.048 163.985 L 96.091 163.844 L 96.119 163.699 L 96.136 163.479 L 96.136 161.440 L 96.107 161.147 L 96.071 161.005 L 95.992 160.799 L 95.705 160.192 L 95.372 159.262 L 95.089 158.079 L 95.001 157.798 L 94.861 157.540 L 94.772 157.423 L 94.396 157.006 L 94.014 156.490 L 93.684 155.940 L 93.409 155.359 L 93.193 154.755 L 93.037 154.133 L 92.943 153.498 L 92.911 152.857 L 92.943 152.216 L 93.037 151.581 L 93.193 150.958 L 93.320 150.603 L 93.392 150.318 L 93.406 150.171 L 93.392 149.877 L 91.917 142.763 L 91.866 142.625 L 91.726 142.367 L 91.538 142.141 L 91.309 141.956 L 91.049 141.819 L 90.767 141.736 L 90.621 141.716 L 90.327 141.718 L 90.039 141.777 L 89.768 141.892 Z" fill="none" stroke="black" stroke-width="0.35" stroke-linejoin="round" stroke-dasharray="1.6,1.1"/>
<path d="M 87.071 169.872 L 86.060 170.234 L 85.088 170.693 L 84.167 171.245 L 83.303 171.886 L 82.507 172.607 L 81.786 173.403 L 81.145 174.267 L 80.593 175.188 L 80.134 176.160 L 79.772 177.171 L 79.510 178.214 L 79.353 179.277 L 79.300 180.350 L 79.353 181.423 L 79.510 182.486 L 79.772 183.529 L 80.134 184.540 L 80.593 185.512 L 81.145 186.433 L 81.786 187.297 L 82.507 188.093 L 83.303 188.814 L 84.167 189.455 L 85.088 190.007 L 86.060 190.466 L 87.071 190.828 L 88.114 191.090 L 89.177 191.247 L 90.250 191.300 L 91.323 191.247 L 92.386 191.090 L 93.429 190.828 L 94.440 190.466 L 95.412 190.007 L 96.333 189.455 L 97.197 188.814 L 97.993 188.093 L 98.714 187.297 L 99.355 186.433 L 99.907 185.512 L 100.366 184.540 L 100.728 183.529 L 100.990 182.486 L 101.147 181.423 L 101.200 180.350 L 101.147 179.277 L 100.990 178.214 L 100.728 177.171 L 100.366 176.160 L 99.907 175.188 L 99.355 174.267 L 98.714 173.403 L 97.993 172.607 L 97.197 171.886 L 96.333 171.245 L 95.412 170.693 L 94.440 170.234 L 93.429 169.872 L 92.386 169.610 L 91.323 169.453 L 90.250 169.400 L 89.177 169.453 L 88.114 169.610 L 87.071 169.872 Z" fill="none" stroke="black" stroke-width="0.35" stroke-linejoin="round" stroke-dasharray="1.6,1.1"/>
<path d="M 84.617 196.547 L 84.617 196.547 L 84.617 196.547 L 84.617 196.547 Z" fill="none" stroke="black" stroke-width="0.35" stroke-linejoin="round" stroke-dasharray="1.6,1.1"/>
<path d="M 76.601 191.083 L 76.601 191.083 L 76.601 191.083 L 76.601 191.083 Z" fill="none" stroke="black" stroke-width="0.35" stroke-linejoin="round" stroke-dasharray="1.6,1.1"/>
<path d="M 79.878 188.910 L 79.878 188.910 L 79.878 188.910 L 79.878 188.910 Z" fill="none" stroke="black" stroke-width="0.35" stroke-linejoin="round" stroke-dasharray="1.6,1.1"/>
<path d="M 95.887 132.549 L 95.640 132.586 L 95.398 132.646 L 95.164 132.730 L 94.938 132.837 L 94.725 132.965 L 94.524 133.113 L 94.340 133.281 L 94.172 133.465 L 94.024 133.666 L 93.896 133.879 L 93.789 134.105 L 93.705 134.339 L 93.644 134.581 L 93.608 134.828 L 93.596 135.077 L 93.608 135.326 L 93.644 135.572 L 93.705 135.814 L 93.789 136.049 L 93.896 136.274 L 94.024 136.488 L 94.172 136.688 L 94.340 136.873 L 94.524 137.040 L 94.725 137.189 L 94.938 137.317 L 95.164 137.423 L 95.398 137.507 L 95.640 137.568 L 95.887 137.604 L 96.136 137.617 L 96.385 137.604 L 96.631 137.568 L 96.873 137.507 L 97.108 137.423 L 97.333 137.317 L 97.547 137.189 L 97.747 137.040 L 97.932 136.873 L 98.099 136.688 L 98.248 136.488 L 98.376 136.274 L 98.482 136.049 L 98.566 135.814 L 98.627 135.572 L 98.663 135.326 L 98.676 135.077 L 98.663 134.828 L 98.627 134.581 L 98.566 134.339 L 98.482 134.105 L 98.376 133.879 L 98.248 133.666 L 98.099 133.465 L 97.932 133.281 L 97.747 133.113 L 97.547 132.965 L 97.333 132.837 L 97.108 132.730 L 96.873 132.646 L 96.631 132.586 L 96.385 132.549 L 96.136 132.537 L 95.887 132.549 Z" fill="none" stroke="black" stroke-width="0.35" stroke-linejoin="round" stroke-dasharray="1.6,1.1"/>
<path d="M 97.224 155.383 L 97.224 155.383 L 97.224 155.383 L 97.224 155.383 Z" fill="none" stroke="black" stroke-width="0.35" stroke-linejoin="round" stroke-dasharray="1.6,1.1"/>
<path d="M 94.860 153.651 L 94.860 153.651 L 94.860 153.651 L 94.860 153.651 Z" fill="none" stroke="black" stroke-width="0.35" stroke-linejoin="round" stroke-dasharray="1.6,1.1"/>
<path d="M 95.084 154.666 L 95.084 154.666 L 95.084 154.666 L 95.084 154.666 Z" fill="none" stroke="black" stroke-width="0.35" stroke-linejoin="round" stroke-dasharray="1.6,1.1"/>
<path d="M 94.835 145.385 L 94.835 145.385 L 94.835 145.385 L 94.835 145.385 Z" fill="none" stroke="black" stroke-width="0.35" stroke-linejoin="round" stroke-dasharray="1.6,1.1"/>
<path d="M 97.542 156.302 L 97.542 156.302 L 97.542 156.302 L 97.542 156.302 Z" fill="none" stroke="black" stroke-width="0.35" stroke-linejoin="round" stroke-dasharray="1.6,1.1"/>
<path d="M 97.507 155.124 L 97.507 155.124 L 97.507 155.124 L 97.507 155.124 Z" fill="none" stroke="black" stroke-width="0.35" stroke-linejoin="round" stroke-dasharray="1.6,1.1"/>
<path d="M 97.516 155.424 L 97.516 155.424 L 97.516 155.424 L 97.516 155.424 Z" fill="none" stroke="black" stroke-width="0.35" stroke-linejoin="round" stroke-dasharray="1.6,1.1"/>
<path d="M 102.440 131.492 L 102.440 131.492 L 102.440 131.492 L 102.440 131.492 Z" fill="none" stroke="black" stroke-width="0.35" stroke-linejoin="round" stroke-dasharray="1.6,1.1"/>
<path d="M 100.795 188.579 L 100.795 188.579 L 100.795 188.579 L 100.795 188.579 Z" fill="none" stroke="black" stroke-width="0.35" stroke-linejoin="round" stroke-dasharray="1.6,1.1"/>
<path d="M 98.479 169.805 L 98.479 169.805 L 98.479 169.805 L 98.479 169.805 Z" fill="none" stroke="black" stroke-width="0.35" stroke-linejoin="round" stroke-dasharray="1.6,1.1"/>
<path d="M 106.937 169.618 L 106.937 169.618 L 106.937 169.618 L 106.937 169.618 Z" fill="none" stroke="black" stroke-width="0.35" stroke-linejoin="round" stroke-dasharray="1.6,1.1"/>
<path d="M 110.220 170.832 L 110.220 170.832 L 110.220 170.832 L 110.220 170.832 Z" fill="none" stroke="black" stroke-width="0.35" stroke-linejoin="round" stroke-dasharray="1.6,1.1"/>
<path d="M 119.117 135.745 L 119.117 135.745 L 119.117 135.745 L 119.117 135.745 Z" fill="none" stroke="black" stroke-width="0.35" stroke-linejoin="round" stroke-dasharray="1.6,1.1"/>
<path d="M 119.750 169.400 L 118.677 169.453 L 117.614 169.610 L 116.571 169.872 L 115.560 170.234 L 114.588 170.693 L 113.667 171.245 L 112.803 171.886 L 112.007 172.607 L 111.286 173.403 L 110.645 174.267 L 110.093 175.188 L 109.634 176.160 L 109.272 177.171 L 109.010 178.214 L 108.853 179.277 L 108.800 180.350 L 108.853 181.423 L 109.010 182.486 L 109.272 183.529 L 109.634 184.540 L 110.093 185.512 L 110.645 186.433 L 111.286 187.297 L 112.007 188.093 L 112.803 188.814 L 113.667 189.455 L 114.588 190.007 L 115.560 190.466 L 116.571 190.828 L 117.614 191.090 L 118.677 191.247 L 119.750 191.300 L 120.823 191.247 L 121.886 191.090 L 122.929 190.828 L 123.940 190.466 L 124.912 190.007 L 125.833 189.455 L 126.697 188.814 L 127.493 188.093 L 128.214 187.297 L 128.855 186.433 L 129.407 185.512 L 129.866 184.540 L 130.228 183.529 L 130.490 182.486 L 130.647 181.423 L 130.700 180.350 L 130.647 179.277 L 130.490 178.214 L 130.228 177.171 L 129.866 176.160 L 129.407 175.188 L 128.855 174.267 L 128.214 173.403 L 127.493 172.607 L 126.697 171.886 L 125.833 171.245 L 124.912 170.693 L 123.940 170.234 L 122.929 169.872 L 121.886 169.610 L 120.823 169.453 L 119.750 169.400 Z" fill="none" stroke="black" stroke-width="0.35" stroke-linejoin="round" stroke-dasharray="1.6,1.1"/>
<path d="M 115.533 145.314 L 115.533 145.314 L 115.533 145.314 L 115.533 145.314 Z" fill="none" stroke="black" stroke-width="0.35" stroke-linejoin="round" stroke-dasharray="1.6,1.1"/>
<path d="M 110.806 160.021 L 110.806 160.021 L 110.806 160.021 L 110.806 160.021 Z" fill="none" stroke="black" stroke-width="0.35" stroke-linejoin="round" stroke-dasharray="1.6,1.1"/>
<path d="M 104.223 158.470 L 104.223 158.470 L 104.223 158.470 L 104.223 158.470 Z" fill="none" stroke="black" stroke-width="0.35" stroke-linejoin="round" stroke-dasharray="1.6,1.1"/>
<path d="M 109.773 142.920 L 109.773 142.920 L 109.773 142.920 L 109.773 142.920 Z" fill="none" stroke="black" stroke-width="0.35" stroke-linejoin="round" stroke-dasharray="1.6,1.1"/>
<path d="M 119.494 138.614 L 119.494 138.614 L 119.494 138.614 L 119.494 138.614 Z" fill="none" stroke="black" stroke-width="0.35" stroke-linejoin="round" stroke-dasharray="1.6,1.1"/>
<path d="M 119.345 138.679 L 119.345 138.679 L 119.345 138.679 L 119.345 138.679 Z" fill="none" stroke="black" stroke-width="0.35" stroke-linejoin="round" stroke-dasharray="1.6,1.1"/>
<path d="M 118.921 138.867 L 118.921 138.867 L 118.921 138.867 L 118.921 138.867 Z" fill="none" stroke="black" stroke-width="0.35" stroke-linejoin="round" stroke-dasharray="1.6,1.1"/>
<path d="M 118.441 139.080 L 118.441 139.080 L 118.441 139.080 L 118.441 139.080 Z" fill="none" stroke="black" stroke-width="0.35" stroke-linejoin="round" stroke-dasharray="1.6,1.1"/>
<path d="M 116.699 139.852 L 116.699 139.852 L 116.699 139.852 L 116.699 139.852 Z" fill="none" stroke="black" stroke-width="0.35" stroke-linejoin="round" stroke-dasharray="1.6,1.1"/>
<path d="M 118.932 139.138 L 118.932 139.138 L 118.932 139.138 L 118.932 139.138 Z" fill="none" stroke="black" stroke-width="0.35" stroke-linejoin="round" stroke-dasharray="1.6,1.1"/>
<path d="M 109.903 143.682 L 109.903 143.682 L 109.903 143.682 L 109.903 143.682 Z" fill="none" stroke="black" stroke-width="0.35" stroke-linejoin="round" stroke-dasharray="1.6,1.1"/>
<path d="M 113.542 197.834 L 113.542 197.834 L 113.542 197.834 L 113.542 197.834 Z" fill="none" stroke="black" stroke-width="0.35" stroke-linejoin="round" stroke-dasharray="1.6,1.1"/>
<path d="M 115.248 153.901 L 115.248 153.901 L 115.248 153.901 L 115.248 153.901 Z" fill="none" stroke="black" stroke-width="0.35" stroke-linejoin="round" stroke-dasharray="1.6,1.1"/>
<path d="M 115.289 146.457 L 115.289 146.457 L 115.289 146.457 L 115.289 146.457 Z" fill="none" stroke="black" stroke-width="0.35" stroke-linejoin="round" stroke-dasharray="1.6,1.1"/>
<path d="M 119.243 136.228 L 119.243 136.228 L 119.243 136.228 L 119.243 136.228 Z" fill="none" stroke="black" stroke-width="0.35" stroke-linejoin="round" stroke-dasharray="1.6,1.1"/>
<path d="M 119.160 136.217 L 119.160 136.217 L 119.160 136.217 L 119.160 136.217 Z" fill="none" stroke="black" stroke-width="0.35" stroke-linejoin="round" stroke-dasharray="1.6,1.1"/>
<path d="M 119.052 135.729 L 119.052 135.729 L 119.052 135.729 L 119.052 135.729 Z" fill="none" stroke="black" stroke-width="0.35" stroke-linejoin="round" stroke-dasharray="1.6,1.1"/>
<path d="M 126.056 168.472 L 126.056 168.472 L 126.056 168.472 L 126.056 168.472 Z" fill="none" stroke="black" stroke-width="0.35" stroke-linejoin="round" stroke-dasharray="1.6,1.1"/>
<path d="M 136.312 182.770 L 136.312 182.770 L 136.312 182.770 L 136.312 182.770 Z" fill="none" stroke="black" stroke-width="0.35" stroke-linejoin="round" stroke-dasharray="1.6,1.1"/>
<path d="M 89.457 128.104 L 89.427 128.127 L 89.394 128.124 L 89.370 128.101 L 89.366 128.068 L 89.739 126.934 L 89.759 126.908 L 90.393 126.900 L 90.639 126.924 L 90.764 126.955 L 90.994 127.050 L 91.201 127.188 L 91.373 127.361 L 91.515 127.571 L 91.567 127.681 L 91.640 127.922 L 91.677 128.420 L 91.714 128.667 L 91.775 128.908 L 91.859 129.143 L 91.964 129.366 L 92.092 129.580 L 92.241 129.780 L 92.408 129.965 L 92.593 130.133 L 92.793 130.281 L 93.007 130.409 L 93.232 130.516 L 93.467 130.600 L 93.708 130.661 L 93.955 130.698 L 94.206 130.710 L 115.796 130.710 L 116.045 130.698 L 116.292 130.661 L 116.533 130.600 L 116.768 130.516 L 116.993 130.409 L 117.207 130.281 L 117.405 130.134 L 117.590 129.967 L 117.758 129.782 L 117.906 129.582 L 118.034 129.368 L 118.141 129.143 L 118.225 128.908 L 118.286 128.667 L 118.323 128.420 L 118.360 127.922 L 118.432 127.684 L 118.485 127.571 L 118.623 127.364 L 118.799 127.188 L 119.006 127.050 L 119.236 126.955 L 119.354 126.925 L 119.607 126.900 L 120.214 126.900 L 120.257 126.926 L 120.635 128.087 L 120.602 128.126 L 120.552 128.116 L 120.316 127.797 L 120.286 128.398 L 120.065 129.884 L 119.698 131.351 L 119.190 132.770 L 118.547 134.128 L 117.773 135.421 L 117.223 136.163 L 112.735 157.889 L 112.548 158.634 L 112.287 159.363 L 111.958 160.058 L 111.560 160.722 L 111.099 161.344 L 110.580 161.918 L 110.006 162.438 L 109.385 162.899 L 108.721 163.298 L 108.021 163.629 L 107.292 163.890 L 106.541 164.078 L 105.776 164.192 L 105.002 164.230 L 104.229 164.193 L 103.463 164.079 L 102.712 163.891 L 101.984 163.631 L 101.284 163.300 L 100.619 162.902 L 99.998 162.441 L 99.424 161.922 L 98.904 161.348 L 98.442 160.726 L 98.044 160.063 L 97.711 159.358 L 97.452 158.634 L 97.265 157.889 L 92.776 136.162 L 92.227 135.421 L 91.455 134.133 L 90.808 132.766 L 90.301 131.346 L 89.936 129.889 L 89.714 128.398 L 89.684 127.797 L 89.457 128.104 Z" fill="none" stroke="#333333" stroke-width="0.35" stroke-linejoin="round" stroke-dasharray="2.4,1.4"/>
<path d="M 112.891 137.423 L 113.126 137.507 L 113.368 137.568 L 113.614 137.604 L 113.863 137.617 L 114.112 137.605 L 114.359 137.568 L 114.600 137.508 L 114.835 137.424 L 115.061 137.317 L 115.274 137.189 L 115.475 137.041 L 115.659 136.874 L 115.827 136.689 L 115.976 136.489 L 116.104 136.275 L 116.210 136.050 L 116.295 135.815 L 116.355 135.573 L 116.392 135.327 L 116.404 135.078 L 116.392 134.829 L 116.356 134.582 L 116.295 134.341 L 116.211 134.106 L 116.105 133.880 L 115.977 133.667 L 115.828 133.466 L 115.661 133.282 L 115.477 133.114 L 115.276 132.965 L 115.063 132.837 L 114.837 132.731 L 114.603 132.646 L 114.361 132.586 L 114.114 132.549 L 113.866 132.537 L 113.617 132.549 L 113.370 132.585 L 113.128 132.646 L 112.893 132.730 L 112.668 132.836 L 112.454 132.964 L 112.254 133.113 L 112.069 133.280 L 111.902 133.464 L 111.753 133.665 L 111.625 133.878 L 111.518 134.104 L 111.434 134.338 L 111.373 134.580 L 111.337 134.827 L 111.324 135.075 L 111.336 135.324 L 111.373 135.571 L 111.433 135.813 L 111.517 136.048 L 111.624 136.273 L 111.752 136.487 L 111.900 136.687 L 112.067 136.872 L 112.252 137.039 L 112.452 137.188 L 112.666 137.316 L 112.891 137.423 Z" fill="none" stroke="#333333" stroke-width="0.35" stroke-linejoin="round" stroke-dasharray="2.4,1.4"/>
<path d="M 110.052 155.348 L 110.298 155.384 L 110.547 155.397 L 110.796 155.385 L 111.043 155.348 L 111.285 155.288 L 111.519 155.204 L 111.745 155.097 L 111.959 154.969 L 112.159 154.821 L 112.344 154.654 L 112.511 154.469 L 112.660 154.269 L 112.788 154.055 L 112.895 153.830 L 112.979 153.595 L 113.039 153.353 L 113.076 153.107 L 113.089 152.858 L 113.076 152.609 L 113.040 152.362 L 112.980 152.121 L 112.896 151.886 L 112.789 151.660 L 112.661 151.447 L 112.513 151.246 L 112.345 151.062 L 112.161 150.894 L 111.961 150.745 L 111.747 150.617 L 111.522 150.511 L 111.287 150.426 L 111.045 150.366 L 110.799 150.329 L 110.550 150.317 L 110.301 150.329 L 110.054 150.365 L 109.812 150.426 L 109.578 150.510 L 109.352 150.616 L 109.138 150.744 L 108.938 150.893 L 108.753 151.060 L 108.586 151.244 L 108.437 151.445 L 108.309 151.658 L 108.202 151.884 L 108.118 152.118 L 108.058 152.360 L 108.021 152.607 L 108.009 152.855 L 108.021 153.104 L 108.057 153.351 L 108.118 153.593 L 108.202 153.828 L 108.308 154.053 L 108.436 154.267 L 108.584 154.467 L 108.752 154.652 L 108.936 154.819 L 109.136 154.968 L 109.350 155.096 L 109.575 155.203 L 109.810 155.287 L 110.052 155.348 Z" fill="none" stroke="#333333" stroke-width="0.35" stroke-linejoin="round" stroke-dasharray="2.4,1.4"/>
<path d="M 100.864 150.745 L 100.650 150.617 L 100.425 150.511 L 100.190 150.426 L 99.948 150.366 L 99.702 150.329 L 99.453 150.317 L 99.204 150.329 L 98.957 150.365 L 98.715 150.426 L 98.481 150.510 L 98.255 150.616 L 98.041 150.744 L 97.841 150.893 L 97.656 151.060 L 97.489 151.244 L 97.340 151.445 L 97.212 151.658 L 97.105 151.884 L 97.021 152.118 L 96.961 152.360 L 96.924 152.607 L 96.911 152.855 L 96.924 153.104 L 96.960 153.351 L 97.020 153.593 L 97.104 153.828 L 97.211 154.053 L 97.339 154.267 L 97.487 154.467 L 97.655 154.652 L 97.839 154.819 L 98.039 154.968 L 98.253 155.096 L 98.478 155.203 L 98.713 155.287 L 98.955 155.348 L 99.201 155.384 L 99.450 155.397 L 99.699 155.385 L 99.946 155.348 L 100.188 155.288 L 100.422 155.204 L 100.648 155.097 L 100.862 154.969 L 101.062 154.821 L 101.247 154.654 L 101.414 154.469 L 101.563 154.269 L 101.691 154.055 L 101.798 153.830 L 101.882 153.595 L 101.942 153.353 L 101.979 153.107 L 101.991 152.858 L 101.979 152.609 L 101.943 152.362 L 101.882 152.121 L 101.798 151.886 L 101.692 151.660 L 101.564 151.447 L 101.416 151.246 L 101.248 151.062 L 101.064 150.894 L 100.864 150.745 Z" fill="none" stroke="#333333" stroke-width="0.35" stroke-linejoin="round" stroke-dasharray="2.4,1.4"/>
<path d="M 95.641 132.585 L 95.400 132.646 L 95.165 132.730 L 94.939 132.836 L 94.726 132.964 L 94.525 133.113 L 94.341 133.280 L 94.173 133.464 L 94.024 133.665 L 93.896 133.878 L 93.790 134.104 L 93.705 134.338 L 93.645 134.580 L 93.608 134.827 L 93.596 135.075 L 93.608 135.324 L 93.644 135.571 L 93.705 135.813 L 93.789 136.048 L 93.895 136.273 L 94.023 136.487 L 94.172 136.687 L 94.339 136.872 L 94.523 137.039 L 94.724 137.188 L 94.937 137.316 L 95.163 137.423 L 95.397 137.507 L 95.639 137.568 L 95.886 137.604 L 96.134 137.617 L 96.383 137.605 L 96.630 137.568 L 96.872 137.508 L 97.107 137.424 L 97.332 137.317 L 97.546 137.189 L 97.746 137.041 L 97.931 136.874 L 98.098 136.689 L 98.247 136.489 L 98.375 136.275 L 98.482 136.050 L 98.566 135.815 L 98.627 135.573 L 98.663 135.327 L 98.676 135.078 L 98.664 134.829 L 98.627 134.582 L 98.567 134.341 L 98.483 134.106 L 98.376 133.880 L 98.248 133.667 L 98.100 133.466 L 97.933 133.282 L 97.748 133.114 L 97.548 132.965 L 97.334 132.837 L 97.109 132.731 L 96.874 132.646 L 96.632 132.586 L 96.386 132.549 L 96.137 132.537 L 95.888 132.549 L 95.641 132.585 Z" fill="none" stroke="#333333" stroke-width="0.35" stroke-linejoin="round" stroke-dasharray="2.4,1.4"/>
<line x1="88.801" y1="180.189" x2="91.601" y2="180.189" stroke="black" stroke-width="0.2"/>
<line x1="90.201" y1="178.789" x2="90.201" y2="181.589" stroke="black" stroke-width="0.2"/>
<line x1="118.350" y1="180.182" x2="121.150" y2="180.182" stroke="black" stroke-width="0.2"/>
<line x1="119.750" y1="178.782" x2="119.750" y2="181.582" stroke="black" stroke-width="0.2"/>
<line x1="109.137" y1="152.894" x2="111.937" y2="152.894" stroke="black" stroke-width="0.2"/>
<line x1="110.537" y1="151.494" x2="110.537" y2="154.294" stroke="black" stroke-width="0.2"/>
<line x1="98.076" y1="152.826" x2="100.876" y2="152.826" stroke="black" stroke-width="0.2"/>
<line x1="99.476" y1="151.426" x2="99.476" y2="154.226" stroke="black" stroke-width="0.2"/>
<line x1="112.446" y1="135.111" x2="115.246" y2="135.111" stroke="black" stroke-width="0.2"/>
<line x1="113.846" y1="133.711" x2="113.846" y2="136.511" stroke="black" stroke-width="0.2"/>
<line x1="94.732" y1="135.038" x2="97.532" y2="135.038" stroke="black" stroke-width="0.2"/>
<line x1="96.132" y1="133.638" x2="96.132" y2="136.438" stroke="black" stroke-width="0.2"/>
<line x1="73.695" y1="126.900" x2="63.695" y2="126.900" stroke="black" stroke-width="0.18"/>
<line x1="73.695" y1="200.100" x2="63.695" y2="200.100" stroke="black" stroke-width="0.18"/>
<line x1="64.695" y1="126.900" x2="64.695" y2="200.100" stroke="black" stroke-width="0.25"/>
<polygon points="64.695,126.900 65.445,129.300 63.945,129.300" fill="black"/>
<polygon points="64.695,200.100 63.945,197.700 65.445,197.700" fill="black"/>
<text x="63.295" y="164.500" font-family="Helvetica, Arial, sans-serif" font-size="3" font-weight="bold" text-anchor="end" fill="black" paint-order="stroke" stroke="white" stroke-width="0.9">73.2</text>
<line x1="73.695" y1="200.100" x2="73.695" y2="209.100" stroke="black" stroke-width="0.18"/>
<line x1="136.319" y1="200.100" x2="136.319" y2="209.100" stroke="black" stroke-width="0.18"/>
<line x1="73.695" y1="208.100" x2="136.319" y2="208.100" stroke="black" stroke-width="0.25"/>
<polygon points="73.695,208.100 76.095,207.350 76.095,208.850" fill="black"/>
<polygon points="136.319,208.100 133.919,208.850 133.919,207.350" fill="black"/>
<text x="105.007" y="212.000" font-family="Helvetica, Arial, sans-serif" font-size="3" font-weight="bold" text-anchor="middle" fill="black" paint-order="stroke" stroke="white" stroke-width="0.9">62.62</text>
<line x1="91.665" y1="126.900" x2="91.665" y2="119.900" stroke="black" stroke-width="0.18"/>
<line x1="118.335" y1="126.900" x2="118.335" y2="119.900" stroke="black" stroke-width="0.18"/>
<line x1="91.665" y1="120.900" x2="118.335" y2="120.900" stroke="black" stroke-width="0.25"/>
<polygon points="91.665,120.900 94.065,120.150 94.065,121.650" fill="black"/>
<polygon points="118.335,120.900 115.935,121.650 115.935,120.150" fill="black"/>
<text x="105.000" y="119.800" font-family="Helvetica, Arial, sans-serif" font-size="3" font-weight="bold" text-anchor="middle" fill="black" paint-order="stroke" stroke="white" stroke-width="0.9">notch 26.67</text>
<line x1="89.150" y1="126.900" x2="89.150" y2="113.400" stroke="black" stroke-width="0.18"/>
<line x1="120.850" y1="126.900" x2="120.850" y2="113.400" stroke="black" stroke-width="0.18"/>
<line x1="89.150" y1="114.400" x2="120.850" y2="114.400" stroke="black" stroke-width="0.25"/>
<polygon points="89.150,114.400 91.550,113.650 91.550,115.150" fill="black"/>
<polygon points="120.850,114.400 118.450,115.150 118.450,113.650" fill="black"/>
<text x="105.000" y="113.300" font-family="Helvetica, Arial, sans-serif" font-size="3" font-weight="bold" text-anchor="middle" fill="black" paint-order="stroke" stroke="white" stroke-width="0.9">pocket 31.7</text>
<line x1="136.319" y1="126.900" x2="145.319" y2="126.900" stroke="black" stroke-width="0.18"/>
<line x1="136.319" y1="163.900" x2="145.319" y2="163.900" stroke="black" stroke-width="0.18"/>
<line x1="144.319" y1="126.900" x2="144.319" y2="163.900" stroke="black" stroke-width="0.25"/>
<polygon points="144.319,126.900 145.069,129.300 143.569,129.300" fill="black"/>
<polygon points="144.319,163.900 143.569,161.500 145.069,161.500" fill="black"/>
<text x="145.719" y="146.400" font-family="Helvetica, Arial, sans-serif" font-size="3" font-weight="bold" text-anchor="start" fill="black" paint-order="stroke" stroke="white" stroke-width="0.9">pocket depth 37</text>
<line x1="90.201" y1="180.189" x2="90.201" y2="181.189" stroke="black" stroke-width="0.18"/>
<line x1="119.750" y1="180.189" x2="119.750" y2="181.189" stroke="black" stroke-width="0.18"/>
<line x1="90.201" y1="180.189" x2="119.750" y2="180.189" stroke="black" stroke-width="0.25"/>
<polygon points="90.201,180.189 92.601,179.439 92.601,180.939" fill="black"/>
<polygon points="119.750,180.189 117.350,180.939 117.350,179.439" fill="black"/>
<text x="104.976" y="179.089" font-family="Helvetica, Arial, sans-serif" font-size="3" font-weight="bold" text-anchor="middle" fill="black" paint-order="stroke" stroke="white" stroke-width="0.9">29.5</text>
<line x1="128.137" y1="187.219" x2="135.031" y2="193.004" stroke="black" stroke-width="0.25"/>
<polygon points="128.137,187.219 130.457,188.187 129.493,189.336" fill="black"/>
<line x1="135.031" y1="193.004" x2="141.031" y2="193.004" stroke="black" stroke-width="0.25"/>
<text x="141.831" y="192.104" font-family="Helvetica, Arial, sans-serif" font-size="3" font-weight="bold" text-anchor="start" fill="black" paint-order="stroke" stroke="white" stroke-width="0.9">Ø21.9 (2×)</text>
<line x1="96.132" y1="135.111" x2="96.132" y2="145.003" stroke="black" stroke-width="0.18"/>
<line x1="113.846" y1="135.111" x2="113.846" y2="145.003" stroke="black" stroke-width="0.18"/>
<line x1="96.132" y1="144.003" x2="113.846" y2="144.003" stroke="black" stroke-width="0.25"/>
<polygon points="96.132,144.003 98.532,143.253 98.532,144.753" fill="black"/>
<polygon points="113.846,144.003 111.446,144.753 111.446,143.253" fill="black"/>
<text x="104.989" y="142.903" font-family="Helvetica, Arial, sans-serif" font-size="2.6" font-weight="bold" text-anchor="middle" fill="black" paint-order="stroke" stroke="white" stroke-width="0.9">-17.71</text>
<line x1="113.846" y1="135.111" x2="102.846" y2="135.111" stroke="black" stroke-width="0.18"/>
<line x1="113.846" y1="152.894" x2="102.846" y2="152.894" stroke="black" stroke-width="0.18"/>
<line x1="103.846" y1="135.111" x2="103.846" y2="152.894" stroke="black" stroke-width="0.25"/>
<polygon points="103.846,135.111 104.596,137.511 103.096,137.511" fill="black"/>
<polygon points="103.846,152.894 103.096,150.494 104.596,150.494" fill="black"/>
<text x="102.446" y="145.003" font-family="Helvetica, Arial, sans-serif" font-size="2.6" font-weight="bold" text-anchor="end" fill="black" paint-order="stroke" stroke="white" stroke-width="0.9">17.78</text>
<line x1="108.742" y1="154.690" x2="103.085" y2="160.347" stroke="black" stroke-width="0.25"/>
<polygon points="108.742,154.690 107.575,156.917 106.514,155.857" fill="black"/>
<line x1="103.085" y1="160.347" x2="97.085" y2="160.347" stroke="black" stroke-width="0.25"/>
<text x="96.285" y="159.447" font-family="Helvetica, Arial, sans-serif" font-size="2.6" font-weight="bold" text-anchor="end" fill="black" paint-order="stroke" stroke="white" stroke-width="0.9">Ø5.08 (4×)</text>
</svg>
