<svg xmlns="http://www.w3.org/2000/svg" width="210mm" height="279mm" viewBox="0 0 210 279">
<rect x="0" y="0" width="210" height="279" fill="white"/>
<text x="105.000" y="12.000" font-family="Helvetica, Arial, sans-serif" font-size="5" font-weight="bold" text-anchor="middle" fill="black">Plug Puller — Standard 3-prong plug (NEMA 5-15) · Large</text>
<text x="105.000" y="17.500" font-family="Helvetica, Arial, sans-serif" font-size="2.8" font-weight="normal" text-anchor="middle" fill="black">1:1 outline sheet — print at 100% scale / “Actual size”, never “fit to page”. Check the calibration square before trusting anything.</text>
<rect x="14" y="22" width="50" height="50" fill="none" stroke="black" stroke-width="0.4"/>
<text x="39.000" y="45.500" font-family="Helvetica, Arial, sans-serif" font-size="3.4" font-weight="bold" text-anchor="middle" fill="black">CALIBRATION</text>
<text x="39.000" y="50.500" font-family="Helvetica, Arial, sans-serif" font-size="3.4" font-weight="normal" text-anchor="middle" fill="black">50 × 50 mm</text>
<text x="39.000" y="56.500" font-family="Helvetica, Arial, sans-serif" font-size="2.6" font-weight="normal" text-anchor="middle" fill="#444444">Measure me with a ruler.</text>
<text x="39.000" y="60.500" font-family="Helvetica, Arial, sans-serif" font-size="2.6" font-weight="normal" text-anchor="middle" fill="#444444">Not 50 mm? Re-print at 100%.</text>
<rect x="70" y="22" width="126" height="50" fill="none" stroke="black" stroke-width="0.3"/>
<text x="73.000" y="27.000" font-family="Helvetica, Arial, sans-serif" font-size="3.4" font-weight="bold" text-anchor="start" fill="black">Standard 3-prong plug</text>
<text x="73.000" y="31.600" font-family="Helvetica, Arial, sans-serif" font-size="2.8" font-weight="normal" text-anchor="start" fill="black">Flat tool · Large hand size</text>
<text x="73.000" y="35.400" font-family="Helvetica, Arial, sans-serif" font-size="2.8" font-weight="normal" text-anchor="start" fill="black">Printed footprint ≈ 83.46 × 97.5 mm</text>
<text x="73.000" y="40.000" font-family="Helvetica, Arial, sans-serif" font-size="2.6" font-weight="normal" text-anchor="start" fill="#333333">Customizer settings for this exact tool:</text>
<text x="73.000" y="43.400" font-family="Helvetica, Arial, sans-serif" font-size="2.6" font-weight="normal" text-anchor="start" fill="#333333">  tool_style = Flat tool</text>
<text x="73.000" y="46.800" font-family="Helvetica, Arial, sans-serif" font-size="2.6" font-weight="normal" text-anchor="start" fill="#333333">  plug_preset =</text>
<text x="73.000" y="50.200" font-family="Helvetica, Arial, sans-serif" font-size="2.6" font-weight="normal" text-anchor="start" fill="#333333">      Standard 3-prong plug - NEMA 5-15</text>
<text x="73.000" y="53.600" font-family="Helvetica, Arial, sans-serif" font-size="2.6" font-weight="normal" text-anchor="start" fill="#333333">  size = Large</text>
<text x="73.000" y="57.000" font-family="Helvetica, Arial, sans-serif" font-size="2.6" font-weight="normal" text-anchor="start" fill="#333333">  (everything else at its default)</text>
<text x="133.000" y="27.000" font-family="Helvetica, Arial, sans-serif" font-size="2.8" font-weight="bold" text-anchor="start" fill="black">Key dimensions</text>
<text x="133.000" y="31.000" font-family="Helvetica, Arial, sans-serif" font-size="2.6" font-weight="normal" text-anchor="start" fill="black">Body thickness: 7.15 mm (this sheet is 2D)</text>
<text x="133.000" y="34.500" font-family="Helvetica, Arial, sans-serif" font-size="2.6" font-weight="normal" text-anchor="start" fill="black">Finger holes: Ø28.4, 36 apart</text>
<text x="133.000" y="38.000" font-family="Helvetica, Arial, sans-serif" font-size="2.6" font-weight="normal" text-anchor="start" fill="black">Pocket: 33.3 wide × 46.2 deep</text>
<text x="133.000" y="41.500" font-family="Helvetica, Arial, sans-serif" font-size="2.6" font-weight="normal" text-anchor="start" fill="black">Wall notch: 28.27 wide × 3.81 deep</text>
<text x="133.000" y="45.000" font-family="Helvetica, Arial, sans-serif" font-size="2.6" font-weight="normal" text-anchor="start" fill="black">Zip holes: 4 × Ø5.08, rows 17.78 apart</text>
<text x="133.000" y="48.500" font-family="Helvetica, Arial, sans-serif" font-size="2.6" font-weight="normal" text-anchor="start" fill="black">J-hook cord gap: 7.76 mm</text>
<line x1="14.000" y1="248.000" x2="196.000" y2="248.000" stroke="#888888" stroke-width="0.2"/>
<text x="14.000" y="252.500" font-family="Helvetica, Arial, sans-serif" font-size="3.2" font-weight="bold" text-anchor="start" fill="black">How to use this sheet</text>
<text x="14.000" y="256.500" font-family="Helvetica, Arial, sans-serif" font-size="2.7" font-weight="normal" text-anchor="start" fill="black">1. Print at 100% and measure the calibration square — it must be exactly 50 × 50 mm.</text>
<text x="14.000" y="260.100" font-family="Helvetica, Arial, sans-serif" font-size="2.7" font-weight="normal" text-anchor="start" fill="black">2. Cut along the SOLID outline. Dashed lines are holes and the plug pocket — poke through the two big finger circles.</text>
<text x="14.000" y="263.700" font-family="Helvetica, Arial, sans-serif" font-size="2.7" font-weight="normal" text-anchor="start" fill="black">3. Hold the cutout on your plug at the wall: the plug fits the dashed pocket, the top notch straddles the wall plate.</text>
<text x="14.000" y="267.300" font-family="Helvetica, Arial, sans-serif" font-size="2.7" font-weight="normal" text-anchor="start" fill="black">4. Try the finger holes (large size). Wrong size? Try a neighbouring sheet, or print stl/Finger_Sizing_Stencil.stl.</text>
<text x="14.000" y="270.900" font-family="Helvetica, Arial, sans-serif" font-size="2.7" font-weight="normal" text-anchor="start" fill="black">5. Happy? Open the Customizer with the title-block settings and export your STL (docs/guides/quick-start-beginner.md).</text>
<text x="105.000" y="275.500" font-family="Helvetica, Arial, sans-serif" font-size="2.4" font-weight="normal" text-anchor="middle" fill="#444444">openscad-plug-puller v0.9 · outline_standard-3-prong_large.svg · scale 1:1 · guide: docs/guides/print-preview-outlines.md</text>
<path d="M 65.146 197.241 L 64.415 195.499 L 63.858 193.694 L 63.480 191.843 L 63.287 189.964 L 63.278 188.075 L 63.454 186.194 L 63.814 184.340 L 69.739 160.207 L 69.958 159.450 L 69.925 159.450 L 84.825 114.750 L 89.595 114.750 L 89.843 114.774 L 90.081 114.847 L 90.301 114.964 L 90.493 115.122 L 90.651 115.314 L 90.715 115.421 L 90.810 115.651 L 90.841 115.772 L 90.877 116.269 L 90.914 116.516 L 90.974 116.757 L 91.058 116.992 L 91.165 117.217 L 91.293 117.431 L 91.442 117.631 L 91.609 117.816 L 91.794 117.983 L 91.994 118.132 L 92.208 118.260 L 92.433 118.367 L 92.668 118.451 L 92.909 118.511 L 93.156 118.548 L 93.405 118.560 L 116.595 118.560 L 116.844 118.548 L 117.091 118.511 L 117.332 118.451 L 117.567 118.367 L 117.792 118.260 L 118.006 118.132 L 118.206 117.983 L 118.391 117.816 L 118.558 117.631 L 118.707 117.431 L 118.835 117.217 L 118.942 116.992 L 119.026 116.757 L 119.086 116.516 L 119.123 116.269 L 119.159 115.772 L 119.190 115.651 L 119.285 115.421 L 119.349 115.314 L 119.507 115.122 L 119.699 114.964 L 119.919 114.847 L 120.157 114.774 L 120.405 114.750 L 125.175 114.750 L 140.075 159.450 L 140.042 159.450 L 140.261 160.207 L 146.186 184.340 L 146.420 185.430 L 146.672 187.302 L 146.740 189.190 L 146.621 191.075 L 146.319 192.940 L 145.835 194.766 L 145.175 196.536 L 144.344 198.233 L 143.351 199.840 L 142.205 201.342 L 140.918 202.724 L 139.501 203.974 L 137.969 205.079 L 136.335 206.028 L 134.617 206.812 L 132.830 207.425 L 130.991 207.859 L 116.181 210.597 L 116.181 204.439 L 115.713 203.970 L 115.706 196.836 L 115.658 196.591 L 115.563 196.361 L 115.424 196.154 L 115.248 195.978 L 115.041 195.840 L 114.929 195.787 L 114.690 195.714 L 114.442 195.690 L 98.870 195.690 L 98.746 195.696 L 98.501 195.745 L 98.271 195.840 L 98.164 195.904 L 97.972 196.062 L 97.888 196.154 L 97.750 196.361 L 97.697 196.474 L 97.655 196.591 L 97.606 196.836 L 97.606 202.824 L 97.655 203.069 L 97.750 203.299 L 97.814 203.406 L 97.972 203.598 L 98.164 203.756 L 98.384 203.873 L 98.622 203.946 L 98.870 203.970 L 106.245 203.970 L 108.419 206.143 L 108.419 212.029 L 107.146 212.218 L 106.637 212.250 L 103.230 212.250 L 101.500 212.017 L 79.009 207.859 L 77.919 207.624 L 76.108 207.084 L 74.360 206.370 L 72.690 205.487 L 71.114 204.445 L 69.648 203.253 L 68.306 201.924 L 67.101 200.469 L 66.044 198.903 L 65.146 197.241 Z" fill="none" stroke="black" stroke-width="0.5" stroke-linejoin="round"/>
<path d="M 115.006 120.982 L 114.806 121.131 L 114.621 121.298 L 114.454 121.483 L 114.305 121.683 L 114.177 121.897 L 114.071 122.122 L 113.987 122.357 L 113.926 122.599 L 113.890 122.845 L 113.877 123.094 L 113.890 123.343 L 113.926 123.590 L 113.987 123.832 L 114.071 124.066 L 114.177 124.292 L 114.305 124.505 L 114.454 124.706 L 114.621 124.890 L 114.806 125.058 L 115.006 125.206 L 115.220 125.334 L 115.445 125.441 L 115.680 125.525 L 115.922 125.586 L 116.168 125.622 L 116.417 125.634 L 116.666 125.622 L 116.913 125.586 L 117.155 125.525 L 117.389 125.441 L 117.615 125.334 L 117.828 125.206 L 118.029 125.058 L 118.213 124.890 L 118.381 124.706 L 118.529 124.505 L 118.657 124.292 L 118.764 124.066 L 118.848 123.832 L 118.909 123.590 L 118.945 123.343 L 118.957 123.094 L 118.945 122.845 L 118.909 122.599 L 118.848 122.357 L 118.764 122.122 L 118.657 121.897 L 118.529 121.683 L 118.381 121.483 L 118.213 121.298 L 118.029 121.131 L 117.828 120.982 L 117.615 120.854 L 117.389 120.748 L 117.155 120.664 L 116.913 120.603 L 116.666 120.567 L 116.417 120.554 L 116.168 120.567 L 115.922 120.603 L 115.680 120.664 L 115.445 120.748 L 115.220 120.854 L 115.006 120.982 Z" fill="none" stroke="black" stroke-width="0.35" stroke-linejoin="round" stroke-dasharray="1.6,1.1"/>
<path d="M 113.628 138.347 L 113.382 138.383 L 113.140 138.444 L 112.905 138.528 L 112.680 138.634 L 112.466 138.762 L 112.266 138.911 L 112.081 139.078 L 111.914 139.263 L 111.765 139.463 L 111.637 139.677 L 111.531 139.902 L 111.447 140.137 L 111.386 140.379 L 111.350 140.625 L 111.337 140.874 L 111.350 141.123 L 111.386 141.370 L 111.447 141.612 L 111.531 141.846 L 111.637 142.072 L 111.765 142.285 L 111.914 142.486 L 112.081 142.670 L 112.266 142.838 L 112.466 142.986 L 112.680 143.114 L 112.905 143.221 L 113.140 143.305 L 113.382 143.366 L 113.628 143.402 L 113.877 143.414 L 114.126 143.402 L 114.373 143.366 L 114.615 143.305 L 114.849 143.221 L 115.075 143.114 L 115.288 142.986 L 115.489 142.838 L 115.673 142.670 L 115.841 142.486 L 115.989 142.285 L 116.117 142.072 L 116.224 141.846 L 116.308 141.612 L 116.369 141.370 L 116.405 141.123 L 116.417 140.874 L 116.405 140.625 L 116.369 140.379 L 116.308 140.137 L 116.224 139.902 L 116.117 139.677 L 115.989 139.463 L 115.841 139.263 L 115.673 139.078 L 115.489 138.911 L 115.288 138.762 L 115.075 138.634 L 114.849 138.528 L 114.615 138.444 L 114.373 138.383 L 114.126 138.347 L 113.877 138.334 L 113.628 138.347 Z" fill="none" stroke="black" stroke-width="0.35" stroke-linejoin="round" stroke-dasharray="1.6,1.1"/>
<path d="M 116.358 150.943 L 116.358 150.943 L 116.358 150.943 L 116.358 150.943 Z" fill="none" stroke="black" stroke-width="0.35" stroke-linejoin="round" stroke-dasharray="1.6,1.1"/>
<path d="M 117.012 154.544 L 116.462 156.057 L 116.419 156.348 L 116.425 160.754 L 116.482 161.043 L 116.532 161.181 L 116.670 161.441 L 116.758 161.559 L 116.966 161.767 L 117.210 161.930 L 117.343 161.993 L 117.625 162.079 L 117.917 162.107 L 118.064 162.100 L 118.282 162.063 L 119.254 161.819 L 121.118 161.542 L 123.000 161.450 L 124.882 161.542 L 126.746 161.819 L 128.573 162.277 L 130.348 162.912 L 132.051 163.717 L 133.667 164.686 L 134.440 165.250 L 134.706 165.376 L 134.846 165.418 L 135.137 165.462 L 135.431 165.447 L 135.575 165.418 L 135.852 165.319 L 136.104 165.168 L 136.322 164.971 L 136.497 164.734 L 136.567 164.605 L 136.666 164.328 L 136.695 164.183 L 136.709 164.037 L 136.695 163.743 L 136.113 161.347 L 135.712 159.958 L 124.673 126.843 L 124.620 126.706 L 124.475 126.451 L 124.282 126.228 L 124.170 126.133 L 123.921 125.976 L 123.647 125.871 L 123.503 125.839 L 123.210 125.818 L 122.918 125.855 L 122.639 125.948 L 122.383 126.093 L 122.161 126.286 L 121.981 126.518 L 121.855 126.728 L 121.619 127.059 L 121.549 127.188 L 121.450 127.465 L 119.814 137.719 L 119.813 137.866 L 119.852 138.158 L 120.136 138.976 L 120.292 139.598 L 120.386 140.233 L 120.417 140.874 L 120.386 141.515 L 120.292 142.150 L 120.136 142.773 L 119.920 143.377 L 119.645 143.957 L 119.315 144.508 L 118.702 145.321 L 118.576 145.587 L 118.534 145.727 L 117.308 153.362 L 117.012 154.544 Z" fill="none" stroke="black" stroke-width="0.35" stroke-linejoin="round" stroke-dasharray="1.6,1.1"/>
<path d="M 86.823 125.819 L 86.529 125.834 L 86.385 125.863 L 86.108 125.962 L 85.978 126.031 L 85.856 126.113 L 85.638 126.310 L 85.463 126.546 L 85.337 126.812 L 74.288 159.958 L 73.887 161.347 L 73.332 163.606 L 73.291 163.897 L 73.291 164.044 L 73.336 164.335 L 73.436 164.611 L 73.506 164.740 L 73.682 164.976 L 73.787 165.079 L 74.024 165.254 L 74.290 165.378 L 74.576 165.448 L 74.870 165.461 L 75.160 165.417 L 75.301 165.373 L 75.566 165.246 L 76.333 164.686 L 77.949 163.717 L 79.652 162.912 L 81.427 162.277 L 83.254 161.819 L 85.118 161.542 L 87.000 161.450 L 88.882 161.542 L 90.746 161.819 L 91.718 162.063 L 91.863 162.091 L 92.156 162.106 L 92.303 162.091 L 92.588 162.020 L 92.724 161.963 L 92.976 161.812 L 93.090 161.719 L 93.287 161.501 L 93.439 161.249 L 93.495 161.113 L 93.566 160.828 L 93.583 160.607 L 93.583 156.422 L 93.554 156.129 L 93.518 155.986 L 93.403 155.704 L 92.988 154.544 L 92.692 153.362 L 91.462 145.711 L 91.418 145.571 L 91.289 145.307 L 90.685 144.508 L 90.355 143.957 L 90.080 143.377 L 89.864 142.773 L 89.708 142.150 L 89.614 141.515 L 89.583 140.874 L 89.614 140.233 L 89.708 139.598 L 89.864 138.976 L 90.144 138.174 L 90.172 138.029 L 90.187 137.736 L 88.576 127.593 L 88.501 127.309 L 88.373 127.044 L 88.145 126.728 L 87.954 126.424 L 87.861 126.310 L 87.643 126.113 L 87.391 125.962 L 87.114 125.863 L 86.823 125.819 Z" fill="none" stroke="black" stroke-width="0.35" stroke-linejoin="round" stroke-dasharray="1.6,1.1"/>
<path d="M 82.878 167.061 L 81.566 167.531 L 80.306 168.127 L 79.111 168.843 L 77.992 169.673 L 76.959 170.609 L 76.023 171.642 L 75.193 172.761 L 74.477 173.956 L 73.881 175.216 L 73.411 176.528 L 73.073 177.880 L 72.868 179.258 L 72.800 180.650 L 72.868 182.042 L 73.073 183.420 L 73.411 184.772 L 73.881 186.084 L 74.477 187.344 L 75.193 188.539 L 76.023 189.658 L 76.959 190.691 L 77.992 191.627 L 79.111 192.457 L 80.306 193.173 L 81.566 193.769 L 82.878 194.239 L 84.230 194.577 L 85.608 194.782 L 87.000 194.850 L 88.392 194.782 L 89.770 194.577 L 91.122 194.239 L 92.434 193.769 L 93.694 193.173 L 94.889 192.457 L 96.008 191.627 L 97.041 190.691 L 97.977 189.658 L 98.807 188.539 L 99.523 187.344 L 100.119 186.084 L 100.589 184.772 L 100.927 183.420 L 101.132 182.042 L 101.200 180.650 L 101.132 179.258 L 100.927 177.880 L 100.589 176.528 L 100.119 175.216 L 99.523 173.956 L 98.807 172.761 L 97.977 171.642 L 97.041 170.609 L 96.008 169.673 L 94.889 168.843 L 93.694 168.127 L 92.434 167.531 L 91.122 167.061 L 89.770 166.723 L 88.392 166.518 L 87.000 166.450 L 85.608 166.518 L 84.230 166.723 L 82.878 167.061 Z" fill="none" stroke="black" stroke-width="0.35" stroke-linejoin="round" stroke-dasharray="1.6,1.1"/>
<path d="M 69.761 160.379 L 69.761 160.379 L 69.761 160.379 L 69.761 160.379 Z" fill="none" stroke="black" stroke-width="0.35" stroke-linejoin="round" stroke-dasharray="1.6,1.1"/>
<path d="M 74.268 172.882 L 73.964 173.388 L 74.584 172.354 L 74.268 172.882 Z" fill="none" stroke="black" stroke-width="0.35" stroke-linejoin="round" stroke-dasharray="1.6,1.1"/>
<path d="M 93.583 120.554 L 93.334 120.567 L 93.087 120.603 L 92.845 120.664 L 92.611 120.748 L 92.385 120.854 L 92.172 120.982 L 91.971 121.131 L 91.787 121.298 L 91.619 121.483 L 91.471 121.683 L 91.343 121.897 L 91.236 122.122 L 91.152 122.357 L 91.091 122.599 L 91.055 122.845 L 91.043 123.094 L 91.055 123.343 L 91.091 123.590 L 91.152 123.832 L 91.236 124.066 L 91.343 124.292 L 91.471 124.505 L 91.619 124.706 L 91.787 124.890 L 91.971 125.058 L 92.172 125.206 L 92.385 125.334 L 92.611 125.441 L 92.845 125.525 L 93.087 125.586 L 93.334 125.622 L 93.583 125.634 L 93.832 125.622 L 94.078 125.586 L 94.320 125.525 L 94.555 125.441 L 94.780 125.334 L 94.994 125.206 L 95.194 125.058 L 95.379 124.890 L 95.546 124.706 L 95.695 124.505 L 95.823 124.292 L 95.929 124.066 L 96.013 123.832 L 96.074 123.590 L 96.110 123.343 L 96.123 123.094 L 96.110 122.845 L 96.074 122.599 L 96.013 122.357 L 95.929 122.122 L 95.823 121.897 L 95.695 121.683 L 95.546 121.483 L 95.379 121.298 L 95.194 121.131 L 94.994 120.982 L 94.780 120.854 L 94.555 120.748 L 94.320 120.664 L 94.078 120.603 L 93.832 120.567 L 93.583 120.554 Z" fill="none" stroke="black" stroke-width="0.35" stroke-linejoin="round" stroke-dasharray="1.6,1.1"/>
<path d="M 95.385 138.444 L 95.151 138.528 L 94.925 138.634 L 94.712 138.762 L 94.511 138.911 L 94.327 139.078 L 94.159 139.263 L 94.011 139.463 L 93.883 139.677 L 93.776 139.902 L 93.692 140.137 L 93.631 140.379 L 93.595 140.625 L 93.583 140.874 L 93.595 141.123 L 93.631 141.370 L 93.692 141.612 L 93.776 141.846 L 93.883 142.072 L 94.011 142.285 L 94.159 142.486 L 94.327 142.670 L 94.511 142.838 L 94.712 142.986 L 94.925 143.114 L 95.151 143.221 L 95.385 143.305 L 95.627 143.366 L 95.874 143.402 L 96.123 143.414 L 96.372 143.402 L 96.618 143.366 L 96.860 143.305 L 97.095 143.221 L 97.320 143.114 L 97.534 142.986 L 97.734 142.838 L 97.919 142.670 L 98.086 142.486 L 98.235 142.285 L 98.363 142.072 L 98.469 141.846 L 98.553 141.612 L 98.614 141.370 L 98.650 141.123 L 98.663 140.874 L 98.650 140.625 L 98.614 140.379 L 98.553 140.137 L 98.469 139.902 L 98.363 139.677 L 98.235 139.463 L 98.086 139.263 L 97.919 139.078 L 97.734 138.911 L 97.534 138.762 L 97.320 138.634 L 97.095 138.528 L 96.860 138.444 L 96.618 138.383 L 96.372 138.347 L 96.123 138.334 L 95.874 138.347 L 95.627 138.383 L 95.385 138.444 Z" fill="none" stroke="black" stroke-width="0.35" stroke-linejoin="round" stroke-dasharray="1.6,1.1"/>
<path d="M 89.949 117.066 L 89.949 117.066 L 89.949 117.066 L 89.949 117.066 Z" fill="none" stroke="black" stroke-width="0.35" stroke-linejoin="round" stroke-dasharray="1.6,1.1"/>
<path d="M 93.172 128.530 L 93.172 128.530 L 93.172 128.530 L 93.172 128.530 Z" fill="none" stroke="black" stroke-width="0.35" stroke-linejoin="round" stroke-dasharray="1.6,1.1"/>
<path d="M 90.787 141.865 L 90.787 141.865 L 90.787 141.865 L 90.787 141.865 Z" fill="none" stroke="black" stroke-width="0.35" stroke-linejoin="round" stroke-dasharray="1.6,1.1"/>
<path d="M 90.845 141.850 L 90.845 141.850 L 90.845 141.850 L 90.845 141.850 Z" fill="none" stroke="black" stroke-width="0.35" stroke-linejoin="round" stroke-dasharray="1.6,1.1"/>
<path d="M 91.980 134.084 L 91.980 134.084 L 91.980 134.084 L 91.980 134.084 Z" fill="none" stroke="black" stroke-width="0.35" stroke-linejoin="round" stroke-dasharray="1.6,1.1"/>
<path d="M 97.092 196.028 L 97.092 196.028 L 97.092 196.028 L 97.092 196.028 Z" fill="none" stroke="black" stroke-width="0.35" stroke-linejoin="round" stroke-dasharray="1.6,1.1"/>
<path d="M 99.864 161.230 L 99.864 161.230 L 99.864 161.230 L 99.864 161.230 Z" fill="none" stroke="black" stroke-width="0.35" stroke-linejoin="round" stroke-dasharray="1.6,1.1"/>
<path d="M 102.237 179.149 L 102.237 179.149 L 102.017 177.663 L 102.237 179.149 Z" fill="none" stroke="black" stroke-width="0.35" stroke-linejoin="round" stroke-dasharray="1.6,1.1"/>
<path d="M 123.000 166.450 L 121.608 166.518 L 120.230 166.723 L 118.878 167.061 L 117.566 167.531 L 116.306 168.127 L 115.111 168.843 L 113.992 169.673 L 112.959 170.609 L 112.023 171.642 L 111.193 172.761 L 110.477 173.956 L 109.881 175.216 L 109.411 176.528 L 109.073 177.880 L 108.868 179.258 L 108.800 180.650 L 108.868 182.042 L 109.073 183.420 L 109.411 184.772 L 109.881 186.084 L 110.477 187.344 L 111.193 188.539 L 112.023 189.658 L 112.959 190.691 L 113.992 191.627 L 115.111 192.457 L 116.306 193.173 L 117.566 193.769 L 118.878 194.239 L 120.230 194.577 L 121.608 194.782 L 123.000 194.850 L 124.392 194.782 L 125.770 194.577 L 127.122 194.239 L 128.434 193.769 L 129.694 193.173 L 130.889 192.457 L 132.008 191.627 L 133.041 190.691 L 133.977 189.658 L 134.807 188.539 L 135.523 187.344 L 136.119 186.084 L 136.589 184.772 L 136.927 183.420 L 137.132 182.042 L 137.200 180.650 L 137.132 179.258 L 136.927 177.880 L 136.589 176.528 L 136.119 175.216 L 135.523 173.956 L 134.807 172.761 L 133.977 171.642 L 133.041 170.609 L 132.008 169.673 L 130.889 168.843 L 129.694 168.127 L 128.434 167.531 L 127.122 167.061 L 125.770 166.723 L 124.392 166.518 L 123.000 166.450 Z" fill="none" stroke="black" stroke-width="0.35" stroke-linejoin="round" stroke-dasharray="1.6,1.1"/>
<path d="M 121.140 116.201 L 121.140 116.201 L 121.140 116.201 L 121.140 116.201 Z" fill="none" stroke="black" stroke-width="0.35" stroke-linejoin="round" stroke-dasharray="1.6,1.1"/>
<path d="M 117.521 125.511 L 117.521 125.511 L 117.521 125.511 L 117.521 125.511 Z" fill="none" stroke="black" stroke-width="0.35" stroke-linejoin="round" stroke-dasharray="1.6,1.1"/>
<path d="M 115.557 127.859 L 115.557 127.859 L 115.557 127.859 L 115.557 127.859 Z" fill="none" stroke="black" stroke-width="0.35" stroke-linejoin="round" stroke-dasharray="1.6,1.1"/>
<path d="M 117.720 141.655 L 117.720 141.655 L 117.720 141.655 L 117.720 141.655 Z" fill="none" stroke="black" stroke-width="0.35" stroke-linejoin="round" stroke-dasharray="1.6,1.1"/>
<path d="M 117.548 193.813 L 118.874 194.250 L 117.548 193.813 L 117.548 193.813 Z" fill="none" stroke="black" stroke-width="0.35" stroke-linejoin="round" stroke-dasharray="1.6,1.1"/>
<path d="M 118.494 165.797 L 119.972 165.427 L 119.163 165.629 L 118.494 165.797 Z" fill="none" stroke="black" stroke-width="0.35" stroke-linejoin="round" stroke-dasharray="1.6,1.1"/>
<path d="M 117.661 167.484 L 117.561 167.520 L 117.561 167.520 L 117.661 167.484 Z" fill="none" stroke="black" stroke-width="0.35" stroke-linejoin="round" stroke-dasharray="1.6,1.1"/>
<path d="M 134.781 168.816 L 134.781 168.816 L 134.781 168.816 L 134.781 168.816 Z" fill="none" stroke="black" stroke-width="0.35" stroke-linejoin="round" stroke-dasharray="1.6,1.1"/>
<path d="M 137.654 172.654 L 137.654 172.654 L 137.654 172.654 L 137.654 172.654 Z" fill="none" stroke="black" stroke-width="0.35" stroke-linejoin="round" stroke-dasharray="1.6,1.1"/>
<path d="M 139.139 183.860 L 139.139 183.860 L 138.746 185.427 L 139.139 183.860 Z" fill="none" stroke="black" stroke-width="0.35" stroke-linejoin="round" stroke-dasharray="1.6,1.1"/>
<path d="M 138.836 175.846 L 138.921 175.820 L 138.746 175.873 L 138.836 175.846 Z" fill="none" stroke="black" stroke-width="0.35" stroke-linejoin="round" stroke-dasharray="1.6,1.1"/>
<path d="M 146.178 184.332 L 146.178 184.332 L 146.178 184.332 L 146.178 184.332 Z" fill="none" stroke="black" stroke-width="0.35" stroke-linejoin="round" stroke-dasharray="1.6,1.1"/>
<path d="M 144.224 184.415 L 144.224 184.415 L 144.224 184.415 L 144.224 184.415 Z" fill="none" stroke="black" stroke-width="0.35" stroke-linejoin="round" stroke-dasharray="1.6,1.1"/>
<path d="M 88.731 114.808 L 88.743 114.768 L 88.781 114.750 L 89.593 114.750 L 89.843 114.775 L 90.085 114.849 L 90.300 114.964 L 90.489 115.119 L 90.653 115.318 L 90.715 115.421 L 90.810 115.651 L 90.840 115.772 L 90.877 116.268 L 90.914 116.514 L 90.974 116.756 L 91.058 116.991 L 91.166 117.218 L 91.294 117.432 L 91.441 117.630 L 91.608 117.815 L 91.793 117.983 L 91.993 118.131 L 92.207 118.259 L 92.432 118.366 L 92.667 118.450 L 92.908 118.511 L 93.155 118.548 L 93.406 118.560 L 116.594 118.560 L 116.845 118.548 L 117.092 118.511 L 117.333 118.450 L 117.568 118.366 L 117.793 118.259 L 118.007 118.131 L 118.205 117.984 L 118.390 117.817 L 118.558 117.632 L 118.706 117.432 L 118.834 117.218 L 118.941 116.993 L 119.025 116.758 L 119.086 116.517 L 119.123 116.270 L 119.160 115.772 L 119.190 115.651 L 119.284 115.425 L 119.351 115.312 L 119.504 115.126 L 119.696 114.967 L 119.919 114.847 L 120.162 114.774 L 120.407 114.750 L 121.219 114.750 L 121.265 114.780 L 121.107 115.819 L 121.082 116.326 L 120.850 117.890 L 120.646 118.704 L 115.181 152.925 L 114.934 153.911 L 114.589 154.875 L 114.153 155.795 L 113.630 156.669 L 113.023 157.487 L 112.338 158.242 L 111.587 158.923 L 110.769 159.530 L 109.895 160.053 L 108.975 160.489 L 108.016 160.833 L 107.027 161.080 L 106.020 161.230 L 105.002 161.280 L 103.985 161.231 L 102.977 161.081 L 101.989 160.834 L 101.030 160.491 L 100.109 160.056 L 99.235 159.532 L 98.417 158.926 L 97.662 158.242 L 96.977 157.487 L 96.370 156.669 L 95.847 155.795 L 95.411 154.875 L 95.067 153.916 L 94.819 152.925 L 89.354 118.704 L 89.150 117.890 L 88.918 116.326 L 88.893 115.819 L 88.731 114.808 Z" fill="none" stroke="#333333" stroke-width="0.35" stroke-linejoin="round" stroke-dasharray="2.4,1.4"/>
<path d="M 114.807 121.130 L 114.622 121.297 L 114.455 121.482 L 114.306 121.682 L 114.178 121.896 L 114.071 122.121 L 113.987 122.356 L 113.926 122.598 L 113.890 122.844 L 113.877 123.093 L 113.890 123.342 L 113.926 123.589 L 113.986 123.830 L 114.070 124.065 L 114.177 124.291 L 114.305 124.504 L 114.453 124.705 L 114.620 124.889 L 114.805 125.057 L 115.005 125.206 L 115.219 125.334 L 115.444 125.440 L 115.679 125.525 L 115.921 125.585 L 116.167 125.622 L 116.416 125.634 L 116.665 125.622 L 116.912 125.586 L 117.153 125.525 L 117.388 125.441 L 117.614 125.335 L 117.827 125.207 L 118.028 125.058 L 118.212 124.891 L 118.380 124.707 L 118.529 124.506 L 118.657 124.293 L 118.763 124.067 L 118.848 123.833 L 118.908 123.591 L 118.945 123.344 L 118.957 123.096 L 118.945 122.847 L 118.909 122.600 L 118.848 122.358 L 118.764 122.123 L 118.658 121.898 L 118.530 121.684 L 118.382 121.484 L 118.214 121.299 L 118.030 121.132 L 117.829 120.983 L 117.616 120.855 L 117.390 120.748 L 117.156 120.664 L 116.914 120.603 L 116.668 120.567 L 116.419 120.554 L 116.170 120.566 L 115.923 120.603 L 115.681 120.663 L 115.446 120.747 L 115.221 120.854 L 115.007 120.982 L 114.807 121.130 Z" fill="none" stroke="#333333" stroke-width="0.35" stroke-linejoin="round" stroke-dasharray="2.4,1.4"/>
<path d="M 113.383 138.383 L 113.141 138.443 L 112.906 138.527 L 112.681 138.634 L 112.467 138.762 L 112.267 138.910 L 112.082 139.077 L 111.915 139.262 L 111.766 139.462 L 111.638 139.676 L 111.531 139.901 L 111.447 140.136 L 111.386 140.378 L 111.350 140.624 L 111.337 140.873 L 111.350 141.122 L 111.386 141.369 L 111.446 141.610 L 111.530 141.845 L 111.637 142.071 L 111.765 142.284 L 111.913 142.485 L 112.080 142.669 L 112.265 142.837 L 112.465 142.986 L 112.679 143.114 L 112.904 143.220 L 113.139 143.305 L 113.381 143.365 L 113.627 143.402 L 113.876 143.414 L 114.125 143.402 L 114.372 143.366 L 114.613 143.305 L 114.848 143.221 L 115.074 143.115 L 115.287 142.987 L 115.488 142.838 L 115.672 142.671 L 115.840 142.487 L 115.989 142.286 L 116.117 142.073 L 116.223 141.847 L 116.308 141.613 L 116.368 141.371 L 116.405 141.124 L 116.417 140.876 L 116.405 140.627 L 116.369 140.380 L 116.308 140.138 L 116.224 139.903 L 116.118 139.678 L 115.990 139.464 L 115.842 139.264 L 115.674 139.079 L 115.490 138.912 L 115.289 138.763 L 115.076 138.635 L 114.850 138.528 L 114.616 138.444 L 114.374 138.383 L 114.128 138.347 L 113.879 138.334 L 113.630 138.346 L 113.383 138.383 Z" fill="none" stroke="#333333" stroke-width="0.35" stroke-linejoin="round" stroke-dasharray="2.4,1.4"/>
<path d="M 95.152 138.527 L 94.926 138.634 L 94.713 138.762 L 94.512 138.910 L 94.328 139.077 L 94.160 139.262 L 94.011 139.462 L 93.883 139.676 L 93.777 139.901 L 93.692 140.136 L 93.632 140.378 L 93.595 140.624 L 93.583 140.873 L 93.595 141.122 L 93.631 141.369 L 93.692 141.610 L 93.776 141.845 L 93.882 142.071 L 94.010 142.284 L 94.158 142.485 L 94.326 142.669 L 94.510 142.837 L 94.711 142.986 L 94.924 143.114 L 95.150 143.220 L 95.384 143.305 L 95.626 143.365 L 95.872 143.402 L 96.121 143.414 L 96.370 143.402 L 96.617 143.366 L 96.859 143.305 L 97.094 143.221 L 97.319 143.115 L 97.533 142.987 L 97.733 142.838 L 97.918 142.671 L 98.085 142.487 L 98.234 142.286 L 98.362 142.073 L 98.469 141.847 L 98.553 141.613 L 98.614 141.371 L 98.650 141.124 L 98.663 140.876 L 98.650 140.627 L 98.614 140.380 L 98.554 140.138 L 98.470 139.903 L 98.363 139.678 L 98.235 139.464 L 98.087 139.264 L 97.920 139.079 L 97.735 138.912 L 97.535 138.763 L 97.321 138.635 L 97.096 138.528 L 96.861 138.444 L 96.619 138.383 L 96.373 138.347 L 96.124 138.334 L 95.875 138.346 L 95.628 138.383 L 95.387 138.443 L 95.152 138.527 Z" fill="none" stroke="#333333" stroke-width="0.35" stroke-linejoin="round" stroke-dasharray="2.4,1.4"/>
<path d="M 93.335 120.566 L 93.088 120.603 L 92.847 120.663 L 92.612 120.747 L 92.386 120.854 L 92.173 120.982 L 91.972 121.130 L 91.788 121.297 L 91.620 121.482 L 91.471 121.682 L 91.343 121.896 L 91.237 122.121 L 91.152 122.356 L 91.092 122.598 L 91.055 122.844 L 91.043 123.093 L 91.055 123.342 L 91.091 123.589 L 91.152 123.830 L 91.236 124.065 L 91.342 124.291 L 91.470 124.504 L 91.618 124.705 L 91.786 124.889 L 91.970 125.057 L 92.171 125.206 L 92.384 125.334 L 92.610 125.440 L 92.844 125.525 L 93.086 125.585 L 93.332 125.622 L 93.581 125.634 L 93.830 125.622 L 94.077 125.586 L 94.319 125.525 L 94.554 125.441 L 94.779 125.335 L 94.993 125.207 L 95.193 125.058 L 95.378 124.891 L 95.545 124.707 L 95.694 124.506 L 95.822 124.293 L 95.929 124.067 L 96.013 123.833 L 96.074 123.591 L 96.110 123.344 L 96.123 123.096 L 96.110 122.847 L 96.074 122.600 L 96.014 122.358 L 95.930 122.123 L 95.823 121.898 L 95.695 121.684 L 95.547 121.484 L 95.380 121.299 L 95.195 121.132 L 94.995 120.983 L 94.781 120.855 L 94.556 120.748 L 94.321 120.664 L 94.079 120.603 L 93.833 120.567 L 93.584 120.554 L 93.335 120.566 Z" fill="none" stroke="#333333" stroke-width="0.35" stroke-linejoin="round" stroke-dasharray="2.4,1.4"/>
<line x1="85.537" y1="180.441" x2="88.337" y2="180.441" stroke="black" stroke-width="0.2"/>
<line x1="86.937" y1="179.041" x2="86.937" y2="181.841" stroke="black" stroke-width="0.2"/>
<line x1="121.600" y1="180.432" x2="124.400" y2="180.432" stroke="black" stroke-width="0.2"/>
<line x1="123.000" y1="179.032" x2="123.000" y2="181.832" stroke="black" stroke-width="0.2"/>
<line x1="94.711" y1="140.837" x2="97.511" y2="140.837" stroke="black" stroke-width="0.2"/>
<line x1="96.111" y1="139.437" x2="96.111" y2="142.237" stroke="black" stroke-width="0.2"/>
<line x1="112.474" y1="140.835" x2="115.274" y2="140.835" stroke="black" stroke-width="0.2"/>
<line x1="113.874" y1="139.435" x2="113.874" y2="142.235" stroke="black" stroke-width="0.2"/>
<line x1="92.183" y1="123.055" x2="94.983" y2="123.055" stroke="black" stroke-width="0.2"/>
<line x1="93.583" y1="121.655" x2="93.583" y2="124.455" stroke="black" stroke-width="0.2"/>
<line x1="114.996" y1="123.062" x2="117.796" y2="123.062" stroke="black" stroke-width="0.2"/>
<line x1="116.396" y1="121.662" x2="116.396" y2="124.462" stroke="black" stroke-width="0.2"/>
<line x1="63.278" y1="114.750" x2="53.278" y2="114.750" stroke="black" stroke-width="0.18"/>
<line x1="63.278" y1="212.250" x2="53.278" y2="212.250" stroke="black" stroke-width="0.18"/>
<line x1="54.278" y1="114.750" x2="54.278" y2="212.250" stroke="black" stroke-width="0.25"/>
<polygon points="54.278,114.750 55.028,117.150 53.528,117.150" fill="black"/>
<polygon points="54.278,212.250 53.528,209.850 55.028,209.850" fill="black"/>
<text x="52.878" y="164.500" font-family="Helvetica, Arial, sans-serif" font-size="3" font-weight="bold" text-anchor="end" fill="black" paint-order="stroke" stroke="white" stroke-width="0.9">97.5</text>
<line x1="63.278" y1="212.250" x2="63.278" y2="221.250" stroke="black" stroke-width="0.18"/>
<line x1="146.740" y1="212.250" x2="146.740" y2="221.250" stroke="black" stroke-width="0.18"/>
<line x1="63.278" y1="220.250" x2="146.740" y2="220.250" stroke="black" stroke-width="0.25"/>
<polygon points="63.278,220.250 65.678,219.500 65.678,221.000" fill="black"/>
<polygon points="146.740,220.250 144.340,221.000 144.340,219.500" fill="black"/>
<text x="105.009" y="224.150" font-family="Helvetica, Arial, sans-serif" font-size="3" font-weight="bold" text-anchor="middle" fill="black" paint-order="stroke" stroke="white" stroke-width="0.9">83.46</text>
<line x1="90.865" y1="114.750" x2="90.865" y2="107.750" stroke="black" stroke-width="0.18"/>
<line x1="119.135" y1="114.750" x2="119.135" y2="107.750" stroke="black" stroke-width="0.18"/>
<line x1="90.865" y1="108.750" x2="119.135" y2="108.750" stroke="black" stroke-width="0.25"/>
<polygon points="90.865,108.750 93.265,108.000 93.265,109.500" fill="black"/>
<polygon points="119.135,108.750 116.735,109.500 116.735,108.000" fill="black"/>
<text x="105.000" y="107.650" font-family="Helvetica, Arial, sans-serif" font-size="3" font-weight="bold" text-anchor="middle" fill="black" paint-order="stroke" stroke="white" stroke-width="0.9">notch 28.27</text>
<line x1="88.350" y1="114.750" x2="88.350" y2="101.250" stroke="black" stroke-width="0.18"/>
<line x1="121.650" y1="114.750" x2="121.650" y2="101.250" stroke="black" stroke-width="0.18"/>
<line x1="88.350" y1="102.250" x2="121.650" y2="102.250" stroke="black" stroke-width="0.25"/>
<polygon points="88.350,102.250 90.750,101.500 90.750,103.000" fill="black"/>
<polygon points="121.650,102.250 119.250,103.000 119.250,101.500" fill="black"/>
<text x="105.000" y="101.150" font-family="Helvetica, Arial, sans-serif" font-size="3" font-weight="bold" text-anchor="middle" fill="black" paint-order="stroke" stroke="white" stroke-width="0.9">pocket 33.3</text>
<line x1="146.740" y1="114.750" x2="155.740" y2="114.750" stroke="black" stroke-width="0.18"/>
<line x1="146.740" y1="160.950" x2="155.740" y2="160.950" stroke="black" stroke-width="0.18"/>
<line x1="154.740" y1="114.750" x2="154.740" y2="160.950" stroke="black" stroke-width="0.25"/>
<polygon points="154.740,114.750 155.490,117.150 153.990,117.150" fill="black"/>
<polygon points="154.740,160.950 153.990,158.550 155.490,158.550" fill="black"/>
<text x="156.140" y="138.850" font-family="Helvetica, Arial, sans-serif" font-size="3" font-weight="bold" text-anchor="start" fill="black" paint-order="stroke" stroke="white" stroke-width="0.9">pocket depth 46.2</text>
<line x1="86.937" y1="180.441" x2="86.937" y2="181.441" stroke="black" stroke-width="0.18"/>
<line x1="123.000" y1="180.441" x2="123.000" y2="181.441" stroke="black" stroke-width="0.18"/>
<line x1="86.937" y1="180.441" x2="123.000" y2="180.441" stroke="black" stroke-width="0.25"/>
<polygon points="86.937,180.441 89.337,179.691 89.337,181.191" fill="black"/>
<polygon points="123.000,180.441 120.600,181.191 120.600,179.691" fill="black"/>
<text x="104.968" y="179.341" font-family="Helvetica, Arial, sans-serif" font-size="3" font-weight="bold" text-anchor="middle" fill="black" paint-order="stroke" stroke="white" stroke-width="0.9">36</text>
<line x1="133.876" y1="189.557" x2="140.770" y2="195.343" stroke="black" stroke-width="0.25"/>
<polygon points="133.876,189.557 136.196,190.526 135.232,191.675" fill="black"/>
<line x1="140.770" y1="195.343" x2="146.770" y2="195.343" stroke="black" stroke-width="0.25"/>
<text x="147.570" y="194.443" font-family="Helvetica, Arial, sans-serif" font-size="3" font-weight="bold" text-anchor="start" fill="black" paint-order="stroke" stroke="white" stroke-width="0.9">Ø28.4 (2×)</text>
<line x1="93.583" y1="123.055" x2="93.583" y2="132.946" stroke="black" stroke-width="0.18"/>
<line x1="116.396" y1="123.055" x2="116.396" y2="132.946" stroke="black" stroke-width="0.18"/>
<line x1="93.583" y1="131.946" x2="116.396" y2="131.946" stroke="black" stroke-width="0.25"/>
<polygon points="93.583,131.946 95.983,131.196 95.983,132.696" fill="black"/>
<polygon points="116.396,131.946 113.996,132.696 113.996,131.196" fill="black"/>
<text x="104.989" y="130.846" font-family="Helvetica, Arial, sans-serif" font-size="2.6" font-weight="bold" text-anchor="middle" fill="black" paint-order="stroke" stroke="white" stroke-width="0.9">22.81</text>
<line x1="93.583" y1="123.055" x2="82.583" y2="123.055" stroke="black" stroke-width="0.18"/>
<line x1="93.583" y1="140.837" x2="82.583" y2="140.837" stroke="black" stroke-width="0.18"/>
<line x1="83.583" y1="123.055" x2="83.583" y2="140.837" stroke="black" stroke-width="0.25"/>
<polygon points="83.583,123.055 84.333,125.455 82.833,125.455" fill="black"/>
<polygon points="83.583,140.837 82.833,138.437 84.333,138.437" fill="black"/>
<text x="82.183" y="132.946" font-family="Helvetica, Arial, sans-serif" font-size="2.6" font-weight="bold" text-anchor="end" fill="black" paint-order="stroke" stroke="white" stroke-width="0.9">17.78</text>
<line x1="94.316" y1="142.633" x2="88.659" y2="148.290" stroke="black" stroke-width="0.25"/>
<polygon points="94.316,142.633 93.149,144.860 92.088,143.799" fill="black"/>
<line x1="88.659" y1="148.290" x2="82.659" y2="148.290" stroke="black" stroke-width="0.25"/>
<text x="81.859" y="147.390" font-family="Helvetica, Arial, sans-serif" font-size="2.6" font-weight="bold" text-anchor="end" fill="black" paint-order="stroke" stroke="white" stroke-width="0.9">Ø5.08 (4×)</text>
</svg>
