<svg xmlns="http://www.w3.org/2000/svg" width="210mm" height="279mm" viewBox="0 0 210 279">
<rect x="0" y="0" width="210" height="279" fill="white"/>
<text x="105.000" y="12.000" font-family="Helvetica, Arial, sans-serif" font-size="5" font-weight="bold" text-anchor="middle" fill="black">Plug Puller — Heavy-duty clamshell plate · Small</text>
<text x="105.000" y="17.500" font-family="Helvetica, Arial, sans-serif" font-size="2.8" font-weight="normal" text-anchor="middle" fill="black">1:1 outline sheet — print at 100% scale / “Actual size”, never “fit to page”. Check the calibration square before trusting anything.</text>
<rect x="14" y="22" width="50" height="50" fill="none" stroke="black" stroke-width="0.4"/>
<text x="39.000" y="45.500" font-family="Helvetica, Arial, sans-serif" font-size="3.4" font-weight="bold" text-anchor="middle" fill="black">CALIBRATION</text>
<text x="39.000" y="50.500" font-family="Helvetica, Arial, sans-serif" font-size="3.4" font-weight="normal" text-anchor="middle" fill="black">50 × 50 mm</text>
<text x="39.000" y="56.500" font-family="Helvetica, Arial, sans-serif" font-size="2.6" font-weight="normal" text-anchor="middle" fill="#444444">Measure me with a ruler.</text>
<text x="39.000" y="60.500" font-family="Helvetica, Arial, sans-serif" font-size="2.6" font-weight="normal" text-anchor="middle" fill="#444444">Not 50 mm? Re-print at 100%.</text>
<rect x="70" y="22" width="126" height="50" fill="none" stroke="black" stroke-width="0.3"/>
<text x="73.000" y="27.000" font-family="Helvetica, Arial, sans-serif" font-size="3.4" font-weight="bold" text-anchor="start" fill="black">Heavy-duty clamshell plate</text>
<text x="73.000" y="31.600" font-family="Helvetica, Arial, sans-serif" font-size="2.8" font-weight="normal" text-anchor="start" fill="black">Heavy-duty extension cord</text>
<text x="73.000" y="35.400" font-family="Helvetica, Arial, sans-serif" font-size="2.8" font-weight="normal" text-anchor="start" fill="black">Small hand size · the tool is TWO plates</text>
<text x="73.000" y="39.200" font-family="Helvetica, Arial, sans-serif" font-size="2.8" font-weight="normal" text-anchor="start" fill="black">Printed footprint ≈ 59.99 × 70.3 mm (one plate)</text>
<text x="73.000" y="43.800" font-family="Helvetica, Arial, sans-serif" font-size="2.6" font-weight="normal" text-anchor="start" fill="#333333">Customizer settings for this exact plate:</text>
<text x="73.000" y="47.200" font-family="Helvetica, Arial, sans-serif" font-size="2.6" font-weight="normal" text-anchor="start" fill="#333333">  tool_style = Heavy-duty clamshell</text>
<text x="73.000" y="50.600" font-family="Helvetica, Arial, sans-serif" font-size="2.6" font-weight="normal" text-anchor="start" fill="#333333">  plug_preset =</text>
<text x="73.000" y="54.000" font-family="Helvetica, Arial, sans-serif" font-size="2.6" font-weight="normal" text-anchor="start" fill="#333333">      Heavy-duty extension cord - NEMA 5-15</text>
<text x="73.000" y="57.400" font-family="Helvetica, Arial, sans-serif" font-size="2.6" font-weight="normal" text-anchor="start" fill="#333333">  size = Small</text>
<text x="73.000" y="60.800" font-family="Helvetica, Arial, sans-serif" font-size="2.6" font-weight="normal" text-anchor="start" fill="#333333">  (everything else at its default)</text>
<text x="133.000" y="27.000" font-family="Helvetica, Arial, sans-serif" font-size="2.8" font-weight="bold" text-anchor="start" fill="black">Key dimensions</text>
<text x="133.000" y="31.000" font-family="Helvetica, Arial, sans-serif" font-size="2.6" font-weight="normal" text-anchor="start" fill="black">Plate thickness: 4 mm each (×2 plates)</text>
<text x="133.000" y="34.500" font-family="Helvetica, Arial, sans-serif" font-size="2.6" font-weight="normal" text-anchor="start" fill="black">Finger holes: 2 × Ø17.5</text>
<text x="133.000" y="38.000" font-family="Helvetica, Arial, sans-serif" font-size="2.6" font-weight="normal" text-anchor="start" fill="black">Cord channel: 9 mm wide</text>
<text x="133.000" y="41.500" font-family="Helvetica, Arial, sans-serif" font-size="2.6" font-weight="normal" text-anchor="start" fill="black">Zip holes: 6 × Ø4</text>
<text x="133.000" y="45.000" font-family="Helvetica, Arial, sans-serif" font-size="2.6" font-weight="normal" text-anchor="start" fill="black">Velcro slots: 9.3 × 28</text>
<text x="133.000" y="48.500" font-family="Helvetica, Arial, sans-serif" font-size="2.6" font-weight="normal" text-anchor="start" fill="black">Serrated V-edges grip the plug</text>
<line x1="14.000" y1="248.000" x2="196.000" y2="248.000" stroke="#888888" stroke-width="0.2"/>
<text x="14.000" y="252.500" font-family="Helvetica, Arial, sans-serif" font-size="3.2" font-weight="bold" text-anchor="start" fill="black">How to use this sheet</text>
<text x="14.000" y="256.500" font-family="Helvetica, Arial, sans-serif" font-size="2.7" font-weight="normal" text-anchor="start" fill="black">1. Print at 100% and measure the calibration square — it must be exactly 50 × 50 mm.</text>
<text x="14.000" y="260.100" font-family="Helvetica, Arial, sans-serif" font-size="2.7" font-weight="normal" text-anchor="start" fill="black">2. Cut along the SOLID outline (both arms). Dashed lines are holes and slots.</text>
<text x="14.000" y="263.700" font-family="Helvetica, Arial, sans-serif" font-size="2.7" font-weight="normal" text-anchor="start" fill="black">3. Lay the cutout over your plug: the plug body sits between the serrated V-edges, the cord in the bottom channel.</text>
<text x="14.000" y="267.300" font-family="Helvetica, Arial, sans-serif" font-size="2.7" font-weight="normal" text-anchor="start" fill="black">4. The real tool is TWO of these plates zip-tied face to face around the plug — this sheet previews one.</text>
<text x="14.000" y="270.900" font-family="Helvetica, Arial, sans-serif" font-size="2.7" font-weight="normal" text-anchor="start" fill="black">5. Happy? Open the Customizer with the title-block settings and export your STL (docs/guides/quick-start-beginner.md).</text>
<text x="105.000" y="275.500" font-family="Helvetica, Arial, sans-serif" font-size="2.4" font-weight="normal" text-anchor="middle" fill="#444444">openscad-plug-puller v0.9 · outline_heavy-duty-clamshell_small.svg · scale 1:1 · guide: docs/guides/print-preview-outlines.md</text>
<path d="M 118.202 129.271 L 118.452 129.121 L 118.591 128.982 L 118.700 128.819 L 118.799 128.543 L 118.813 128.250 L 118.742 127.965 L 118.591 127.713 L 118.375 127.518 L 118.545 127.179 L 118.731 126.868 L 119.158 126.293 L 119.402 126.024 L 119.795 125.656 L 120.223 125.327 L 120.837 124.959 L 121.329 124.737 L 121.670 124.614 L 122.364 124.441 L 122.899 124.370 L 123.262 124.352 L 123.801 124.370 L 124.509 124.475 L 125.030 124.614 L 125.371 124.737 L 126.019 125.043 L 126.477 125.327 L 126.905 125.656 L 127.174 125.899 L 127.654 126.430 L 127.969 126.868 L 128.155 127.179 L 128.461 127.826 L 128.621 128.275 L 132.139 139.049 L 132.335 139.849 L 132.425 140.501 L 134.933 179.537 L 134.996 180.986 L 134.921 182.333 L 134.714 183.666 L 134.378 184.973 L 133.983 186.076 L 133.331 187.455 L 132.630 188.608 L 131.820 189.686 L 131.032 190.555 L 130.038 191.467 L 128.960 192.278 L 127.652 193.062 L 126.429 193.631 L 125.156 194.077 L 123.845 194.397 L 122.509 194.586 L 121.206 194.648 L 111.124 194.639 L 110.949 194.613 L 110.611 194.511 L 110.300 194.344 L 110.027 194.121 L 109.803 193.848 L 109.637 193.537 L 109.535 193.199 L 109.509 193.024 L 109.500 171.553 L 109.520 171.288 L 109.554 171.115 L 109.673 170.783 L 109.855 170.480 L 109.967 170.344 L 110.228 170.107 L 110.531 169.926 L 110.694 169.858 L 116.857 168.309 L 117.033 168.430 L 117.310 168.529 L 117.505 168.548 L 117.795 168.505 L 118.060 168.379 L 118.278 168.182 L 118.429 167.931 L 118.500 167.646 L 118.500 167.450 L 118.462 167.258 L 118.387 167.076 L 118.278 166.913 L 118.139 166.775 L 117.976 166.666 L 117.795 166.591 L 117.513 166.548 L 117.519 165.747 L 117.722 165.729 L 117.910 165.672 L 118.083 165.579 L 118.234 165.455 L 118.359 165.303 L 118.451 165.131 L 118.508 164.943 L 118.527 164.748 L 118.508 164.553 L 118.451 164.365 L 118.359 164.192 L 118.234 164.041 L 118.083 163.916 L 117.910 163.824 L 117.722 163.767 L 117.535 163.748 L 117.542 162.947 L 117.745 162.929 L 117.932 162.872 L 118.105 162.779 L 118.257 162.655 L 118.381 162.503 L 118.473 162.331 L 118.530 162.143 L 118.550 161.948 L 118.530 161.753 L 118.473 161.565 L 118.381 161.392 L 118.257 161.241 L 118.105 161.116 L 117.932 161.024 L 117.745 160.967 L 117.558 160.948 L 117.564 160.147 L 117.767 160.129 L 117.955 160.072 L 118.127 159.979 L 118.279 159.855 L 118.403 159.703 L 118.496 159.531 L 118.553 159.343 L 118.572 159.148 L 118.553 158.953 L 118.496 158.765 L 118.403 158.592 L 118.279 158.441 L 118.127 158.316 L 117.955 158.224 L 117.767 158.167 L 117.580 158.148 L 117.586 157.347 L 117.789 157.329 L 117.977 157.272 L 118.150 157.179 L 118.301 157.055 L 118.426 156.903 L 118.518 156.731 L 118.575 156.543 L 118.594 156.348 L 118.575 156.153 L 118.518 155.965 L 118.426 155.792 L 118.301 155.641 L 118.150 155.516 L 117.977 155.424 L 117.789 155.367 L 117.602 155.348 L 117.609 154.547 L 117.812 154.529 L 117.999 154.472 L 118.172 154.379 L 118.324 154.255 L 118.448 154.103 L 118.541 153.931 L 118.597 153.743 L 118.617 153.548 L 118.597 153.353 L 118.541 153.165 L 118.448 152.992 L 118.324 152.841 L 118.172 152.716 L 117.999 152.624 L 117.812 152.567 L 117.625 152.548 L 117.631 151.747 L 117.834 151.729 L 118.022 151.672 L 118.195 151.579 L 118.346 151.455 L 118.471 151.303 L 118.563 151.131 L 118.620 150.943 L 118.639 150.748 L 118.620 150.553 L 118.563 150.365 L 118.471 150.192 L 118.346 150.041 L 118.195 149.916 L 118.022 149.824 L 117.834 149.767 L 117.647 149.748 L 117.653 148.947 L 117.857 148.929 L 118.044 148.872 L 118.217 148.779 L 118.369 148.655 L 118.493 148.503 L 118.585 148.331 L 118.642 148.143 L 118.661 147.948 L 118.642 147.753 L 118.585 147.565 L 118.493 147.392 L 118.369 147.241 L 118.217 147.116 L 118.044 147.024 L 117.857 146.967 L 117.669 146.948 L 117.676 146.147 L 117.879 146.129 L 118.066 146.072 L 118.239 145.979 L 118.391 145.855 L 118.515 145.703 L 118.608 145.531 L 118.665 145.343 L 118.684 145.148 L 118.665 144.953 L 118.608 144.765 L 118.515 144.592 L 118.391 144.441 L 118.239 144.316 L 118.066 144.224 L 117.879 144.167 L 117.692 144.148 L 117.698 143.347 L 117.901 143.329 L 118.089 143.272 L 118.262 143.179 L 118.413 143.055 L 118.538 142.903 L 118.630 142.731 L 118.687 142.543 L 118.706 142.348 L 118.687 142.153 L 118.630 141.965 L 118.538 141.792 L 118.413 141.641 L 118.262 141.516 L 118.089 141.424 L 117.901 141.367 L 117.714 141.348 L 117.721 140.547 L 117.924 140.529 L 118.111 140.472 L 118.284 140.379 L 118.436 140.255 L 118.560 140.103 L 118.652 139.931 L 118.709 139.743 L 118.729 139.548 L 118.709 139.353 L 118.652 139.165 L 118.560 138.992 L 118.436 138.841 L 118.284 138.716 L 118.111 138.624 L 117.924 138.567 L 117.737 138.548 L 117.743 137.747 L 117.849 137.743 L 118.041 137.705 L 118.222 137.630 L 118.385 137.521 L 118.524 137.382 L 118.633 137.219 L 118.708 137.038 L 118.746 136.846 L 118.746 136.650 L 118.708 136.458 L 118.633 136.276 L 118.524 136.113 L 118.385 135.975 L 118.222 135.866 L 118.041 135.791 L 117.759 135.748 L 117.765 134.947 L 117.871 134.943 L 118.064 134.905 L 118.245 134.830 L 118.408 134.721 L 118.546 134.582 L 118.655 134.419 L 118.730 134.238 L 118.768 134.046 L 118.768 133.850 L 118.730 133.658 L 118.655 133.476 L 118.546 133.313 L 118.408 133.175 L 118.245 133.066 L 118.064 132.991 L 117.781 132.948 L 117.788 132.147 L 117.894 132.143 L 118.086 132.105 L 118.267 132.030 L 118.430 131.921 L 118.569 131.782 L 118.678 131.619 L 118.753 131.438 L 118.791 131.246 L 118.791 131.050 L 118.753 130.858 L 118.678 130.676 L 118.569 130.513 L 118.430 130.375 L 118.267 130.266 L 118.086 130.191 L 117.804 130.148 L 117.808 129.663 L 117.839 129.347 L 118.013 129.329 L 118.202 129.271 Z" fill="none" stroke="black" stroke-width="0.5" stroke-linejoin="round"/>
<path d="M 130.165 157.899 L 130.053 158.348 L 129.899 158.777 L 129.704 159.190 L 129.470 159.581 L 129.198 159.948 L 128.891 160.286 L 128.553 160.592 L 128.187 160.864 L 127.795 161.099 L 127.383 161.294 L 126.953 161.448 L 126.510 161.558 L 126.059 161.625 L 125.603 161.648 L 125.148 161.625 L 124.696 161.558 L 124.253 161.448 L 123.824 161.294 L 123.411 161.099 L 123.020 160.864 L 122.653 160.592 L 122.315 160.286 L 122.009 159.948 L 121.737 159.581 L 121.502 159.190 L 121.307 158.777 L 121.154 158.348 L 121.043 157.905 L 120.976 157.454 L 120.953 156.998 L 120.953 141.098 L 120.976 140.642 L 121.043 140.191 L 121.154 139.748 L 121.307 139.318 L 121.502 138.906 L 121.737 138.514 L 122.009 138.148 L 122.315 137.810 L 122.653 137.503 L 123.020 137.231 L 123.411 136.997 L 123.824 136.802 L 124.253 136.648 L 124.696 136.537 L 125.148 136.470 L 125.603 136.448 L 126.059 136.470 L 126.510 136.537 L 126.953 136.648 L 127.383 136.802 L 127.795 136.997 L 128.187 137.231 L 128.553 137.503 L 128.891 137.810 L 129.198 138.148 L 129.470 138.514 L 129.704 138.906 L 129.899 139.318 L 130.053 139.748 L 130.164 140.191 L 130.231 140.642 L 130.253 141.098 L 130.253 156.998 L 130.231 157.454 L 130.165 157.899 Z" fill="none" stroke="black" stroke-width="0.35" stroke-linejoin="round" stroke-dasharray="1.6,1.1"/>
<path d="M 123.883 164.703 L 123.666 164.379 L 123.389 164.102 L 123.063 163.884 L 122.701 163.734 L 122.316 163.657 L 121.924 163.657 L 121.539 163.734 L 121.177 163.884 L 120.851 164.102 L 120.574 164.379 L 120.356 164.705 L 120.206 165.067 L 120.130 165.452 L 120.130 165.844 L 120.206 166.228 L 120.356 166.591 L 120.574 166.917 L 120.851 167.194 L 121.177 167.412 L 121.539 167.562 L 121.924 167.638 L 122.316 167.638 L 122.701 167.562 L 123.063 167.412 L 123.389 167.194 L 123.666 166.917 L 123.884 166.591 L 124.034 166.228 L 124.110 165.844 L 124.110 165.452 L 124.034 165.067 L 123.883 164.703 Z" fill="none" stroke="black" stroke-width="0.35" stroke-linejoin="round" stroke-dasharray="1.6,1.1"/>
<path d="M 113.517 189.220 L 113.157 189.369 L 112.831 189.587 L 112.554 189.864 L 112.336 190.190 L 112.186 190.552 L 112.110 190.937 L 112.110 191.329 L 112.186 191.713 L 112.336 192.076 L 112.554 192.402 L 112.831 192.679 L 113.157 192.897 L 113.519 193.047 L 113.904 193.123 L 114.296 193.123 L 114.681 193.047 L 115.043 192.897 L 115.369 192.679 L 115.646 192.402 L 115.864 192.076 L 116.014 191.713 L 116.090 191.329 L 116.090 190.937 L 116.014 190.552 L 115.864 190.190 L 115.646 189.864 L 115.369 189.587 L 115.043 189.369 L 114.681 189.219 L 114.296 189.142 L 113.904 189.142 L 113.517 189.220 Z" fill="none" stroke="black" stroke-width="0.35" stroke-linejoin="round" stroke-dasharray="1.6,1.1"/>
<path d="M 122.969 134.296 L 122.623 134.111 L 122.320 133.862 L 122.071 133.559 L 121.886 133.213 L 121.772 132.838 L 121.734 132.448 L 121.772 132.058 L 121.886 131.682 L 122.071 131.337 L 122.320 131.034 L 122.623 130.785 L 122.969 130.600 L 123.344 130.486 L 123.734 130.448 L 124.124 130.486 L 124.499 130.600 L 124.845 130.785 L 125.148 131.034 L 125.397 131.337 L 125.582 131.682 L 125.696 132.058 L 125.734 132.448 L 125.696 132.838 L 125.582 133.213 L 125.397 133.559 L 125.148 133.862 L 124.845 134.111 L 124.499 134.296 L 124.124 134.409 L 123.734 134.448 L 123.344 134.409 L 122.969 134.296 Z" fill="none" stroke="black" stroke-width="0.35" stroke-linejoin="round" stroke-dasharray="1.6,1.1"/>
<path d="M 125.388 188.607 L 126.111 188.173 L 126.801 187.662 L 127.437 187.085 L 128.014 186.449 L 128.525 185.759 L 128.967 185.023 L 129.334 184.246 L 129.623 183.438 L 129.832 182.605 L 129.958 181.755 L 130.000 180.898 L 129.958 180.040 L 129.832 179.191 L 129.623 178.358 L 129.334 177.549 L 128.967 176.773 L 128.525 176.037 L 128.014 175.347 L 127.437 174.711 L 126.801 174.134 L 126.111 173.622 L 125.375 173.181 L 124.598 172.814 L 123.790 172.525 L 122.957 172.316 L 122.108 172.190 L 121.250 172.148 L 120.392 172.190 L 119.543 172.316 L 118.710 172.525 L 117.902 172.814 L 117.125 173.181 L 116.389 173.622 L 115.699 174.134 L 115.063 174.711 L 114.486 175.347 L 113.975 176.037 L 113.533 176.773 L 113.166 177.549 L 112.877 178.358 L 112.668 179.191 L 112.542 180.040 L 112.500 180.898 L 112.542 181.755 L 112.668 182.605 L 112.877 183.438 L 113.166 184.246 L 113.533 185.023 L 113.975 185.759 L 114.486 186.449 L 115.063 187.085 L 115.699 187.662 L 116.389 188.173 L 117.125 188.615 L 117.902 188.982 L 118.710 189.271 L 119.543 189.480 L 120.392 189.606 L 121.250 189.648 L 122.108 189.606 L 122.957 189.480 L 123.790 189.271 L 124.598 188.982 L 125.388 188.607 Z" fill="none" stroke="black" stroke-width="0.35" stroke-linejoin="round" stroke-dasharray="1.6,1.1"/>
<path d="M 91.936 132.991 L 92.219 132.948 L 92.212 132.147 L 92.106 132.143 L 91.914 132.105 L 91.733 132.030 L 91.570 131.921 L 91.431 131.782 L 91.322 131.619 L 91.247 131.438 L 91.209 131.246 L 91.209 131.050 L 91.247 130.858 L 91.322 130.676 L 91.431 130.513 L 91.570 130.375 L 91.733 130.266 L 91.914 130.191 L 92.196 130.148 L 92.192 129.663 L 92.161 129.347 L 91.987 129.329 L 91.799 129.272 L 91.548 129.121 L 91.409 128.982 L 91.300 128.819 L 91.201 128.543 L 91.187 128.250 L 91.258 127.965 L 91.409 127.713 L 91.625 127.518 L 91.455 127.179 L 91.170 126.721 L 90.842 126.293 L 90.598 126.024 L 90.068 125.544 L 89.777 125.327 L 89.319 125.043 L 88.835 124.804 L 88.330 124.614 L 87.809 124.475 L 87.277 124.387 L 86.738 124.352 L 86.199 124.370 L 85.664 124.441 L 85.139 124.563 L 84.629 124.737 L 84.137 124.959 L 83.670 125.229 L 83.232 125.544 L 82.826 125.899 L 82.458 126.293 L 82.130 126.721 L 81.845 127.179 L 81.606 127.663 L 81.379 128.275 L 77.861 139.049 L 77.700 139.676 L 77.591 140.352 L 75.067 179.537 L 75.004 180.986 L 75.079 182.333 L 75.286 183.666 L 75.622 184.973 L 76.017 186.076 L 76.669 187.455 L 77.370 188.608 L 78.180 189.686 L 78.968 190.555 L 79.962 191.467 L 81.040 192.278 L 82.348 193.062 L 83.571 193.631 L 84.844 194.077 L 86.155 194.397 L 87.491 194.586 L 88.794 194.648 L 98.876 194.639 L 99.051 194.613 L 99.389 194.511 L 99.700 194.344 L 99.973 194.121 L 100.197 193.848 L 100.363 193.537 L 100.465 193.199 L 100.491 193.024 L 100.500 171.553 L 100.480 171.288 L 100.446 171.115 L 100.327 170.783 L 100.145 170.480 L 100.033 170.344 L 99.772 170.107 L 99.469 169.926 L 99.306 169.858 L 93.143 168.309 L 92.967 168.430 L 92.690 168.529 L 92.495 168.548 L 92.205 168.505 L 91.940 168.379 L 91.722 168.182 L 91.571 167.931 L 91.500 167.646 L 91.500 167.450 L 91.538 167.258 L 91.613 167.076 L 91.722 166.913 L 91.861 166.775 L 92.024 166.666 L 92.205 166.591 L 92.487 166.548 L 92.481 165.747 L 92.278 165.729 L 92.090 165.672 L 91.917 165.579 L 91.766 165.455 L 91.641 165.303 L 91.549 165.131 L 91.492 164.943 L 91.473 164.748 L 91.492 164.553 L 91.549 164.365 L 91.641 164.192 L 91.766 164.041 L 91.917 163.916 L 92.090 163.824 L 92.278 163.767 L 92.465 163.748 L 92.458 162.947 L 92.255 162.929 L 92.068 162.872 L 91.895 162.779 L 91.743 162.655 L 91.619 162.503 L 91.527 162.331 L 91.470 162.143 L 91.450 161.948 L 91.470 161.753 L 91.527 161.565 L 91.619 161.392 L 91.743 161.241 L 91.895 161.116 L 92.068 161.024 L 92.255 160.967 L 92.442 160.948 L 92.436 160.147 L 92.233 160.129 L 92.045 160.072 L 91.873 159.979 L 91.721 159.855 L 91.597 159.703 L 91.504 159.531 L 91.447 159.343 L 91.428 159.148 L 91.447 158.953 L 91.504 158.765 L 91.597 158.592 L 91.721 158.441 L 91.873 158.316 L 92.045 158.224 L 92.233 158.167 L 92.420 158.148 L 92.414 157.347 L 92.211 157.329 L 92.023 157.272 L 91.850 157.179 L 91.699 157.055 L 91.574 156.903 L 91.482 156.731 L 91.425 156.543 L 91.406 156.348 L 91.425 156.153 L 91.482 155.965 L 91.574 155.792 L 91.699 155.641 L 91.850 155.516 L 92.023 155.424 L 92.211 155.367 L 92.398 155.348 L 92.391 154.547 L 92.188 154.529 L 92.001 154.472 L 91.828 154.379 L 91.676 154.255 L 91.552 154.103 L 91.459 153.931 L 91.403 153.743 L 91.383 153.548 L 91.403 153.353 L 91.459 153.165 L 91.552 152.992 L 91.676 152.841 L 91.828 152.716 L 92.001 152.624 L 92.188 152.567 L 92.375 152.548 L 92.369 151.747 L 92.166 151.729 L 91.978 151.672 L 91.805 151.579 L 91.654 151.455 L 91.529 151.303 L 91.437 151.131 L 91.380 150.943 L 91.361 150.748 L 91.380 150.553 L 91.437 150.365 L 91.529 150.192 L 91.654 150.041 L 91.805 149.916 L 91.978 149.824 L 92.166 149.767 L 92.353 149.748 L 92.347 148.947 L 92.143 148.929 L 91.956 148.872 L 91.783 148.779 L 91.631 148.655 L 91.507 148.503 L 91.415 148.331 L 91.358 148.143 L 91.339 147.948 L 91.358 147.753 L 91.415 147.565 L 91.507 147.392 L 91.631 147.241 L 91.783 147.116 L 91.956 147.024 L 92.143 146.967 L 92.331 146.948 L 92.324 146.147 L 92.121 146.129 L 91.934 146.072 L 91.761 145.979 L 91.609 145.855 L 91.485 145.703 L 91.392 145.531 L 91.335 145.343 L 91.316 145.148 L 91.335 144.953 L 91.392 144.765 L 91.485 144.592 L 91.609 144.441 L 91.761 144.316 L 91.934 144.224 L 92.121 144.167 L 92.308 144.148 L 92.302 143.347 L 92.099 143.329 L 91.911 143.272 L 91.738 143.179 L 91.587 143.055 L 91.462 142.903 L 91.370 142.731 L 91.313 142.543 L 91.294 142.348 L 91.313 142.153 L 91.370 141.965 L 91.462 141.792 L 91.587 141.641 L 91.738 141.516 L 91.911 141.424 L 92.099 141.367 L 92.286 141.348 L 92.279 140.547 L 92.076 140.529 L 91.889 140.472 L 91.716 140.379 L 91.564 140.255 L 91.440 140.103 L 91.348 139.931 L 91.291 139.743 L 91.271 139.548 L 91.291 139.353 L 91.348 139.165 L 91.440 138.992 L 91.564 138.841 L 91.716 138.716 L 91.889 138.624 L 92.076 138.567 L 92.263 138.548 L 92.257 137.747 L 92.054 137.729 L 91.866 137.672 L 91.694 137.579 L 91.542 137.455 L 91.418 137.303 L 91.325 137.131 L 91.268 136.943 L 91.249 136.748 L 91.268 136.553 L 91.325 136.365 L 91.418 136.192 L 91.542 136.041 L 91.694 135.916 L 91.866 135.824 L 92.054 135.767 L 92.241 135.748 L 92.235 134.947 L 92.032 134.929 L 91.844 134.872 L 91.671 134.779 L 91.520 134.655 L 91.395 134.503 L 91.303 134.331 L 91.246 134.143 L 91.227 133.948 L 91.270 133.658 L 91.345 133.476 L 91.454 133.313 L 91.592 133.175 L 91.755 133.066 L 91.936 132.991 Z" fill="none" stroke="black" stroke-width="0.5" stroke-linejoin="round"/>
<path d="M 96.483 193.046 L 96.096 193.123 L 95.704 193.123 L 95.319 193.047 L 94.957 192.897 L 94.631 192.679 L 94.354 192.402 L 94.136 192.076 L 93.986 191.713 L 93.910 191.329 L 93.910 190.937 L 93.986 190.552 L 94.136 190.190 L 94.354 189.864 L 94.631 189.587 L 94.957 189.369 L 95.319 189.219 L 95.704 189.142 L 96.096 189.142 L 96.481 189.219 L 96.843 189.369 L 97.169 189.587 L 97.446 189.864 L 97.664 190.190 L 97.814 190.552 L 97.890 190.937 L 97.890 191.329 L 97.814 191.713 L 97.664 192.076 L 97.446 192.402 L 97.169 192.679 L 96.843 192.897 L 96.483 193.046 Z" fill="none" stroke="black" stroke-width="0.35" stroke-linejoin="round" stroke-dasharray="1.6,1.1"/>
<path d="M 86.117 166.593 L 85.966 166.228 L 85.890 165.844 L 85.890 165.452 L 85.966 165.067 L 86.116 164.705 L 86.334 164.379 L 86.611 164.102 L 86.937 163.884 L 87.299 163.734 L 87.684 163.657 L 88.076 163.657 L 88.461 163.734 L 88.823 163.884 L 89.149 164.102 L 89.426 164.379 L 89.644 164.705 L 89.794 165.067 L 89.870 165.452 L 89.870 165.844 L 89.794 166.228 L 89.644 166.591 L 89.426 166.917 L 89.149 167.194 L 88.823 167.412 L 88.461 167.562 L 88.076 167.638 L 87.684 167.638 L 87.299 167.562 L 86.937 167.412 L 86.611 167.194 L 86.334 166.917 L 86.117 166.593 Z" fill="none" stroke="black" stroke-width="0.35" stroke-linejoin="round" stroke-dasharray="1.6,1.1"/>
<path d="M 79.835 140.196 L 79.769 140.642 L 79.747 141.098 L 79.747 156.998 L 79.769 157.454 L 79.836 157.905 L 79.947 158.348 L 80.101 158.777 L 80.296 159.190 L 80.530 159.581 L 80.802 159.948 L 81.109 160.286 L 81.447 160.592 L 81.813 160.864 L 82.205 161.099 L 82.617 161.294 L 83.047 161.448 L 83.490 161.558 L 83.941 161.625 L 84.397 161.648 L 84.852 161.625 L 85.304 161.558 L 85.747 161.448 L 86.176 161.294 L 86.589 161.099 L 86.980 160.864 L 87.347 160.592 L 87.685 160.286 L 87.991 159.948 L 88.263 159.581 L 88.498 159.190 L 88.693 158.777 L 88.846 158.348 L 88.957 157.905 L 89.024 157.454 L 89.047 156.998 L 89.047 141.098 L 89.024 140.642 L 88.957 140.191 L 88.846 139.748 L 88.693 139.318 L 88.498 138.906 L 88.263 138.514 L 87.991 138.148 L 87.685 137.810 L 87.347 137.503 L 86.980 137.231 L 86.589 136.997 L 86.176 136.802 L 85.747 136.648 L 85.304 136.537 L 84.852 136.470 L 84.397 136.448 L 83.941 136.470 L 83.490 136.537 L 83.047 136.648 L 82.617 136.802 L 82.205 136.997 L 81.813 137.231 L 81.447 137.503 L 81.109 137.810 L 80.802 138.148 L 80.530 138.514 L 80.296 138.906 L 80.101 139.318 L 79.947 139.748 L 79.835 140.196 Z" fill="none" stroke="black" stroke-width="0.35" stroke-linejoin="round" stroke-dasharray="1.6,1.1"/>
<path d="M 83.199 174.134 L 82.563 174.711 L 81.986 175.347 L 81.475 176.037 L 81.033 176.773 L 80.666 177.549 L 80.377 178.358 L 80.168 179.191 L 80.042 180.040 L 80.000 180.898 L 80.042 181.755 L 80.168 182.605 L 80.377 183.438 L 80.666 184.246 L 81.033 185.023 L 81.475 185.759 L 81.986 186.449 L 82.563 187.085 L 83.199 187.662 L 83.889 188.173 L 84.625 188.615 L 85.402 188.982 L 86.210 189.271 L 87.043 189.480 L 87.892 189.606 L 88.750 189.648 L 89.608 189.606 L 90.457 189.480 L 91.290 189.271 L 92.098 188.982 L 92.875 188.615 L 93.611 188.173 L 94.301 187.662 L 94.937 187.085 L 95.514 186.449 L 96.025 185.759 L 96.467 185.023 L 96.834 184.246 L 97.123 183.438 L 97.332 182.605 L 97.458 181.755 L 97.500 180.898 L 97.458 180.040 L 97.332 179.191 L 97.123 178.358 L 96.834 177.549 L 96.467 176.773 L 96.025 176.037 L 95.514 175.347 L 94.937 174.711 L 94.301 174.134 L 93.611 173.622 L 92.875 173.181 L 92.098 172.814 L 91.290 172.525 L 90.457 172.316 L 89.608 172.190 L 88.750 172.148 L 87.892 172.190 L 87.043 172.316 L 86.210 172.525 L 85.402 172.814 L 84.625 173.181 L 83.889 173.622 L 83.199 174.134 Z" fill="none" stroke="black" stroke-width="0.35" stroke-linejoin="round" stroke-dasharray="1.6,1.1"/>
<path d="M 84.605 133.561 L 84.852 133.862 L 85.155 134.111 L 85.501 134.296 L 85.876 134.409 L 86.266 134.448 L 86.656 134.409 L 87.031 134.296 L 87.377 134.111 L 87.680 133.862 L 87.929 133.559 L 88.114 133.213 L 88.228 132.838 L 88.266 132.448 L 88.228 132.058 L 88.114 131.682 L 87.929 131.337 L 87.680 131.034 L 87.377 130.785 L 87.031 130.600 L 86.656 130.486 L 86.266 130.448 L 85.876 130.486 L 85.501 130.600 L 85.155 130.785 L 84.852 131.034 L 84.603 131.337 L 84.418 131.682 L 84.304 132.058 L 84.266 132.448 L 84.304 132.838 L 84.418 133.213 L 84.605 133.561 Z" fill="none" stroke="black" stroke-width="0.35" stroke-linejoin="round" stroke-dasharray="1.6,1.1"/>
<line x1="120.773" y1="165.619" x2="123.573" y2="165.619" stroke="black" stroke-width="0.2"/>
<line x1="122.173" y1="164.219" x2="122.173" y2="167.019" stroke="black" stroke-width="0.2"/>
<line x1="112.682" y1="191.075" x2="115.482" y2="191.075" stroke="black" stroke-width="0.2"/>
<line x1="114.082" y1="189.675" x2="114.082" y2="192.475" stroke="black" stroke-width="0.2"/>
<line x1="122.311" y1="132.504" x2="125.111" y2="132.504" stroke="black" stroke-width="0.2"/>
<line x1="123.711" y1="131.104" x2="123.711" y2="133.904" stroke="black" stroke-width="0.2"/>
<line x1="119.914" y1="181.016" x2="122.714" y2="181.016" stroke="black" stroke-width="0.2"/>
<line x1="121.314" y1="179.616" x2="121.314" y2="182.416" stroke="black" stroke-width="0.2"/>
<line x1="94.518" y1="191.191" x2="97.318" y2="191.191" stroke="black" stroke-width="0.2"/>
<line x1="95.918" y1="189.791" x2="95.918" y2="192.591" stroke="black" stroke-width="0.2"/>
<line x1="86.427" y1="165.677" x2="89.227" y2="165.677" stroke="black" stroke-width="0.2"/>
<line x1="87.827" y1="164.277" x2="87.827" y2="167.077" stroke="black" stroke-width="0.2"/>
<line x1="87.265" y1="180.794" x2="90.065" y2="180.794" stroke="black" stroke-width="0.2"/>
<line x1="88.665" y1="179.394" x2="88.665" y2="182.194" stroke="black" stroke-width="0.2"/>
<line x1="84.816" y1="132.482" x2="87.616" y2="132.482" stroke="black" stroke-width="0.2"/>
<line x1="86.216" y1="131.082" x2="86.216" y2="133.882" stroke="black" stroke-width="0.2"/>
<path d="M 99.000 194.648 L 111.000 194.648 L 111.000 170.148 L 99.000 170.148 Z" fill="none" stroke="#888888" stroke-width="0.25" stroke-linejoin="round" stroke-dasharray="2.4,1.4"/>
<text x="105.000" y="168.648" font-family="Helvetica, Arial, sans-serif" font-size="2.2" font-weight="normal" text-anchor="middle" fill="#888888" paint-order="stroke" stroke="white" stroke-width="0.9">cable strip (outer face)</text>
<line x1="75.004" y1="124.352" x2="65.004" y2="124.352" stroke="black" stroke-width="0.18"/>
<line x1="75.004" y1="194.648" x2="65.004" y2="194.648" stroke="black" stroke-width="0.18"/>
<line x1="66.004" y1="124.352" x2="66.004" y2="194.648" stroke="black" stroke-width="0.25"/>
<polygon points="66.004,124.352 66.754,126.752 65.254,126.752" fill="black"/>
<polygon points="66.004,194.648 65.254,192.248 66.754,192.248" fill="black"/>
<text x="64.604" y="160.500" font-family="Helvetica, Arial, sans-serif" font-size="3" font-weight="bold" text-anchor="end" fill="black" paint-order="stroke" stroke="white" stroke-width="0.9">70.3</text>
<line x1="75.004" y1="194.648" x2="75.004" y2="203.648" stroke="black" stroke-width="0.18"/>
<line x1="134.996" y1="194.648" x2="134.996" y2="203.648" stroke="black" stroke-width="0.18"/>
<line x1="75.004" y1="202.648" x2="134.996" y2="202.648" stroke="black" stroke-width="0.25"/>
<polygon points="75.004,202.648 77.404,201.898 77.404,203.398" fill="black"/>
<polygon points="134.996,202.648 132.596,203.398 132.596,201.898" fill="black"/>
<text x="105.000" y="206.548" font-family="Helvetica, Arial, sans-serif" font-size="3" font-weight="bold" text-anchor="middle" fill="black" paint-order="stroke" stroke="white" stroke-width="0.9">59.99</text>
<line x1="100.500" y1="194.648" x2="100.500" y2="199.148" stroke="black" stroke-width="0.18"/>
<line x1="109.500" y1="194.648" x2="109.500" y2="199.148" stroke="black" stroke-width="0.18"/>
<line x1="95.500" y1="198.148" x2="114.500" y2="198.148" stroke="black" stroke-width="0.25"/>
<polygon points="100.500,198.148 98.100,198.898 98.100,197.398" fill="black"/>
<polygon points="109.500,198.148 111.900,197.398 111.900,198.898" fill="black"/>
<text x="115.300" y="201.648" font-family="Helvetica, Arial, sans-serif" font-size="2.6" font-weight="bold" text-anchor="start" fill="black" paint-order="stroke" stroke="white" stroke-width="0.9">cord 9</text>
<line x1="127.500" y1="187.202" x2="133.864" y2="193.566" stroke="black" stroke-width="0.25"/>
<polygon points="127.500,187.202 129.727,188.369 128.667,189.430" fill="black"/>
<line x1="133.864" y1="193.566" x2="139.864" y2="193.566" stroke="black" stroke-width="0.25"/>
<text x="140.664" y="192.666" font-family="Helvetica, Arial, sans-serif" font-size="3" font-weight="bold" text-anchor="start" fill="black" paint-order="stroke" stroke="white" stroke-width="0.9">Ø17.5 (2×)</text>
</svg>
