<?xml version="1.0" encoding="UTF-8"?>
<svg xmlns="http://www.w3.org/2000/svg" width="82.69mm" height="99.64mm" viewBox="0 0 82.69 99.64" role="img">
<title>Attachment</title>
<desc>Adds or removes the zip-tie holes and the wing or slot openings for the strap. Before: Zip ties + Velcro. After: Zip ties.</desc>
<rect width="82.69" height="99.64" fill="white"/>
<text x="41.35" y="5.40" font-family="Helvetica, Arial, sans-serif" font-size="3.40" font-weight="bold" text-anchor="middle" fill="#000">attachment</text>
<text x="41.35" y="9.65" font-family="Helvetica, Arial, sans-serif" font-size="3.40" text-anchor="middle" fill="#000">Zip ties + Velcro → Zip ties</text>
<path d="M 53.85 16.50 L 53.85 42.00 L 28.85 42.00 L 28.85 16.50 L 53.85 16.50 Z" fill="#20b2aa" fill-rule="evenodd" fill-opacity="0.45" stroke="none"/>
<path d="M 6.83 57.25 L 10.33 46.46 L 23.48 16.51 L 26.75 16.50 L 27.35 16.65 L 27.65 16.88 L 27.92 17.28 L 28.13 18.51 L 28.59 19.38 L 29.36 20.01 L 30.30 20.30 L 52.14 20.31 L 53.12 20.12 L 53.76 19.73 L 54.11 19.38 L 54.58 18.51 L 54.78 17.28 L 55.05 16.88 L 55.36 16.65 L 55.95 16.50 L 59.20 16.50 L 72.38 46.47 L 76.22 58.47 L 76.54 60.12 L 76.69 61.78 L 76.68 63.46 L 76.50 65.12 L 76.17 66.76 L 75.67 68.36 L 75.02 69.90 L 74.22 71.37 L 73.28 72.75 L 72.21 74.04 L 71.02 75.22 L 69.72 76.27 L 68.32 77.19 L 66.84 77.97 L 65.29 78.60 L 63.68 79.07 L 62.04 79.39 L 48.27 81.33 L 48.23 77.25 L 47.91 76.90 L 47.91 72.99 L 47.76 72.51 L 47.45 72.13 L 47.13 71.94 L 46.64 71.84 L 38.07 71.84 L 37.47 71.99 L 37.02 72.40 L 36.81 72.99 L 36.81 75.77 L 36.95 76.25 L 37.17 76.55 L 37.48 76.77 L 37.95 76.91 L 42.13 76.92 L 43.47 78.26 L 43.46 81.99 L 39.40 82.00 L 19.41 79.16 L 17.79 78.73 L 16.23 78.13 L 14.73 77.39 L 13.31 76.50 L 11.99 75.48 L 10.77 74.34 L 9.66 73.07 L 8.69 71.71 L 7.86 70.26 L 7.17 68.73 L 6.64 67.15 L 6.26 65.52 L 6.05 63.86 L 6.00 62.19 L 6.11 60.51 L 6.39 58.86 L 6.83 57.25 Z" fill="none" stroke="#000" stroke-width="0.5" stroke-linejoin="round" stroke-linecap="round"/>
<path d="M 51.25 23.78 L 52.01 23.17 L 52.96 22.88 L 53.94 22.98 L 54.82 23.45 L 55.44 24.22 L 55.73 25.16 L 55.63 26.15 L 55.16 27.02 L 54.40 27.65 L 53.45 27.94 L 52.46 27.84 L 51.59 27.37 L 50.96 26.60 L 50.67 25.66 L 50.77 24.67 L 50.96 24.21 L 51.25 23.78 Z" fill="none" stroke="#000" stroke-width="0.35" stroke-linejoin="round" stroke-linecap="round" stroke-dasharray="1.6,1.1"/>
<path d="M 56.63 36.81 L 56.77 36.09 L 57.54 34.80 L 58.86 31.86 L 59.30 31.48 L 59.72 31.32 L 60.30 31.31 L 60.85 31.53 L 61.18 31.81 L 61.41 32.19 L 65.52 41.56 L 65.60 42.29 L 65.32 42.96 L 64.75 43.43 L 64.04 43.57 L 61.31 42.84 L 60.67 42.74 L 60.14 42.49 L 59.68 41.92 L 59.24 40.58 L 58.64 39.45 L 57.83 38.46 L 56.92 37.63 L 56.72 37.24 L 56.63 36.81 Z" fill="none" stroke="#000" stroke-width="0.35" stroke-linejoin="round" stroke-linecap="round" stroke-dasharray="1.6,1.1"/>
<path d="M 51.24 41.47 L 52.00 40.84 L 52.95 40.55 L 53.93 40.65 L 54.81 41.11 L 55.44 41.88 L 55.73 42.83 L 55.63 43.81 L 55.17 44.69 L 54.40 45.32 L 53.45 45.61 L 52.47 45.51 L 51.59 45.05 L 50.96 44.28 L 50.67 43.33 L 50.77 42.35 L 51.24 41.47 Z" fill="none" stroke="#000" stroke-width="0.35" stroke-linejoin="round" stroke-linecap="round" stroke-dasharray="1.6,1.1"/>
<path d="M 21.37 32.02 L 21.89 31.50 L 22.45 31.30 L 23.17 31.37 L 23.77 31.78 L 24.02 32.14 L 24.40 33.18 L 25.16 34.80 L 25.93 36.09 L 26.06 36.51 L 26.03 37.10 L 25.69 37.74 L 24.87 38.46 L 24.06 39.45 L 23.46 40.58 L 23.03 41.92 L 22.57 42.49 L 22.04 42.74 L 19.72 43.26 L 18.86 43.55 L 18.12 43.50 L 17.61 43.21 L 17.25 42.75 L 17.09 42.19 L 17.16 41.61 L 21.37 32.02 Z" fill="none" stroke="#000" stroke-width="0.35" stroke-linejoin="round" stroke-linecap="round" stroke-dasharray="1.6,1.1"/>
<path d="M 21.16 48.05 L 22.37 47.74 L 23.60 47.56 L 24.85 47.50 L 26.09 47.56 L 27.33 47.74 L 28.53 48.05 L 29.71 48.47 L 30.83 49.00 L 31.90 49.64 L 32.90 50.38 L 33.83 51.22 L 34.67 52.14 L 35.41 53.14 L 36.05 54.21 L 36.58 55.34 L 37.00 56.51 L 37.31 57.72 L 37.49 58.95 L 37.55 60.20 L 37.49 61.44 L 37.31 62.67 L 37.01 63.88 L 36.59 65.06 L 36.05 66.18 L 35.41 67.25 L 34.67 68.25 L 33.83 69.18 L 32.91 70.01 L 31.91 70.76 L 30.84 71.40 L 29.71 71.93 L 28.54 72.35 L 27.33 72.66 L 26.10 72.84 L 24.85 72.90 L 23.61 72.84 L 22.38 72.66 L 21.17 72.35 L 19.99 71.93 L 18.87 71.40 L 17.80 70.76 L 16.80 70.02 L 15.87 69.18 L 15.04 68.26 L 14.29 67.26 L 13.65 66.19 L 13.12 65.06 L 12.70 63.89 L 12.40 62.68 L 12.21 61.45 L 12.15 60.20 L 12.21 58.96 L 12.39 57.73 L 12.70 56.52 L 13.12 55.34 L 13.65 54.22 L 14.29 53.15 L 15.03 52.15 L 15.87 51.22 L 16.79 50.39 L 17.79 49.64 L 18.86 49.00 L 19.99 48.47 L 21.16 48.05 Z" fill="none" stroke="#000" stroke-width="0.35" stroke-linejoin="round" stroke-linecap="round" stroke-dasharray="1.6,1.1"/>
<path d="M 31.46 23.80 L 31.93 24.67 L 32.03 25.66 L 31.74 26.60 L 31.12 27.37 L 30.24 27.84 L 29.26 27.94 L 28.31 27.65 L 27.54 27.02 L 27.07 26.15 L 26.97 25.16 L 27.26 24.22 L 27.89 23.45 L 28.76 22.98 L 29.75 22.88 L 30.70 23.17 L 31.46 23.80 Z" fill="none" stroke="#000" stroke-width="0.35" stroke-linejoin="round" stroke-linecap="round" stroke-dasharray="1.6,1.1"/>
<path d="M 30.47 40.73 L 31.29 41.28 L 31.85 42.10 L 32.04 43.08 L 31.85 44.05 L 31.30 44.87 L 30.48 45.43 L 29.50 45.62 L 28.53 45.43 L 27.71 44.88 L 27.16 44.06 L 26.96 43.08 L 27.15 42.11 L 27.70 41.29 L 28.53 40.74 L 29.50 40.54 L 30.47 40.73 Z" fill="none" stroke="#000" stroke-width="0.35" stroke-linejoin="round" stroke-linecap="round" stroke-dasharray="1.6,1.1"/>
<path d="M 57.85 47.50 L 59.09 47.56 L 60.33 47.74 L 61.53 48.05 L 62.71 48.47 L 63.83 49.00 L 64.90 49.64 L 65.90 50.38 L 66.83 51.22 L 67.67 52.14 L 68.41 53.14 L 69.05 54.21 L 69.58 55.34 L 70.00 56.51 L 70.31 57.72 L 70.49 58.95 L 70.55 60.20 L 70.49 61.44 L 70.31 62.67 L 70.01 63.88 L 69.59 65.06 L 69.05 66.18 L 68.41 67.25 L 67.67 68.25 L 66.83 69.18 L 65.91 70.01 L 64.91 70.76 L 63.84 71.40 L 62.71 71.93 L 61.54 72.35 L 60.33 72.66 L 59.10 72.84 L 57.85 72.90 L 56.61 72.84 L 55.38 72.66 L 54.17 72.35 L 52.99 71.93 L 51.87 71.40 L 50.80 70.76 L 49.80 70.02 L 48.87 69.18 L 48.04 68.26 L 47.29 67.26 L 46.65 66.19 L 46.12 65.06 L 45.70 63.89 L 45.40 62.68 L 45.21 61.45 L 45.15 60.20 L 45.21 58.96 L 45.39 57.73 L 45.70 56.52 L 46.12 55.34 L 46.65 54.22 L 47.29 53.15 L 48.03 52.15 L 48.87 51.22 L 49.79 50.39 L 50.79 49.64 L 51.86 49.00 L 52.99 48.47 L 54.16 48.05 L 55.37 47.74 L 56.60 47.56 L 57.85 47.50 Z" fill="none" stroke="#000" stroke-width="0.35" stroke-linejoin="round" stroke-linecap="round" stroke-dasharray="1.6,1.1"/>
<path d="M 25.17 16.55 L 25.22 16.50 L 26.87 16.51 L 27.45 16.71 L 27.92 17.28 L 28.13 18.51 L 28.59 19.38 L 29.36 20.01 L 30.30 20.30 L 52.14 20.31 L 53.12 20.12 L 53.76 19.73 L 54.11 19.38 L 54.58 18.51 L 54.78 17.28 L 55.25 16.71 L 55.83 16.51 L 57.51 16.51 L 57.53 26.16 L 57.45 27.74 L 57.22 29.31 L 56.83 30.85 L 56.30 32.34 L 55.62 33.78 L 54.80 35.14 L 53.86 36.42 L 52.79 37.59 L 51.62 38.66 L 50.34 39.60 L 48.98 40.42 L 47.54 41.10 L 46.05 41.63 L 44.51 42.02 L 42.94 42.25 L 41.35 42.33 L 39.76 42.25 L 38.19 42.02 L 36.65 41.63 L 35.16 41.10 L 33.72 40.42 L 32.36 39.60 L 31.09 38.66 L 29.91 37.59 L 28.85 36.42 L 27.90 35.14 L 27.08 33.78 L 26.40 32.34 L 25.87 30.85 L 25.48 29.31 L 25.25 27.74 L 25.17 26.16 L 25.17 16.55 Z" fill="none" stroke="#333333" stroke-width="0.35" stroke-linejoin="round" stroke-linecap="round" stroke-dasharray="2.4,1.4"/>
<path d="M 51.09 24.00 L 51.79 23.30 L 52.70 22.92 L 53.69 22.92 L 54.61 23.30 L 55.31 24.00 L 55.69 24.91 L 55.69 25.90 L 55.31 26.82 L 54.62 27.52 L 53.70 27.90 L 52.71 27.90 L 51.79 27.52 L 51.09 26.82 L 50.71 25.91 L 50.71 24.92 L 51.09 24.00 Z" fill="none" stroke="#333333" stroke-width="0.35" stroke-linejoin="round" stroke-linecap="round" stroke-dasharray="2.4,1.4"/>
<path d="M 31.29 23.61 L 31.85 24.43 L 32.04 25.41 L 31.85 26.38 L 31.30 27.20 L 30.48 27.76 L 29.50 27.95 L 28.53 27.76 L 27.71 27.21 L 27.16 26.39 L 26.96 25.41 L 27.15 24.44 L 27.70 23.62 L 28.53 23.06 L 29.50 22.87 L 30.47 23.06 L 31.29 23.61 Z" fill="none" stroke="#333333" stroke-width="0.35" stroke-linejoin="round" stroke-linecap="round" stroke-dasharray="2.4,1.4"/>
<path d="M 56.67 36.37 L 57.54 34.80 L 58.86 31.86 L 59.30 31.48 L 60.01 31.29 L 60.58 31.39 L 60.97 31.61 L 61.41 32.18 L 65.53 41.57 L 65.60 42.29 L 65.32 42.96 L 64.75 43.43 L 64.04 43.57 L 61.31 42.84 L 60.67 42.74 L 60.14 42.49 L 59.68 41.92 L 59.24 40.58 L 58.64 39.45 L 58.26 38.93 L 57.12 37.85 L 56.77 37.38 L 56.63 36.81 L 56.67 36.37 Z" fill="#d81b1b" fill-rule="evenodd" fill-opacity="0.1" stroke="#d81b1b" stroke-width="0.45" stroke-linejoin="round" stroke-dasharray="1.2,0.9"/>
<path d="M 21.66 31.67 L 22.16 31.37 L 22.88 31.30 L 23.31 31.43 L 23.78 31.78 L 24.02 32.14 L 24.40 33.17 L 25.16 34.80 L 25.93 36.09 L 26.06 36.51 L 26.03 37.10 L 25.69 37.74 L 24.88 38.46 L 24.06 39.45 L 23.46 40.58 L 23.03 41.92 L 22.56 42.49 L 22.04 42.74 L 19.71 43.26 L 18.85 43.55 L 18.12 43.50 L 17.61 43.21 L 17.25 42.75 L 17.09 42.19 L 17.16 41.61 L 21.29 32.18 L 21.66 31.67 Z" fill="#d81b1b" fill-rule="evenodd" fill-opacity="0.1" stroke="#d81b1b" stroke-width="0.45" stroke-linejoin="round" stroke-dasharray="1.2,0.9"/>
<text x="41.35" y="91.60" font-family="Helvetica, Arial, sans-serif" font-size="2.60" text-anchor="middle" fill="#444444">black = the tool at its defaults;</text>
<text x="41.35" y="94.98" font-family="Helvetica, Arial, sans-serif" font-size="2.60" text-anchor="middle" fill="#444444">teal = the plug you measured;</text>
<text x="41.35" y="98.36" font-family="Helvetica, Arial, sans-serif" font-size="2.60" text-anchor="middle" fill="#444444">red dashed = what this dial moves</text>
</svg>
