<?xml version="1.0" encoding="UTF-8"?>
<svg xmlns="http://www.w3.org/2000/svg" width="181.09mm" height="26.65mm" viewBox="0 0 181.09 26.65" role="img">
<title>Top edge rounding</title>
<desc>Rounds or squares the edge where the body's top face meets its sides. Before: 2.54. After: 0.</desc>
<rect width="181.09" height="26.65" fill="white"/>
<g class="panel" id="before">
<path d="M 59.91 6.00 L 60.71 6.15 L 61.42 6.50 L 62.00 7.02 L 62.38 7.68 L 62.54 8.42 L 62.51 12.35 L 46.48 12.32 L 46.48 6.92 L 47.60 6.01 L 59.91 6.00 Z" fill="none" stroke="#000" stroke-width="0.5" stroke-linejoin="round" stroke-linecap="round"/>
<path d="M 6.00 8.55 L 6.16 7.68 L 6.40 7.23 L 6.72 6.84 L 7.35 6.36 L 8.36 6.03 L 20.93 6.00 L 22.07 6.92 L 22.07 12.31 L 6.04 12.35 L 6.00 8.55 Z" fill="none" stroke="#000" stroke-width="0.5" stroke-linejoin="round" stroke-linecap="round"/>
<path d="M 25.63 6.93 L 26.77 6.00 L 41.79 6.01 L 42.92 6.92 L 42.91 12.31 L 25.66 12.35 L 25.63 6.93 Z" fill="none" stroke="#000" stroke-width="0.5" stroke-linejoin="round" stroke-linecap="round"/>
</g>
<g class="arrow">
<line x1="70.05" y1="9.18" x2="74.55" y2="9.18" stroke="#000" stroke-width="0.6"/><polygon points="77.05,9.18 74.55,8.05 74.55,10.30" fill="#000"/>
<text x="73.55" y="22.65" font-family="Helvetica, Arial, sans-serif" font-size="2.80" text-anchor="middle" fill="#000">2.54 → 0 mm</text>
<text x="73.55" y="26.05" font-family="Helvetica, Arial, sans-serif" font-size="2.80" text-anchor="middle" fill="#000">section at y = 35 mm</text>
</g>
<g class="panel" id="after" transform="translate(78.55 0)">
<path d="M 6.05 12.35 L 6.00 12.30 L 6.04 6.00 L 20.92 6.00 L 22.06 6.91 L 22.03 12.35 L 6.05 12.35 Z" fill="none" stroke="#000" stroke-width="0.5" stroke-linejoin="round" stroke-linecap="round"/>
<path d="M 46.49 6.90 L 47.62 6.00 L 62.51 6.00 L 62.54 12.31 L 46.51 12.35 L 46.49 6.90 Z" fill="none" stroke="#000" stroke-width="0.5" stroke-linejoin="round" stroke-linecap="round"/>
<path d="M 25.63 6.93 L 26.77 6.00 L 41.78 6.00 L 42.92 6.92 L 42.91 12.31 L 25.66 12.35 L 25.63 6.93 Z" fill="none" stroke="#000" stroke-width="0.5" stroke-linejoin="round" stroke-linecap="round"/>
<path d="M 6.00 7.56 L 6.00 6.05 L 6.01 6.02 L 6.04 6.00 L 7.66 6.00" fill="none" stroke="#d81b1b" stroke-width="0.6" stroke-linecap="round" stroke-linejoin="round" stroke-dasharray="0.01,1.1"/>
<path d="M 60.89 6.00 L 62.51 6.00 L 62.54 6.02 L 62.55 6.05 L 62.54 7.56" fill="none" stroke="#d81b1b" stroke-width="0.6" stroke-linecap="round" stroke-linejoin="round" stroke-dasharray="0.01,1.1"/>
<circle cx="7.66" cy="6.00" r="1.3" fill="white" stroke="#d81b1b" stroke-width="0.35"/><text x="7.66" y="6.79" font-family="Helvetica, Arial, sans-serif" font-size="2.20" text-anchor="middle" fill="#d81b1b">1</text>
<circle cx="62.55" cy="6.05" r="1.3" fill="white" stroke="#d81b1b" stroke-width="0.35"/><text x="62.55" y="6.84" font-family="Helvetica, Arial, sans-serif" font-size="2.20" text-anchor="middle" fill="#d81b1b">1</text>
</g>
<g class="key">
<text x="150.09" y="4.60" font-family="Helvetica, Arial, sans-serif" font-size="2.60" text-anchor="start" fill="#000">1 body edge</text>
</g>
<g class="leaders">
<line x1="142.34" y1="5.68" x2="149.09" y2="3.69" stroke="#d81b1b" stroke-width="0.3"/>
</g>
</svg>
