<?xml version="1.0" encoding="UTF-8"?>
<svg xmlns="http://www.w3.org/2000/svg" width="203.35mm" height="80.40mm" viewBox="0 0 203.35 80.40" role="img">
<title>Side corner position</title>
<desc>Two top views of the one-sided puller, before left and after right, the plug end at the top. Left: the defaults with hand size set to Custom, a 25 mm wide plug in teal. Right: side corner position at 14.65 mm: moves the two widest corners of the body outline up toward the plug end or down toward the cord end. Marked in red: 1, the wing openings: the two openings beside the pocket. 2, the body edge: the outer outline. Everything else follows the outline.</desc>
<rect width="203.35" height="80.40" fill="white"/>
<g class="panel" id="before">
<path d="M 52.34 6.00 L 52.34 31.50 L 27.34 31.50 L 27.34 6.00 L 52.34 6.00 Z" fill="#20b2aa" fill-rule="evenodd" fill-opacity="0.45" stroke="none"/>
<path d="M 6.94 47.93 L 7.38 46.43 L 11.19 35.37 L 23.96 6.01 L 25.36 6.01 L 25.72 6.10 L 26.04 6.29 L 26.41 6.78 L 26.61 8.01 L 27.08 8.88 L 27.84 9.51 L 28.79 9.80 L 50.63 9.81 L 51.61 9.62 L 52.24 9.23 L 52.60 8.88 L 53.06 8.01 L 53.27 6.78 L 53.64 6.29 L 53.95 6.10 L 54.32 6.01 L 55.69 6.00 L 68.49 35.38 L 72.34 46.55 L 72.76 48.05 L 73.04 49.59 L 73.16 51.14 L 73.12 52.69 L 72.94 54.24 L 72.60 55.76 L 72.12 57.24 L 71.50 58.65 L 70.73 60.02 L 69.85 61.29 L 68.84 62.47 L 67.71 63.55 L 66.49 64.51 L 65.18 65.35 L 63.80 66.05 L 62.35 66.62 L 60.84 67.04 L 59.31 67.31 L 46.76 68.91 L 46.72 64.75 L 46.40 64.40 L 46.39 60.49 L 46.25 60.01 L 45.94 59.63 L 45.62 59.44 L 45.13 59.34 L 36.56 59.34 L 35.96 59.49 L 35.50 59.90 L 35.29 60.49 L 35.29 63.27 L 35.44 63.75 L 35.66 64.05 L 35.96 64.27 L 36.43 64.41 L 40.62 64.42 L 41.96 65.76 L 41.94 69.49 L 37.69 69.50 L 20.36 67.31 L 18.70 67.01 L 17.21 66.58 L 15.77 66.00 L 14.39 65.28 L 13.08 64.43 L 11.86 63.46 L 10.75 62.37 L 9.75 61.19 L 8.87 59.90 L 8.12 58.54 L 7.51 57.11 L 7.04 55.62 L 6.72 54.11 L 6.54 52.56 L 6.52 51.00 L 6.66 49.45 L 6.94 47.93 Z" fill="none" stroke="#000" stroke-width="0.5" stroke-linejoin="round" stroke-linecap="round"/>
<path d="M 18.03 30.45 L 21.54 22.39 L 21.93 21.95 L 22.46 21.70 L 23.05 21.67 L 23.60 21.87 L 24.11 22.39 L 24.91 24.06 L 25.87 25.68 L 26.02 26.40 L 25.81 27.09 L 25.53 27.43 L 24.79 28.07 L 23.98 29.05 L 23.37 30.19 L 22.95 31.35 L 22.67 31.69 L 22.30 31.94 L 21.89 32.06 L 19.58 32.40 L 19.00 32.33 L 18.48 32.04 L 18.12 31.58 L 17.96 31.02 L 18.03 30.45 Z" fill="none" stroke="#000" stroke-width="0.35" stroke-linejoin="round" stroke-linecap="round" stroke-dasharray="1.6,1.1"/>
<path d="M 18.47 37.97 L 19.65 37.55 L 20.86 37.24 L 22.09 37.06 L 23.33 37.00 L 24.58 37.06 L 25.81 37.24 L 27.02 37.55 L 28.19 37.97 L 29.32 38.50 L 30.39 39.14 L 31.39 39.88 L 32.32 40.72 L 33.15 41.64 L 33.90 42.64 L 34.54 43.71 L 35.07 44.84 L 35.49 46.01 L 35.79 47.22 L 35.98 48.45 L 36.04 49.70 L 35.98 50.94 L 35.79 52.17 L 35.49 53.38 L 35.07 54.56 L 34.54 55.68 L 33.90 56.75 L 33.16 57.75 L 32.32 58.68 L 31.40 59.51 L 30.40 60.26 L 29.33 60.90 L 28.20 61.43 L 27.03 61.85 L 25.82 62.16 L 24.59 62.34 L 23.34 62.40 L 22.10 62.34 L 20.86 62.16 L 19.66 61.85 L 18.48 61.43 L 17.35 60.90 L 16.29 60.26 L 15.28 59.52 L 14.36 58.68 L 13.52 57.76 L 12.78 56.76 L 12.14 55.69 L 11.61 54.56 L 11.19 53.39 L 10.88 52.18 L 10.70 50.95 L 10.64 49.70 L 10.70 48.46 L 10.88 47.23 L 11.18 46.02 L 11.60 44.84 L 12.14 43.72 L 12.78 42.65 L 13.52 41.65 L 14.36 40.72 L 15.28 39.89 L 16.28 39.14 L 17.35 38.50 L 18.47 37.97 Z" fill="none" stroke="#000" stroke-width="0.35" stroke-linejoin="round" stroke-linecap="round" stroke-dasharray="1.6,1.1"/>
<path d="M 28.67 12.48 L 29.66 12.38 L 30.61 12.67 L 31.37 13.30 L 31.84 14.17 L 31.94 15.16 L 31.65 16.10 L 31.03 16.87 L 30.15 17.34 L 29.17 17.44 L 28.22 17.15 L 27.45 16.52 L 26.98 15.65 L 26.89 14.66 L 27.17 13.72 L 27.80 12.95 L 28.67 12.48 Z" fill="none" stroke="#000" stroke-width="0.35" stroke-linejoin="round" stroke-linecap="round" stroke-dasharray="1.6,1.1"/>
<path d="M 28.67 30.26 L 29.66 30.16 L 30.61 30.45 L 31.37 31.08 L 31.84 31.95 L 31.94 32.94 L 31.65 33.88 L 31.03 34.65 L 30.15 35.12 L 29.17 35.22 L 28.22 34.93 L 27.45 34.30 L 26.98 33.43 L 26.89 32.44 L 27.17 31.50 L 27.80 30.73 L 28.67 30.26 Z" fill="none" stroke="#000" stroke-width="0.35" stroke-linejoin="round" stroke-linecap="round" stroke-dasharray="1.6,1.1"/>
<path d="M 57.40 21.76 L 57.89 22.08 L 58.23 22.56 L 61.63 30.40 L 61.72 30.97 L 61.58 31.54 L 61.23 32.01 L 60.73 32.31 L 60.15 32.40 L 57.80 32.06 L 57.12 31.78 L 56.66 31.23 L 56.30 30.18 L 55.70 29.05 L 54.89 28.07 L 54.05 27.33 L 53.75 26.83 L 53.66 26.25 L 53.80 25.68 L 54.77 24.06 L 55.67 22.23 L 56.00 21.92 L 56.53 21.69 L 56.97 21.66 L 57.40 21.76 Z" fill="none" stroke="#000" stroke-width="0.35" stroke-linejoin="round" stroke-linecap="round" stroke-dasharray="1.6,1.1"/>
<path d="M 57.58 37.06 L 58.81 37.24 L 60.02 37.55 L 61.19 37.97 L 62.32 38.50 L 63.39 39.14 L 64.39 39.88 L 65.32 40.72 L 66.15 41.64 L 66.90 42.64 L 67.54 43.71 L 68.07 44.84 L 68.49 46.01 L 68.79 47.22 L 68.98 48.45 L 69.04 49.70 L 68.98 50.94 L 68.79 52.17 L 68.49 53.38 L 68.07 54.56 L 67.54 55.68 L 66.90 56.75 L 66.16 57.75 L 65.32 58.68 L 64.40 59.51 L 63.40 60.26 L 62.33 60.90 L 61.20 61.43 L 60.03 61.85 L 58.82 62.16 L 57.59 62.34 L 56.34 62.40 L 55.10 62.34 L 53.86 62.16 L 52.66 61.85 L 51.48 61.43 L 50.35 60.90 L 49.29 60.26 L 48.28 59.52 L 47.36 58.68 L 46.52 57.76 L 45.78 56.76 L 45.14 55.69 L 44.61 54.56 L 44.19 53.39 L 43.88 52.18 L 43.70 50.95 L 43.64 49.70 L 43.70 48.46 L 43.88 47.23 L 44.18 46.02 L 44.60 44.84 L 45.14 43.72 L 45.78 42.65 L 46.52 41.65 L 47.36 40.72 L 48.28 39.89 L 49.28 39.14 L 50.35 38.50 L 51.47 37.97 L 52.65 37.55 L 53.86 37.24 L 55.09 37.06 L 56.33 37.00 L 57.58 37.06 Z" fill="none" stroke="#000" stroke-width="0.35" stroke-linejoin="round" stroke-linecap="round" stroke-dasharray="1.6,1.1"/>
<path d="M 48.30 13.30 L 49.06 12.67 L 50.01 12.38 L 51.00 12.48 L 51.87 12.94 L 52.50 13.71 L 52.79 14.66 L 52.69 15.64 L 52.23 16.52 L 51.46 17.15 L 50.52 17.44 L 49.53 17.34 L 48.65 16.88 L 48.03 16.11 L 47.74 15.16 L 47.83 14.18 L 48.30 13.30 Z" fill="none" stroke="#000" stroke-width="0.35" stroke-linejoin="round" stroke-linecap="round" stroke-dasharray="1.6,1.1"/>
<path d="M 49.06 30.45 L 50.01 30.16 L 51.00 30.26 L 51.87 30.72 L 52.50 31.49 L 52.79 32.44 L 52.69 33.42 L 52.23 34.30 L 51.46 34.93 L 50.52 35.22 L 49.53 35.12 L 48.65 34.66 L 48.03 33.89 L 47.74 32.94 L 47.83 31.96 L 48.30 31.08 L 49.06 30.45 Z" fill="none" stroke="#000" stroke-width="0.35" stroke-linejoin="round" stroke-linecap="round" stroke-dasharray="1.6,1.1"/>
<path d="M 23.57 6.90 L 23.98 6.00 L 25.35 6.01 L 25.83 6.15 L 26.21 6.46 L 26.40 6.78 L 26.61 8.01 L 27.08 8.88 L 27.84 9.51 L 28.79 9.80 L 50.63 9.81 L 51.61 9.62 L 52.05 9.38 L 52.58 8.95 L 53.06 8.01 L 53.27 6.78 L 53.64 6.29 L 53.96 6.10 L 54.32 6.01 L 55.71 6.01 L 56.11 6.92 L 56.04 6.96 L 55.86 6.77 L 55.79 6.80 L 55.52 9.11 L 55.13 10.63 L 54.59 12.14 L 54.59 16.09 L 54.52 17.52 L 54.31 18.95 L 53.96 20.36 L 53.47 21.72 L 52.85 23.03 L 52.11 24.27 L 51.24 25.44 L 50.27 26.51 L 49.20 27.48 L 48.04 28.34 L 46.79 29.09 L 45.48 29.71 L 44.12 30.20 L 42.72 30.55 L 41.28 30.76 L 39.84 30.83 L 38.39 30.76 L 36.96 30.55 L 35.55 30.19 L 34.19 29.71 L 32.88 29.09 L 31.64 28.34 L 30.48 27.48 L 29.40 26.51 L 28.43 25.44 L 27.57 24.27 L 26.82 23.03 L 26.21 21.72 L 25.72 20.35 L 25.37 18.95 L 25.15 17.52 L 25.08 16.08 L 25.08 12.14 L 24.54 10.63 L 24.16 9.11 L 23.89 6.80 L 23.82 6.77 L 23.63 6.96 L 23.57 6.90 Z" fill="none" stroke="#333333" stroke-width="0.35" stroke-linejoin="round" stroke-linecap="round" stroke-dasharray="2.4,1.4"/>
<path d="M 28.44 12.56 L 29.41 12.37 L 30.38 12.56 L 31.21 13.11 L 31.76 13.93 L 31.95 14.91 L 31.76 15.88 L 31.21 16.70 L 30.39 17.26 L 29.42 17.45 L 28.44 17.26 L 27.62 16.71 L 27.07 15.89 L 26.87 14.91 L 27.07 13.94 L 27.61 13.12 L 28.44 12.56 Z" fill="none" stroke="#333333" stroke-width="0.35" stroke-linejoin="round" stroke-linecap="round" stroke-dasharray="2.4,1.4"/>
</g>
<g class="arrow">
<line x1="81.17" y1="37.75" x2="85.67" y2="37.75" stroke="#000" stroke-width="0.6"/><polygon points="88.17,37.75 85.67,36.62 85.67,38.88" fill="#000"/>
<text x="84.67" y="79.80" font-family="Helvetica, Arial, sans-serif" font-size="2.80" text-anchor="middle" fill="#000">4.65 → 14.65 mm</text>
</g>
<g class="panel" id="after" transform="translate(89.67 0)">
<path d="M 52.34 6.00 L 52.34 31.50 L 27.34 31.50 L 27.34 6.00 L 52.34 6.00 Z" fill="#20b2aa" fill-rule="evenodd" fill-opacity="0.45" stroke="none"/>
<path d="M 6.74 50.80 L 6.44 49.66" fill="none" stroke="#000" stroke-width="0.5" stroke-linejoin="round" stroke-linecap="round"/>
<path d="M 22.69 8.43 L 23.96 6.01 L 25.36 6.01 L 25.83 6.15 L 26.35 6.67 L 26.70 8.24 L 27.25 9.06 L 27.84 9.51 L 28.79 9.80 L 50.88 9.80 L 51.83 9.51 L 52.60 8.88 L 53.06 8.01 L 53.27 6.78 L 53.64 6.29 L 53.95 6.10 L 54.32 6.01 L 55.68 6.00 L 57.00 8.45" fill="none" stroke="#000" stroke-width="0.5" stroke-linejoin="round" stroke-linecap="round"/>
<path d="M 46.92 67.39 L 46.72 67.40 L 46.72 64.75 L 46.40 64.40 L 46.39 60.49 L 46.25 60.01 L 45.84 59.56 L 45.50 59.39 L 45.13 59.34 L 36.56 59.34 L 36.19 59.39 L 35.86 59.55 L 35.44 60.01 L 35.29 60.49 L 35.29 63.27 L 35.50 63.86 L 35.96 64.27 L 36.43 64.41 L 40.62 64.42 L 41.95 65.76 L 41.95 68.83 L 41.76 68.88" fill="none" stroke="#000" stroke-width="0.5" stroke-linejoin="round" stroke-linecap="round"/>
<path d="M 73.24 49.67 L 72.93 50.83" fill="none" stroke="#000" stroke-width="0.5" stroke-linejoin="round" stroke-linecap="round"/>
<path d="M 48.47 16.71 L 47.92 15.89 L 47.72 14.91 L 47.92 13.94 L 48.46 13.12 L 49.29 12.56 L 50.26 12.37 L 51.23 12.56 L 52.06 13.11 L 52.61 13.93 L 52.80 14.91 L 52.61 15.88 L 52.06 16.70 L 51.24 17.26 L 50.27 17.45 L 49.29 17.26 L 48.47 16.71 Z" fill="none" stroke="#000" stroke-width="0.35" stroke-linejoin="round" stroke-linecap="round" stroke-dasharray="1.6,1.1"/>
<path d="M 49.29 30.34 L 50.26 30.15 L 51.23 30.34 L 52.06 30.89 L 52.61 31.71 L 52.80 32.69 L 52.61 33.66 L 52.06 34.48 L 51.24 35.04 L 50.27 35.23 L 49.29 35.04 L 48.47 34.49 L 47.92 33.67 L 47.72 32.69 L 47.92 31.72 L 48.46 30.90 L 49.29 30.34 Z" fill="none" stroke="#000" stroke-width="0.35" stroke-linejoin="round" stroke-linecap="round" stroke-dasharray="1.6,1.1"/>
<path d="M 23.96 21.89 L 24.91 24.05 L 25.93 25.81 L 26.02 26.40 L 25.93 26.83 L 25.63 27.32 L 24.79 28.07 L 23.98 29.05 L 23.37 30.19 L 22.95 31.35 L 22.55 31.79 L 21.88 32.06 L 19.88 32.34 L 19.06 32.55" fill="none" stroke="#000" stroke-width="0.35" stroke-linejoin="round" stroke-linecap="round" stroke-dasharray="1.6,1.1"/>
<path d="M 27.18 33.89 L 26.89 32.94 L 26.98 31.96 L 27.45 31.08 L 28.21 30.45 L 29.16 30.16 L 30.15 30.26 L 31.02 30.72 L 31.65 31.49 L 31.94 32.44 L 31.84 33.42 L 31.38 34.30 L 30.61 34.93 L 29.67 35.22 L 28.68 35.12 L 27.80 34.66 L 27.18 33.89 Z" fill="none" stroke="#000" stroke-width="0.35" stroke-linejoin="round" stroke-linecap="round" stroke-dasharray="1.6,1.1"/>
<path d="M 22.09 37.06 L 23.33 37.00 L 24.58 37.06 L 25.81 37.24 L 27.02 37.55 L 28.19 37.97 L 29.32 38.50 L 30.39 39.14 L 31.39 39.88 L 32.32 40.72 L 33.15 41.64 L 33.90 42.64 L 34.54 43.71 L 35.07 44.84 L 35.49 46.01 L 35.79 47.22 L 35.98 48.45 L 36.04 49.70 L 35.98 50.94 L 35.79 52.17 L 35.49 53.38 L 35.07 54.56 L 34.54 55.68 L 33.90 56.75 L 33.16 57.75 L 32.32 58.68 L 31.40 59.51 L 30.40 60.26 L 29.33 60.90 L 28.20 61.43 L 27.03 61.85 L 25.82 62.16 L 24.59 62.34 L 23.34 62.40 L 22.10 62.34 L 20.86 62.16 L 19.66 61.85 L 18.48 61.43 L 17.35 60.90 L 16.29 60.26 L 15.28 59.52 L 14.36 58.68 L 13.52 57.76 L 12.78 56.76 L 12.14 55.69 L 11.61 54.56 L 11.19 53.39 L 10.88 52.18 L 10.70 50.95 L 10.64 49.70 L 10.70 48.46 L 10.88 47.23 L 11.18 46.02 L 11.60 44.84 L 12.14 43.72 L 12.78 42.65 L 13.52 41.65 L 14.36 40.72 L 15.28 39.89 L 16.28 39.14 L 17.35 38.50 L 18.47 37.97 L 19.65 37.55 L 20.86 37.24 L 22.09 37.06 Z" fill="none" stroke="#000" stroke-width="0.35" stroke-linejoin="round" stroke-linecap="round" stroke-dasharray="1.6,1.1"/>
<path d="M 30.61 12.67 L 31.37 13.30 L 31.84 14.17 L 31.94 15.16 L 31.65 16.10 L 31.03 16.87 L 30.15 17.34 L 29.17 17.44 L 28.22 17.15 L 27.45 16.52 L 26.98 15.65 L 26.89 14.66 L 27.17 13.72 L 27.80 12.95 L 28.67 12.48 L 29.66 12.38 L 30.61 12.67 Z" fill="none" stroke="#000" stroke-width="0.35" stroke-linejoin="round" stroke-linecap="round" stroke-dasharray="1.6,1.1"/>
<path d="M 60.62 32.55 L 59.79 32.34 L 57.65 32.03 L 57.01 31.69 L 56.66 31.22 L 56.30 30.19 L 55.70 29.06 L 55.32 28.54 L 54.15 27.43 L 53.80 26.96 L 53.66 26.25 L 53.80 25.68 L 54.77 24.06 L 55.71 21.91" fill="none" stroke="#000" stroke-width="0.35" stroke-linejoin="round" stroke-linecap="round" stroke-dasharray="1.6,1.1"/>
<path d="M 53.86 37.24 L 55.09 37.06 L 56.33 37.00 L 57.58 37.06 L 58.81 37.24 L 60.02 37.55 L 61.19 37.97 L 62.32 38.50 L 63.39 39.14 L 64.39 39.88 L 65.32 40.72 L 66.15 41.64 L 66.90 42.64 L 67.54 43.71 L 68.07 44.84 L 68.49 46.01 L 68.79 47.22 L 68.98 48.45 L 69.04 49.70 L 68.98 50.94 L 68.79 52.17 L 68.49 53.38 L 68.07 54.56 L 67.54 55.68 L 66.90 56.75 L 66.16 57.75 L 65.32 58.68 L 64.40 59.51 L 63.40 60.26 L 62.33 60.90 L 61.20 61.43 L 60.03 61.85 L 58.82 62.16 L 57.59 62.34 L 56.34 62.40 L 55.10 62.34 L 53.86 62.16 L 52.66 61.85 L 51.48 61.43 L 50.35 60.90 L 49.29 60.26 L 48.28 59.52 L 47.36 58.68 L 46.52 57.76 L 45.78 56.76 L 45.14 55.69 L 44.61 54.56 L 44.19 53.39 L 43.88 52.18 L 43.70 50.95 L 43.64 49.70 L 43.70 48.46 L 43.88 47.23 L 44.18 46.02 L 44.60 44.84 L 45.14 43.72 L 45.78 42.65 L 46.52 41.65 L 47.36 40.72 L 48.28 39.89 L 49.28 39.14 L 50.35 38.50 L 51.47 37.97 L 52.65 37.55 L 53.86 37.24 Z" fill="none" stroke="#000" stroke-width="0.35" stroke-linejoin="round" stroke-linecap="round" stroke-dasharray="1.6,1.1"/>
<path d="M 23.57 6.76 L 23.98 6.00 L 25.35 6.01 L 25.83 6.15 L 26.21 6.46 L 26.40 6.78 L 26.61 8.01 L 27.08 8.88 L 27.84 9.51 L 28.79 9.80 L 50.63 9.81 L 51.61 9.62 L 52.24 9.23 L 52.60 8.88 L 53.06 8.01 L 53.27 6.78 L 53.64 6.29 L 53.96 6.10 L 54.32 6.01 L 55.71 6.01 L 56.12 6.78 L 56.05 6.83 L 55.86 6.65 L 55.79 6.68 L 55.75 7.56 L 55.52 9.11 L 55.13 10.63 L 54.59 12.14 L 54.59 16.09 L 54.52 17.52 L 54.31 18.95 L 53.96 20.36 L 53.47 21.72 L 52.85 23.03 L 52.11 24.27 L 51.24 25.44 L 50.27 26.51 L 49.20 27.48 L 48.04 28.34 L 46.79 29.09 L 45.48 29.71 L 44.12 30.20 L 42.72 30.55 L 41.28 30.76 L 39.84 30.83 L 38.39 30.76 L 36.96 30.55 L 35.55 30.19 L 34.19 29.71 L 32.88 29.09 L 31.64 28.34 L 30.48 27.48 L 29.40 26.51 L 28.43 25.44 L 27.57 24.27 L 26.82 23.03 L 26.21 21.72 L 25.72 20.35 L 25.37 18.95 L 25.15 17.52 L 25.08 16.08 L 25.08 12.14 L 24.54 10.63 L 24.16 9.11 L 23.93 7.56 L 23.89 6.69 L 23.81 6.65 L 23.62 6.83 L 23.57 6.76 Z" fill="none" stroke="#333333" stroke-width="0.35" stroke-linejoin="round" stroke-linecap="round" stroke-dasharray="2.4,1.4"/>
<path d="M 48.65 16.88 L 48.03 16.11 L 47.74 15.16 L 47.83 14.18 L 48.30 13.30 L 49.06 12.67 L 50.01 12.38 L 51.00 12.48 L 51.87 12.94 L 52.37 13.43 L 52.69 14.17 L 52.79 14.66 L 52.69 15.64 L 52.23 16.52 L 51.46 17.15 L 50.52 17.44 L 49.53 17.34 L 48.65 16.88 Z" fill="none" stroke="#333333" stroke-width="0.35" stroke-linejoin="round" stroke-linecap="round" stroke-dasharray="2.4,1.4"/>
<path d="M 30.38 12.56 L 31.21 13.11 L 31.76 13.93 L 31.95 14.91 L 31.76 15.88 L 31.21 16.70 L 30.39 17.26 L 29.42 17.45 L 28.44 17.26 L 27.62 16.71 L 27.07 15.89 L 26.87 14.91 L 27.07 13.94 L 27.61 13.12 L 28.44 12.56 L 29.41 12.37 L 30.38 12.56 Z" fill="none" stroke="#333333" stroke-width="0.35" stroke-linejoin="round" stroke-linecap="round" stroke-dasharray="2.4,1.4"/>
<path d="M 6.44 49.66 L 6.30 49.12 L 6.08 47.58 L 6.00 46.03 L 6.08 44.48 L 6.31 42.94 L 6.68 41.43 L 7.21 39.97 L 10.89 31.08 L 11.19 30.45 L 11.19 30.37 L 22.69 8.43" fill="none" stroke="#d81b1b" stroke-width="0.8" stroke-linecap="butt" stroke-linejoin="round" stroke-dasharray="3.5,1.2"/>
<path d="M 41.76 68.88 L 41.64 68.90 L 40.09 69.00 L 38.54 68.95 L 36.99 68.74 L 35.48 68.39 L 34.01 67.89 L 15.78 60.68 L 14.37 60.01 L 13.04 59.21 L 11.79 58.28 L 10.64 57.24 L 9.59 56.08 L 8.67 54.83 L 7.87 53.51 L 7.21 52.10 L 6.74 50.80" fill="none" stroke="#d81b1b" stroke-width="0.8" stroke-linecap="butt" stroke-linejoin="round" stroke-dasharray="3.5,1.2"/>
<path d="M 19.06 32.55 L 18.20 32.76 L 17.57 32.99 L 17.28 33.05 L 16.98 33.05 L 16.84 33.03 L 16.56 32.95 L 16.30 32.81 L 16.07 32.63 L 15.88 32.40 L 15.80 32.27 L 15.69 32.00 L 15.63 31.72 L 15.62 31.42 L 15.65 31.27 L 15.73 30.99 L 21.01 20.91 L 21.09 20.78 L 21.29 20.57 L 21.52 20.40 L 21.65 20.33 L 21.93 20.22 L 22.07 20.20 L 22.37 20.18 L 22.66 20.23 L 22.93 20.33 L 23.07 20.40 L 23.30 20.57 L 23.40 20.67 L 23.58 20.91 L 23.65 21.04 L 23.96 21.89" fill="none" stroke="#d81b1b" stroke-width="0.8" stroke-linecap="butt" stroke-linejoin="round" stroke-dasharray="3.5,1.2"/>
<path d="M 72.93 50.83 L 72.92 50.88 L 72.37 52.33 L 71.68 53.73 L 70.86 55.05 L 69.91 56.29 L 68.85 57.42 L 67.68 58.45 L 66.42 59.36 L 65.07 60.13 L 63.66 60.77 L 46.92 67.39" fill="none" stroke="#d81b1b" stroke-width="0.8" stroke-linecap="butt" stroke-linejoin="round" stroke-dasharray="3.5,1.2"/>
<path d="M 55.71 21.91 L 55.97 21.18 L 56.07 20.96 L 56.23 20.72 L 56.33 20.62 L 56.56 20.43 L 56.82 20.29 L 56.96 20.24 L 57.25 20.19 L 57.55 20.19 L 57.83 20.25 L 58.10 20.36 L 58.34 20.53 L 58.55 20.74 L 58.71 20.99 L 63.89 30.86 L 63.97 31.05 L 64.04 31.34 L 64.06 31.48 L 64.04 31.78 L 64.01 31.92 L 63.91 32.20 L 63.77 32.44 L 63.56 32.67 L 63.45 32.76 L 63.20 32.91 L 62.92 33.01 L 62.63 33.05 L 62.34 33.04 L 62.05 32.97 L 61.47 32.76 L 60.62 32.55" fill="none" stroke="#d81b1b" stroke-width="0.8" stroke-linecap="butt" stroke-linejoin="round" stroke-dasharray="3.5,1.2"/>
<path d="M 57.00 8.45 L 68.49 30.37 L 68.49 30.45 L 68.79 31.08 L 72.56 40.20 L 73.07 41.68 L 73.42 43.20 L 73.62 44.74 L 73.67 46.29 L 73.57 47.85 L 73.32 49.37 L 73.24 49.67" fill="none" stroke="#d81b1b" stroke-width="0.8" stroke-linecap="butt" stroke-linejoin="round" stroke-dasharray="3.5,1.2"/>
<circle cx="41.76" cy="68.88" r="1.3" fill="white" stroke="#d81b1b" stroke-width="0.35"/><text x="41.76" y="69.67" font-family="Helvetica, Arial, sans-serif" font-size="2.20" text-anchor="middle" fill="#d81b1b">2</text>
<circle cx="23.96" cy="21.89" r="1.3" fill="white" stroke="#d81b1b" stroke-width="0.35"/><text x="23.96" y="22.68" font-family="Helvetica, Arial, sans-serif" font-size="2.20" text-anchor="middle" fill="#d81b1b">1</text>
<circle cx="73.67" cy="46.29" r="1.3" fill="white" stroke="#d81b1b" stroke-width="0.35"/><text x="73.67" y="47.09" font-family="Helvetica, Arial, sans-serif" font-size="2.20" text-anchor="middle" fill="#d81b1b">2</text>
<circle cx="64.06" cy="31.48" r="1.3" fill="white" stroke="#d81b1b" stroke-width="0.35"/><text x="64.06" y="32.27" font-family="Helvetica, Arial, sans-serif" font-size="2.20" text-anchor="middle" fill="#d81b1b">1</text>
</g>
<g class="key">
<text x="172.35" y="4.60" font-family="Helvetica, Arial, sans-serif" font-size="2.60" text-anchor="start" fill="#000">1 wing openings</text>
<text x="172.35" y="8.60" font-family="Helvetica, Arial, sans-serif" font-size="2.60" text-anchor="start" fill="#000">2 body edge</text>
</g>
<g class="leaders">
<line x1="154.43" y1="30.38" x2="171.35" y2="3.69" stroke="#d81b1b" stroke-width="0.3"/>
<line x1="163.61" y1="45.02" x2="171.35" y2="7.69" stroke="#d81b1b" stroke-width="0.3"/>
</g>
</svg>
