<?xml version="1.0" encoding="UTF-8"?>
<svg xmlns="http://www.w3.org/2000/svg" width="68.55mm" height="44.74mm" viewBox="0 0 68.55 44.74" role="img">
<title>Bottom edge rounding</title>
<desc>Rounds or squares the edge where the body's bottom face meets its sides. Before: 0. After: 2.</desc>
<rect width="68.55" height="44.74" fill="white"/>
<text x="34.27" y="5.40" font-family="Helvetica, Arial, sans-serif" font-size="3.40" font-weight="bold" text-anchor="middle" fill="#000">custom_body_bottom_rounding</text>
<text x="34.27" y="9.65" font-family="Helvetica, Arial, sans-serif" font-size="3.40" text-anchor="middle" fill="#000">0 → 2</text>
<text x="34.27" y="13.90" font-family="Helvetica, Arial, sans-serif" font-size="3.40" text-anchor="middle" fill="#000">(size: Custom, section-y: 35)</text>
<path d="M 6.00 23.29 L 6.16 22.43 L 6.40 21.98 L 6.72 21.58 L 7.35 21.11 L 8.36 20.78 L 20.93 20.75 L 22.07 21.66 L 22.07 27.06 L 6.04 27.10 L 6.00 23.29 Z" fill="none" stroke="#000" stroke-width="0.5" stroke-linejoin="round" stroke-linecap="round"/>
<path d="M 59.91 20.75 L 60.71 20.89 L 61.42 21.24 L 62.00 21.77 L 62.38 22.43 L 62.54 23.17 L 62.51 27.09 L 46.48 27.07 L 46.48 21.66 L 47.60 20.75 L 59.91 20.75 Z" fill="none" stroke="#000" stroke-width="0.5" stroke-linejoin="round" stroke-linecap="round"/>
<path d="M 25.63 21.67 L 26.77 20.75 L 41.79 20.75 L 42.92 21.66 L 42.91 27.06 L 25.66 27.09 L 25.63 21.67 Z" fill="none" stroke="#000" stroke-width="0.5" stroke-linejoin="round" stroke-linecap="round"/>
<path d="M 6.00 25.10 L 6.13 25.77 L 6.56 26.44 L 7.06 26.81 L 7.86 27.08 L 22.07 27.10 L 6.00 27.10 L 6.00 25.10 Z" fill="#d81b1b" fill-rule="evenodd" fill-opacity="0.1" stroke="#d81b1b" stroke-width="0.45" stroke-linejoin="round" stroke-dasharray="1.2,0.9"/>
<path d="M 46.48 27.09 L 60.68 27.08 L 61.48 26.81 L 61.98 26.44 L 62.42 25.77 L 62.55 25.10 L 62.55 27.10 L 46.48 27.09 Z" fill="#d81b1b" fill-rule="evenodd" fill-opacity="0.1" stroke="#d81b1b" stroke-width="0.45" stroke-linejoin="round" stroke-dasharray="1.2,0.9"/>
<text x="34.27" y="36.70" font-family="Helvetica, Arial, sans-serif" font-size="2.60" text-anchor="middle" fill="#444444">black = the tool at its defaults;</text>
<text x="34.27" y="40.08" font-family="Helvetica, Arial, sans-serif" font-size="2.60" text-anchor="middle" fill="#444444">teal = the plug you measured;</text>
<text x="34.27" y="43.46" font-family="Helvetica, Arial, sans-serif" font-size="2.60" text-anchor="middle" fill="#444444">red dashed = what this dial moves</text>
</svg>
